/* XPM */
static char *result[] = {
/* columns rows colors chars-per-pixel */
"64 64 116 2 ",
"   c None",
".  c gray14",
"X  c #2F2F2F",
"o  c #313131",
"O  c #343434",
"+  c #393939",
"@  c #3A3A3A",
"#  c #3E3E3E",
"$  c #1C6B20",
"%  c #00792C",
"&  c #007A2E",
"*  c #794500",
"=  c #6D510D",
"-  c #005063",
";  c #005666",
":  c #005864",
">  c #005C6A",
",  c #005B70",
"<  c #285A61",
"1  c #414141",
"2  c #494949",
"3  c gray29",
"4  c #535353",
"5  c #555555",
"6  c #5A5A5A",
"7  c #5F5F5F",
"8  c #7A5A73",
"9  c #7D5E76",
"0  c #5F777D",
"q  c #646464",
"w  c #6A6A6A",
"e  c #706B79",
"r  c #706D78",
"t  c #627377",
"y  c #657679",
"u  c #6A777C",
"i  c gray44",
"p  c #767676",
"a  c #777777",
"s  c gray49",
"d  c #AE2200",
"f  c #AE2400",
"g  c #AA2D00",
"h  c #AC2F00",
"j  c #B02700",
"k  c #A03300",
"l  c #A73100",
"z  c #A03600",
"x  c #A03700",
"c  c #A53400",
"v  c #A73400",
"b  c #AA3200",
"n  c #AB3200",
"m  c #AD3000",
"M  c #AD3200",
"N  c #AA3400",
"B  c #A93700",
"V  c #A03C00",
"C  c #AA3900",
"Z  c #AF3F00",
"A  c #B43100",
"S  c #B13500",
"D  c #B53600",
"F  c #B73600",
"G  c #B13900",
"H  c #AE3B1B",
"J  c #864300",
"K  c #874A0D",
"L  c #A64000",
"P  c #A74700",
"I  c #AA4000",
"U  c #A0410D",
"Y  c #B74900",
"T  c #B14E00",
"R  c #A0451F",
"E  c #AE411B",
"W  c #AA461E",
"Q  c #A04D1F",
"!  c #AD6A00",
"~  c #B76A00",
"^  c #A0611F",
"/  c #A0671F",
"(  c #A06C1F",
")  c #A04A22",
"_  c #A05124",
"`  c #A05528",
"'  c #A06722",
"]  c #A06B22",
"[  c #A06D25",
"{  c #CC4500",
"}  c #008133",
"|  c #008233",
" . c #008635",
".. c #008736",
"X. c #00B936",
"o. c #00B13E",
"O. c #00BB3C",
"+. c #00B047",
"@. c #00BA48",
"#. c #00B94E",
"$. c #00A651",
"%. c #00B158",
"&. c #4B7F89",
"*. c #597B82",
"=. c #597D82",
"-. c #5A7E87",
";. c #7F7D86",
":. c #8F6D88",
">. c #788689",
",. c #7C8789",
"<. c #7C8A8D",
"1. c gray51",
"2. c #848484",
"3. c #868686",
"4. c gray53",
"5. c #8B8B8B",
/* pixels */
"                                                                                                                                ",
"                                                                                                                                ",
"                                                        5 5 5 5 5 5 5 5 5 5                                                     ",
"                                                        5 5 5 5 5 5 5 5 5 5                                                     ",
"                                                        5 5 5 5 5 2 2 2 2 5                                                     ",
"                                              5 5 5 5 5 5 5 5 5 2 5.2.2.2.5.5 5 5 5 5                                           ",
"                                              5 5 5 5 5 2 2 2 2 @ 4.1.1.1.4.@ 2 2 2 5                                           ",
"                                        5 5 5 5 5 5 5 2 5.2.2.2.4.q w w w q 4.2.2.2.5.5 5 5                                     ",
"                                        5 5 5 5 5 5 2 @ 4.1.1.1.3.w i i i w 3.1.1.1.4.@ 2 5                                     ",
"                                    5 5 5 5 5 5 5 2 5.4.q w w w w i i i i i w w w w q 4.2.5.5 5                                 ",
"                                    5 5 5 5 5 5 5 2 2.1.w i i i i i i i i i i i i i w 1.s 2.2 5                                 ",
"                                    5 5 5 5 5 5 5 2 2.1.w i i i i i i i i i i i i i w 1.s 2.2 5                                 ",
"                                    5 5 5 5 5 5 5 2 2.1.w i i i i i i i i i i i i i w 1.s 2.2 5                                 ",
"                                    5 5 5 5 5 5 5 2 2.1.w i i i i i i i i i i i i i w 1.s 2.2 5                                 ",
"                      5 5 5 5 5 5 5 5 5 5 5 5 5 5 2 2.1.w i i i i i i i i i i i i i w 1.s 2.2 5 5 5 5 5 5 5 5                   ",
"                      5 5 5 5 5 5 5 2 2 2 2 2 2 2 @ 4.3.w i i i i i i i i i i i i i w 3.1.4.@ 2 2 2 2 2 2 5 5                   ",
"                      5 5 5 5 5 5 2 5.2.2.2.2.2.2.4.q w i i i i i i i i i i i i i i i w w q 4.2.2.2.2.2.5.2 5                   ",
"                      5 5 5 5 5 5 2 2.s s s s s s 1.w i i i i i i i i i i i i i i i i i i w 1.s s s s s 2.2 5                   ",
"                      5 5 5 5 5 5 2 2.s 1.1.1.1.1.3.w i i i i i i i i i i i i i i i i i i w 3.1.1.1.1.s 2.2 5                   ",
"                      5 5 5 5 5 5 2 2.1.q w w w w w i i i i i i i i i i i i i i i i i i i i w w w w q 1.2.2 5                   ",
"                      5 5 5 5 5 5 2 2.1.w i i i i i i i i i i i i i i i i i i i i i i i i i i i i i w 1.2.2 5                   ",
"                      5 5 5 5 5 5 2 2.1.w i i i i i i i i i i i i i i i i i i i i i i i i i i i i i w 1.2.2 5                   ",
"                      5 5 5 5 5 5 2 2.1.w i i i i i i i i i i i i i i i i i i i i i i i i i i i i i w 1.2.2 5                   ",
"                      5 5 5 5 5 5 2 2.1.w i i i i i i i i i i p p p p a a a a a a i i i i i i i i i w 1.2.2 5                   ",
"                      5 5 5 5 5 5 2 2.1.w i i i i i i i i i p . O O X 4 3 3 3 # # a i i i i i i i i w 1.2.2 5                   ",
"                      5 5 5 5 5 5 2 2.1.w i i i i i i i i i p O 1 + o 6 5 5 5 3 3 a i i i i i i i i w 1.2.2 5                   ",
"                      5 5 5 5 5 5 2 2.1.w i i i i i i i i i p O + 7 6 5 5 5 5 3 3 a i i i i i i i i w 1.2.2 5                   ",
"                      5 5 5 5 5 5 2 2.1.w i i i i i i i i i p O + 7 6 6 6 6 6 4 4 a i i i i i i i i w 1.2.2 5                   ",
"                      5 5 5 5 5 5 2 2.1.w i i i i i i i i i p O 1 + + + + + + X X p i i i i i i i i w 1.2.2 5                   ",
"                      5 5 5 5 5 5 2 2.1.w i i i i i i i i i p O 1 1 1 1 1 1 1 O O p i i i i i i i i w 1.2.2 5                   ",
"                      5 5 5 5 5 5 2 2.1.w i i i i i i i i i p . O O O O O O O . . p i i i i i i i i w 1.2.2 5                   ",
"                      5 5 5 5 5 5 2 2.1.w i i i i i i i i i i p p p p p p p p p p i i i i i i i i i w 1.2.2 5                   ",
"                      5 5 5 5 5 5 2 2.1.w i i i i i i i i i i p p p p p p p p p p i i i i i i i i i w 1.2.2 5                   ",
"                      5 5 5 5 5 5 2 2.1.w i i a a a a a a a a a a i i a a a a a a a a a a a a a i i w 1.2.2 5                   ",
"                      5 5 5 5 5 5 2 2.1.w i a # # 3 3 3 3 3 3 3 # a a # 3 3 3 3 3 3 3 3 3 3 3 # a i w 1.2.2 5                   ",
"                      5 5 5 5 5 5 2 2.1.w i a # # 3 3 3 3 3 3 3 # a a # 3 3 3 3 3 3 3 3 3 3 3 # a i w 1.2.2 5                   ",
"                      5 5 5 5 5 5 2 2.1.w i i a a a a a a a a a a i i a a a a a a a a a a a a a i i w 1.2.2 5                   ",
"                      5 5 5 5 5 5 2 2.1.w i i i i i i i i i i i i i i i i i i i i i i i i i i i i i w 1.2.2 5                   ",
"                      5 5 5 5 5 5 2 2.1.w i i a a a a a a a a a a a a i i i a a a a a i i i a a i i w 1.2.2 5                   ",
"                      5 5 5 5 5 5 2 2.1.w i a # # 3 3 3 3 3 3 3 3 3 # a i a # 3 3 3 # a i a # # a i w 1.2.2 5                   ",
"                      5 5 5 5 5 5 2 2.1.w i a # # 3 3 3 3 3 3 3 3 3 # a i a # 3 3 3 # a i a # # a i w 1.2.2 5                   ",
"                      5 5 5 5 5 5 2 2.1.w i i a a a a a a a a a a a a i i i a a a a a i i i a a i i w 1.2.2 5                   ",
"                      5 5 5 5 5 5 2 2.1.w i i a a a a a i i i a a a a a a a i i i a a a a a a a i i w 1.2.2 5                   ",
"                      5 5 5 5 5 5 2 2.1.w i a # # 3 3 # a i a # 3 3 3 3 3 # a a a # 3 3 3 3 3 # a i w 1.2.2 5                   ",
"                      5 5 5 5 5 5 2 2.1.w i a 3 3 5 5 3 a i a 3 5 5 5 5 5 3 a a a 3 5 5 5 5 5 3 a i w 1.2.2 5                   ",
"                      5 5 5 5 5 5 2 2.1.w i a # # 3 3 # a i a # 3 3 3 3 3 # a a a # 3 3 3 3 3 # a i w 1.2.2 5                   ",
"                      5 5 5 5 5 5 2 2.1.w i i a a a a a i i i a a a a a a a i i i a a a a a a a i i w 1.2.2 5                   ",
"                      5 5 5 5 5 5 2 2.1.w i i a a a a a a a a i i a a a a a a a a a a i i i a a i i w 1.2.2 5                   ",
"                      5 5 5 5 5 5 2 2.1.w i a # # 3 3 3 3 3 # a a # 3 3 3 3 3 3 3 3 # a i a # # a i w 1.2.2 5                   ",
"                      5 5 5 5 5 5 2 2.1.w i a # # 3 3 3 3 3 # a a # 3 3 3 3 3 3 3 3 # a i a # # a i w 1.2.2 5                   ",
"                      5 5 5 5 5 5 2 2.1.w i i a a a a a a a a i i a a a a a a a a a a i i i a a i i w 1.2.2 5                   ",
"                      5 5 5 5 5 5 2 2.1.w i i i i i i i i i i i i i i i i i i i i i i i i i i i i i w 1.2.2 5                   ",
"                      5 5 5 5 5 5 2 2.1.w i i i i i i i i i i i i i i i i i i i i i i i i i 9 9 i i w 1.2.2 5                   ",
"                      5 5 5 5 5 5 2 2.1.w i i i i i i i i i i i i i i i i i i i i i i i i 9 O.O.9 i w 1.2.2 5                   ",
"                      5 5 5 5 5 5 2 2.1.8 9 9 i i i 0 0 0 0 0 i i i i i i i i i i i i y y r #.#.e 0 t >.<.2 5                   ",
"                      5 5 5 5 5 5 2 2.:.X.+.O.9 9 0 A I I I A 0 i i i i i i i i i i y f v j & % D I I L Z : 5                   ",
"                      5 5 5 5 5 5 2 2.:.o.$.+.9 9 0 I Q Q Q I 0 i i i i i i i i i i y v U N } | E Q Q Q Y : 5                   ",
"                      5 : 5 5 5 5 2 ,.;.@.%.#.e e &.C R _ _ P &.0 i i i i i y y y 0 *.l V b .. .H R R _ T , 5                   ",
"                  Q Q Y { : 5 5 5 < h d & $ % D D C ( ] k V z P A 0 i i i y f l l P I _ _ ` b g ] / ] k z T T U U U U           ",
"                  Q _ Q Y > < < - ; F M ..}  .W W ) ( ] x U V ` P -.u y y =.v V V ) R _ _ ` z k [ ' [ c B ` ` V V U U           ",
"          U U U U V z _ _ S G m ! ~ * = M N N V V z ) ) V U U V B J J n v v U x x ] ] k V z ` ` k x c = = B V U U U U U U       ",
"          U U U U U U Q Q U U U ^ ^ K K U U U U U U Q Q U U U U U K K U U U U U U ^ ^ U U U Q Q U U U K K U U U U U U U U       ",
"                                                                                                                                ",
"                                                                                                                                "
};
