/* XPM */
static char *result[] = {
/* columns rows colors chars-per-pixel */
"64 64 114 2 ",
"   c #1B121C",
".  c #171B1B",
"X  c #1B1B1B",
"o  c #22151D",
"O  c #28171E",
"+  c #241B1C",
"@  c #2C1A1F",
"#  c #331C1F",
"$  c #361C21",
"%  c #391F21",
"&  c #262626",
"*  c #3C2122",
"=  c #3C2927",
"-  c #431C22",
";  c #491C23",
":  c #561C27",
">  c #5A1C26",
",  c #5E1C28",
"<  c #611E24",
"1  c #6E1D27",
"2  c #621C28",
"3  c #6B1D29",
"4  c #741D29",
"5  c #7B1E29",
"6  c #432323",
"7  c #492524",
"8  c #502725",
"9  c #542926",
"0  c #5A2A27",
"q  c #5D2C28",
"w  c #78252C",
"e  c #64342A",
"r  c #6C3C2A",
"t  c #851E2B",
"y  c #8A1E2B",
"u  c #911F2C",
"i  c #83252C",
"p  c #97202C",
"a  c #9C202D",
"s  c #A1202D",
"d  c #AD222E",
"f  c #C42430",
"g  c #C82430",
"h  c #926B37",
"j  c #A27D3B",
"k  c #CE7D19",
"l  c #FFA214",
"z  c #FFAA17",
"x  c #FCA219",
"c  c #FFAA18",
"v  c #FFB21B",
"b  c #FFB91D",
"n  c #F8A423",
"m  c #F3A52D",
"M  c #FCB220",
"N  c #FFB926",
"B  c #F7B52C",
"V  c #FFB929",
"C  c #E3AB33",
"Z  c #ECA63C",
"A  c #F4AF30",
"S  c #F3B836",
"D  c #FFC91F",
"F  c #FFC623",
"G  c #FFC824",
"H  c #FDC42F",
"J  c #FDC82A",
"K  c #EAC63F",
"L  c #FFC030",
"P  c #FFCE33",
"I  c #F3C53C",
"U  c #FFCD3B",
"Y  c #FFD93C",
"T  c #DEAA5B",
"R  c #E8A846",
"E  c #ECB743",
"W  c #E9B74A",
"Q  c #FBB24C",
"!  c #E0AA57",
"~  c #E1BF5E",
"^  c #FBB557",
"/  c #D7AC6A",
"(  c #CEAD7D",
")  c #D2AD75",
"_  c #D1BC7E",
"`  c #FABA67",
"'  c #DFC64E",
"]  c #ECC449",
"[  c #FFDD43",
"{  c #E5C156",
"}  c #E3C05B",
"|  c #EBCA5C",
" . c #F1D75B",
".. c #FFE44D",
"X. c #FFE650",
"o. c #FFEC56",
"O. c #FFEC58",
"+. c #DECA74",
"@. c #E0C060",
"#. c #E0C96E",
"$. c #EADC71",
"%. c #E0D57F",
"&. c #BBB3A6",
"*. c #B7B4AF",
"=. c #BAB5A9",
"-. c #B4B4B5",
";. c #B1B3B9",
":. c #C6AF8D",
">. c #C7B28D",
",. c #C6B892",
"<. c #D2CB8E",
"1. c #DBD184",
"2. c #F6CBA2",
"3. c None",
/* pixels */
"3.3.3.3.3.3.3.3.3.3.3.3.3.3.3.3.3.3.3.3.3.3.3.3.3.3.3.3.3.3.3.3.3.3.3.3.3.3.3.3.3.3.3.3.3.3.3.3.3.3.3.3.3.3.3.3.3.3.3.3.3.3.3.3.",
"3.3.3.3.3.3.3.3.3.3.3.3.3.3.3.3.3.3.3.3.3.3.3.3.3.3.3.3.3.3.3.3.3.3.3.3.3.3.3.3.3.3.3.3.3.3.3.3.3.3.3.3.3.3.3.3.3.3.3.3.3.3.3.3.",
"3.3.3.3.3.3.3.3.3.3.3.3.3.3.3.3.3.3.3.3.y y t s f f f 3.3.3.3.3.3.3.3.3.3.3.3.3.3.3.3.3.3.3.3.3.3.3.3.3.3.3.3.3.3.3.3.3.3.3.3.3.",
"3.3.3.3.3.3.3.3.3.3.3.3.3.3.3.3.3.3.3.3.y y y s f f f f 3.3.3.3.3.3.3.3.3.3.3.3.3.3.3.3.3.3.3.3.3.3.3.3.3.3.3.3.3.3.3.3.3.3.3.3.",
"3.3.3.3.3.3.3.3.3.3.3.3.3.3.3.3.3.3.y y y y y u p d f f 3.3.3.3.3.3.3.3.3.3.3.3.3.3.3.3.3.3.3.3.3.3.3.3.l 3.3.3.3.3.3.3.3.3.3.3.",
"3.3.3.3.3.3.3.3.3.3.3.3.3.3.3.3.3.3.y y y y y t t s f f 3.3.3.3.3.3.3.3.3.3.3.3.3.3.3.3.3.3.3.3.3.3.3.3.l l 3.3.3.3.3.3.3.3.3.3.",
"3.3.3.3.3.3.3.3.3.3.3.3.3.3.3.3.3.3.y y y 1 ; ; ; : > < 3.3.3.3.3.3.3.3.3.3.3.3.3.3.3.3.3.3.3.3.3.3.l l l l 3.3.3.3.3.3.3.3.3.3.",
"3.3.3.3.3.3.3.3.3.3.3.3.3.3.3.3.3.3.y y y > . X X X . . 3.3.3.3.3.3.3.3.3.3.3.3.3.3.3.3.3.3.3.3.3.3.l l l l 3.3.3.3.3.3.3.3.3.3.",
"3.3.3.3.3.3.3.3.3.3.3.3.3.3.3.3.3.3.y 5 : # X X X X X 3.3.3.3.3.3.3.3.3.3.3.3.3.3.3.3.3.3.3.3.3.3.3.l l l l 3.3.3.3.3.3.3.3.3.3.",
"3.3.3.3.3.3.3.3.3.3.3.3.3.3.3.3.3.3.y < X X X X X X 3.3.3.3.3.3.3.3.3.3.3.3.3.3.3.3.3.3.3.3.3.3.3.3.l l l l l l l l 3.3.3.3.3.3.",
"3.3.3.3.3.3.3.3.3.3.3.3.3.3.3.3.3.3.y > X X X X X X 3.3.3.3.3.3.3.3.3.3.3.3.3.3.3.3.3.3.3.3.3.3.3.3.l l l z v z l l 3.3.3.3.3.3.",
"3.3.3.3.3.3.3.3.3.3.X X 3.3.3.3.3.3.y < X X X X X X 3.3.3.3.3.3.3.3.3.3.3.3.3.3.3.3.3.3.3.3.3.3.3.3.l l l v G b l l 3.3.3.3.3.3.",
"3.3.3.3.3.3.3.3.3.X X X 3.3.3.3.3.3.y < # @ X X X 3.3.3.3.3.3.3.3.3.3.3.3.3.3.3.3.3.3.3.3.3.3.3.3.3.l l z B ] E Z Z 3.3.3.3.3.3.",
"3.3.3.3.3.3.3.3.X X X X X X 3.3.3.3.3.3.i t 3.3.3.3.3.3.3.3.3.3.3.3.3.3.3.3.3.3.3.3.3.3.3.3.3.3.3.3.l v F @.*.*.=.-.3.3.3.3.3.3.",
"3.3.3.3.3.3.3.3.X X X X X 3.3.3.3.3.3.3.y y 3.3.3.3.3.3.3.3.3.3.3.3.3.3.3.3.3.3.3.3.3.3.3.3.3.3.3.c c b G } -.-.-.&.3.3.3.3.3.3.",
"3.3.3.3.3.3.3.3.X X X X 3.3.3.3.3.3.3.3.y y y > X X X X X . . < f f 3.3.3.3.3.3.3.3.3.3.3.3.3.3.l c F F G @.-.-.;.) l l 3.3.3.3.",
"3.3.3.3.3.3.3.3.X X X X 3.3.3.3.3.3.3.3.t t y 2 + + . X X + + < f f 3.3.3.3.3.3.3.3.3.3.3.3.3.3.l v F J G } =.=.=./ l l 3.3.3.3.",
"3.3.3.3.3.3.3.3.3.3.3.3.3.3.X 3.3.3.: > , 4 y t 5 : . X . - 5 p f f 3.3.& 3.3.3.3.3.3.3.3.3.l l l v G F G J I S m n l l 3.3.3.3.",
"3.3.3.3.3.3.3.3.3.3.3.3.3.3.X X 3.3.: > : 3 t y y 2 X + X ; y s f f 3.3.& & 3.3.3.3.3.3.3.3.l l x M J J G G G v l l l l 3.3.3.3.",
"3.3.3.3.X 3.3.3.3.3.3.3.3.3.X X X $ : : : > 2 4 y 5 3 3 3 5 y s f f f w & = & & & 3.3.3.3.3.l R >.>.,.+...Y G b l l 3.3.3.3.3.3.",
"3.3.3.3.X X 3.3.3.3.3.3.3.3.X X   $ : : : : : 3 t y y y y y y s f f f i & & & & & & 3.3.3.3.l ! ;.-.;.<.O...D b l l 3.3.3.3.3.3.",
"3.3.X X X X 3.3.3.3.3.3.3.3.X X X $ : : : : : , 3 3 3 4 y y y u a d g i & & & & & & 3.3.2.^ l A ] >.;.<.o.....| ( T l 3.3.3.3.3.",
"3.3.X X X X 3.3.3.3.3.3.3.3.X X X $ , : : : > : : : : 3 y y y y i s f i & & & & & & 3.3.2.` l b G } ;.<.o.o.o.%.;.) l l 3.3.3.3.",
"3.3.3.X X X 3.3.3.3.3.3.3.3.X X . O $ $ $ $ $ - : : : 2 4 3 3 4 3.3.3.3.3.& & & 3.3.3.3.3.Q l V Y  .1.$.o...Y #.;.>.3.3.3.3.3.3.",
"3.3.3.3.X X 3.3.3.3.3.3.3.3.X X X X X X X X X @ : > : : : : : : 3.3.3.3.3.3.& & 3.3.3.3.3.3.l V O.O.o.o.O.[ G @.-.-.3.3.3.3.3.3.",
"3.3.3.3.X 3.3.3.3.3.3.3.3.3.X X X X X X X X X $ : : : : , : : 3.3.3.3.3.3.3.& 3.3.3.3.3.3.3.l V U [ O...[ P b W -.3.3.3.3.3.3.3.",
"3.3.3.3.3.3.3.3.3.3.3.3.3.3.3.3.X X X X 3.3.3.3.3.3.3.3.3.3.3.3.3.3.3.3.3.3.3.3.3.3.3.3.3.3.3.3.l L O.[ F b l l 3.3.3.3.3.3.3.3.",
"3.3.3.3.3.3.3.3.3.3.3.3.3.3.3.3.X X X X 3.3.3.3.3.3.3.3.3.3.3.3.3.3.3.3.3.3.3.3.3.3.3.3.3.3.3.3.k C O.[ G b l 3.3.3.3.3.3.3.3.3.",
"3.3.3.3.3.3.3.3.3.3.3.3.3.3.3.3.X X X X X X X X X $ , % X X X X 3.3.3.3.3.3.3.3.3.3.3.3.3.3.3.3.q j O.[ G G 3.3.3.3.3.3.3.3.3.3.",
"3.3.3.3.3.3.3.3.3.3.3.3.3.3.3.3.X X X X X X X X X @ ; $ X X X X 3.3.3.3.3.3.3.3.3.3.3.3.3.3.3.3.0 h ' K G 3.3.3.3.3.3.3.3.3.3.3.",
"3.3.3.3.3.3.3.3.3.3.3.3.3.3.3.3.X X X X X X X X X X X + X X X X & & 3.3.3.3.3.3.3.3.3.3.3.3.3.3.q e e r 3.3.3.3.3.3.3.3.3.3.3.3.",
"3.3.3.3.3.3.3.3.3.3.3.3.3.3.3.3.X X X X X X X X X X X X X X + & & & 3.3.3.3.3.3.3.3.3.3.3.3.3.3.0 0 q q 3.3.3.3.3.3.3.3.3.3.3.3.",
"3.3.3.3.3.3.3.3.3.3.3.3.3.3.X X X X X X X X X X & & & & & & & & & & 3.3.3.3.3.3.3.3.3.3.3.3.% * = - 3.3.3.3.3.3.3.3.3.3.3.3.3.3.",
"3.3.3.3.3.3.3.3.3.3.3.3.3.3.X X X X X X X X X X & & & & & & & & & & 3.3.3.3.3.3.3.3.3.3.3.3.% % $ % 3.3.3.3.3.3.3.3.3.3.3.3.3.3.",
"3.3.3.3.3.3.3.3.3.3.3.3.3.3.3.X X X X X X X X & & & & & & = & & 3.3.3.3.3.3.3.3.3.3.3.3.3.3.% % % % 3.3.3.3.3.3.3.3.3.3.3.3.3.3.",
"3.3.3.3.3.3.3.3.3.3.3.3.3.3.3.3.X X X X X X . & & & & & & & & & 3.3.3.3.3.3.3.3.3.3.3.3.3.3.% % % % 3.3.3.3.3.3.3.3.3.3.3.3.3.3.",
"3.3.3.3.3.3.3.3.3.3.3.3.3.3.3.3.3.X X X X X X X & & & & & & & & 3.3.3.3.3.3.3.3.3.3.3.3.% % * % 3.3.3.3.3.3.3.3.3.3.3.3.3.3.3.3.",
"3.3.3.3.3.3.3.3.3.3.3.3.3.3.3.3.3.3.X X X X X X X & & & & & & & 3.3.3.3.3.3.3.3.3.3.3.3.% % % % 3.3.3.3.3.3.3.3.3.3.3.3.3.3.3.3.",
"3.3.3.3.3.3.3.3.3.3.3.3.3.3.3.3.3.3.3.X X X X X . . & & & & & & 3.3.3.3.3.3.3.3.3.3.3.3.% % % % 3.3.3.3.3.3.3.3.3.3.3.3.3.3.3.3.",
"3.3.3.3.3.3.3.3.3.3.3.3.3.3.3.3.3.3.3.3.X X X X . & & & & & & & 3.3.3.3.3.3.3.3.3.3.3.3.% % % % 3.3.3.3.3.3.3.3.3.3.3.3.3.3.3.3.",
"3.3.3.3.3.3.3.3.3.3.3.3.3.3.3.3.3.3.3.3.X X X X . & & & & & & = 3.3.3.3.3.3.3.3.3.3.3.3.% % % 3.3.3.3.3.3.3.3.3.3.3.3.3.3.3.3.3.",
"3.3.3.3.3.3.3.3.3.3.3.3.3.3.3.3.3.3.3.3.3.3.3.3.3.3.3.3.3.3.3.3.e e q q 3.3.3.3.3.3.3.3.% % 3.3.3.3.3.3.3.3.3.3.3.3.3.3.3.3.3.3.",
"3.3.3.3.3.3.3.3.3.3.3.3.3.3.3.3.3.3.3.3.3.3.3.3.3.3.3.3.3.3.3.0 8 0 q q 3.3.3.3.3.3.3.% % % 3.3.3.3.3.3.3.3.3.3.3.3.3.3.3.3.3.3.",
"3.3.3.3.3.3.3.3.3.3.3.3.3.3.3.3.3.3.3.3.3.3.3.3.3.3.3.3.* 7 q 7 % 7 q q q q 3.3.3.3.% % % % 3.3.3.3.3.3.3.3.3.3.3.3.3.3.3.3.3.3.",
"3.3.3.3.3.3.3.3.3.3.3.3.3.3.3.3.3.3.3.3.3.3.3.3.3.3.3.3.% 6 9 7 % 6 9 0 q q 3.3.3.3.* % % 3.3.3.3.3.3.3.3.3.3.3.3.3.3.3.3.3.3.3.",
"3.3.3.3.3.3.3.3.3.3.3.3.3.3.3.3.        3.3.  @ % % 3.3.% % * % % % % 7 q q 3.3.3.3.% % 3.3.3.3.3.3.3.3.3.3.3.3.3.3.3.3.3.3.3.3.",
"3.3.3.3.3.3.3.3.3.3.3.3.3.3.3.o o o   o 3.3.o @ % % 3.3.% % % % % % % 7 q q 3.3.3.3.% 3.3.3.3.3.3.3.3.3.3.3.3.3.3.3.3.3.3.3.3.3.",
"3.3.3.3.3.3.3.3.3.3.3.3.3.3.  O % $ * $ 3.3.$ $ % % 3.3.3.3.% % % % % 7 q q 3.3.3.3.3.3.3.3.3.3.3.3.3.3.3.3.3.3.3.3.3.3.3.3.3.3.",
"3.3.3.3.3.3.3.3.3.3.3.3.3.3.  @ * $ * * 3.3.% % % % 3.3.3.3.% $ $ $ $ 7 q q 3.3.3.3.3.3.3.3.3.3.3.3.3.3.3.3.3.3.3.3.3.3.3.3.3.3.",
"3.3.3.3.3.3.3.3.3.3.3.3.  O $ $ * $ $ * 3.3.% % % % % 3.3.3.o o o   o O 3.3.3.3.3.3.3.3.3.3.3.3.3.3.3.3.3.3.3.3.3.3.3.3.3.3.3.3.",
"3.3.3.3.3.3.3.3.3.3.3.3.  O * $ * * $ * 3.3.% % * $ * $ 3.3.    o       3.3.3.3.3.3.3.3.3.3.3.3.3.3.3.3.3.3.3.3.3.3.3.3.3.3.3.3.",
"3.3.3.3.3.3.3.3.3.3.3.3.  o * * $ * 3.3.3.3.3.% * * 3.3.3.3.3.3.3.3.3.3.3.3.3.3.3.3.3.3.3.3.3.3.3.3.3.3.3.3.3.3.3.3.3.3.3.3.3.3.",
"3.3.3.3.3.3.3.3.3.3.3.3.  O * $ % % 3.3.3.3.3.3.$ * 3.3.3.3.3.3.3.3.3.3.3.3.3.3.3.3.3.3.3.3.3.3.3.3.3.3.3.3.3.3.3.3.3.3.3.3.3.3.",
"3.3.3.3.3.3.3.3.3.3.3.3.  O * * % % 3.3.3.3.3.3.3.3.3.3.3.3.3.3.3.3.3.3.3.3.3.3.3.3.3.3.3.3.3.3.3.3.3.3.3.3.3.3.3.3.3.3.3.3.3.3.",
"3.3.3.3.3.3.3.3.3.3.3.3.  + $ * % % 3.3.3.3.3.3.3.3.3.3.3.3.3.3.3.3.3.3.3.3.3.3.3.3.3.3.3.3.3.3.3.3.3.3.3.3.3.3.3.3.3.3.3.3.3.3.",
"3.3.3.3.3.3.3.3.3.3.3.3.3.@ * $ % % 3.3.3.3.3.3.3.3.3.3.3.3.3.3.  O % 3.3.3.3.3.3.3.3.3.3.3.3.3.3.3.3.3.3.3.3.3.3.3.3.3.3.3.3.3.",
"3.3.3.3.3.3.3.3.3.3.3.3.3.3.% % % % 3.3.3.3.3.3.3.3.3.3.3.3.3.3.  O % % 3.3.3.3.3.3.3.3.3.3.3.3.3.3.3.3.3.3.3.3.3.3.3.3.3.3.3.3.",
"3.3.3.3.3.3.3.3.3.3.3.3.3.3.% % % 3.3.3.3.3.3.3.3.3.3.3.3.3.3.3.  O @ # 3.3.3.3.3.3.3.3.3.3.3.3.3.3.3.3.3.3.3.3.3.3.3.3.3.3.3.3.",
"3.3.3.3.3.3.3.3.3.3.3.3.3.3.3.3.3.3.3.3.3.3.3.3.3.3.3.3.3.3.3.3.3.3.  O $ 7 q q 3.3.3.3.3.3.3.3.3.3.3.3.3.3.3.3.3.3.3.3.3.3.3.3.",
"3.3.3.3.3.3.3.3.3.3.3.3.3.3.3.3.3.3.3.3.3.3.3.3.3.3.3.3.3.3.3.3.3.3.  O * 6 9 9 3.3.3.3.3.3.3.3.3.3.3.3.3.3.3.3.3.3.3.3.3.3.3.3.",
"3.3.3.3.3.3.3.3.3.3.3.3.3.3.3.3.3.3.3.3.3.3.3.3.3.3.3.3.3.3.3.3.3.3.  O $ * * $ 3.3.3.3.3.3.3.3.3.3.3.3.3.3.3.3.3.3.3.3.3.3.3.3.",
"3.3.3.3.3.3.3.3.3.3.3.3.3.3.3.3.3.3.3.3.3.3.3.3.3.3.3.3.3.3.3.3.3.3.  O * $ * 3.3.3.3.3.3.3.3.3.3.3.3.3.3.3.3.3.3.3.3.3.3.3.3.3.",
"3.3.3.3.3.3.3.3.3.3.3.3.% % % % 3.3.3.3.3.3.3.3.3.3.3.3.3.3.3.3.3.3.  O * $ 3.3.3.3.3.3.3.3.3.3.3.3.3.3.3.3.3.3.3.3.3.3.3.3.3.3.",
"3.3.3.3.3.3.3.3.3.3.3.3.% % % % 3.3.3.3.3.3.3.3.3.3.3.3.3.3.3.3.3.3.  @ $ * 3.3.3.3.3.3.3.3.3.3.3.3.3.3.3.3.3.3.3.3.3.3.3.3.3.3."
};
