/* XPM */
static char *result[] = {
/* columns rows colors chars-per-pixel */
"64 64 182 2 ",
"   c #1B121C",
".  c #1C121C",
"X  c #181B1B",
"o  c #191B1B",
"O  c #1A1B1B",
"+  c #1B1B1B",
"@  c #1C1B1B",
"#  c gray11",
"$  c #1D1D1D",
"%  c gray12",
"&  c #21141D",
"*  c #23151D",
"=  c #26171E",
"-  c #28171E",
";  c #231B1C",
":  c #241B1C",
">  c #251B1C",
",  c #261B1D",
"<  c #29181E",
"1  c #2C1B1D",
"2  c #2C191F",
"3  c #2C1B1E",
"4  c #361C1F",
"5  c #341B20",
"6  c #341D20",
"7  c #3B1C20",
"8  c #381F21",
"9  c #391F21",
"0  c #3A1F21",
"q  c #3C1C20",
"w  c #3F1C22",
"e  c #202020",
"r  c gray13",
"t  c #232323",
"y  c gray15",
"u  c #272727",
"i  c #3C2022",
"p  c #3E2122",
"a  c #451C21",
"s  c #461C24",
"d  c #491C22",
"f  c #4E1C22",
"g  c #561D24",
"h  c #551C27",
"j  c #561C27",
"k  c #571C27",
"l  c #5B1D24",
"z  c #591C27",
"x  c #5A1C27",
"c  c #5C1D24",
"v  c #5C1C27",
"b  c #5E1C28",
"n  c #601D25",
"m  c #631D25",
"M  c #691D26",
"N  c #6E1D27",
"B  c #631C28",
"V  c #691D28",
"C  c #6A1D28",
"Z  c #6B1D29",
"A  c #6E1D29",
"S  c #6F1D29",
"D  c #701D29",
"F  c #731D29",
"G  c #771E28",
"H  c #781E28",
"J  c #7F1E2A",
"K  c #432223",
"L  c #452423",
"P  c #482424",
"I  c #482524",
"U  c #502726",
"Y  c #542926",
"T  c #572A27",
"R  c #5B2927",
"E  c #592B27",
"W  c #5D2C28",
"Q  c #5E2C28",
"!  c #5F2F29",
"~  c #62322A",
"^  c #663629",
"/  c #811E2A",
"(  c #821E2A",
")  c #851E2A",
"_  c #841E2B",
"`  c #851E2B",
"'  c #871E2B",
"]  c #881E2B",
"[  c #891E2B",
"{  c #8A1E2B",
"}  c #8B1E2B",
"|  c #8C1E2B",
" . c #8F6737",
".. c #A17C3C",
"X. c #C5761A",
"o. c #FFA111",
"O. c #FFA211",
"+. c #FFA112",
"@. c #FFA113",
"#. c #FFA212",
"$. c #FFA213",
"%. c #FFA214",
"&. c #FFA314",
"*. c #FFA315",
"=. c #FCA319",
"-. c #FBA31C",
";. c #FAA31F",
":. c #FFB11A",
">. c #FFB61A",
",. c #FFB81D",
"<. c #DDA734",
"1. c #F6A427",
"2. c #F2A52F",
"3. c #F6AF2D",
"4. c #FFBC20",
"5. c #FFC920",
"6. c #FFC821",
"7. c #FFC824",
"8. c #FFC825",
"9. c #FFC12F",
"0. c #E5C03E",
"q. c #FFC030",
"w. c #FFCC31",
"e. c #FFC837",
"r. c #FFCD3B",
"t. c #FFCE3C",
"y. c #FFD738",
"u. c #FFD33E",
"i. c #D7BD4C",
"p. c #DCAA5F",
"a. c #E5A84B",
"s. c #E4A94E",
"d. c #E2A952",
"f. c #E1AA55",
"g. c #E0A956",
"h. c #E0B55B",
"j. c #D8AB67",
"k. c #D2AD73",
"l. c #D2AD74",
"z. c #D1AD77",
"x. c #D3BC79",
"c. c #E9C24E",
"v. c #FFD643",
"b. c #FFD744",
"n. c #FFDB40",
"m. c #FFDD41",
"M. c #FFDC42",
"N. c #FFDD42",
"B. c #FFDE42",
"V. c #FFDE43",
"C. c #EDC551",
"Z. c #E1C05E",
"A. c #F2D95B",
"S. c #FFE44D",
"D. c #FFEC57",
"F. c #FFED57",
"G. c #FFEC58",
"H. c #FFED59",
"J. c #FFEE59",
"K. c #FFF059",
"L. c #DFD47F",
"P. c #E0C061",
"I. c #EDD561",
"U. c #BDB2A1",
"Y. c #BCB2A2",
"T. c #BBB2A4",
"R. c #BAB3A7",
"E. c #B4B4B3",
"W. c #B5B4B3",
"Q. c #B2B2B7",
"!. c #B2B3B7",
"~. c #B3B4B5",
"^. c #B3B4B6",
"/. c #B4B4B4",
"(. c #B4B4B5",
"). c #B2B5B9",
"_. c #B1B5BB",
"`. c #C8AF89",
"'. c #C2B196",
"]. c #D3C286",
"[. c #D3CB8F",
"{. c None",
/* pixels */
"{.{.{.{.{.{.{.{.{.{.{.{.{.{.{.{.{.{.{.{.{.{.{.{.{.{.{.{.{.{.{.{.{.{.{.{.{.{.{.{.{.{.{.{.{.{.{.{.{.{.{.{.{.{.{.{.{.{.{.{.{.{.{.{.",
"{.{.{.{.{.{.{.{.{.{.{.{.{.{.{.{.{.{.{.{.{.{.{.{.{.{.{.{.{.{.{.{.{.{.{.{.{.{.{.{.{.{.{.{.{.{.{.{.{.{.{.{.{.{.{.{.{.{.{.{.{.{.{.{.",
"{.{.{.{.{.{.{.{.{.{.{.{.{.{.{.{.{.{.[ [ [ [ [ [ [ {.{.{.{.{.{.{.{.{.{.{.{.{.{.{.{.{.{.{.{.{.{.{.{.{.{.{.{.{.{.{.{.{.{.{.{.{.{.{.",
"{.{.{.{.{.{.{.{.{.{.{.{.{.{.{.{.{.{.[ [ [ ] ' ' ' ' {.{.{.{.{.{.{.{.{.{.{.{.{.{.{.{.{.{.{.{.{.{.{.{.{.{.{.{.{.{.{.{.{.{.{.{.{.{.",
"{.{.{.{.{.{.{.{.{.{.{.{.{.{.{.{.[ [ [ [ { M 7 q q q {.{.{.{.{.{.{.{.{.{.{.{.{.{.{.{.{.{.{.{.{.{.{.{.{.{.{.{.{.{.{.{.{.{.{.{.{.{.",
"{.{.{.{.{.{.{.{.{.{.{.{.{.{.{.{.[ [ [ [ | l X o o o {.{.{.{.{.{.{.{.{.{.{.{.{.{.{.{.{.{.{.{.{.{.{.{.{.{.{.{.{.{.{.{.{.{.{.{.{.{.",
"{.{.{.{.{.{.+ + + {.{.{.{.{.{.{.[ [ { N d 4 + + {.{.{.{.{.{.{.{.{.{.{.{.{.{.{.{.{.{.{.{.{.{.{.{.{.{.{.{.{.{.{.{.{.{.{.{.{.{.{.{.",
"{.{.{.{.{.{.+ + + + {.{.{.{.{.{.[ [ } l X O + + {.{.{.{.{.{.{.{.{.{.{.{.{.{.{.{.{.{.{.{.{.{.{.{.{.{.{.{.{.{.{.{.{.{.{.{.{.{.{.{.",
"{.{.{.{.{.{.+ + + {.{.{.{.{.{.{.[ [ } c O + + {.{.{.{.{.{.{.{.{.{.{.{.{.{.{.{.{.{.{.{.{.{.{.{.{.{.{.{.{.{.{.{.{.{.{.{.{.{.{.{.{.",
"{.{.{.{.{.{.+ + {.{.{.{.{.{.{.{.{.{.} c O + {.{.{.{.{.{.{.{.{.{.{.{.{.{.{.{.{.{.{.{.{.{.{.{.{.{.{.{.{.{.%.%.{.{.{.{.{.{.{.{.{.{.",
"{.{.{.{.{.{.+ + {.{.{.{.{.{.{.{.{.{.} c O {.{.{.{.{.{.{.{.{.{.{.{.{.{.{.{.{.{.{.{.{.{.{.{.{.{.{.{.{.{.{.%.%.{.{.{.{.{.{.{.{.{.{.",
"{.{.{.{.{.{.{.{.+ + {.{.{.{.{.{.{.{.{.{.{.{.{.{.{.{.{.{.{.{.{.{.{.{.{.{.u u {.{.{.{.{.{.{.{.{.{.{.{.{.{.%.%.{.{.{.{.{.{.{.{.{.{.",
"{.{.{.{.{.{.{.{.+ {.{.{.{.{.{.{.{.{.{.{.{.{.{.{.{.{.{.{.{.{.{.{.{.{.{.u u u {.{.{.{.{.{.{.{.{.{.{.{.{.{.%.%.{.{.{.{.{.{.{.{.{.{.",
"{.{.{.{.{.{.{.{.{.{.{.{.{.{.{.{.{.{.{.{.{ [ } l o O + + + O {.{.{.{.u u u u {.{.{.{.{.{.{.{.{.{.{.{.{.{.%.%.%.%.{.{.{.{.{.{.{.{.",
"{.{.{.{.{.{.{.{.{.{.{.{.{.{.{.{.{.{.{.{./ _ } m 1 > + + + , {.{.{.{.u u u u {.{.{.{.{.{.{.{.{.{.{.{.{.{.%.%.%.%.{.{.{.{.{.{.{.{.",
"{.{.{.{.{.{.{.{.{.{.{.{.{.{.+ + {.{.{.{.x A { ) / g O O o a { [ {.{.u u u u {.{.{.{.{.{.{.{.{.{.%.%.{.{.%.%.%.%.{.{.{.{.{.{.{.{.",
"{.{.{.{.{.{.{.{.{.{.{.{.{.{.+ + {.{.{.{.j C ` ' } n : : ; f { [ {.{.u u u u {.{.{.{.{.{.{.{.{.{.%.%.{.{.%.%.%.%.{.{.{.{.{.{.{.{.",
"+ {.{.{.{.{.{.{.{.{.{.{.+ + + + {.{.{.{.k x b D { ( H H G J [ [ {.{.{.{.{.{.{.{.{.{.{.{.{.{.{.{.%.%.{.{.%.%.%.%.{.{.%.{.{.{.{.{.",
"+ + {.{.{.{.{.{.{.{.{.{.+ + + + {.{.{.{.k k j Z ] ] ] [ { { [ [ {.{.{.{.{.{.{.{.{.{.{.{.{.{.{.{.%.%.{.{.%.%.%.%.{.{.%.%.{.{.{.{.",
"{.{.+ {.{.{.{.{.{.{.{.{.+ + + + + {.{.{.{.k k v B B B F [ [ [ [ {.{.{.{.{.{.{.{.{.{.{.{.{.{.%.%.%.%.{.{.%.%.%.%.{.{.%.%.%.{.{.{.",
"{.{.+ + {.{.{.{.{.{.{.{.+ + + + + + {.{.{.{.k k j j h Z [ [ [ [ {.{.{.{.{.{.{.{.{.{.{.{.{.{.%.%.%.%.{.{.%.%.%.%.{.{.%.%.%.%.{.{.",
"{.{.{.{.{.{.{.{.{.{.{.{.{.+ + + {.{.{.{.{.{.{.k k k k b V S {.{.{.{.{.{.{.{.{.{.{.{.{.{.{.{.%.%.%.%.{.{.%.%.%.%.{.{.%.%.%.%.{.{.",
"{.{.{.{.{.{.{.{.{.{.{.{.{.{.+ + {.{.{.{.{.{.{.{.k k k k j h {.{.{.{.{.{.{.{.{.{.{.{.{.{.{.{.%.%.%.%.{.{.%.%.%.%.{.{.%.%.%.%.{.{.",
"{.{.{.{.{.{.{.{.{.{.{.{.{.{.{.{.{.{.{.{.{.{.{.{.{.{.{.{.{.{.{.{.{.{.{.{.{.{.{.{.{.{.{.{.{.{.%.%.%.%.{.{.%.%.%.%.%.%.%.%.{.{.{.{.",
"{.{.{.{.{.{.{.{.{.{.{.{.{.{.{.{.{.{.{.{.{.{.{.{.{.{.{.{.{.{.{.{.{.{.{.{.{.{.{.{.{.{.{.{.{.{.%.%.%.%.{.{.%.%.%.$.O.O.O.O.{.{.{.{.",
"{.{.{.{.{.{.{.{.{.{.{.{.{.{.{.{.{.{.{.{.{.{.{.{.{.{.{.{.{.{.{.{.{.{.{.{.{.{.{.{.{.{.{.{.{.{.%.%.%.%.{.{.%.%.$.2.g.g.g.g.{.{.{.{.",
"{.{.{.{.{.{.{.{.{.{.{.{.{.{.+ + + + {.{.{.{.+ + O 5 z w + + + + {.{.{.{.{.{.{.{.{.{.{.{.{.{.%.%.%.%.{.{.{.{.O.g.^.~.~.~.{.{.{.{.",
"{.{.{.{.{.{.{.{.{.{.{.{.{.{.+ + + + {.{.{.+ + + O 3 s 5 + + + $ {.{.{.{.{.{.{.{.{.{.{.{.{.{.%.%.%.%.{.{.{.{.O.g.(./././.{.{.{.{.",
"{.{.{.{.{.{.{.{.{.{.{.{.{.{.+ + + + {.{.+ + + + + + @ + + + + e u u {.{.{.{.{.{.{.{.{.{.{.{.{.{.{.{.%.%.{.{.O.g.(./././.{.{.{.{.",
"{.{.{.{.{.{.{.{.{.{.{.{.{.{.+ + + {.{.{.+ + + # $ $ $ $ $ $ $ r u {.{.{.{.{.{.{.{.{.{.{.{.{.{.{.{.{.%.%.{.%.O.g.(./././.{.{.{.{.",
"{.{.{.{.{.{.{.{.{.{.{.{.{.{.+ + {.{.{.{.+ + + e y y y y y y y y {.{.{.{.{.{.{.{.{.{.{.{.{.{.{.{.{.{.$.$.%.%.O.g.^.~.~.~.{.{.{.{.",
"{.{.{.{.{.{.{.{.{.{.{.{.{.{.+ + {.{.{.{.+ + + % y y u u u u u u {.{.{.{.{.{.{.{.{.{.{.{.{.{.{.{.{.{.1.;.%.%.O.s.Y.U.U.U.{.{.{.{.",
"{.{.{.{.{.{.{.{.{.{.{.{.{.{.{.{.{.{.{.{.{.{.+ # # r u u u u u u {.{.{.{.{.{.{.{.{.{.{.{.{.{.{.{.O.d.T.j.#.%.%.-.1.1.1.1.{.{.{.{.",
"{.{.{.{.{.{.{.{.{.{.{.{.{.{.{.{.{.{.{.{.{.{.+ + + e u u u u u u {.{.{.{.{.{.{.{.{.{.{.{.{.{.{.{.O.g.).z.-.=.%.$.$.$.$.$.{.{.{.{.",
"{.{.{.{.{.{.{.{.{.{.{.{.{.{.{.{.{.{.{.{.{.{.{.+ + e u u u u u u {.{.{.{.{.{.{.{.{.{.{.{.{.{.{.{.O.g.^.R.'.p.$.%.%.%.{.{.{.{.{.{.",
"{.{.{.{.{.{.{.{.{.{.{.{.{.{.{.{.{.{.{.{.{.{.{.{.+ e u u u u u u {.{.{.{.{.{.{.{.{.{.{.{.{.{.{.{.O.f.W.E.).l.&.*.%.%.{.{.{.{.{.{.",
"{.{.{.{.{.{.{.{.{.{.{.{.{.{.{.{.{.{.{.{.{.{.{.{.{.t u u u u {.{.{.{.{.{.{.{.{.{.{.{.{.{.{.{.{.{.@.3.c.x.!.].v.q.%.%.%.{.{.{.{.{.",
"{.{.{.{.{.{.{.{.{.{.{.{.{.{.{.{.{.{.{.{.{.{.{.{.{.{.u u u u {.{.{.{.{.{.{.{.{.{.{.{.{.{.{.{.{.{.@.:.5.Z.Q.[.J.t.+.$.%.%.{.{.{.{.",
"{.{.{.{.{.{.{.{.{.{.{.{.{.{.{.{.{.{.{.{.{.{.{.{.{.{.{.{.{.{.{.{.{.{.{.{.{.{.{.{.{.{.{.{.{.{.{.{.r.u.m.A.L.I.y.C.l.a.$.%.{.{.{.{.",
"{.{.{.{.{.{.{.{.{.{.{.{.{.{.{.{.{.{.{.{.{.{.{.{.{.{.{.{.{.{.{.{.{.{.{.{.{.{.{.{.{.{.{.{.{.{.{.{.J.H.G.D.F.B.6.P._.k.$.%.{.{.{.{.",
"{.{.{.{.{.{.{.{.{.{.{.{.{.{.{.{.{.{.{.{.{.{.{.{.{.{.{.{.{.{.{.{.{.{.{.{.{.{.{.{.{.{.{.{.{.{.{.{.e.b.G.S.n.w.>.h.^.`.#.{.{.{.{.{.",
"{.{.{.{.{.{.{.{.{.{.{.{.{.{.    {.{.{.{.  - 9 9 {.{.{.{.{.{.8 P Q W W W {.{.{.{.{.{.{.{.{.{.{.{.#.9.G.M.7.,.o.g.(.~.{.{.{.{.{.{.",
"{.{.{.{.{.{.{.{.{.{.{.{.{.* = = {.{.{.{.= 2 9 {.{.{.{.{.{.9 9 K U Y W {.{.{.{.{.{.{.{.{.{.{.{.{.X.<.G.N.8.4.o.g.(.{.{.{.{.{.{.{.",
"{.{.{.{.{.{.{.{.{.{.{.{.  - 9 9 {.{.{.{.9 9 {.{.{.{.{.{.9 9 9 9 9 9 {.{.{.{.{.{.{.{.{.{.{.{.{.{.R ..K.V.8.8.{.{.{.{.{.{.{.{.{.{.",
"{.{.{.{.{.{.{.{.{.{.{.& * 2 9 9 {.{.{.{.9 {.{.{.{.{.{.{.9 9 9 9 9 {.{.{.{.{.{.{.{.{.{.{.{.{.{.Y R  .i.0.8.{.{.{.{.{.{.{.{.{.{.{.",
"{.{.{.{.{.{.{.{.{.{.  - 8 8 9 9 9 9 {.{.{.{.{.{.{.{.{.{.9 9 9 9 {.{.{.{.{.{.{.{.{.{.{.{.{.{.8 I Q ! ~ ^ {.{.{.{.{.{.{.{.{.{.{.{.",
"{.{.{.{.{.{.{.{.{.{.  - 9 9 9 9 9 {.{.{.{.{.{.{.{.{.{.{.9 9 9 {.{.{.{.{.{.{.{.{.{.{.{.{.{.9 8 L T E W {.{.{.{.{.{.{.{.{.{.{.{.{.",
"{.{.{.{.{.{.{.{.{.{.  - 9 9 9 9 {.{.{.{.{.{.{.{.{.{.{.{.{.{.{.{.{.{.{.{.{.{.{.{.{.{.{.{.9 9 9 0 i p {.{.{.{.{.{.{.{.{.{.{.{.{.{.",
"{.{.{.{.{.{.{.{.{.{.  < 9 9 9 9 {.{.{.{.{.{.{.{.{.{.{.{.{.{.{.{.{.{.{.{.{.{.{.{.{.{.{.{.9 9 9 9 9 9 {.{.{.{.{.{.{.{.{.{.{.{.{.{.",
"{.{.{.{.{.{.{.{.{.{.{.6 9 9 9 9 {.{.{.{.{.{.{.{.{.{.{.{.{.{.{.{.{.{.{.{.{.{.{.{.{.{.9 9 9 9 9 9 {.{.{.{.{.{.{.{.{.{.{.{.{.{.{.{.",
"{.{.{.{.{.{.{.{.{.{.{.{.9 9 9 9 {.{.{.{.{.{.{.{.{.{.{.{.{.{.{.{.{.{.{.{.{.{.{.{.{.{.9 9 9 9 9 9 {.{.{.{.{.{.{.{.{.{.{.{.{.{.{.{.",
"{.{.{.{.{.{.{.{.{.{.{.{.{.{.{.{.{.{.{.{.{.{.{.{.{.{.{.{.{.{.  - 9 {.{.{.{.{.{.{.{.{.9 9 9 9 {.{.{.{.{.{.{.{.{.{.{.{.{.{.{.{.{.{.",
"{.{.{.{.{.{.{.{.{.{.{.{.{.{.{.{.{.{.{.{.{.{.{.{.{.{.{.{.{.{.  - 9 9 {.{.{.{.{.{.{.{.9 9 9 9 {.{.{.{.{.{.{.{.{.{.{.{.{.{.{.{.{.{.",
"{.{.{.{.{.{.{.{.{.{.{.{.{.{.{.{.{.{.{.{.{.{.{.{.{.{.{.{.{.{.{.* = 2 9 {.{.{.{.{.9 9 9 9 {.{.{.{.{.{.{.{.{.{.{.{.{.{.{.{.{.{.{.{.",
"{.{.{.{.{.{.{.{.{.{.{.{.{.{.{.{.{.{.{.{.{.{.{.{.{.{.{.{.{.{.{.{.  - 9 9 {.{.{.{.9 9 9 9 {.{.{.{.{.{.{.{.{.{.{.{.{.{.{.{.{.{.{.{.",
"{.{.{.{.{.{.{.{.{.{.9 {.{.{.{.{.{.{.{.{.{.{.{.{.{.{.{.{.{.{.{.{.. * {.{.{.{.{.{.9 9 {.{.{.{.{.{.{.{.{.{.{.{.{.{.{.{.{.{.{.{.{.{.",
"{.{.{.{.{.{.{.{.{.{.9 9 {.{.{.{.{.{.{.{.{.{.{.{.{.{.{.{.{.{.{.{.. . {.{.{.{.{.{.9 9 {.{.{.{.{.{.{.{.{.{.{.{.{.{.{.{.{.{.{.{.{.{.",
"{.{.{.{.{.{.{.{.{.{.9 {.{.{.{.{.{.{.{.{.{.{.{.{.{.{.{.{.{.{.{.{.. {.{.{.{.{.{.{.9 {.{.{.{.{.{.{.{.{.{.{.{.{.{.{.{.{.{.{.{.{.{.{.",
"{.{.{.{.{.{.{.{.{.{.{.{.{.{.{.{.{.{.{.{.{.{.{.{.{.{.{.{.{.{.{.{.{.{.{.{.{.{.{.{.{.{.{.{.{.{.{.{.{.{.{.{.{.{.{.{.{.{.{.{.{.{.{.{.",
"{.{.{.{.{.{.{.{.{.{.{.{.{.{.{.{.{.{.{.{.{.{.{.{.{.{.{.{.{.{.{.{.{.{.{.{.{.{.{.{.{.{.{.{.{.{.{.{.{.{.{.{.{.{.{.{.{.{.{.{.{.{.{.{.",
"{.{.{.{.{.{.{.{.{.{.{.{.{.{.{.{.{.{.{.{.{.{.{.{.{.{.{.{.{.{.{.{.{.{.{.{.{.{.{.{.{.{.{.{.{.{.{.{.{.{.{.{.{.{.{.{.{.{.{.{.{.{.{.{.",
"{.{.{.{.{.{.{.{.{.{.{.{.{.{.{.{.{.{.{.{.{.{.{.{.{.{.{.{.{.{.{.{.{.{.{.{.{.{.{.{.{.{.{.{.{.{.{.{.{.{.{.{.{.{.{.{.{.{.{.{.{.{.{.{.",
"{.{.{.{.{.{.{.{.{.{.{.{.{.{.{.{.{.{.{.{.{.{.{.{.{.{.{.{.{.{.{.{.{.{.{.{.{.{.{.{.{.{.{.{.{.{.{.{.{.{.{.{.{.{.{.{.{.{.{.{.{.{.{.{.",
"{.{.{.{.{.{.{.{.{.{.{.{.{.{.{.{.{.{.{.{.{.{.{.{.{.{.{.{.{.{.{.{.{.{.{.{.{.{.{.{.{.{.{.{.{.{.{.{.{.{.{.{.{.{.{.{.{.{.{.{.{.{.{.{."
};
