/* XPM */
static char *result[] = {
/* columns rows colors chars-per-pixel */
"64 64 169 2 ",
"   c #1C121C",
".  c #1F131D",
"X  c #1F141D",
"o  c #191B1B",
"O  c #1A1B1B",
"+  c #1B1B1B",
"@  c #1D1B1B",
"#  c gray11",
"$  c #221B1C",
"%  c #271B1D",
"&  c #291B1E",
"*  c #2C191F",
"=  c #361E20",
"-  c #381F21",
";  c #391F21",
":  c #3A1F21",
">  c #232323",
",  c #252525",
"<  c #242527",
"1  c #252527",
"2  c #252627",
"3  c #262627",
"4  c #272727",
"5  c #282726",
"6  c #282727",
"7  c #2B2925",
"8  c #2A2B28",
"9  c #3B2021",
"0  c #3C2022",
"q  c #3A3527",
"w  c #3F3525",
"e  c #3D3827",
"r  c #34332A",
"t  c #3E3A2B",
"y  c #3D3B37",
"u  c #4E1C22",
"i  c #4E1C25",
"p  c #501C26",
"a  c #551C27",
"s  c #561C27",
"d  c #591D24",
"f  c #5C1C27",
"g  c #621C28",
"h  c #671D28",
"j  c #7C1E29",
"k  c #432223",
"l  c #462424",
"z  c #532926",
"x  c #572A27",
"c  c #5A2B27",
"v  c #5A2A28",
"b  c #5B2A28",
"n  c #5D2C28",
"m  c #5E2C28",
"M  c #4C3126",
"N  c #4D3327",
"B  c #413A27",
"V  c #403D2D",
"C  c #4D4327",
"Z  c #534827",
"A  c #524E31",
"S  c #6D6635",
"D  c #831E2A",
"F  c #831E2B",
"G  c #841E2B",
"H  c #871E2B",
"J  c #891E2B",
"K  c #8A1E2B",
"L  c #8B1E2B",
"P  c #877E3C",
"I  c #A87727",
"U  c #B78226",
"Y  c #B89325",
"T  c #D98A18",
"R  c #E6971A",
"E  c #FFA211",
"W  c #FFA112",
"Q  c #FFA212",
"!  c #FFA213",
"~  c #FFA313",
"^  c #FFA612",
"/  c #FFA114",
"(  c #FFA214",
")  c #FEA215",
"_  c #FFA614",
"`  c #FFA617",
"'  c #FDA319",
"]  c #FFA618",
"[  c #FFA718",
"{  c #FBA31C",
"}  c #FBA31D",
"|  c #FAA31E",
" . c #FBA31E",
".. c #FFA91A",
"X. c #FFAA1B",
"o. c #DDAF25",
"O. c #D1A328",
"+. c #F7A324",
"@. c #F7A424",
"#. c #F7A425",
"$. c #F7A426",
"%. c #F6A427",
"&. c #F8A423",
"*. c #F6A428",
"=. c #F4A52C",
"-. c #E9B825",
";. c #EAA637",
":. c #EFA636",
">. c #EDA63B",
",. c #F7C325",
"<. c #FFC723",
"1. c #FFC525",
"2. c #FFCA25",
"3. c #FFCA27",
"4. c #FBC52B",
"5. c #FBC72D",
"6. c #FFCD2B",
"7. c #F4C539",
"8. c #F4C53A",
"9. c #9D9145",
"0. c #DEAA5A",
"q. c #DCAA5F",
"w. c #DEAE5C",
"e. c #E9A945",
"r. c #DBAB60",
"t. c #D7AC6A",
"y. c #D5AC6E",
"u. c #D1B867",
"i. c #D4AC70",
"p. c #E5C746",
"a. c #EBD349",
"s. c #FFD644",
"d. c #FFDC46",
"f. c #FFDD4B",
"g. c #FFDE4A",
"h. c #E0CF51",
"j. c #FFE54C",
"k. c #FFE44D",
"l. c #FCE450",
"z. c #DFC064",
"x. c #BFB19D",
"c. c #A5A3A1",
"v. c #BDB2A1",
"b. c #BCB2A3",
"n. c #BFB6A1",
"m. c #BBB2A4",
"M. c #BBB2A5",
"N. c #BAB2A7",
"B. c #BBB7A7",
"V. c #B6B3AF",
"C. c #B9B3AA",
"Z. c #B8B3AB",
"A. c #B6B4B0",
"S. c #B4B4B3",
"D. c #B5B5B3",
"F. c #B3B4B5",
"G. c #B3B4B6",
"H. c #B3B4B7",
"J. c #B4B4B4",
"K. c #B4B4B5",
"L. c #B2B4B8",
"P. c #CAAF85",
"I. c #C8AF8A",
"U. c #CAB789",
"Y. c #C1B097",
"T. c #C2B196",
"R. c #C0B19B",
"E. c #C3B998",
"W. c None",
/* pixels */
"W.W.W.W.W.W.W.W.W.W.W.W.W.W.W.W.W.W.W.W.W.W.W.W.W.W.W.W.W.W.W.W.W.W.W.W.W.W.W.W.W.W.W.W.W.W.W.W.W.W.W.W.W.W.W.W.W.W.W.W.W.W.W.W.",
"W.W.W.W.W.W.W.W.W.W.W.W.W.W.W.W.W.W.W.W.W.W.W.W.W.W.W.W.W.W.W.W.W.W.W.W.W.W.W.W.W.W.W.W.W.W.W.W.W.W.W.W.W.W.W.W.W.W.W.W.W.W.W.W.",
"+ W.W.W.W.W.W.W.W.W.W.W.J W.W.W.W.W.W.W.W.W.W.W.W.W.W.W.W.W.W.W.W.W.W.W.W.W.W.W.W.W.W.W.W.W.W.W.W.W.W.W.W.W.W.W.W.W.W.W.W.W.W.W.",
"+ W.W.W.W.W.W.W.W.W.W.W.J W.W.W.W.W.W.W.W.W.W.W.W.W.W.W.W.W.W.W.W.W.W.W.W.W.W.W.W.W.W.W.W.W.W.W.W.W.W.W.W.W.W.W.W.W.W.W.W.W.W.W.",
"W.W.W.W.W.W.W.W.W.W.W.W.W.W.W.W.W.W.W.W.W.W.W.4 4 W.W.W.W.W.W.W.W.W.W.W.W.W.W.W.W.W.W.W.W.W.W.W.W.W.W.W.W.W.W.W.W.W.W.W.W.W.W.W.",
"W.W.W.W.W.W.W.W.W.W.W.W.W.W.W.W.W.W.W.W.W.W.W.4 4 W.W.W.W.W.W.W.W.W.W.W.W.W.W.W.W.W.W.W.W.W.W.W.W.W.W.W.W.W.W.W.W.W.W.W.W.W.W.W.",
"W.W.W.W.W.W.W.W.W.W.W.W.W.W.W.W.W.W.W.W.W.W.W.W.W.W.W.W.W.W.W.W.W.W.W.W.W.W.W.W.W.W.W.W.W.W.W.W.W.W.W.W.W.W.W.W.W.W.W.W.W.W.W.W.",
"W.W.W.W.W.W.W.W.W.W.W.W.W.W.W.W.W.W.W.W.W.W.W.W.W.W.W.W.W.W.W.W.W.W.W.W.W.W.W.W.W.W.W.W.W.W.W.W.W.W.W.W.W.W.W.W.W.W.W.W.W.W.W.W.",
"W.W.W.W.W.+ W.W.W.W.W.W.W.W.W.W.W.+ + + W.W.W.W.W.W.W.W.W.W.W.W.W.W.W.W.W.W.W.W.W.W.W.W.W.W.W.W.W.W.W.W.W.W.W.W.W.W.W.W.W.W.W.W.",
"W.W.W.W.W.+ W.W.W.W.W.W.W.W.W.W.% + + + W.W.W.W.W.W.W.W.W.W.W.W.W.W.W.W.W.W.W.W.W.W.W.W.W.W.W.W.W.W.W.W.W.W.W.W.W.W.W.W.W.W.W.W.",
"W.W.W.W.W.+ W.W.W.W.W.W.W.J J L u o W.W.W.W.W.W.W.W.W.W.W.W.W.W.W.W.W.W.W.W.W.W.W.W.W.W.W.W.W.W.W.W.W.W.W.W.W.W.W.W.W.W.W.W.W.W.",
"W.W.W.W.W.+ W.W.W.W.W.W.W.F G K d % W.W.W.W.W.W.W.W.W.W.W.W.W.W.W.W.W.W.W.W.W.W.W.W.W.W.W.W.W.W.W.W.W.W.W.W.W.W.W.W.W.W.W.W.W.W.",
"W.W.W.W.W.W.W.W.W.W.W.W.W.f h H D j W.W.W.W.W.W.W.W.W.W.W.W.W.W.W.W.W.W.W.W.W.W.W.W.W.W.W.W.W.W.W.W.( ( W.W.W.W.W.W.W.W.W.W.W.W.",
"W.W.W.W.W.W.W.W.W.W.W.W.W.s g H K K W.W.W.W.W.W.W.W.W.W.W.W.W.W.W.W.W.W.W.W.W.W.W.W.W.W.W.W.W.W.W.W.( ( W.W.W.W.W.W.W.W.W.W.W.W.",
"W.W.W.W.W.W.W.W.W.W.W.W.W.W.W.W.W.W.W.W.W.W.W.W.W.W.W.W.W.W.W.W.W.W.W.W.W.W.W.W.W.W.W.W.W.W.W.W.W.W.W.W.W.W.W.W.W.W.W.W.W.W.W.W.",
"W.W.W.W.W.W.W.W.W.W.W.W.W.W.W.W.W.W.W.W.W.W.W.W.W.W.W.W.W.W.W.W.W.W.W.W.W.W.W.W.W.W.W.W.W.W.W.W.W.W.W.W.W.W.W.W.W.W.W.W.W.W.W.W.",
"W.W.W.W.W.W.W.W.W.W.W.W.W.W.W.W.W.W.W.W.W.W.W.W.W.W.W.W.W.W.W.W.W.W.W.W.W.W.W.W.W.W.W.W.W.W.W.W.W.( W.W.W.W.W.W.W.W.W.W.W.W.W.W.",
"W.W.W.W.W.W.W.W.W.W.W.W.W.W.W.W.W.W.W.W.W.W.W.W.W.W.W.W.W.W.W.W.W.W.W.W.W.W.W.W.W.W.W.W.W.W.W.W.( ( W.W.W.W.W.W.W.W.W.W.W.W.W.W.",
"W.W.W.W.W.+ W.W.W.W.W.W.+ O & a W.W.W.W.W.W.W.W.W.W.W.W.W.W.W.W.W.W.W.W.W.W.W.W.W.W.W.W.( ( ( W.W.( W.W.W.W.W.W.W.W.W.W.W.W.W.W.",
"W.W.W.W.W.+ W.W.W.W.W.+ + O % i p W.W.W.W.W.W.W.W.W.W.W.W.W.W.W.W.W.W.W.W.W.W.W.W.W.W.W.( ( ( W.W.( W.W.W.W.W.W.W.W.W.W.W.W.W.W.",
"W.W.W.W.W.W.W.W.W.W.+ + + + @ $ $ W.W.W.W.W.W.W.W.W.W.W.W.W.W.W.W.W.W.W.W.W.W.W.W.W.W.W.W.( ( W.W.( ( ( W.W.( ( ( W.W.W.W.W.W.W.",
"W.W.W.W.W.W.W.W.W.W.+ + + # # + W.W.W.W.W.W.W.W.W.W.W.W.W.W.W.W.W.W.W.W.W.W.W.W.W.W.W.W.W.( ( W.W.( ( ( W.W.( ( ( W.W.W.W.W.W.W.",
"W.W.W.W.W.W.W.W.W.W.+ + # > , W.W.W.W.W.W.W.W.W.W.W.W.W.W.W.W.W.W.W.W.W.W.W.W.W.W.W.W.W.W.W.W.W.W.( ( ( ( ( W.( ( W.W.W.W.W.W.W.",
"W.W.W.W.W.W.W.W.W.W.+ + # , 4 W.W.W.W.W.W.W.W.W.W.W.W.W.W.W.W.W.W.W.W.W.W.W.W.W.W.W.W.W.W.W.W.W.W.( ( ( ( ( W.( ( W.W.W.W.W.W.W.",
"W.W.W.W.W.W.W.W.W.W.W.W.W.W.W.W.W.W.W.W.W.W.W.W.W.W.W.W.W.W.W.W.W.W.W.W.W.W.W.W.W.W.W.W.J.J.J.W.W.( ( ( ( ( W.W.W.W.W.W.W.W.W.W.",
"W.W.W.W.W.W.W.W.W.W.W.W.W.W.W.W.W.W.W.W.W.W.W.W.W.W.W.W.W.W.W.W.W.W.W.W.W.W.W.W.W.W.W.J.J.J.J.W.#.( ( ( ( W.W.W.W.W.W.W.W.W.W.W.",
"W.W.W.W.W.W.W.W.W.W.W.W.W.W.W.W.W.W.W.W.W.W.W.W.W.W.W.W.W.W.W.W.W.W.W.W.W.W.W.W.W.W.W.K.J.J.J.H.q.Q ( ( W.W.W.J.J.J.J.W.W.W.W.W.",
"W.W.W.W.W.W.W.W.W.W.W.W.W.W.W.W.W.W.W.W.W.W.W.W.W.W.W.W.W.W.W.W.W.W.W.W.W.W.W.W.W.W.W.M.J.J.J.G.t.E ( ( W.W.W.J.J.J.J.W.W.W.W.W.",
"W.W.W.W.W.W.W.W.W.W.W.W.W.W.W.W.W.W.W.W.W.W.W.W.W.W.W.W.W.W.W.W.W.W.W.W.W.W.W.W.W.W.Q i.L.J.J.J.b.W.W.W.W.W.J.J.J.J.K.W.W.W.W.W.",
"W.W.W.W.W.W.W.W.W.W.W.W.W.W.W.W.W.W.W.W.W.W.W.W.W.W.W.W.W.W.W.W.W.W.W.W.W.W.W.W.W.W.Q r.m.A.J.J.F.W.W.W.W.W.J.J.J.J.N.W.W.W.W.W.",
"W.W.W.W.W.W.W.W.W.W.W.W.W.W.W.W.W.W.W.W.W.W.W.W.W.W.W.W.W.W.W.W.W.W.W.W.W.W.W.W.W.W.( | *.W.W.J.F.W.W.W.W.W.J.J.J.W.W.( W.W.W.W.",
"W.W.W.W.W.W.W.W.W.W.W.W.W.W.W.W.W.W.W.W.W.W.W.W.W.W.W.W.W.W.W.W.W.W.W.W.W.W.W.W.W.W.( ! Q W.W.J.v.W.W.W.W.W.J.J.J.W.W.( W.W.W.W.",
"W.W.W.W.W.W.    W.W.W.W.W.W.W.W.W.W.; ; W.W.W.W.W.W.W.W.W.W.W.W.W.W.W.W.W.W.( ( W.W.W.W.W.W.W.W.W.( W.W.W.W.W.W.W.W.W.( W.W.W.W.",
"W.W.W.W.W.W.. X W.W.W.W.W.W.W.W.W.W.; ; W.W.W.W.W.W.W.W.W.W.W.W.W.W.W.W.W.W.( ( W.W.W.W.W.W.W.W.W.( W.W.W.W.W.W.W.W.W.( W.W.W.W.",
"W.W.W.W.W.  * = W.W.W.W.W.W.W.W.W.W.W.W.W.W.W.W.W.W.W.W.W.W.W.W.W.W.W.W.W.W.( ( W.W.W.W.W.W.W.W.W.( ( ( W.W.W.W.W.( ( ( W.W.W.W.",
"W.W.W.W.W.  * : W.W.W.W.W.W.W.W.W.W.W.W.W.W.W.W.W.W.W.W.W.W.W.W.W.W.W.W.W.W.( ( W.W.W.W.W.W.W.W.W.( ( ( W.W.W.W.W.( ( ( W.W.W.W.",
"W.W.W.W.W.  W.W.W.W.W.W.W.W.W.W.W.W.W.W.W.W.W.W.W.W.W.W.W.W.W.W.W.W.W.W.W.W.( ( ( ( W.W.W.W.W.W.W.( ( ( ( W.W.W.W.( ( ( W.W.W.W.",
"W.W.W.W.W.  W.W.W.W.W.W.W.W.W.W.W.W.W.W.W.W.W.W.W.W.W.W.W.W.W.W.W.W.W.W.W.W.( ( ( ( W.W.W.W.W.W.#.( ( ( ( ( W.W.W.( ( ( W.W.W.W.",
"W.W.W.W.W.W.W.W.W.W.W.W.W.W.W.W.W.W.W.W.W.W.W.W.W.W.W.W.W.W.W.W.W.W.W.W.W.W.( ( ( ( W.W.W.J.J.H.q.E ( ( ( ( W.W.W.W.W.W.W.W.W.W.",
"W.W.W.W.W.W.W.W.W.W.W.W.W.W.W.W.W.W.W.W.W.W.W.W.W.W.W.W.W.W.W.W.W.W.W.W.W.W.( ( ( ( W.W.W.J.J.G.y.@.' ( ( ( W.W.W.W.W.W.W.W.W.W.",
"W.W.W.W.W.W.W.W.W.W.W.W.W.W.W.W.W.W.; ; W.W.W.W.W.W.W.W.W.W.W.W.W.W.W.W.W.W.( ( W.W.W.W.W.J.J.J.Z.R.:.Q ( ( ( W.W.W.W.W.W.W.W.W.",
"W.W.W.W.W.W.W.W.W.W.W.W.W.W.W.W.W.W.; ; W.W.W.W.W.W.W.W.W.W.W.W.W.W.W.W.W.W.( ( W.W.W.W.W.J.J.J.K.V.>.Q ( ( ( W.W.W.W.W.W.W.W.W.",
"W.W.W.W.W.W.W.W.W.W.W.W.W.W.W.W.W.W.W.W.W.W.W.W.W.W.W.W.W.W.W.W.W.W.W.W.W.W.W.W.W.W.W.W.W.G.K.J.K.V.>.Q ( ( ( W.W.W.W.W.W.W.W.W.",
"W.W.W.W.W.W.W.W.W.W.W.W.W.W.W.W.W.W.W.W.W.W.W.W.W.W.W.W.W.W.W.W.W.W.W.W.W.W.W.W.W.W.W.W.W.x.M.S.C.R.:.Q ( ( ( W.W.W.W.W.W.W.W.W.",
"W.W.W.W.W.W.W.W.W.W.W.W.W.W.W.W.W.W.W.W.W.W.W.W.W.W.W.W.W.W.W.W.W.W.W.W.W.W.W.W.( ( W.W.) &.=.W.:.$.' ( ( ( ( W.W.W.W.W.W.W.W.W.",
"W.W.W.W.W.W.W.W.W.W.W.W.W.W.W.W.W.W.W.W.W.W.W.W.W.W.W.W.W.W.W.W.W.W.W.W.W.W.W.W.( ( W.( ( ! Q W.W.! ( ( ( ( ( W.W.W.W.W.W.W.W.W.",
"W.W.W.W.W.W.W.W.W.W.W.W.W.W.W.W.W.W.W.W.W.W.W.W.W.W.W.W.W.W.W.W.W.W.W.W.W.W.W.W.( ( ( ( ( ( ( W.W.W.( ( ( ( ( W.W.W.W.W.W.W.W.W.",
"W.W.W.W.W.W.W.W.W.W.W.W.W.W.W.W.W.W.W.W.W.W.W.W.W.W.W.W.W.W.W.W.W.W.W.W.W.W.W.W.( ( ( ( ( ( ( W.W.W.( ( ( ( ( W.W.W.W.W.W.W.W.W.",
"W.W.W.W.W.W.W.W.W.W.W.W.W.W.W.W.W.W.W.W.W.W.W.W.W.W.W.W.W.W.W.W.W.W.W.W.W.W.W.W.( ( ( ( ( ( ( ( W.W.( ( ( ( ( W.W.W.W.W.W.W.W.W.",
"W.W.W.W.W.W.W.W.W.W.W.W.W.W.W.W.W.W.W.W.W.W.W.W.W.W.W.W.W.W.W.W.W.W.W.W.W.W.W.W.( ( ( ( ( ( ( ( ( W.( ( ( ( ( W.W.W.W.W.W.W.W.W.",
"W.W.W.W.W.W.W.W.W.W.W.W.W.W.W.W.W.W.W.W.W.W.W.W.W.W.W.W.W.W.W.W.W.W.W.W.W.W.W.W.( ( ( ( ( ( ( ( ( ( ( ( ( ( W.W.W.W.W.W.W.W.W.W.",
"W.W.W.W.W.W.W.W.W.W.W.W.W.W.W.W.W.W.W.W.W.W.W.W.W.W.W.W.W.W.W.W.W.W.W.W.W.W.W.W.( ( ( ( ( ( ( ( ( ( ( ( ( ( W.W.W.W.W.W.W.W.W.W.",
"W.W.W.W.W.W.W.W.W.W.W.W.W.W.W.W.W.W.W.W.W.W.W.W.W.W.W.W.W.W.W.W.W.W.W.W.W.W.W.W.W.W.( ( ( ( ( ( ! ! ! ! ( ( W.W.W.W.W.W.W.W.W.W.",
"W.W.W.W.W.W.W.W.W.W.W.W.W.W.W.W.W.W.W.W.W.W.W.W.W.W.W.W.W.W.W.W.W.W.W.W.W.W.W.W.W.W.( ( ( ( ( ( } %.%.&.) ( W.W.W.W.W.W.W.W.W.W.",
"W.W.W.W.W.W.W.W.W.W.W.W.W.W.W.W.W.W.W.W.W.W.W.W.W.W.W.W.W.W.W.W.W.W.W.W.W.W.W.W.W.W.W.( ( ( / W 0.m.b.P.{ ! W.W.W.W.W.W.W.W.W.W.",
"W.W.W.W.W.W.W.W.W.W.W.W.W.W.W.W.W.W.W.W.W.W.W.W.W.W.W.W.W.W.W.W.W.W.W.W.W.W.W.W.W.W.W.( ( ..X._ w.B.D.T.| ! W.W.W.W.W.W.W.W.W.W.",
"W.W.W.W.W.W.W.W.W.W.W.W.W.W.W.W.W.W.W.W.W.W.W.W.W.W.W.W.W.W.W.W.W.W.W.W.W.W.W.W.W.W.W.( ` s.d.1.4.8.E.Y. .! W.W.W.W.W.W.W.W.W.W.",
"W.W.W.W.W.W.W.W.W.W.W.W.W.W.W.W.W.W.W.W.W.W.W.W.W.W.W.W.W.W.W.W.W.W.W.W.W.W.W.W.W.W.W.( ] f.k.3.5.7.U.I. .W.W.W.W.W.W.W.W.W.W.W.",
"W.W.W.W.W.W.W.W.W.W.W.W.W.W.W.W.W.W.W.W.W.W.W.W.W.W.W.W.W.W.W.W.W.W.W.W.W.W.W.W.W.W.W.~ [ g.j.2.z.n.e.+.W.W.W.W.W.W.W.W.W.W.W.W.",
"W.W.W.W.W.W.W.W.W.W.W.W.W.W.W.W.W.W.W.W.W.W.W.W.W.W.W.W.W.W.W.W.W.W.W.W.W.W.W.W.W.W.W.T R p.a.6.u.c.;.^ W.W.W.W.W.W.W.W.W.W.W.W.",
"W.W.W.W.W.W.W.W.W.W.W.W.W.W.W.W.W.W.W.W.W.W.W.W.W.W.W.W.W.W.W.W.W.W.W.; ; ; ; 0 x m n M w t S l.9.y O.<.W.W.W.W.W.W.W.W.W.W.W.W.",
"W.W.W.W.W.W.W.W.W.W.W.W.W.W.W.W.W.W.W.W.W.W.W.W.W.W.W.W.W.W.W.W.W.W.W.; ; ; ; 9 z c n N e 5 A h.P 7 Y -.W.W.W.W.W.W.W.W.W.W.W.W.",
"W.W.W.W.W.W.W.W.W.W.W.W.W.W.W.W.W.W.W.W.W.W.W.W.W.W.W.W.W.W.W.W.; ; ; ; ; ; ; ; 0 l b I o.C 8 V r 6 q B W.W.W.W.W.W.W.W.W.W.W.W.",
"W.W.W.W.W.W.W.W.W.W.W.W.W.W.W.W.W.W.W.W.W.W.W.W.W.W.W.W.W.W.W.W.; ; ; ; ; ; ; ; - k v U ,.Z < 1 3 4 3 2 W.W.W.W.W.W.W.W.W.W.W.W."
};
