/* XPM */
static char *b6ccb0e8b5b546adec56d2e6cb54899ewLkX3M525SVqGi1T[] = {
/* columns rows colors chars-per-pixel */
"64 64 114 2 ",
"   c #010000",
".  c #030B0D",
"X  c #0C0C0C",
"o  c #051113",
"O  c #07171A",
"+  c #071A1E",
"@  c #081B1E",
"#  c #141414",
"$  c #1B1A1A",
"%  c #081E22",
"&  c #092024",
"*  c #0B262B",
"=  c #0C292E",
"-  c #0D2D33",
";  c #112E33",
":  c #0E3037",
">  c #0E3239",
",  c #11353C",
"<  c #2A2A2A",
"1  c #2F3030",
"2  c #333333",
"3  c #3D3D3D",
"4  c #113B43",
"5  c #13434C",
"6  c #144751",
"7  c #154A54",
"8  c #164E59",
"9  c #17505B",
"0  c #18545F",
"q  c #3F4040",
"w  c #185561",
"e  c #444545",
"r  c #4B4B4B",
"t  c #4F5050",
"y  c #525252",
"u  c #5A5A5A",
"i  c #626464",
"p  c #686868",
"a  c gray53",
"s  c #8D8D8D",
"d  c #949595",
"f  c #9B9B9B",
"g  c #A2A3A3",
"h  c #ABACAC",
"j  c #B2B3B3",
"k  c #BCBDBD",
"l  c #BFC0C0",
"z  c #C3C4C4",
"x  c gray77",
"c  c #C4C5C5",
"v  c #C5C6C6",
"b  c #C6C7C7",
"n  c #C1C1C1",
"m  c #C7C8C8",
"M  c #C8C9C9",
"N  c #C9CACA",
"B  c #CACBCB",
"V  c #CBCCCC",
"C  c #CDCECE",
"Z  c #CECECE",
"A  c #CECFCF",
"S  c #CFD0D0",
"D  c #CFD1D1",
"F  c #D0D1D1",
"G  c #D1D2D2",
"H  c #D2D3D3",
"J  c #D3D4D4",
"K  c #D5D5D5",
"L  c #D5D6D6",
"P  c #D6D7D7",
"I  c #D7D8D8",
"U  c #D8D9D9",
"Y  c #D9DADA",
"T  c gray86",
"R  c #DBDCDC",
"E  c #DEDFDF",
"W  c #DFDFDF",
"Q  c #DFE0E0",
"!  c gray88",
"~  c #E1E1E1",
"^  c #E2E2E2",
"/  c #E3E4E4",
"(  c #E4E4E4",
")  c gray90",
"_  c #E5E6E6",
"`  c #E6E6E6",
"'  c #E6E7E7",
"]  c #E7E8E8",
"[  c #EAEAEA",
"{  c #EAEBEB",
"}  c gray92",
"|  c #ECECEC",
" . c gray93",
".. c #EEEEEE",
"X. c #EFEFEF",
"o. c gray94",
"O. c #F1F1F1",
"+. c gray95",
"@. c #F2F3F3",
"#. c #F3F3F3",
"$. c #F4F3F3",
"%. c #F4F4F4",
"&. c #F5F4F4",
"*. c gray96",
"=. c #F6F5F5",
"-. c #F6F6F6",
";. c #F7F6F6",
":. c gray97",
">. c #F9F9F9",
",. c #FBFBFB",
"<. c gray99",
"1. c #FDFDFD",
"2. c #FEFEFE",
"3. c white",
/* pixels */
"7 7 7 7 7 7 7 7 7 7 7 7 7 7 7 7 7 7 7 7 7 7 7 7 7 7 7 7 7 7 7 7 7 7 7 7 7 7 7 7 7 7 7 7 7 7 7 7 7 7 7 7 7 7 7 7 7 7 7 7 7 7 7 7 ",
"7 7 7 7 7 7 7 7 7 7 7 7 7 7 7 7 7 7 7 7 7 7 7 7 7 7 7 7 7 7 7 7 7 7 7 7 7 7 7 7 7 7 7 7 7 7 7 7 7 7 7 7 7 7 7 7 7 7 7 7 7 7 7 7 ",
"7 7 7 7 7 7 7 7 7 7 7 7 7 7 7 7 7 7 7 7 7 7 7 7 7 7 7 7 7 7 7 7 7 7 7 7 7 7 7 7 7 7 7 7 7 7 7 7 7 7 7 7 7 7 7 7 7 7 7 7 7 7 7 7 ",
"7 7 7 7 7 7 7 7 7 7 7 7 7 7 7 7 7 7 7 7 7 7 7 7 6 7 7 7 7 7 7 7 7 6 7 7 7 7 6 7 7 7 7 7 7 7 7 7 7 7 7 7 7 7 7 7 7 7 7 7 7 7 7 7 ",
"7 7 7 7 7 7 7 7 7 7 7 7 7 7 7 7 7 7 7 7 7 8 8 8 8 8 8 8 9 9 8 8 8 9 8 8 8 8 9 8 9 7 7 7 7 7 7 7 7 7 7 7 7 7 7 7 7 7 7 7 7 7 7 7 ",
"7 7 7 7 7 7 7 7 7 7 7 7 7 7 7 7 7 7 7 7 7 - - - - - - - - - - - - - - - - - - ; - 7 7 7 7 7 7 7 7 7 7 7 7 7 7 7 7 7 7 7 7 7 7 7 ",
"7 7 7 7 7 7 7 7 7 7 7 7 7 7 7 7 7 7 7 7 5                                         5 7 7 7 7 7 7 7 7 7 7 7 7 7 7 7 7 7 7 7 7 7 7 ",
"7 7 7 7 7 7 7 7 7 7 7 7 7 7 7 7 7 7 8 8 5                                         7 8 8 7 7 7 7 7 7 7 7 7 7 7 7 7 7 7 7 7 7 7 7 ",
"7 7 7 7 7 7 7 7 7 7 7 7 7 7 7 7 7 5 4 4 4 2 2 2 2 2 2 2 2 2 2 2 2 2 2 2 2 2 2 2 1 4 4 4 5 7 7 7 7 7 7 7 7 7 7 7 7 7 7 7 7 7 7 7 ",
"7 7 7 7 7 7 7 7 7 7 7 7 7 7 7 7 8 =     $ >.3.>.3.>.3.>.<.>.3.>.3.>.<.<.3.>.>.3.X.X     > 8 7 7 7 7 7 7 7 7 7 7 7 7 7 7 7 7 7 7 ",
"7 7 7 7 7 7 7 7 7 7 7 7 7 7 7 7 9 =     $ X.#.#.o.#.#.X.#.o.#.X.o.#.#.o.#.o.o.*.! X     - 9 7 7 7 7 7 7 7 7 7 7 7 7 7 7 7 7 7 7 ",
"7 7 7 7 7 7 7 7 7 7 7 7 7 7 6 6 7 ; X X < o.$.#.#.#.#.#.#.#.#.#.#.#.#.#.#.#.#.*.( $ X X , 7 6 6 7 7 7 7 7 7 7 7 7 8 7 7 7 7 7 7 ",
"7 7 7 7 7 7 7 7 7 7 7 7 7 8 O     i *.! ( #.#.#.#.#.#.#.#.#.#.#.#.#.#.#.#.#.#.#.#.( ! #.t     @ 9 7 7 7 7 7 7 7 7 7 7 7 7 7 7 7 ",
"7 7 7 7 7 7 7 7 7 7 7 7 7 7 o     p 3.#.*.#.#.#.#.#.#.#.#.#.#.#.#.#.#.#.#.#.#.#.%.:.#.3.y     O 9 7 7 7 7 7 7 7 7 7 7 7 7 7 7 7 ",
"7 7 7 7 7 7 7 7 7 7 7 7 7 8 o     p 3.X.#.#.#.#.#.#.#.#.#.#.#.#.#.#.#.#.#.#.#.#.#.#.X.3.y     O 8 7 7 7 7 7 7 7 7 7 7 7 7 7 7 7 ",
"7 7 7 7 7 7 7 7 7 7 7 7 6 8 o     p 3.X.#.#.#.#.#.#.#.#.#.#.#.#.#.#.#.#.#.#.#.#.#.#.X.3.y     O 8 7 7 7 7 7 7 7 7 7 7 7 7 7 7 7 ",
"7 7 7 7 7 7 7 7 7 7 7 7 7 8 o     p 3.X.#.#.#.#.#.X.X.X.#.#.#.#.#.#.#.X.X.X.#.#.#.#.X.3.y     O 8 7 7 7 7 7 7 7 7 7 7 7 7 7 7 7 ",
"7 7 7 7 7 7 7 7 7 7 7 7 7 7 #     p 3.X.#.#.#.#.3.3.3.3.#.#.#.#.#.#.3.3.3.3.#.#.#.#.X.3.y     O 8 7 7 7 7 7 7 7 7 7 7 7 7 7 7 7 ",
"7 7 7 7 7 7 7 7 7 7 7 7 7 8 o     p 3.X.#.#.#.>.a u u f 3.X.#.#.X.>.s u u d 3.X.#.#.o.3.y     O 7 7 7 7 7 7 7 7 7 7 7 7 7 7 7 7 ",
"7 7 7 7 7 7 7 7 7 7 7 7 6 8 o     p 3.X.#.#.X.3.2     y 3.X.#.#.X.3.3     r 3.X.#.#.o.3.y     O 9 7 7 7 7 7 7 7 7 7 7 7 7 7 7 7 ",
"7 7 7 7 7 7 7 7 7 7 7 7 6 8 o     p 3.X.#.#.o.3.2     y 3.X.#.#.X.3.3     r 3.X.#.#.X.3.y     O 8 7 7 7 7 7 7 7 7 7 7 7 7 7 7 7 ",
"7 7 7 7 7 7 7 7 7 7 7 7 7 8 o     p 3.X.#.#.#.>.a u u f 3.X.#.#.#.>.s u u d 3.o.#.#.X.3.y     O 8 7 7 7 7 7 7 7 7 7 7 7 7 7 7 7 ",
"7 7 7 7 7 7 7 7 7 7 7 7 7 7 o     p 3.X.#.#.#.#.3.3.3.3.#.#.#.#.#.#.3.3.3.3.#.#.#.#.X.3.y     O 8 6 7 7 7 7 7 7 7 7 7 7 7 7 7 7 ",
"7 7 7 7 7 7 7 7 7 7 7 7 7 8 #     p 3.X.#.#.#.#.X.X.X.X.#.#.#.#.#.#.#.X.X.X.#.#.#.#.X.3.y     O 9 6 7 7 7 7 7 7 7 7 7 7 7 7 7 7 ",
"7 7 7 7 7 7 7 7 7 7 7 7 7 8 o     p 3.X.#.#.#.#.#.#.#.#.#.#.#.#.#.#.#.#.#.#.#.#.#.#.X.3.y     O 9 7 7 7 7 7 7 7 7 7 7 7 7 7 7 7 ",
"7 7 7 7 7 7 7 7 7 7 7 7 6 8 o     p 3.X.#.#.#.#.#.#.#.#.#.#.#.#.#.#.#.#.#.#.#.#.#.#.X.3.y     O 9 7 7 7 7 7 7 7 7 7 7 7 7 7 7 7 ",
"7 7 7 7 7 7 7 7 7 7 7 7 6 8 o     p 3.X.#.#.#.#.#.#.#.#.#.#.#.#.#.#.#.#.#.#.#.#.#.#.X.3.y     O 9 6 7 7 7 7 7 7 7 7 7 7 7 7 7 7 ",
"7 7 7 8 7 7 7 7 7 7 7 7 7 8 o     p 3.X.#.#.#.#.#.#.#.#.#.#.#.#.#.#.#.#.#.#.#.#.#.#.X.3.y     O 9 7 7 7 7 7 7 7 7 7 7 7 7 7 7 7 ",
"7 7 7 7 7 7 7 7 7 7 7 7 7 8 o     p 3.X.#.#.#.#.#.#.#.#.#.#.#.#.#.#.#.#.#.#.#.#.#.#.X.3.y     O 9 6 7 7 7 7 7 7 7 7 7 7 7 7 7 7 ",
"7 7 7 7 7 7 7 7 7 7 7 7 7 8 #     p 3.X.#.#.#.#.#.#.#.#.#.#.#.#.#.#.#.#.#.#.#.#.#.#.X.3.y     O 9 6 7 7 7 7 7 7 7 7 7 7 7 7 7 7 ",
"7 7 7 7 7 7 7 7 7 7 7 7 6 7 o     p 3.X.#.#.#.#.#.#.#.#.#.#.#.#.#.#.#.#.#.#.#.#.#.#.X.3.y     O 9 7 7 7 7 7 7 7 7 7 7 7 7 7 7 7 ",
"7 7 7 7 7 7 7 7 7 7 7 7 7 8 o     p 3.X.#.#.#.#.#.#.#.#.#.#.#.#.#.#.#.#.#.#.#.#.#.#.X.3.y     O 9 7 7 7 7 7 7 7 7 7 7 7 7 7 7 7 ",
"7 7 7 7 7 7 7 7 7 7 7 7 7 8 #     p 3.X.#.#.#.#.#.#.#.#.#.#.#.#.#.#.#.#.#.#.#.#.#.#.X.3.y     O 8 7 7 7 7 7 7 7 7 7 7 7 7 7 7 7 ",
"7 7 7 7 7 7 7 7 7 7 7 7 7 7 o     p 3.X.#.#.#.#.#.#.#.#.#.#.#.#.#.#.#.#.#.#.#.#.#.#.X.3.y     O 8 7 7 7 7 7 7 7 7 7 7 7 7 7 7 7 ",
"7 7 7 7 7 7 7 7 7 7 7 7 6 8 o     p 3.X.#.#.#.#.#.#.#.#.#.#.#.#.#.#.#.#.#.#.#.#.#.#.X.3.y     O 8 7 7 7 7 7 7 7 7 7 7 7 7 7 7 7 ",
"7 7 7 7 7 7 7 7 7 7 7 7 6 8 o     p 3.X.#.#.#.#.#.#.#.#.#.#.#.#.#.#.#.#.#.#.#.#.#.#.X.3.y     O 8 7 7 7 7 7 7 7 7 7 7 7 7 7 7 7 ",
"7 7 7 7 7 7 7 7 7 7 7 7 7 7 o     p 3.#.*.*.*.#.#.#.#.#.#.#.#.#.#.#.#.#.#.#.#.#.#.*.#.3.y     O 7 7 7 7 7 7 7 7 7 7 7 7 7 7 7 7 ",
"7 7 7 7 7 7 7 7 7 7 7 7 7 8 o     i *.E ( @.#.#.#.#.#.#.#.#.#.#.#.#.#.#.#.#.#.#.#.( Q #.r     O 9 7 7 7 7 7 7 7 7 7 7 7 7 7 7 7 ",
"7 7 7 7 7 7 7 7 7 7 7 7 7 7 o     u K l M #.#.#.#.#.#.#.#.#.#.#.#.#.#.#.#.#.#.#.#.x n H e     O 9 7 7 7 7 7 7 7 7 7 7 7 7 7 7 7 ",
"7 7 7 7 7 7 7 7 7 7 7 7 7 8 o     u ( S I *.#.*.#.#.#.#.#.#.#.#.#.#.#.*.*.*.*.#.#.K G / r     O 7 7 7 7 7 7 7 7 7 7 7 7 7 7 7 7 ",
"7 7 7 7 7 7 7 7 7 7 7 7 7 9 o     e h f h [ [ [ #.#.#.#.#.#.#.#.#.#.X.[ | [ [ | ( h f h 3     O 9 7 7 7 7 7 7 7 7 7 7 7 7 7 7 7 ",
"7 7 7 7 7 7 7 7 7 7 7 7 7 8 o           # c M x ] *.#.#.#.#.#.#.#.*.K x M m m V k             O 9 7 7 7 7 7 7 7 7 7 7 7 7 7 7 7 ",
"7 7 7 7 7 7 7 7 7 7 7 7 6 8 o       .   $ V S V [ *.*.@.#.#.#.#.#.*.U V C S C G n X           O 9 7 7 7 7 7 7 7 7 7 7 7 7 7 7 7 ",
"7 7 7 7 7 7 7 7 7 7 7 7 7 8 o           # k n k ! #.#.@.#.#.#.#.#.#.C k l l k n j X           + 9 7 7 7 7 7 7 7 7 7 7 7 7 7 7 7 ",
"7 7 7 7 7 7 7 7 7 7 7 7 7 7 6 5 7 =       X X   f U m R *.#.#.C M U e   X X X X X       - 7 5 6 7 7 7 7 7 7 7 7 7 7 7 7 7 7 7 7 ",
"7 7 7 7 7 8 7 7 7 7 7 7 7 7 7 7 9 -             d I x U *.#.X.M x K 3                   > 9 7 7 7 7 7 7 7 7 7 7 7 7 7 7 7 7 7 7 ",
"7 7 7 7 7 7 7 7 7 7 7 7 7 7 7 6 9 -             d I x R :.*.#.J S Q q                   > 9 7 7 7 7 7 7 7 7 7 7 7 7 7 7 7 7 7 7 ",
"7 7 7 7 7 7 7 7 7 7 7 7 7 7 7 6 7 5 4 4 4       d I M C J K x < < < X     O 5 4 4 4 4 4 5 7 7 7 7 7 7 7 7 7 7 7 7 7 7 7 7 7 7 7 ",
"7 7 7 7 7 7 7 7 7 7 7 7 7 7 7 7 7 7 8 9 5       d H c b c M j             + 0 9 8 8 8 9 9 7 7 7 7 7 7 7 7 7 7 7 7 7 7 7 7 7 7 7 ",
"7 7 7 7 7 7 7 7 7 7 7 7 7 7 7 7 7 7 7 7 5       g ' I Y U E m X           O 9 6 6 7 6 6 7 7 7 7 7 7 7 7 7 7 7 7 7 7 7 7 7 7 7 7 ",
"7 7 7 7 7 7 7 7 7 7 7 7 7 7 7 7 7 7 7 8 5       3 y t t y y r       & : - > 7 7 7 7 7 7 7 7 7 7 7 7 7 7 7 7 7 7 7 7 7 7 7 7 7 7 ",
"7 7 7 7 7 7 7 7 7 7 7 7 7 7 7 7 7 7 7 7 5                           , 0 9 9 7 7 7 7 7 7 7 7 7 7 7 7 7 7 7 7 7 7 7 7 7 7 7 7 7 7 ",
"7 7 7 7 7 7 7 7 7 7 7 7 7 7 7 7 7 7 7 7 5                           > 7 6 7 7 7 7 7 7 7 7 7 7 7 7 7 7 7 7 7 7 7 7 7 7 7 7 7 7 7 ",
"7 7 7 7 7 7 7 7 7 7 7 7 7 7 7 7 7 7 7 7 5 % % & .     . & % % @ & % 4 8 7 7 7 7 7 7 7 7 7 7 7 7 7 7 7 7 7 7 7 7 7 7 7 7 7 7 7 7 ",
"7 7 7 7 7 7 7 7 7 7 7 7 7 7 7 7 7 7 7 7 7 9 9 0 O     & w 8 9 8 9 9 8 7 7 7 7 7 7 7 7 7 7 7 7 7 7 7 7 7 7 7 7 7 7 7 7 7 7 7 7 7 ",
"7 7 7 7 7 7 7 7 7 7 7 7 7 7 7 7 7 7 7 7 7 7 6 8 o     + 9 7 7 7 7 7 7 7 7 7 7 7 7 7 7 7 7 7 7 7 7 7 7 7 7 7 7 7 7 7 7 7 7 7 7 7 ",
"7 7 7 7 7 7 7 7 7 7 7 7 7 7 7 7 7 7 7 7 7 7 7 9 & . . * 8 7 7 7 7 7 7 7 7 7 7 7 7 7 7 7 7 7 7 7 7 7 7 7 7 7 7 7 7 7 7 7 7 7 7 7 ",
"7 7 7 7 7 7 7 7 7 7 7 7 7 7 7 7 7 7 7 7 7 7 7 7 7 9 7 7 7 7 7 7 7 7 7 7 7 7 7 7 7 7 7 7 7 7 7 7 7 7 7 7 7 7 7 7 7 7 7 7 7 7 7 7 ",
"7 7 7 7 7 7 7 7 7 7 7 7 7 7 7 8 7 7 7 7 7 7 7 7 7 7 7 7 7 7 7 7 7 7 7 7 7 7 7 7 7 7 7 7 7 7 7 7 7 7 7 7 7 7 7 7 7 7 7 7 7 7 7 7 ",
"7 7 7 7 7 7 7 7 7 7 7 7 7 7 7 7 7 7 7 7 7 7 7 7 7 7 7 7 7 7 7 7 7 7 7 7 7 7 7 7 7 7 7 7 7 7 7 7 7 7 7 7 7 7 7 7 7 7 7 7 7 7 7 7 ",
"7 7 7 7 7 7 7 7 7 7 7 7 7 7 7 7 7 7 7 7 7 7 7 7 7 7 7 7 7 7 7 7 7 7 7 7 7 7 7 7 7 7 7 7 7 7 7 7 7 7 7 7 7 7 7 7 7 7 7 7 7 7 7 7 ",
"7 7 7 7 7 7 7 7 7 7 7 7 7 7 7 7 7 7 7 7 7 7 7 7 7 7 7 7 7 7 7 7 7 7 7 7 7 7 7 7 7 7 7 7 7 7 7 7 7 7 7 7 7 7 7 7 7 7 7 7 7 7 7 7 ",
"7 7 7 7 7 7 7 7 7 7 7 7 7 7 7 7 7 7 7 7 7 7 7 7 7 7 7 7 7 7 7 7 7 7 7 7 7 7 7 7 7 7 7 7 7 7 7 7 7 7 7 7 7 7 7 7 7 7 7 7 7 7 7 7 ",
"7 7 7 7 7 7 7 7 7 7 7 7 7 7 7 7 7 7 7 7 7 7 7 7 7 7 7 7 7 7 7 7 7 7 7 7 7 7 7 7 7 7 7 7 7 7 7 7 7 7 7 7 7 7 7 7 7 7 7 7 7 7 7 7 "
};
