/* XPM */
static char *_9f37e11c002426fc691c7fdf201b453rgkRyGIA2QCg3IKf[] = {
/* columns rows colors chars-per-pixel */
"64 64 124 2 ",
"   c #010101",
".  c #020708",
"X  c #030B0D",
"o  c #0C0C0C",
"O  c #040E10",
"+  c #051214",
"@  c #061518",
"#  c #071A1D",
"$  c #141313",
"%  c #1C1C1C",
"&  c #011C21",
"*  c #091E22",
"=  c #072126",
"-  c #0A2126",
";  c #05252B",
":  c #0B252A",
">  c #0D282D",
",  c #132A2E",
"<  c #0C2D34",
"1  c #0F3036",
"2  c #0F333A",
"3  c #252525",
"4  c #2E2E2E",
"5  c #373737",
"6  c #3A3A3A",
"7  c #123E46",
"8  c #123F48",
"9  c #13454E",
"0  c #144751",
"q  c #154A54",
"w  c #164F59",
"e  c #17505B",
"r  c #18535E",
"t  c #2E4145",
"y  c #334346",
"u  c #195662",
"i  c #444444",
"p  c #454D4F",
"a  c #4A4B4B",
"s  c #525252",
"d  c #5B5857",
"f  c #5C5B5B",
"g  c #636363",
"h  c #6B6B6B",
"j  c #72706F",
"k  c #757676",
"l  c #7B7B7B",
"z  c #838383",
"x  c #8C8B8B",
"c  c #939494",
"v  c #9A9B9B",
"b  c #A2A3A3",
"n  c #B6B6B6",
"m  c #BABBBB",
"M  c #C3C4C4",
"N  c #C7C8C8",
"B  c #C8C9C9",
"V  c gray79",
"C  c #C8C8C8",
"Z  c #CACACA",
"A  c #CBCCCC",
"S  c #CCCDCD",
"D  c #CDCECE",
"F  c #CECECE",
"G  c #CECFCF",
"H  c #CFD0D0",
"J  c #D0D0D0",
"K  c #D0D1D1",
"L  c #D2D3D3",
"P  c LightGray",
"I  c #D3D4D4",
"U  c gray83",
"Y  c #D4D5D5",
"T  c #D5D6D6",
"R  c #D6D7D7",
"E  c #D7D8D8",
"W  c #D8D9D9",
"Q  c gray85",
"!  c #D9DADA",
"~  c #DADADA",
"^  c #DADBDB",
"/  c #DBDCDC",
"(  c #DCDDDD",
")  c #DDDDDD",
"_  c #DEDFDF",
"`  c #DFDFDF",
"'  c #DFE0E0",
"]  c gray88",
"[  c #E1E1E1",
"{  c #E1E2E2",
"}  c #E2E2E2",
"|  c gray89",
" . c #E4E4E4",
".. c gray90",
"X. c #E5E6E6",
"o. c #E7E8E8",
"O. c gray91",
"+. c #E8E9E9",
"@. c #E9E9E9",
"#. c #EAEAEA",
"$. c gray92",
"%. c #EBECEC",
"&. c #ECECEC",
"*. c gray93",
"=. c #EEEEEE",
"-. c #EFEFEF",
";. c gray94",
":. c #F1F1F1",
">. c gray95",
",. c #F3F3F3",
"<. c #F4F3F3",
"1. c #F4F4F4",
"2. c gray96",
"3. c #F6F6F6",
"4. c #F7F6F6",
"5. c gray97",
"6. c #F8F8F8",
"7. c #F9F9F9",
"8. c #FAF9F9",
"9. c gray98",
"0. c gray99",
"q. c #FDFDFD",
"w. c #FEFEFE",
"e. c white",
/* pixels */
"q q q q q q q q q q q q q q q q q q q q q q q q q q q q q q q q q q q q q q q q q q q q q q q q q q q q q q q q q q q q q q q q ",
"q q q q q q q q q q q q q q q q q q q q q q q q q q q q q q q q q q q q q q q q q q q q q q q q q q q q q q q q q q q q q q q q ",
"q q q q q q q q q q q q q q q q q q q q q q q q q q q q q q q q q q q q q q q q q q q q q q q q q q q q q q q q q q q q q q q q ",
"q q q q q q q q q q q q q q q q q q q q q 0 q q q q q 9 q 0 q q q 0 q 0 q 0 q q q q q q q q q q q q q q q q q q q q q q q q q q ",
"q q q q q q q q q q q q q q q q q q q q q w w w w w w w w w w w w w w e e e w w w q q q q q q q q q q q q q q q q q q q q q q q ",
"q q q q q q q q q q q q q q q q q q q q 9 @ @ @ @ @ @ @ @ @ @ @ @ @ @ $ @ @ @ @ O 7 w q q q q q q q q q q q q q q q q q q q q q ",
"q q q q q q q q q q q 0 q q q q q q q q 9                                         < w 0 q q q q q q q q q q q 0 0 q q q q q q q ",
"q q q q q q q q q q q q q q q q q w w e q                                         < u w w q q q q q q q q q q q q q q q q q q q ",
"q q q q q q q q q q q q q q q q w 7 # = , z z z z z z z z z z z z z z z z z z z x y # = < q 0 q q q q q q q q q q q q q q q q q ",
"q q q q q q q q q q q q q q q 9 w >     $ e.e.e.e.e.e.e.e.e.e.e.e.e.e.e.e.e.e.e.e.d     + w q 0 q q q q q q q q q q q q q q q q ",
"q q q q q q q q q q q q q q w w u ;       @.,.=.=.=.=.,.=.=.=.=.-.=.=.-.=.-.=.@.e.i     . u w w q q q q q q q q q q q q q q q q ",
"q q q q q q q q q q q q q q 2 < < t f s g =.<.,.,.,.,.,.,.,.,.,.1.,.,.1.,.,.1.=.e.x a f p < 1 < 9 q q q q q q q q q q q q q q q ",
"q q q q q q q q q q q q q q .     j e.e.e.,.,.,.,.,.,.,.,.,.,.,.,.,.,.,.,.,.,.,.,.e.e.e.M       7 w q q q q q q q q q q q q q q ",
"q q q q q q q q q q q q q w X     h e.@.=.,.,.,.,.,.,.,.,.,.,.,.,.,.,.,.,.,.,.,.,.,.@.e.n   .   8 w 0 q q q 0 q q q q q q q q q ",
"q q q q q q q q q q q q q w X     h e.=.,.,.,.,.,.,.,.,.,.,.,.,.,.,.,.,.,.,.,.,.,.,.=.e.n       7 w q q q q q q q q q q q q q q ",
"q q q q q q q q q q q q q w o     h e.=.,.,.,.,.,.,.,.,.,.,.,.,.,.,.,.,.,.,.,.,.,.,.=.e.n   .   7 w 0 q q q q q q q q q q q q q ",
"q q q q q 0 q q q q q q q q o     h e.=.,.,.,.,.3.7.3.3.,.,.,.,.,.,.3.7.5.3.,.,.,.,.=.e.n       7 w 9 q q q q q q q q q q q q q ",
"q q q q q q q q q q q q q q O     h e.=.,.,.,.1.@.} } @.3.,.,.,.,.1.$.}  . .,.,.,.,.,.e.n   .   7 w q q q q q q q q q q q q q q ",
"q q q q q q q q q q q q q q o     h e.=.,.,.=.e.f     i e.,.,.,.=.e.x   o % =.3.,.,.,.e.n   .   7 q q q q q q q q q q q q q q q ",
"q q q q q q q q q q q q q w X     h e.=.,.1.=.e.s     6 e.=.,.,.=.e.z     $ =.<.,.,.=.e.n       7 w q q q q q q q q q q q q q q ",
"q q q q q q q q q q q q q q O     h e.=.,.,.=.e.s     5 e.=.,.,.=.e.z     o =.3.,.,.=.e.n       7 w q q q q q q q q q q q q q q ",
"q q q q q q q q q q q q q w X     h e.=.,.,.,.3.R N C R 3.,.,.,.,.3.} N C S ,.3.,.,.=.e.n   .   7 w 0 q q q q q q q q q q q q q ",
"q q q q q q q q q q q q q q O     h e.=.,.,.,.,.7.e.e.7.,.,.,.,.,.=.3.e.7.e.,.,.,.,.,.e.n       7 w 0 q q q q q q q q q q q 0 q ",
"q q q q q q q q q q q q q w o     h e.=.,.,.,.,.,.=.,.-.,.,.,.,.,.,.,.,.,.,.,.,.,.,.=.e.n   .   7 w q q q q q q q q q q q q q q ",
"q q q q q q q q q q q q q q X     h e.=.,.,.,.,.,.,.,.,.,.,.,.,.,.,.,.,.,.,.,.,.,.,.;.e.n   .   9 q q q q q q q q q q q q q q q ",
"q q q q q q q q q q q q q w X     h e.=.,.,.,.,.,.,.,.,.,.,.,.,.,.,.,.,.,.,.,.,.,.,.;.e.n       7 w 0 q q q q q q q q q q q q q ",
"q q q q q q q q q q q q q q O     h e.=.,.,.,.,.,.,.,.,.,.,.,.,.,.,.,.,.,.,.,.,.,.,.;.e.n       7 q q q q q q q q q q q q q q q ",
"q q q q q q q q q q q q q w o     h e.=.,.,.,.,.,.,.,.,.,.,.,.,.,.,.,.,.,.,.,.,.,.,.;.e.n   .   7 w 0 q q q q q q q q q q q q q ",
"q q q q q q q q q q q q q q X     h e.=.,.,.,.,.,.,.,.,.,.,.,.,.,.,.,.,.,.,.,.,.,.,.;.e.n       7 q 0 q q q q q q q q q q q q q ",
"q q q q q q q q q q q q q q o     h e.=.,.,.,.,.,.,.,.,.,.,.,.,.,.,.,.,.,.,.,.,.,.,.;.e.n   .   9 q q q q q q q q q q 0 q q q q ",
"q q q q 0 q q q q q q q q q X     h e.=.,.,.,.,.,.,.,.,.,.,.,.,.,.,.,.,.,.,.,.,.,.,.;.e.n       9 q 0 q q q q q q q q q q q q q ",
"q q q q q q q q q q q q q w X     h e.=.,.,.,.,.,.,.,.,.,.,.,.,.,.,.,.,.,.,.,.,.,.<.;.e.n       7 w q q q q q q q q q q q q q q ",
"q q q q q q q q q q q q q q o     h e.=.,.,.,.,.,.,.,.,.,.,.,.,.,.,.,.,.,.,.,.,.,.,.;.e.n   .   7 w q q q q q q q q q q q q q q ",
"q q q q q q q q q q q q q w O     h e.=.,.,.,.,.,.,.,.,.,.,.,.,.,.,.,.,.,.,.,.,.,.,.;.e.n       7 w 0 q q q q q q q q q q q q 0 ",
"q q q q q q q 0 q q q q q q X     h e.=.,.,.,.,.,.,.,.,.,.,.,.,.,.,.,.,.,.,.,.,.,.,.;.e.n       7 w q q q q q q q q q q q q q q ",
"q q q q q q q q q q q q q w o     h e.=.,.,.,.,.,.,.,.,.,.,.,.,.,.,.,.,.,.,.,.,.,.,.;.e.n   .   7 q q q q q q q q q q q q q q q ",
"q q q q q q q q q q q q q w X     h e.@.,.,.,.,.,.,.,.,.,.,.,.,.,.,.,.,.,.,.,.,.,.,.=.e.n       7 w q q q q q q q q q q q q q q ",
"q q q q q q q q q q q q q q X     f ' C H ,.,.,.,.,.,.,.,.,.,.,.,.,.,.,.,.,.,.,.3.! N ! v   .   7 w q q q q q q q q q q q q q q ",
"q q q q q q q q q q q q q w X     f ! M C ,.,.,.,.,.,.,.,.,.,.,.,.,.,.,.,.,.,.,.3.E M I c   .   7 w 9 q q q q q q q q q q q q q ",
"q q q q q q q q q q q q q w X     f  .S R ,.1.3.1.3.3.1.,.,.,.,.,.,.,.,.,.,.3.,.3.' S } v       7 w q q q q q q q q q q q q q q ",
"q q q q q q q q q q q q q q X     $ 4 3 5 A P L L L L ! 3.,.,.,.,.,.,.,.<.;.U S ) g % 4 %       7 q q q q q q q q q q q q q q q ",
"q q q q q q q q q q q q q w X           . M N M M N M S 3.,.,.,.,.,.,.,.<.-.N M R 6             9 w q q q q q q q q q q q q q q ",
"q q q q q q q q q q q 0 q q .       .   $ R / ! / / ! | 3.3.3.<.,.,.,.3.6.<./ T @.a   .         7 q 9 q q q q q q q q q q q q q ",
"q q q q q q q q q q q q q q 2 < 2 #     . a a a a a i h } E ! =.1.3. .R ) F a a s %     X 2 < < 9 q q q q q q q q q q q q q q q ",
"q q q q q q 0 q q q q q q q w w u <                   3 H M M $.,.3.) M A n             @ u w w q q q q q q q q q q q q q 0 q q ",
"q q q q q q q q q q q q q q q 0 e :               .   5 o.! ! <.3.7.} N H m .           X w 0 0 q q q q q q q q q q q q q q q q ",
"q q q q q q q q q q q q q q q q w 7 * - - - - - X     % k h h S  .} R N H m .     @ : * < w q q q q q q q q q q q q q q q q q q ",
"q q q q q q q q q q q q q q q q 0 q e w e e e u *             b S M N N S n       2 u e w q q q q q q q q q q q q q q q q q q q ",
"q q q q q q q q q q q q q q q q q 0 0 q 0 q 0 w @       .     n ) P R R / N       1 w 9 0 q q q q q q q q q q q q q q q q q q q ",
"q q q q q q q q q q q q q q q q q q q q q q 0 w > + @ O       l v c c c c z .     1 e q q q q q q q q q q q q q q q q q q q q q ",
"q q q q 0 q q q q q q q q q q q q q q q q q q q w w r 7                           1 w q q q q q q q q q q q q q q q q q q q q q ",
"q q q q q q q q q q q q q q q q q q q q q q q q 0 q w 2                           2 r q q q q q q q q q q q q q q q q q q q q q ",
"q q q q q q q q q q q q q q q q q q q q q q q q q q w 7   X X . . X X . . . X X . < 9 7 9 q q q q q q q q q q q q q q q q q q q ",
"q q q q q q q q q q q q q q q q q q q q q q q q q q q q q q q q q q q q q q q q w #     + w q q q q q q q q q q q q q q q q q q ",
"q q q q q q q q q q q q q q q q q q q q q q q q q q q q q q q q q q q q q q q q w #     + w q q q q q q q q q q q q q q q q q q ",
"q q q q q q q q q q q q q q q q q q q q q q q 0 q q q q q q q q q q q q q q q q e #     + w q q q q q q q q q q q q q q q q q q ",
"q q q q q q q q q q q q q q q q q q q q q q q q q q q q q q q q q q q q q q q q q 9 9 9 9 q q q q q q q q q q q q q q q q q q q ",
"q q q q q 0 q q q q q q q q q q q q q q q q q q q q q q q q q q q q q q q q q q q q w q q q q q q q q q q q q q q q q q q q q q ",
"q q q q q q q q q 0 q q q q q q q q q q q q q q q q q q q q q q q q q q q q q q q q q q q q q q q q q q q q q 0 q q q q q q q q ",
"q q q q q q q q q q q q q q q q q q q q q q q q q q q q q q q q q q q q q q q q q q q q q q q q q q q q q q q q q 0 q q q q q q ",
"q q q q q q q q q q q q q q q q q q q q q q q q q 0 q q q q q q q q q q q q q q q q q 0 q q q q q q q q q q q q q q q q q q q q ",
"q q q q q q q q q q q q q q q q q q q q q q q q q q q q q q q q q q q q q q q q q q q q q q q q q q q q q q q q q q q q q q q q ",
"q q q q q q q q q q q q q q q q q q q q q q q q q q q q q q q q q q q q q q q q q q q q q q q q q q q q q q q q q q q q q q q q ",
"q q q q q q q q q q q q q q q q q q q q q q q q q q q q q q q q q q q q q q q q q q q q q q q q q q q q q q q q q q q q q q q q "
};
