/* XPM */
static char *result[] = {
/* columns rows colors chars-per-pixel */
"64 64 92 1 ",
"  c #1C121C",
". c #171B1B",
"X c #1B1B1B",
"o c #24161E",
"O c #28171E",
"+ c #231B1C",
"@ c #2B1A1E",
"# c #341C1F",
"$ c #291E20",
"% c #341C20",
"& c #391F21",
"* c #1F2020",
"= c #262626",
"- c #2D2526",
"; c #272828",
": c #2C2C2C",
"> c #352527",
", c #3D2122",
"< c #322827",
"1 c #3E2927",
"2 c #3B2528",
"3 c #3B2C2D",
"4 c #313131",
"5 c #3A3334",
"6 c #3D3D3D",
"7 c #431C22",
"8 c #4A1C24",
"9 c #561C27",
"0 c #5A1C26",
"q c #5D1C28",
"w c #621E25",
"e c #681F25",
"r c #651D28",
"t c #6C1D29",
"y c #731D29",
"u c #7E1E2A",
"i c #432323",
"p c #492424",
"a c #472C2B",
"s c #582727",
"d c #542927",
"f c #5A2A27",
"g c #5D2229",
"h c #542B28",
"j c #5D2C28",
"k c #483F36",
"l c #513531",
"z c #63222A",
"x c #64332A",
"c c #6B3D2C",
"v c #755549",
"b c #851E2A",
"n c #891E2B",
"m c #971F2C",
"M c #96202C",
"N c #9A202C",
"B c #832C33",
"V c #8D2E36",
"C c #A2212D",
"Z c #AA212E",
"A c #B3222E",
"S c #BA222F",
"D c #A42A33",
"F c #C42430",
"G c #C82430",
"H c #B76D1C",
"J c #926A37",
"K c #A07B3C",
"L c #846353",
"P c #FFA214",
"I c #FFAF1A",
"U c #FFB31C",
"Y c #FFB81E",
"T c #D59A29",
"R c #FFBC21",
"E c #FFC423",
"W c #FFC925",
"Q c #FFCD2B",
"! c #FFCD3B",
"~ c #FFD236",
"^ c #FFD63A",
"/ c #FFD83B",
"( c #DEC44D",
") c #FFD644",
"_ c #FFDF46",
"` c #EAD251",
"' c #FFEA56",
"] c #FFED59",
"[ c #EAC198",
"{ c #F6CA9F",
"} c #F8CBA0",
"| c None",
/* pixels */
"||||||||||||||||||||||||||||||||||||||||||||||||||||||||||||||||",
"||||||||||||||||||||||||||||||||||||||||||||||||||||||||||||||||",
"||||||||||||||||||||||||nnnnnCFFF|||||||||||||||||||||||||||||||",
"||||||||||||||||||||||||nnnnnCFFFF||||||||||||||||||||||||||||||",
"|||||||||||||||||||||||nnnnnnmZAFF||||||||||||||||||||||||||||||",
"||||||||||||||||||||||nnnnnnnnnCFFFF||||||||||||||||||||||||||||",
"||||||||||||||||||||||nnnnnbtytbCAFF||||||||||||||||||||||||||||",
"||||||||||||||||||||||nnnnn9+++++zFF||||||||||||||||||PP||||||||",
"||||||||||||||||||||||nnnbb9XXXX.wFF||||||||||||||||||PP||||||||",
"||||||||||||||||||||||nnnw#OXXXX.gFF||||||||||||||||||PPPPP|||||",
"||||||||||||||||||||||nnnwXXXXXX.wFF||||||||||||||||||PPPPPP||||",
"||||||||||||||||||||9ynnn0XXXXXX.wFF||||||||||||||||PIYYYUPP||||",
"||||||||||||||||||||0tbnn0XXXXXX.wFF||||||||||||||||PUWWWYPP||||",
"||||||||||||||||||||9ennnwXXXXXX.wFF||||||||||||||||PUWERUPP||||",
"||||||||||||||||||||9tnnn0XXXXXX.wFF||||||||||||||||PUWYPPPP||||",
"||||||||||||||||||||9ebnnw++XXX++eFF||||||||||||||||PYQRPPPP||||",
"||||||||||||||||||99q9wynbu9XXX7uNFF||||||||||||||PUE~'!PP||||||",
"||||||||||||||||||99999tnnnqXXX8nCFF||||||||||||||PUW^'!PP||||||",
"||||||||||||||X%9999q99qrynuweeynCFFF|||||||||||||PIW^]!PP||||||",
"||||||||||||||X%99q999999tnnnnnnbCFFFF||||||||||||PUE^]!PP||||||",
"|||||||||||||XX@&7&&&8999ryyyunnnMZAFD||||||||||||HT^_])P|||||||",
"||||||||||||XXXXXXXXX%q999999tnnnnnCGV66||||||||||sK]]]'||||||||",
"||||||||||||XXXXXXXXX$8889999ruuubuMSB56||||||||||fJ(`]|||||||||",
"||||||||||||XXXXXXXXXXoXX%q999qq999ynz;466||||||||jxxc||||||||||",
"||||||||||||XXXXXXXXXXXXX%999999999rbg;466||||||||fjjj||||||||||",
"||||||||||XXXXXX|XXXXXXXX+$%q7o+$&qp2>;466666|||&,ii||||||||||||",
"||||||||||XXXXXX||XXX+XXXX.%q&X.X%97=;;4666666||&&&&||||||||||||",
"||||||||||XXXXXX||XXXXXXXXX+%$XXX$&2|;;;44456663&&&&||||||||||||",
"||||||||||XXXXXX||XXXXXXXXXXXXXX.*;;||;;;;;:66k5&&##||||||||||||",
"|||||||||XXXXXX|||XXXXXXXXXXXXXX*$=;||;;;;;:5553%lvv||||||||||||",
"||||||||XXXXXX||||XXXXXXXXXXXXX*;;;;||||||;;;-&&#L{{||||||||||||",
"||||||||XXXXXX||||XXXXXXXXXXXXX$;;;;||||||;;;-&&#L{{||||||||||||",
"||||||||XXXXXX||||||XXXXXXXXXXX*=;||||||||||||&&&a||||||||||||||",
"||||||||XXXXXX||||||XXXXXXXXXXXX=;||||||||||||&&&#||||||||||||||",
"||||||||XXXX||||||||XXXXXXXXX*==;=||||||||||||,,||||||||||||||||",
"||||||||XXXX||||||||XXXXXXXXX*;-=;||||||||||||,%||||||||||||||||",
"||||||||XXXX||||||||XXXXXXXXX*;=;;|||||||||||&&&||||||||||||||||",
"||||||||XX.X||||||||XXXXXXXXX*;;;;||||||||||&&&&||||||||||||||||",
"||||||||kkkk||||||||XXXXXXXXX*;-<<||||||||||,%,|||||||||||||||||",
"||||||||[[[[||||||||   XXXXXX*;1ff||||||||||%,||||||||||||||||||",
"||||||||{{{{||||||||   XXXXXX=;1jj||||||||||,,||||||||||||||||||",
"||||||||{}{{||||||         O#ihsjjj|||||||||||||||||||||||||||||",
"||||||||{{{{||||||o        O#pjjjjjj||||||||||||||||||||||||||||",
"||||||||||||||||||   o@@@$O%#ipdjjjj||||||||||||||||||||||||||||",
"||||||||||||||||||   O&&&&&&&&&pxfjj||||||||||||||||||||||||||||",
"|||||||||||||||||  oo@&&&&&&&&&idsjj||||||||||||||||||||||||||||",
"||||||||||||||||   O&&&&&&&&&&&&%pjjjj||||||||||||||||||||||||||",
"||||||||||||||||   @&&&&&&&&%%%&,iffjj||||||||||||||||||||||||||",
"|||||||||||||||| O##,##,||||Xo O&,,pjj||||||||||||||||||||||||||",
"|||||||||||||||| O,,,,,,||||   O&&&ijj||||||||||||||||||||||||||",
"||||||||||||||   o&&#&|||||||||oO@,,idj|||||||||||||||||||||||||",
"||||||||||||||   O&&,&|||||||||| O#,,ijj||||||||||||||||||||||||",
"|||||||||||||| o+@&&,&|||||||||| o@%,ijj||||||||||||||||||||||||",
"|||||||||||||| O,#&,%&|||||||||||| +%pjj||||||||||||||||||||||||",
"|||||||||||||| o,,,&,||||||||||||| o%iff||||||||||||||||||||||||",
"|||||||||||||| O%,%&||||||||||||||   +,pjj||||||||||||||||||||||",
"|||||||||||||| O,#,,||||||||||||||   O&pjf||||||||||||||||||||||",
"|||||||||||||| O,#|||||||||||||||||  O&&,,||||||||||||||||||||||",
"|||||||||||||| o,,|||||||||||||||||| O&&,,||||||||||||||||||||||",
"||||||||||||||@%%,|||||||||||||||||| O&&%,||||||||||||||||||||||",
"||||||||||||||&&,%|||||||||||||||||| O&&&&||||||||||||||||||||||",
"||||||||||||||&&&&|||||||||||||||||| o%%&,||||||||||||||||||||||",
"||||||||||||||&&%,|||||||||||||||||||| o,#||||||||||||||||||||||",
"||||||||||||||,&,&|||||||||||||||||||| O,,||||||||||||||||||||||"
};
