/* XPM */
static char *result[] = {
/* columns rows colors chars-per-pixel */
"64 64 246 2 ",
"   c #1B121C",
".  c #1C121C",
"X  c #1D121C",
"o  c #1C131C",
"O  c #1E131C",
"+  c #1F131C",
"@  c #1F131D",
"#  c #1C151C",
"$  c #1F141D",
"%  c #1C161C",
"&  c #191A1A",
"*  c #181B1B",
"=  c #1B1A1B",
"-  c #1A1B1B",
";  c #1B1B1B",
":  c #1C1B1B",
">  c #1D1B1B",
",  c #1F1B1C",
"<  c gray11",
"1  c #1E1E1E",
"2  c gray12",
"3  c #20141D",
"4  c #21141D",
"5  c #22151D",
"6  c #23151D",
"7  c #24161D",
"8  c #25161E",
"9  c #26171E",
"0  c #28171E",
"q  c #201B1C",
"w  c #211B1C",
"e  c #221B1C",
"r  c #261B1D",
"t  c #271B1D",
"y  c #281B1D",
"u  c #291B1D",
"i  c #29181E",
"p  c #291B1E",
"a  c #2C191F",
"s  c #2C1A1F",
"d  c #2D1A1F",
"f  c #2F1A1F",
"g  c #2F1C1D",
"h  c #301B1F",
"j  c #341C1F",
"k  c #321C20",
"l  c #331C20",
"z  c #351D20",
"x  c #361D20",
"c  c #361E20",
"v  c #361E21",
"b  c #371E21",
"n  c #381E20",
"m  c #381E21",
"M  c #381F21",
"N  c #391F21",
"B  c #3A1F21",
"V  c #3D1C20",
"C  c #3D1C22",
"Z  c #3E1C22",
"A  c #3F1C23",
"S  c #232323",
"D  c #242020",
"F  c #272223",
"G  c gray14",
"H  c gray15",
"J  c #262727",
"K  c #272727",
"L  c #282727",
"P  c #2D2627",
"I  c #2C2727",
"U  c #2D2827",
"Y  c gray16",
"T  c #2C2C2C",
"R  c #332123",
"E  c #312627",
"W  c #342526",
"Q  c #3B2021",
"!  c #382022",
"~  c #3C2022",
"^  c #3D2022",
"/  c #3D2122",
"(  c #3C2223",
")  c #332827",
"_  c #36282A",
"`  c #35302B",
"'  c #343434",
"]  c #353535",
"[  c #353636",
"{  c #3B3031",
"}  c #3B3232",
"|  c gray22",
" . c gray23",
".. c #3C3A3B",
"X. c gray24",
"o. c #3D3E3E",
"O. c #3E3E3E",
"+. c #451B23",
"@. c #421C23",
"#. c #451C23",
"$. c #461C24",
"%. c #4B1C22",
"&. c #4A1C24",
"*. c #4B1F27",
"=. c #501C26",
"-. c #511C26",
";. c #531C26",
":. c #541C26",
">. c #541C27",
",. c #551C27",
"<. c #561C27",
"1. c #571C27",
"2. c #581C27",
"3. c #591C27",
"4. c #5A1C27",
"5. c #5C1C27",
"6. c #5D1C28",
"7. c #621C28",
"8. c #651D28",
"9. c #661D28",
"0. c #6D1D29",
"q. c #701D27",
"w. c #701D29",
"e. c #731D29",
"r. c #771D2A",
"t. c #7B1E29",
"y. c #781D2A",
"u. c #7C1E29",
"i. c #7D1E29",
"p. c #7E1E29",
"a. c #7E1E2A",
"s. c #412222",
"d. c #412223",
"f. c #422323",
"g. c #442323",
"h. c #452323",
"j. c #442127",
"k. c #492524",
"l. c #4D2625",
"z. c #4E2725",
"x. c #512826",
"c. c #522826",
"v. c #552926",
"b. c #5B2927",
"n. c #582A27",
"m. c #592A27",
"M. c #592B27",
"N. c #5B2A27",
"B. c #5A2B27",
"V. c #512B28",
"C. c #572C28",
"Z. c #5B2B28",
"A. c #582C28",
"S. c #5C2C28",
"D. c #5D2C28",
"F. c #5E2C28",
"G. c #4D312E",
"H. c #4D322F",
"J. c #4A3839",
"K. c #4F3A3B",
"L. c #72202A",
"P. c #693A2C",
"I. c #713B26",
"U. c #794E30",
"Y. c #811E2A",
"T. c #821E2A",
"R. c #831E2B",
"E. c #841E2B",
"W. c #861E2B",
"Q. c #871E2B",
"!. c #881E2B",
"~. c #891E2B",
"^. c #8A1E2B",
"/. c #8B1E2B",
"(. c #8C1E2B",
"). c #8D1E2B",
"_. c #971F2C",
"`. c #84202B",
"'. c #892129",
"]. c #8E2129",
"[. c #90212A",
"{. c #98202C",
"}. c #9B202D",
"|. c #9E202D",
" X c #A4202D",
".X c #AA222D",
"XX c #AA212E",
"oX c #AC222E",
"OX c #B0222E",
"+X c #BE232F",
"@X c #BD242F",
"#X c #AD2631",
"$X c #B62731",
"%X c #BF2330",
"&X c #C12430",
"*X c #C22430",
"=X c #C32430",
"-X c #C42430",
";X c #C52430",
":X c #C62430",
">X c #C82431",
",X c #C92431",
"<X c #EC9416",
"1X c #FFA113",
"2X c #FFA114",
"3X c #FFA214",
"4X c #FFA314",
"5X c #FFA315",
"6X c #FFA415",
"7X c #FFA515",
"8X c #FFA616",
"9X c #FFA716",
"0X c #FFA717",
"qX c #FFAA18",
"wX c #FFAA1B",
"eX c #FFAE19",
"rX c #FFAF1A",
"tX c #FFAB1C",
"yX c #FFAC1D",
"uX c #FFB41D",
"iX c #FFB81D",
"pX c #FFBA1E",
"aX c #F8B723",
"sX c #FFC323",
"dX c #FFC423",
"fX c #FFC825",
"gX c #FFC728",
"hX c #FFD134",
"jX c #FFD537",
"kX c #FFD638",
"lX c #FFD93B",
"zX c #B89743",
"xX c #CDAA42",
"cX c #FFDE4A",
"vX c #F5DF54",
"bX c #FFE24F",
"nX c #FFE350",
"mX c #FFEA56",
"MX c #FFEB57",
"NX c #FFEC54",
"BX c #CCA483",
"VX c #DCB58F",
"CX c #DEB48F",
"ZX c #F6CA9F",
"AX c #F8CBA0",
"SX c None",
/* pixels */
"SXSXSXSXSXSXSXSXSXSXSXSXSXSXSXSXSXSXSXSXSXSXSXSXSXSXSXSXSXSXSXSXSXSXSXSXSXSXSXSXSXSXSXSXSXSXSXSXSXSXSXSXSXSXSXSXSXSXSXSXSXSXSXSX",
"SXSXSXSXSXSXSXSXSXSXSXSXSXSXSXSXSXSXSXSXSXSXSXSXSXSXSXSXSXSXSXSXSXSXSXSXSXSXSXSXSXSXSXSXSXSXSXSXSXSXSXSXSXSXSXSXSXSXSXSXSXSXSXSX",
"SXSXSXSXSXSXSXSXSXSXSXSXSXSXSXSXSXSXSXSXSXSXSXSXSXSXSXSXSXSXSXSXSXSXSXSXSXSXSXSXSXSXSXSXSXSXSXSXSXSXSXSXSXSXSXSXSXSXSXSXSXSXSXSX",
"SXSXSXSXSXSXSXSXSXSXSXSXSXSXSXSXSXSXSXSXSXSXSXSXSXSXSXSXSXSXSXSXSXSXSXSXSXSXSXSXSXSXSXSXSXSXSXSXSXSXSXSXSXSXSXSXSXSXSXSXSXSXSXSX",
"SXSXSXSXSXSXSXSXSXSXSXSXSXSXSXSXSXSXSXSXSXSXSXSXSXSXSXSXSXSXSXSXSXSXSXSXSXSXSXSXSXSXSXSXSXSXSXSXSXSXSXSXSXSXSXSXSXSXSXSXSXSXSXSX",
"SXSXSXSXSXSXSXSXSXSXSXSXSXSXSXSXSXSXSXSXSXSXSXSXSXSXSXSXSXSXSXSXSXSXSXSXSXSXSXSXSXSXSXSXSXSXSXSXSXSXSXSXSXSXSXSXSXSXSXSXSXSXSXSX",
"SXSXSXSXSXSXSXSXSXSXSXSXSXSXSXSXSXSXSXSXSXSXSXSXSXSXSXSXSXSXSXSXSXSXSXSXSXSXSXSXSXSXSXSXSXSXSXSXSXSXSXSXSXSXSXSXSXSXSXSXSXSXSXSX",
"SXSXSXSXSXSXSXSXSXSXSXSXSXSXSXSXSXSXSXSXSXSXSXSXSXSXSXSXSXSXSXSXSXSXSXSXSXSXSXSXSXSXSXSXSXSXSXSXSXSXSXSXSXSXSXSXSXSXSXSXSXSXSXSX",
"SXSXSXSXSXSXSXSXSXSXSXSXSXSXSXSXSXSXSXSXSXSXSXSXSXSXSXSXSXSXSXSXSXSXSXSXSXSXSXSXSXSXSXSXSXSXSXSXSXSXSXSXSXSXSXSXSXSXSXSXSXSXSXSX",
"SXSXSXSXSXSXSXSXSXSXSXSXSXSXSXSXSXSXSXSXSXSXSXSXSXSXSXSXSXSXSXSXSXSXSXSXSXSXSXSXSXSXSXSXSXSXSXSXSXSXSXSXSXSXSXSXSXSXSXSXSXSXSXSX",
"SXSXSXSXSXSXSXSXSXSXSXSXSXSXSXSXSXSXSX~.~.!.|.-X-XSXSXSXSXSXSXSXSXSXSXSXSXSXSXSXSXSXSXSXSXSXSXSXSXSXSXSXSXSXSXSXSXSXSXSXSXSXSXSX",
"SXSXSXSXSXSXSXSXSXSXSXSXSXSXSXSXSXSXSX~.~.!.}.+X=XSXSXSXSXSXSXSXSXSXSXSXSXSXSXSXSXSXSXSXSXSXSXSXSXSXSXSXSXSXSXSXSXSXSXSXSXSXSXSX",
"SXSXSXSXSXSXSXSXSXSXSXSXSXSXSXSXSX~.~.~.~.~.(._.%X;X-XSXSXSXSXSXSXSXSXSXSXSXSXSXSXSXSXSXSXSXSXSXSXSXSXSXSXSXSXSXSXSXSXSXSXSXSXSX",
"SXSXSXSXSXSXSXSXSXSXSXSXSXSXSXSXSX~.~.~.~.Y.t.T..X@X;XSXSXSXSXSXSXSXSXSXSXSXSXSXSXSXSXSXSXSXSXSXSXSXSXSXSXSXSXSXSXSXSXSXSXSXSXSX",
"SXSXSXSXSXSXSXSXSXSXSXSXSXSXSXSXSX~.~.~.~.%.r u g [.>XSXSXSXSXSXSXSXSXSXSXSXSX3XSXSXSXSXSXSXSXSXSXSXSXSXSXSXSXSXSXSXSXSXSXSXSXSX",
"SXSXSXSXSXSXSXSXSXSXSXSXSXSXSXSXSX~.~.Q.i.V * - - '.,XSXSXSXSXSXSXSXSXSXSXSXSX3XSXSXSXSXSXSXSXSXSXSXSXSXSXSXSXSXSXSXSXSXSXSXSXSX",
"SXSXSXSXSXSXSXSXSXSXSXSXSXSXSXSXSX~.^.i.j , ; ; : '.,XSXSXSXSXSXSXSXSXSXSXSXSX3X3X3X3XSXSXSXSXSXSXSXSXSXSXSXSXSXSXSXSXSXSXSXSXSX",
"SXSXSXSXSXSXSXSXSXSXSXSXSXSXSXSXSXW.^.u.t - ; ; : '.,XSXSXSXSXSXSXSXSXSXSXSXSX9X8X6X3XSXSXSXSXSXSXSXSXSXSXSXSXSXSXSXSXSXSXSXSXSX",
"SXSXSXSXSXSXSXSXSXSXSXSXSXSXSXSX1.y./.u.y - ; ; : '.,XSXSXSXSXSXSXSXSXSXSX2XrXsXdXeX2XSXSXSXSXSXSXSXSXSXSXSXSXSXSXSXSXSXSXSXSXSX",
"SXSXSXSXSXSXSXSXSXSXSXSXSXSXSXSX1.r./.u.y - ; ; : '.,XSXSXSXSXSXSXSXSXSXSX2XrXfXdXeX2XSXSXSXSXSXSXSXSXSXSXSXSXSXSXSXSXSXSXSXSXSX",
"SXSXSXSXSXSXSXSXSXSXSXSXSXSXSXSX1.r./.u.t - ; ; ; '.,XSXSXSXSXSXSXSXSXSXSX1XrXdXqX5X3XSXSXSXSXSXSXSXSXSXSXSXSXSXSXSXSXSXSXSXSXSX",
"SXSXSXSXSXSXSXSXSXSXSXSXSXSXSXSX1.e.Q.i.j , ; > t ].>XSXSXSXSXSXSXSXSXSXSX7XuXgX0X3X3XSXSXSXSXSXSXSXSXSXSXSXSXSXSXSXSXSXSXSXSXSX",
"SXSXSXSXSXSXSXSXSXSXSXSXSXSXSX1.1.4.0.!.i.V * r q.oX:XSXSXSXSXSXSXSXSXSX3XiXhXcXwXSXSXSXSXSXSXSXSXSXSXSXSXSXSXSXSXSXSXSXSXSXSXSX",
"SXSXSXSXSXSXSXSXSXSXSXSXSXSXSX1.1.<.9.E.~.%.r j p.OX;XSXSXSXSXSXSXSXSXSX3XpXkXbXtXSXSXSXSXSXSXSXSXSXSXSXSXSXSXSXSXSXSXSXSXSXSXSX",
"SXSXSXSXSXSXSXSXSXSXSXSX; @.3.1.1.1.3.7.E.Y.u.i.!.OX;X-XSXSXSXSXSXSXSXSX4XpXjXbXtXSXSXSXSXSXSXSXSXSXSXSXSXSXSXSXSXSXSXSXSXSXSXSX",
"SXSXSXSXSXSXSXSXSXSXSXSX; C -.=.=.:.1.5.a.E.W.^.~.XX&X*XSXSXSXSXSXSXSXSX<XaXlXnXyXSXSXSXSXSXSXSXSXSXSXSXSXSXSXSXSXSXSXSXSXSXSXSX",
"SXSXSXSXSXSXSXSXSXSXSX; ; q e e e #.2.2.5.5.0.~.~.). X$XK.SXSXSXSXSXSXSXI.xXNXmXSXSXSXSXSXSXSXSXSXSXSXSXSXSXSXSXSXSXSXSXSXSXSXSX",
"SXSXSXSXSXSXSXSXSXSXSX; ; ; ; ; ; C -.-.<.<.9.R.R.T.{.#XJ.SXSXSXSXSXSXSXS.zXvXMXSXSXSXSXSXSXSXSXSXSXSXSXSXSXSXSXSXSXSXSXSXSXSXSX",
"SXSXSXSXSXSXSXSXSXSXSX; ; ; ; ; ; q e p -.1.3.6.6.5.w.`._ [ O.SXSXSXSXSXD.P.U.SXSXSXSXSXSXSXSXSXSXSXSXSXSXSXSXSXSXSXSXSXSXSXSXSX",
"SXSXSXSXSXSXSXSXSXSXSX; ; ; ; ; ; ; - w &.,.>.=.=.;.8.L.E ] O.SXSXSXSXSXn.N.b.SXSXSXSXSXSXSXSXSXSXSXSXSXSXSXSXSXSXSXSXSXSXSXSXSX",
"SXSXSXSXSXSXSXSXSX; ; ; ; SXSX; ; ; ; : w $.$.e e +.*.E L ] O.X.X.SXSXB ^ SXSXSXSXSXSXSXSXSXSXSXSXSXSXSXSXSXSXSXSXSXSXSXSXSXSXSX",
"SXSXSXSXSXSXSXSXSX; ; ; ; SXSX; ; ; ; ; ; Z Z ; ; A j.J K '  . .X.SXSXN N SXSXSXSXSXSXSXSXSXSXSXSXSXSXSXSXSXSXSXSXSXSXSXSXSXSXSX",
"SXSXSXSXSXSXSXSXSX; ; ; ; SXSX; ; ; ; ; ; q q ; ; F P SXK Y Y T  .o.} N n SXSXSXSXSXSXSXSXSXSXSXSXSXSXSXSXSXSXSXSXSXSXSXSXSXSXSX",
"SXSXSXSXSXSXSXSXSX; ; ; ; SXSX; ; ; ; ; ; ; ; ; < S K SXK K K Y | ..{ ( G.SXSXSXSXSXSXSXSXSXSXSXSXSXSXSXSXSXSXSXSXSXSXSXSXSXSXSX",
"SXSXSXSXSXSXSXSX; ; ; ; SXSXSX; ; ; ; ; ; ; ; < G K K SXSXSXSXK Y W ! G.BXSXSXSXSXSXSXSXSXSXSXSXSXSXSXSXSXSXSXSXSXSXSXSXSXSXSXSX",
"SXSXSXSXSXSXSXSX; ; ; ; SXSXSX; ; ; ; ; ; ; ; < H K K SXSXSXSXK K R n H.CXSXSXSXSXSXSXSXSXSXSXSXSXSXSXSXSXSXSXSXSXSXSXSXSXSXSXSX",
"SXSXSXSXSXSXSXSX; ; ; ; SXSXSXSX; ; ; ; ; ; ; < H SXSXSXSXSXSXSXSXM N ( SXSXSXSXSXSXSXSXSXSXSXSXSXSXSXSXSXSXSXSXSXSXSXSXSXSXSXSX",
"SXSXSXSXSXSXSXSX; ; ; ; SXSXSXSX; ; ; ; ; ; ; 1 H SXSXSXSXSXSXSXSXN N N SXSXSXSXSXSXSXSXSXSXSXSXSXSXSXSXSXSXSXSXSXSXSXSXSXSXSXSX",
"SXSXSXSXSXSXSXSX; ; ; SXSXSXSXSX; ; ; ; ; ; 2 H K SXSXSXSXSXSXSXSXN N SXSXSXSXSXSXSXSXSXSXSXSXSXSXSXSXSXSXSXSXSXSXSXSXSXSXSXSXSX",
"SXSXSXSXSXSXSXSX; ; ; SXSXSXSXSX; ; ; ; ; ; 2 K K SXSXSXSXSXSXSXSXN N SXSXSXSXSXSXSXSXSXSXSXSXSXSXSXSXSXSXSXSXSXSXSXSXSXSXSXSXSX",
"SXSXSXSXSXSXSXSX& & & SXSXSXSXSX; ; ; ; ; ; 2 K K SXSXSXSXSXSXSXN N N SXSXSXSXSXSXSXSXSXSXSXSXSXSXSXSXSXSXSXSXSXSXSXSXSXSXSXSXSX",
"SXSXSXSXSXSXSXSX` ` ` SXSXSXSXSX= = = ; ; ; 2 L U SXSXSXSXSXSXSXN N N SXSXSXSXSXSXSXSXSXSXSXSXSXSXSXSXSXSXSXSXSXSXSXSXSXSXSXSXSX",
"SXSXSXSXSXSXSXSXVXVXVXSXSXSXSXSXo o % ; ; ; 2 I V.SXSXSXSXSXSXSXN SXSXSXSXSXSXSXSXSXSXSXSXSXSXSXSXSXSXSXSXSXSXSXSXSXSXSXSXSXSXSX",
"SXSXSXSXSXSXSXSXAXAXAXSXSXSXSXSX. . # = = > D ) A.SXSXSXSXSXSXSXN SXSXSXSXSXSXSXSXSXSXSXSXSXSXSXSXSXSXSXSXSXSXSXSXSXSXSXSXSXSXSX",
"SXSXSXSXSXSXSXSXZXZXZXSXSXSXSX. . . . o o s f.C.S.D.D.SXSXSXSXSXSXSXSXSXSXSXSXSXSXSXSXSXSXSXSXSXSXSXSXSXSXSXSXSXSXSXSXSXSXSXSXSX",
"SXSXSXSXSXSXSXSXZXZXZXSXSXSXSX. . O 3 @ 3 h h.M.D.D.D.SXSXSXSXSXSXSXSXSXSXSXSXSXSXSXSXSXSXSXSXSXSXSXSXSXSXSXSXSXSXSXSXSXSXSXSXSX",
"SXSXSXSXSXSXSXSXSXSXSXSXSXSXSX. . a c x x m B d.M.D.D.SXSXSXSXSXSXSXSXSXSXSXSXSXSXSXSXSXSXSXSXSXSXSXSXSXSXSXSXSXSXSXSXSXSXSXSXSX",
"SXSXSXSXSXSXSXSXSXSXSXSXSXSXSX. @ h B N N N N ^ v.S.D.SXSXSXSXSXSXSXSXSXSXSXSXSXSXSXSXSXSXSXSXSXSXSXSXSXSXSXSXSXSXSXSXSXSXSXSXSX",
"SXSXSXSXSXSXSXSXSXSXSXSXSX. . + k M N N N N N B ^ c.F.D.SXSXSXSXSXSXSXSXSXSXSXSXSXSXSXSXSXSXSXSXSXSXSXSXSXSXSXSXSXSXSXSXSXSXSXSX",
"SXSXSXSXSXSXSXSXSXSXSXSXSX. X 6 v N N N N b z c M l.Z.D.SXSXSXSXSXSXSXSXSXSXSXSXSXSXSXSXSXSXSXSXSXSXSXSXSXSXSXSXSXSXSXSXSXSXSXSX",
"SXSXSXSXSXSXSXSXSXSXSXSXSX  8 c N N N SXSX4 @ 5 v Q k.D.SXSXSXSXSXSXSXSXSXSXSXSXSXSXSXSXSXSXSXSXSXSXSXSXSXSXSXSXSXSXSXSXSXSXSXSX",
"SXSXSXSXSXSXSXSXSXSXSXSXSX  9 N N N N SXSX. . @ l b g.m.SXSXSXSXSXSXSXSXSXSXSXSXSXSXSXSXSXSXSXSXSXSXSXSXSXSXSXSXSXSXSXSXSXSXSXSX",
"SXSXSXSXSXSXSXSXSXSXSXSX.   9 N N SXSXSXSXSXSXSX$ h Q s.m.SXSXSXSXSXSXSXSXSXSXSXSXSXSXSXSXSXSXSXSXSXSXSXSXSXSXSXSXSXSXSXSXSXSXSX",
"SXSXSXSXSXSXSXSXSXSXSXSX. O i N N SXSXSXSXSXSXSX. d b ^ m.SXSXSXSXSXSXSXSXSXSXSXSXSXSXSXSXSXSXSXSXSXSXSXSXSXSXSXSXSXSXSXSXSXSXSX",
"SXSXSXSXSXSXSXSXSXSXSXSX. a b N N SXSXSXSXSXSXSXSX+ 0 / M.SXSXSXSXSXSXSXSXSXSXSXSXSXSXSXSXSXSXSXSXSXSXSXSXSXSXSXSXSXSXSXSXSXSXSX",
"SXSXSXSXSXSXSXSXSXSXSXSX. f B N N SXSXSXSXSXSXSXSX  7 B v.SXSXSXSXSXSXSXSXSXSXSXSXSXSXSXSXSXSXSXSXSXSXSXSXSXSXSXSXSXSXSXSXSXSXSX",
"SXSXSXSXSXSXSXSXSXSXSXSX. f B N SXSXSXSXSXSXSXSXSX. X 6 B x.F.SXSXSXSXSXSXSXSXSXSXSXSXSXSXSXSXSXSXSXSXSXSXSXSXSXSXSXSXSXSXSXSXSX",
"SXSXSXSXSXSXSXSXSXSXSXSX. f B N SXSXSXSXSXSXSXSXSX. . @ z z.B.SXSXSXSXSXSXSXSXSXSXSXSXSXSXSXSXSXSXSXSXSXSXSXSXSXSXSXSXSXSXSXSXSX",
"SXSXSXSXSXSXSXSXSXSXSXSX. f B SXSXSXSXSXSXSXSXSXSXSXSX$ x ~ / SXSXSXSXSXSXSXSXSXSXSXSXSXSXSXSXSXSXSXSXSXSXSXSXSXSXSXSXSXSXSXSXSX",
"SXSXSXSXSXSXSXSXSXSXSXSX3 h B SXSXSXSXSXSXSXSXSXSXSXSX$ x N N SXSXSXSXSXSXSXSXSXSXSXSXSXSXSXSXSXSXSXSXSXSXSXSXSXSXSXSXSXSXSXSXSX",
"SXSXSXSXSXSXSXSXSXSXSXSXx m N SXSXSXSXSXSXSXSXSXSXSXSX$ c N N SXSXSXSXSXSXSXSXSXSXSXSXSXSXSXSXSXSXSXSXSXSXSXSXSXSXSXSXSXSXSXSXSX",
"SXSXSXSXSXSXSXSXSXSXSXSXN N N SXSXSXSXSXSXSXSXSXSXSXSX$ l M N SXSXSXSXSXSXSXSXSXSXSXSXSXSXSXSXSXSXSXSXSXSXSXSXSXSXSXSXSXSXSXSXSX",
"SXSXSXSXSXSXSXSXSXSXSXSXN N N SXSXSXSXSXSXSXSXSXSXSXSXSX$ h B SXSXSXSXSXSXSXSXSXSXSXSXSXSXSXSXSXSXSXSXSXSXSXSXSXSXSXSXSXSXSXSXSX",
"SXSXSXSXSXSXSXSXSXSXSXSXN N N SXSXSXSXSXSXSXSXSXSXSXSXSX. f B SXSXSXSXSXSXSXSXSXSXSXSXSXSXSXSXSXSXSXSXSXSXSXSXSXSXSXSXSXSXSXSXSX"
};
