/* XPM */
static char *_9ae05a16aae4efda4014403be5f4b0dUOEVtUEAwdg424HH[] = {
/* columns rows colors chars-per-pixel */
"64 64 97 2 ",
"   c None",
".  c #1C121C",
"X  c #171B1A",
"o  c #1B1B1B",
"O  c #23151D",
"+  c #28171E",
"@  c #231B1D",
"#  c #2D1B1E",
"$  c #321C1F",
"%  c #341D20",
"&  c #391F21",
"*  c #262626",
"=  c #2C2626",
"-  c #2C2C2C",
";  c #3C2122",
":  c #302827",
">  c #3E2927",
",  c #3A2729",
"<  c #3A2D2E",
"1  c #343434",
"2  c #3E3730",
"3  c #3D3D3D",
"4  c #441C23",
"5  c #4C1C24",
"6  c #561C27",
"7  c #591C27",
"8  c #671D26",
"9  c #6A1D26",
"0  c #631D28",
"q  c #691D28",
"w  c #701D27",
"e  c #731D29",
"r  c #7B1E2A",
"t  c #442323",
"y  c #4B2524",
"u  c #442927",
"i  c #4C2A28",
"p  c #502726",
"a  c #582627",
"s  c #542926",
"d  c #5A2B27",
"f  c #5F2229",
"g  c #542B28",
"h  c #5D2C28",
"j  c #493B3C",
"k  c #5B3E38",
"l  c #6A212A",
"z  c #602F29",
"x  c #6D3726",
"c  c #64352A",
"v  c #744028",
"b  c #6D4E44",
"n  c #79594C",
"m  c #831E2A",
"M  c #8A1E2B",
"N  c #901F2C",
"B  c #8C232D",
"V  c #93212A",
"C  c #9C212C",
"Z  c #A3212E",
"A  c #AA212E",
"S  c #B1232E",
"D  c #BC232F",
"F  c #AE2832",
"G  c #B02832",
"H  c #C42430",
"J  c #C82430",
"K  c #8A6135",
"L  c #967039",
"P  c #A17D66",
"I  c #AA873E",
"U  c #E89117",
"Y  c #EA9518",
"T  c #FFA214",
"R  c #FFA917",
"E  c #FFAD1D",
"W  c #FFB41C",
"Q  c #FFB91E",
"!  c #FFAF20",
"~  c #FFBE20",
"^  c #FEC223",
"/  c #FFC925",
"(  c #FFCD2B",
")  c #FFCC31",
"_  c #FFD639",
"`  c #FFD93D",
"'  c #DCC24D",
"]  c #E0C249",
"[  c #FFDD46",
"{  c #FFE24A",
"}  c #FFE652",
"|  c #FFEA56",
" . c #FFEC58",
".. c #E4BC94",
"X. c #F6CA9F",
"o. c #F7CBA0",
"O. c #F9CDA1",
/* pixels */
"                                        M M M M M m M D H H H H                                                                 ",
"                                        M M M M M M N D H H H H                                                                 ",
"                                    M M M m M M M M M N C S J J H H                                                             ",
"                                  M M m M M M M M N M N B Z J J H H                                                             ",
"                                  M M M M M M M r 9 9 9 9 r V V D H                                                             ",
"                                  M M M M M M M 0 o o o @ o o $ S H                                               T T           ",
"                                  M M M M M m m 7 o o o o o o # S H                                               T T           ",
"                                  M M M M m 4 # @ o o o o o o # S H                                               T T T T T T T ",
"                                  M M M m m $ o o o o o o o X # S H                                               T T T T T T T ",
"                              6 6 m M M M m $ o o o o o o o o $ S H                                           T E W W Q W E T T ",
"                              6 7 r M M M m $ o o o o o o o X $ S H                                         T T W / / / / W T T ",
"                              6 6 r M M M m $ o o o o o o o X $ S H                                         T T W / / Q ^ W T T ",
"                              6 7 r M M M m $ X o o o o o o o # S H                                         T T E / / R T T T T ",
"                              6 7 r M M M M $ o o o o o o o o $ S H                                         T T W / / R T T T T ",
"                          6 6 6 6 7 8 w M M w w 5 o o o o 4 q r D H                                     T T W ~ ) { [ E T T     ",
"                        6 6 6 6 6 6 6 8 M M M M 8 X o X o 5 M N D H                                     T T ^ / _  .} E T T     ",
"                        6 6 6 6 6 6 6 0 e e m M w 5 4 4 5 q M N D H H                                   T R ^ / _ | } E T T     ",
"              o o @ 6 6 6 6 6 6 6 6 6 6 6 6 m M M M M M M M M N D H H H H                               T T ^ / _ | } ! T T     ",
"              o o @ 5 6 6 5 5 5 6 6 6 6 6 6 r m M m m M M M M M D D D H H                               Y Y ~ ( ` | } ! T       ",
"          o o o o o @ @ @ @ @ @ @ 5 6 6 6 6 7 6 7 7 7 m M M M M M B S H G j 3                           x x ' | | | |           ",
"          o o o o o o o o o o o o 4 7 6 6 7 7 6 7 6 7 m M M M M M M A H G j 3                           d c '  .|  .|           ",
"          o o o o o o o o o o o o + % % $ % 5 7 6 6 7 0 q q q q q q M Z B 1 - 1 3 3                     h z K L I               ",
"          o o o o o o o o o o o o o o o o o 5 7 6 6 6 7 6 6 6 6 6 6 9 M r = * 1 3 3                     h h d d a               ",
"          o o o o o o o o o o o o o o o o o & 4 5 6 6 4 4 4 4 4 6 6 l l f = * 3 3 3                   y s s d h                 ",
"    o o o o o o o o     o o o o o o o o o o o o % 6 6 O o o o @ 5 6 , = = * * 1 3 3 3 3 3 3 3     & & & & &                     ",
"    o o o o o o o o     o o o o o o o o o o o o $ 6 5 @ X o o @ 5 6 , * * * * 1 3 3 3 3 3 3 3     & & & & &                     ",
"    o o o o o o o o     o o o o o o o o o o o o o @ @ o o o o o = = =     * * - - - - - 1 3 3 3 3 , & & ; &                     ",
"    o o o o o o o o     o o o o o o o o o o o o o o o o o o o o * *       * * * * * * - 1 3 3 3 3 , & & $ &                     ",
"o o o o o o o o         o o o o o o o o o o o o o o o o o @ * * * *               * * * - - 1 < < ; & k P P                     ",
"o o o o o o o           o o o o o o o o o o o o o o o o o * * * - *                 * * = * = & & & $ n o.O.                    ",
"o o o o o o o           o o o o o o o o o o o o o o o o o * * * * *                 * * * * = & & & $ b X.X.                    ",
"o o o o o o o                 o o o o o o o o o o o o o o o * *                               & & & & t                         ",
"o o o o o o o                 o o o o o o o o o o o o o X * - *                               & & & & &                         ",
"o o o o o                     o o o o o o o o o o o o * * * * *                               & ;                               ",
"o o o o o                     o o o o o o o o o o o o * * * * *                               & &                               ",
"o o o o o                     o o o o o o o o o o o o * * * * *                             & & &                               ",
"o o X . o                     o o o o o o o o o o o o * * * * *                         & & & & &                               ",
"2 2 2 2 2                     o o X o X o o o o o o o * * * < :                         & & & & &                               ",
"..........                    . . . . . o o o o o o o * * > d d                         & & &                                   ",
"X.X.X.X.o.                    . . . . . o o o o o o o * * u h h                         & & &                                   ",
"X.X.X.X.X.                . . . . . . . . . . o O $ = y i s h h h h                                                             ",
"X.X.X.X.X.              . . . . . . . O . . . . + & & d z h h h h h                                                             ",
"X.X.X.X.X.              . . . . . O + # O + + O # & ; y p s h h h h                                                             ",
"                        . . . . . $ $ $ & & & & & & & & & y h h h h                                                             ",
"                        . . . . . $ & & & & & & & & & & & y d d h h h                                                           ",
"                    . . . . O & & & & & & & & & & & & & & ; ; t d h h h h                                                       ",
"                    . . . . O & & & & & & & & & & & & & & & & & d h h h h                                                       ",
"                    . . + # # & & & ; &         # + + + + # & ; u y p h h                                                       ",
"                    . . $ & & & & & & &           . . . . + & & & & y z z                                                       ",
"                    . . % ; & & & & &             . . . . + % % & & y s s                                                       ",
"              . . . . . # & & & &                           . O $ & & & t d h                                                   ",
"              . . . . . $ & & & &                           . . & & & & & d h                                                   ",
"              . . O # % & & & & &                               O . # & ; d h                                                   ",
"              . . O & & & & & & &                               . . # & ; d h                                                   ",
"              . . O & & & & & & &                               . . O + % y y s                                                 ",
"              . . . & & & & &                                   . . . . . & & p h h                                             ",
"              . . O & & & & &                                   . . . . O % & y d d                                             ",
"              . . O & &                                             . . O & & & ; ;                                             ",
"              . . O & &                                             . . O & & & & &                                             ",
"              % % # & &                                             . . . & & & & &                                             ",
"              & & & & &                                             . . O & & & & &                                             ",
"              & & & & &                                               . O + # % & &                                             ",
"              & & & & &                                                   . . + & &                                             ",
"              & & & & &                                                   . . % & &                                             "
};