/* XPM */
static char *_834913d087d47a0b4fe80f3d4db9c7eRU18SL570G5Qztz8[] = {
/* columns rows colors chars-per-pixel */
"64 64 93 2 ",
"   c None",
".  c #1C121C",
"X  c #171B1A",
"o  c #1B1B1B",
"O  c #23151D",
"+  c #28171E",
"@  c #251B1D",
"#  c #2B1A1F",
"$  c #331C1F",
"%  c #3D1D1F",
"&  c #351C20",
"*  c #391F21",
"=  c #262626",
"-  c #292727",
";  c #2B2B2B",
":  c #332325",
">  c #3D2223",
",  c #3F2927",
"<  c #3B2B2C",
"1  c #363636",
"2  c #3C3C3C",
"3  c #431D21",
"4  c #4B1C23",
"5  c #561C27",
"6  c #591C27",
"7  c #5E1C28",
"8  c #651D26",
"9  c #6D1D27",
"0  c #621C28",
"q  c #6C1D29",
"w  c #721D29",
"e  c #7D1E2A",
"r  c #422223",
"t  c #4B2624",
"y  c #492826",
"u  c #4D2629",
"i  c #452A28",
"p  c #552927",
"a  c #592A27",
"s  c #532B28",
"d  c #5D2C28",
"f  c #4C302E",
"g  c #4F3330",
"h  c #6D252B",
"j  c #7F262D",
"k  c #653227",
"l  c #64352A",
"z  c #6E3C29",
"x  c #65473E",
"c  c #774B30",
"v  c #7E5332",
"b  c #6B4C42",
"n  c #851E2B",
"m  c #891E2B",
"M  c #951F2C",
"N  c #981F2C",
"B  c #9A202D",
"V  c #872F35",
"C  c #892F36",
"Z  c #B5232F",
"A  c #BC242F",
"S  c #BF2330",
"D  c #B12832",
"F  c #C42430",
"G  c #C92430",
"H  c #936630",
"J  c #DF8C1A",
"K  c #FFA314",
"L  c #FFA718",
"P  c #FFAC18",
"I  c #FFB61D",
"U  c #FFBD20",
"Y  c #FFC222",
"T  c #FFC925",
"R  c #FFCC33",
"E  c #FFD436",
"W  c #FDD53E",
"Q  c #FFD93C",
"!  c #D6BB4B",
"~  c #DFC54D",
"^  c #FFDB42",
"/  c #F8D74A",
"(  c #FFDE4B",
")  c #FFE24A",
"_  c #F8E456",
"`  c #FFE852",
"'  c #FFEC58",
"]  c #C9A684",
"[  c #DBB28D",
"{  c #E0B690",
"}  c #F2C79C",
"|  c #F6CA9F",
" . c #F9CCA1",
/* pixels */
"                                                                                                                                ",
"                                                                                                                                ",
"                                                                                                                                ",
"                                                                                                                                ",
"                                                                                                                                ",
"                                      m m m m B F F F F F F F                                                 K K               ",
"                                      m m m m B Z Z F F F F F                                                 K K               ",
"                                  m m m m m m m m M A F G F F F F                                             K K               ",
"                                  m m m m m m m n m Z A A A A F F                                             K K               ",
"                                  m m m m m m 9 $ $ % % % % 6 F F                                                               ",
"                                  m m m m m m 8 X X X o X X % F F                                                               ",
"                                  m m m m 7 4 % o o o o o X 3 A F                                             K K K K K K       ",
"                                  m m m m 3 X o o o o o o o % A F                                             K K K K K K K     ",
"                                e m m m m 3 X o o o o o o o 3 A F                                           P P L K K K K K     ",
"                            5 5 9 m m m m 3 o o o o o o o o 3 A F                                       K K I T I L K K K K     ",
"                            5 5 9 m m m m % X o o o o o o o 3 A F                                       L K I T Y L K K K K     ",
"                            5 5 q m m m m 3 o o o o o o o o 3 A F                                   K L U Y T T U L K           ",
"                            5 5 q m m m m 3 o o o o o o o o 3 A F                                   K K Y T T T I L K           ",
"                        5 5 5 5 7 q q n m w q 4 o o o X 3 8 e F F                                   K K Y T E ) Q L K           ",
"                        5 6 5 6 5 5 6 n m m m 0 o o X . 6 m N F F                                   K K U T Q ' ) L K           ",
"                      5 5 5 5 5 5 5 7 w w e m w 4 4 4 4 q m M F F F                                 K L R Q ) ' ( L K           ",
"              o o * 6 6 6 6 6 5 5 5 5 5 6 e m m m m m m m m M F F F F F                             K L ^ ' ' ' ( L K           ",
"              o o & 4 4 4 4 4 4 5 5 5 5 5 w n e e n n m m n M F F F F D                             J J / ' ` ) ^ L K           ",
"          o o o o o o @ o o @ o & 5 5 5 5 5 7 7 6 7 n m m m N S F F G C 2 2                         k z ~ ' ^ T T               ",
"          o o o o o o o o o o o & 5 5 5 5 5 5 5 5 6 n n n n M S F F F C 2 2                         d l ! _ W T T               ",
"          o o o o o o o o o o o o + @ @ + 4 5 5 5 6 7 0 0 7 q M B S F j ; ; 2 2                     d d c v H                   ",
"          o o o o o o o o o o o o X X X X 3 7 7 5 7 5 5 5 5 0 V n Z G j = ; 2 2                     a d a a a                   ",
"      o o o o o o o   o o o o o o o o o X + & * 5 5 * & & & 3 q q h h u = ; 2 2 2 2 2 2 2       * r t t p                       ",
"    o o o o o o o       o o o o o o o o o o X & 5 5 + X o X # 5 5 : = = = ; 2 2 2 2 2 2 2     & * * & >                         ",
"    o o o o o o o       o o o o o o o o o o o # 3 * + o o o @ 3 r ; ; = = ; 1 1 1 1 2 2 2     > * * & >                         ",
"    o o o o o o o       o o o o o o o o o o o o o o o o o o o = =       = ; = = = = ; 2 2 2 2 < * * & >                         ",
"    o o o o o o o       o o o o o o o o o o o o o o o o o o = = =       = = = = = = 1 2 2 2 2 < % , g f                         ",
"o o o o o o o           o o o o o o o o o o o o o o o o = = = = ;               - = - ; ; : > > $ x [ {                         ",
"o o o o o o o           o o o o o o o o o o o o o o o o = = = = =               = = = = - : * * & b }  .                        ",
"o o o o o o o               o o o o o o o o o o o o o o o = ;                             * * * % f                             ",
"o o o o o o o               o o o o o o o o o o o o o o = = =                             * * * > *                             ",
"o o o o o o o               o o o o o o o o o o o o o = = = =                             & * * &                               ",
"o o o o o                   o o o o o o o o o o o o = = = = =                             > *                                   ",
"o o o o o                   o o o o o o o o o o o o = = = - -                             > *                                   ",
"o o o o o                   o o o o o o o o o o o o = = = = -                         * > & *                                   ",
"= @ = = @                   o o o o o o o o o o o o = = - - -                         > * * *                                   ",
"] ] ] ] ]               . . . . . o . o o o o o o o = = , s s d d                     & *                                       ",
" . . . . .              . . . . . . . o o o o o o @ = = i d d d d                     > *                                       ",
"| | | | |               . . . . O # # # $ # # # # # - : y d d d d                                                               ",
"| | | | |               . . . . @ * * * * * > * * * * * t d d d d                                                               ",
"| | | |                 . . O O # * * * * * * * * * * * t s p d d                                                               ",
"                  . . . . . # > % > * * * * * * * * * * * * r a d d d d                                                         ",
"                  . . . . O $ * * * * * * * * * * & & & & * r a a d d d                                                         ",
"              . . . . O $ & * * * * *           O o O . # * * r r p d d d d                                                     ",
"              . . . . O & * * * * * *           . . . . # * * * * p d d d d                                                     ",
"              . . . . O & > * * *                       O O O O @ * r t d d                                                     ",
"              . . . . O * * * * *                       . . . . . & > t d d                                                     ",
"              . . O + # * * * *                           . . . . + # r d d                                                     ",
"              . . + > * * *                                   . . . . * d d d d                                                 ",
"              . . # * * * *                                   . . . . & p p d d                                                 ",
"              o . # * * * *                                       . . + > r a d                                                 ",
"              . . # * * * *                                       . . # * r a a                                                 ",
"              . . # * *                                           . . + * * > r                                                 ",
"              . . + * *                                           . . + * * * *                                                 ",
"              # # & * *                                           . . + * * * *                                                 ",
"              * > * * *                                           . . + * & > *                                                 ",
"              * * * * *                                           . . + $ $ & *                                                 ",
"              * * * * *                                                 . o & >                                                 ",
"              * * * * *                                                 . O $ >                                                 "
};
