/* XPM */
static char *result[] = {
/* columns rows colors chars-per-pixel */
"64 64 247 2 ",
"   c #1B121C",
".  c #1C121C",
"X  c #1D121C",
"o  c #1C131C",
"O  c #1E131C",
"+  c #1F131C",
"@  c #1F131D",
"#  c #1B161C",
"$  c #1F141D",
"%  c #1F161C",
"&  c #191A1A",
"*  c #181B1B",
"=  c #1B1A1B",
"-  c #1A1B1B",
";  c #1B1B1B",
":  c #1C1B1B",
">  c #1D1B1B",
",  c #1E1B1C",
"<  c #1F1B1C",
"1  c gray11",
"2  c #1E1E1E",
"3  c gray12",
"4  c #20141D",
"5  c #21141D",
"6  c #22151D",
"7  c #23151D",
"8  c #24161D",
"9  c #25161E",
"0  c #27161E",
"q  c #26171E",
"w  c #201B1C",
"e  c #211B1C",
"r  c #221B1C",
"t  c #261B1D",
"y  c #271B1D",
"u  c #221F1F",
"i  c #281B1D",
"p  c #29181E",
"a  c #2A181E",
"s  c #291B1E",
"d  c #2C191F",
"f  c #2F1A1F",
"g  c #291C1D",
"h  c #2F1C1D",
"j  c #301B1F",
"k  c #301C1E",
"l  c #341C1F",
"z  c #321C20",
"x  c #331C20",
"c  c #351D20",
"v  c #361D20",
"b  c #351E20",
"n  c #351F20",
"m  c #361E20",
"M  c #361E21",
"N  c #371E21",
"B  c #361F21",
"V  c #381E20",
"C  c #381E21",
"Z  c #381F21",
"A  c #391F21",
"S  c #3A1F21",
"D  c #3D1C20",
"F  c #3D1C22",
"G  c #3E1C22",
"H  c #3E1C23",
"J  c #232323",
"K  c #272223",
"L  c gray14",
"P  c gray15",
"I  c #262727",
"U  c #272727",
"Y  c #282727",
"T  c #292727",
"R  c #2D2627",
"E  c #2F2726",
"W  c #2D2827",
"Q  c gray16",
"!  c #2C2C2C",
"~  c #332123",
"^  c #342526",
"/  c #382022",
"(  c #3B2122",
")  c #3C2022",
"_  c #3D2022",
"`  c #3D2122",
"'  c #3C2223",
"]  c #372728",
"[  c #382728",
"{  c #3C292A",
"}  c #35302B",
"|  c #343434",
" . c #343535",
".. c #353535",
"X. c #343636",
"o. c #3B3031",
"O. c #3B3232",
"+. c gray22",
"@. c gray23",
"#. c #3C3A3B",
"$. c gray24",
"%. c #3D3E3E",
"&. c #3E3E3E",
"*. c #421C23",
"=. c #451C23",
"-. c #461C24",
";. c #4B1C22",
":. c #491C24",
">. c #4A1C24",
",. c #4F1C26",
"<. c #501C26",
"1. c #511C26",
"2. c #541C26",
"3. c #541C27",
"4. c #551C27",
"5. c #561C27",
"6. c #571C27",
"7. c #581C27",
"8. c #591C27",
"9. c #5A1C27",
"0. c #5C1C27",
"q. c #5D1C28",
"w. c #5E1C28",
"e. c #621C28",
"r. c #661D28",
"t. c #6D1D29",
"y. c #701D27",
"u. c #701D29",
"i. c #731D29",
"p. c #771D2A",
"a. c #781D2A",
"s. c #7C1E29",
"d. c #7D1E29",
"f. c #7E1E29",
"g. c #7D1E2A",
"h. c #7E1E2A",
"j. c #7F1E2A",
"k. c #412223",
"l. c #422223",
"z. c #442127",
"x. c #492524",
"c. c #4D2625",
"v. c #4E2725",
"b. c #512826",
"n. c #522826",
"m. c #552926",
"M. c #562927",
"N. c #582A27",
"B. c #592B27",
"V. c #5B2A27",
"C. c #5A2B27",
"Z. c #522028",
"A. c #512B28",
"S. c #572B28",
"D. c #5B2A28",
"F. c #5B2B28",
"G. c #5B2C28",
"H. c #5C2C28",
"J. c #5D2C28",
"K. c #5E2C28",
"L. c #4D312E",
"P. c #4D322F",
"I. c #4B3839",
"U. c #4F3A3B",
"Y. c #693A2C",
"T. c #713B26",
"R. c #794B2D",
"E. c #811E2A",
"W. c #831E2B",
"Q. c #841E2B",
"!. c #861E2B",
"~. c #871E2B",
"^. c #881E2B",
"/. c #891E2B",
"(. c #8A1E2B",
"). c #8B1E2B",
"_. c #8D1E2B",
"`. c #8E1F2B",
"'. c #892129",
"]. c #8E2129",
"[. c #90212A",
"{. c #95202C",
"}. c #A4212D",
"|. c #A5212D",
" X c #A1252E",
".X c #A8212E",
"XX c #AA212E",
"oX c #AC222E",
"OX c #AF222E",
"+X c #B0232D",
"@X c #B0222E",
"#X c #B0232E",
"$X c #B2252F",
"%X c #BD242F",
"&X c #B32731",
"*X c #B62731",
"=X c #C22330",
"-X c #C02430",
";X c #C22430",
":X c #C42430",
">X c #C52430",
",X c #C62430",
"<X c #C82431",
"1X c #C92431",
"2X c #EC9417",
"3X c #FFA113",
"4X c #FFA214",
"5X c #FFA314",
"6X c #FFA515",
"7X c #FFA616",
"8X c #FFA716",
"9X c #FFA717",
"0X c #FFAA1B",
"qX c #FFAF1A",
"wX c #FFAB1C",
"eX c #FFB31B",
"rX c #FFB81E",
"tX c #FFBA1E",
"yX c #FFBA1F",
"uX c #FFBF21",
"iX c #FFBC22",
"pX c #FFC323",
"aX c #FFC423",
"sX c #FFC624",
"dX c #FFC825",
"fX c #FFC728",
"gX c #FFCB28",
"hX c #FFCC2B",
"jX c #FFCE3B",
"kX c #FFD435",
"lX c #FFD83C",
"zX c #B89843",
"xX c #CDAD46",
"cX c #F8CC40",
"vX c #F5D343",
"bX c #FFDE4A",
"nX c #FFDF4B",
"mX c #FFE448",
"MX c #FFE24F",
"NX c #FFEA55",
"BX c #FFEC57",
"VX c #CCA483",
"CX c #DCB58F",
"ZX c #DEB48F",
"AX c #F6CA9F",
"SX c #F8CBA0",
"DX c None",
/* pixels */
"DXDXDXDXDXDXDXDXDXDXDXDXDXDXDXDXDXDXDXDXDXDXDXDXDXDXDXDXDXDXDXDXDXDXDXDXDXDXDXDXDXDXDXDXDXDXDXDXDXDXDXDXDXDXDXDXDXDXDXDXDXDXDXDX",
"DXDXDXDXDXDXDXDXDXDXDXDXDXDXDXDXDXDXDXDXDXDXDXDXDXDXDXDXDXDXDXDXDXDXDXDXDXDXDXDXDXDXDXDXDXDXDXDXDXDXDXDXDXDXDXDXDXDXDXDXDXDXDXDX",
"DXDXDXDXDXDXDXDXDXDXDXDXDXDXDXDXDXDXDXDXDXDXDXDXDXDXDXDXDXDXDXDXDXDXDXDXDXDXDXDXDXDXDXDXDXDXDXDXDXDXDXDXDXDXDXDXDXDXDXDXDXDXDXDX",
"DXDXDXDXDXDXDXDXDXDXDXDXDXDXDXDXDXDXDXDXDXDXDXDXDXDXDXDXDXDXDXDXDXDXDXDXDXDXDXDXDXDXDXDXDXDXDXDXDXDXDXDXDXDXDXDXDXDXDXDXDXDXDXDX",
"DXDXDXDXDXDXDXDXDXDXDXDXDXDXDXDXDXDXDXDXDXDXDXDXDXDXDXDXDXDXDXDXDXDXDXDXDXDXDXDXDXDXDXDXDXDXDXDXDXDXDXDXDXDXDXDXDXDXDXDXDXDXDXDX",
"DXDXDXDXDXDXDXDXDXDXDXDXDXDXDXDXDXDXDXDXDXDXDXDXDXDXDXDXDXDXDXDXDXDXDXDXDXDXDXDXDXDXDXDXDXDXDXDXDXDXDXDXDXDXDXDXDXDXDXDXDXDXDXDX",
"DXDXDXDXDXDXDXDXDXDXDXDXDXDXDXDXDXDXDXDXDXDXDXDXDXDXDXDXDXDXDXDXDXDXDXDXDXDXDXDXDXDXDXDXDXDXDXDXDXDXDXDXDXDXDXDXDXDXDXDXDXDXDXDX",
"DXDXDXDXDXDXDXDXDXDXDXDXDXDXDXDXDXDXDXDXDXDXDXDXDXDXDXDXDXDXDXDXDXDXDXDXDXDXDXDXDXDXDXDXDXDXDXDXDXDXDXDXDXDXDXDXDXDXDXDXDXDXDXDX",
"DXDXDXDXDXDXDXDXDXDXDXDXDXDXDXDXDXDXDXDXDXDXDXDXDXDXDXDXDXDXDXDXDXDXDXDXDXDXDXDXDXDXDXDXDXDXDXDXDXDXDXDXDXDXDXDXDXDXDXDXDXDXDXDX",
"DXDXDXDXDXDXDXDXDXDXDXDXDXDXDXDXDXDXDXDXDXDXDXDXDXDXDXDXDXDXDXDXDXDXDXDXDXDXDXDXDXDXDXDXDXDXDXDXDXDXDXDXDXDXDXDXDXDXDXDXDXDXDXDX",
"DXDXDXDXDXDXDXDXDXDXDXDXDXDXDXDXDXDXDXDXDXDXDXDXDXDXDXDXDXDXDXDXDXDXDXDXDXDXDXDXDXDXDXDXDXDXDXDXDXDXDXDXDXDXDXDXDXDXDXDXDXDXDXDX",
"DXDXDXDXDXDXDXDXDXDXDXDXDXDXDXDXDXDXDXDXDXDXDXDXDXDXDXDXDXDXDXDXDXDXDXDXDXDXDXDXDXDXDXDXDXDXDXDXDXDXDXDXDXDXDXDXDXDXDXDXDXDXDXDX",
"DXDXDXDXDXDXDXDXDXDXDXDXDXDXDXDXDXDXDX/./.OX>X:X:XDXDXDXDXDXDXDXDXDXDXDXDXDXDX4XDXDXDXDXDXDXDXDXDXDXDXDXDXDXDXDXDXDXDXDXDXDXDXDX",
"DXDXDXDXDXDXDXDXDXDXDXDXDXDXDXDXDXDXDX/./.XX-X:X:XDXDXDXDXDXDXDXDXDXDXDXDXDXDX4XDXDXDXDXDXDXDXDXDXDXDXDXDXDXDXDXDXDXDXDXDXDXDXDX",
"DXDXDXDXDXDXDXDXDXDXDXDXDXDXDXDXDX/./././._.}.>X>X:X:XDXDXDXDXDXDXDXDXDXDXDXDX4XDXDXDXDXDXDXDXDXDXDXDXDXDXDXDXDXDXDXDXDXDXDXDXDX",
"DXDXDXDXDXDXDXDXDXDXDXDXDXDXDXDXDX/./././.j.`.+X#X%X>XDXDXDXDXDXDXDXDXDXDXDXDX4XDXDXDXDXDXDXDXDXDXDXDXDXDXDXDXDXDXDXDXDXDXDXDXDX",
"DXDXDXDXDXDXDXDXDXDXDXDXDXDXDXDXDX/./././.;.g h k [.<XDXDXDXDXDXDXDXDXDXDXDXDXDXDXDXDXDXDXDXDXDXDXDXDXDXDXDXDXDXDXDXDXDXDXDXDXDX",
"DXDXDXDXDXDXDXDXDXDXDXDXDXDXDXDXDX/./.~.d.D * - - '.1XDXDXDXDXDXDXDXDXDXDXDXDXDXDXDXDXDXDXDXDXDXDXDXDXDXDXDXDXDXDXDXDXDXDXDXDXDX",
"DXDXDXDXDXDXDXDXDXDXDXDXDXDXDXDXDX/.(.d.l < ; ; : '.1XDXDXDXDXDXDXDXDXDXDXDXDX4X4X4X4XDXDXDXDXDXDXDXDXDXDXDXDXDXDXDXDXDXDXDXDXDX",
"DXDXDXDXDXDXDXDXDXDXDXDXDXDXDXDXDX!.(.s.y - ; ; : '.1XDXDXDXDXDXDXDXDXDXDXDXDX7X5X4X4XDXDXDXDXDXDXDXDXDXDXDXDXDXDXDXDXDXDXDXDXDX",
"DXDXDXDXDXDXDXDXDXDXDXDXDXDXDXDX6.a.).s.i - ; ; : '.1XDXDXDXDXDXDXDXDXDXDX3XqXuX7X4X4XDXDXDXDXDXDXDXDXDXDXDXDXDXDXDXDXDXDXDXDXDX",
"DXDXDXDXDXDXDXDXDXDXDXDXDXDXDXDX6.p.).s.i - ; ; : '.1XDXDXDXDXDXDXDXDXDXDX6XeXaX8X4X4XDXDXDXDXDXDXDXDXDXDXDXDXDXDXDXDXDXDXDXDXDX",
"DXDXDXDXDXDXDXDXDXDXDXDXDXDXDXDX6.p.).s.y - ; ; ; '.1XDXDXDXDXDXDXDXDXDX4XrXsXpX8XDXDXDXDXDXDXDXDXDXDXDXDXDXDXDXDXDXDXDXDXDXDXDX",
"DXDXDXDXDXDXDXDXDXDXDXDXDXDXDXDX6.i.~.d.l < ; > y ].<XDXDXDXDXDXDXDXDXDX4XyXgXfX9XDXDXDXDXDXDXDXDXDXDXDXDXDXDXDXDXDXDXDXDXDXDXDX",
"DXDXDXDXDXDXDXDXDXDXDXDXDXDXDX6.6.9.t.^.d.D * t y.oX,XDXDXDXDXDXDXDXDXDX4XtXkXbX0XDXDXDXDXDXDXDXDXDXDXDXDXDXDXDXDXDXDXDXDXDXDXDX",
"DXDXDXDXDXDXDXDXDXDXDXDXDXDXDX6.6.5.r.Q./.;.t l f.@X>XDXDXDXDXDXDXDXDXDX4XiXlXMXwXDXDXDXDXDXDXDXDXDXDXDXDXDXDXDXDXDXDXDXDXDXDXDX",
"DXDXDXDXDXDXDXDXDXDXDXDX; *.8.6.6.6.8.e.Q.E.s.d.^.OX>X:XDXDXDXDXDXDXDXDX5XjXNXMXwXDXDXDXDXDXDXDXDXDXDXDXDXDXDXDXDXDXDXDXDXDXDXDX",
"DXDXDXDXDXDXDXDXDXDXDXDX; F 1.<.<.2.6.0.h.Q.!.(./.OX>X;XDXDXDXDXDXDXDXDX2XcXBXnXwXDXDXDXDXDXDXDXDXDXDXDXDXDXDXDXDXDXDXDXDXDXDXDX",
"DXDXDXDXDXDXDXDXDXDXDX; ; w r r r =.7.7.0.0.t./.(.@X,X*XU.DXDXDXDXDXDXDXT.xXmXhXDXDXDXDXDXDXDXDXDXDXDXDXDXDXDXDXDXDXDXDXDXDXDXDX",
"DXDXDXDXDXDXDXDXDXDXDX; ; ; ; ; ; F 1.1.5.5.r.W.W..X=X&XI.DXDXDXDXDXDXDXH.zXvXdXDXDXDXDXDXDXDXDXDXDXDXDXDXDXDXDXDXDXDXDXDXDXDXDX",
"DXDXDXDXDXDXDXDXDXDXDX; ; ; ; ; ; w r s 1.6.8.q.w.g.|.$X{ X.&.DXDXDXDXDXJ.Y.R.DXDXDXDXDXDXDXDXDXDXDXDXDXDXDXDXDXDXDXDXDXDXDXDXDX",
"DXDXDXDXDXDXDXDXDXDXDX; ; ; ; ; ; ; - e >.4.3.,.<.u.{. X[  .&.DXDXDXDXDXN.V.D.DXDXDXDXDXDXDXDXDXDXDXDXDXDXDXDXDXDXDXDXDXDXDXDXDX",
"DXDXDXDXDXDXDXDXDX; ; ; ; DXDX; ; ; ; : e -.-.r r :.Z.] T ..&.$.$.DXDXS _ DXDXDXDXDXDXDXDXDXDXDXDXDXDXDXDXDXDXDXDXDXDXDXDXDXDXDX",
"DXDXDXDXDXDXDXDXDX; ; ; ; DXDX; ; ; ; ; ; G G ; ; H z.I U | @.@.$.DXDXA A DXDXDXDXDXDXDXDXDXDXDXDXDXDXDXDXDXDXDXDXDXDXDXDXDXDXDX",
"DXDXDXDXDXDXDXDXDX; ; ; ; DXDX; ; ; ; ; ; w w ; ; K R DXU Q Q ! @.%.O.A V DXDXDXDXDXDXDXDXDXDXDXDXDXDXDXDXDXDXDXDXDXDXDXDXDXDXDX",
"DXDXDXDXDXDXDXDXDX; ; ; ; DXDX; ; ; ; ; ; ; ; ; 1 J U DXU U U Q +.#.o.' L.DXDXDXDXDXDXDXDXDXDXDXDXDXDXDXDXDXDXDXDXDXDXDXDXDXDXDX",
"DXDXDXDXDXDXDXDX; ; ; ; DXDXDX; ; ; ; ; ; ; ; 1 L U U DXDXDXDXU Q ^ / L.VXDXDXDXDXDXDXDXDXDXDXDXDXDXDXDXDXDXDXDXDXDXDXDXDXDXDXDX",
"DXDXDXDXDXDXDXDX; ; ; ; DXDXDX; ; ; ; ; ; ; ; 1 P U U DXDXDXDXU U ~ V P.ZXDXDXDXDXDXDXDXDXDXDXDXDXDXDXDXDXDXDXDXDXDXDXDXDXDXDXDX",
"DXDXDXDXDXDXDXDX; ; ; ; DXDXDXDX; ; ; ; ; ; ; 1 P DXDXDXDXDXDXDXDXZ A ' DXDXDXDXDXDXDXDXDXDXDXDXDXDXDXDXDXDXDXDXDXDXDXDXDXDXDXDX",
"DXDXDXDXDXDXDXDX; ; ; ; DXDXDXDX; ; ; ; ; ; ; 2 P DXDXDXDXDXDXDXDXA A A DXDXDXDXDXDXDXDXDXDXDXDXDXDXDXDXDXDXDXDXDXDXDXDXDXDXDXDX",
"DXDXDXDXDXDXDXDX; ; ; DXDXDXDXDX; ; ; ; ; ; 3 P U DXDXDXDXDXDXDXDXA A DXDXDXDXDXDXDXDXDXDXDXDXDXDXDXDXDXDXDXDXDXDXDXDXDXDXDXDXDX",
"DXDXDXDXDXDXDXDX; ; ; DXDXDXDXDX; ; ; ; ; ; 3 U U DXDXDXDXDXDXDXDXA A DXDXDXDXDXDXDXDXDXDXDXDXDXDXDXDXDXDXDXDXDXDXDXDXDXDXDXDXDX",
"DXDXDXDXDXDXDXDX& & & DXDXDXDXDX; ; ; ; ; ; 3 U U DXDXDXDXDXDXDXA A A DXDXDXDXDXDXDXDXDXDXDXDXDXDXDXDXDXDXDXDXDXDXDXDXDXDXDXDXDX",
"DXDXDXDXDXDXDXDX} } } DXDXDXDXDX= = = ; ; ; 3 Y W DXDXDXDXDXDXDXA A A DXDXDXDXDXDXDXDXDXDXDXDXDXDXDXDXDXDXDXDXDXDXDXDXDXDXDXDXDX",
"DXDXDXDXDXDXDXDXCXCXCXDXDXDXDX. o o # ; ; ; 3 W A.G.J.DXDXDXDXDXA DXDXDXDXDXDXDXDXDXDXDXDXDXDXDXDXDXDXDXDXDXDXDXDXDXDXDXDXDXDXDX",
"DXDXDXDXDXDXDXDXSXSXSXDXDXDXDX. . O % < < , u E S.K.J.DXDXDXDXDXA DXDXDXDXDXDXDXDXDXDXDXDXDXDXDXDXDXDXDXDXDXDXDXDXDXDXDXDXDXDXDX",
"DXDXDXDXDXDXDXDXAXAXAXDXDXDXDX. . d m n n b B ( B.J.J.DXDXDXDXDXDXDXDXDXDXDXDXDXDXDXDXDXDXDXDXDXDXDXDXDXDXDXDXDXDXDXDXDXDXDXDXDX",
"DXDXDXDXDXDXDXDXAXAXAXDXDXDXDX. @ j S A A A A _ m.H.J.DXDXDXDXDXDXDXDXDXDXDXDXDXDXDXDXDXDXDXDXDXDXDXDXDXDXDXDXDXDXDXDXDXDXDXDXDX",
"DXDXDXDXDXDXDXDXDXDXDXDXDX. . + z Z A A A A A S _ n.K.J.DXDXDXDXDXDXDXDXDXDXDXDXDXDXDXDXDXDXDXDXDXDXDXDXDXDXDXDXDXDXDXDXDXDXDXDX",
"DXDXDXDXDXDXDXDXDXDXDXDXDX. X 7 M A A A A N c m Z c.F.J.DXDXDXDXDXDXDXDXDXDXDXDXDXDXDXDXDXDXDXDXDXDXDXDXDXDXDXDXDXDXDXDXDXDXDXDX",
"DXDXDXDXDXDXDXDXDXDXDXDX. . 9 m A A A DXDX5 @ 6 M ) x.J.J.DXDXDXDXDXDXDXDXDXDXDXDXDXDXDXDXDXDXDXDXDXDXDXDXDXDXDXDXDXDXDXDXDXDXDX",
"DXDXDXDXDXDXDXDXDXDXDXDX.   q A A A A DXDX. . @ x c l.B.J.DXDXDXDXDXDXDXDXDXDXDXDXDXDXDXDXDXDXDXDXDXDXDXDXDXDXDXDXDXDXDXDXDXDXDX",
"DXDXDXDXDXDXDXDXDXDXDXDX.   q A A DXDXDXDXDXDXDX$ @ a k.B.DXDXDXDXDXDXDXDXDXDXDXDXDXDXDXDXDXDXDXDXDXDXDXDXDXDXDXDXDXDXDXDXDXDXDX",
"DXDXDXDXDXDXDXDXDXDXDXDX. O p A A DXDXDXDXDXDXDX.   8 S N.DXDXDXDXDXDXDXDXDXDXDXDXDXDXDXDXDXDXDXDXDXDXDXDXDXDXDXDXDXDXDXDXDXDXDX",
"DXDXDXDXDXDXDXDXDXDXDXDX. d N A DXDXDXDXDXDXDXDXDX. X 0 M.K.J.DXDXDXDXDXDXDXDXDXDXDXDXDXDXDXDXDXDXDXDXDXDXDXDXDXDXDXDXDXDXDXDXDX",
"DXDXDXDXDXDXDXDXDXDXDXDX. f S A DXDXDXDXDXDXDXDXDX.   7 b.H.J.DXDXDXDXDXDXDXDXDXDXDXDXDXDXDXDXDXDXDXDXDXDXDXDXDXDXDXDXDXDXDXDXDX",
"DXDXDXDXDXDXDXDXDXDXDXDX. f S A DXDXDXDXDXDXDXDXDXDXDX4 A n.K.DXDXDXDXDXDXDXDXDXDXDXDXDXDXDXDXDXDXDXDXDXDXDXDXDXDXDXDXDXDXDXDXDX",
"DXDXDXDXDXDXDXDXDXDXDXDX. f S A DXDXDXDXDXDXDXDXDXDXDX$ c v.C.DXDXDXDXDXDXDXDXDXDXDXDXDXDXDXDXDXDXDXDXDXDXDXDXDXDXDXDXDXDXDXDXDX",
"DXDXDXDXDXDXDXDXDXDXDXDX. f S DXDXDXDXDXDXDXDXDXDXDXDX$ v ) ` DXDXDXDXDXDXDXDXDXDXDXDXDXDXDXDXDXDXDXDXDXDXDXDXDXDXDXDXDXDXDXDXDX",
"DXDXDXDXDXDXDXDXDXDXDXDX4 j S DXDXDXDXDXDXDXDXDXDXDXDX$ v A A DXDXDXDXDXDXDXDXDXDXDXDXDXDXDXDXDXDXDXDXDXDXDXDXDXDXDXDXDXDXDXDXDX",
"DXDXDXDXDXDXDXDXDXDXDXDXv C A DXDXDXDXDXDXDXDXDXDXDXDX$ m A A DXDXDXDXDXDXDXDXDXDXDXDXDXDXDXDXDXDXDXDXDXDXDXDXDXDXDXDXDXDXDXDXDX",
"DXDXDXDXDXDXDXDXDXDXDXDXA A A DXDXDXDXDXDXDXDXDXDXDXDX$ x Z A DXDXDXDXDXDXDXDXDXDXDXDXDXDXDXDXDXDXDXDXDXDXDXDXDXDXDXDXDXDXDXDXDX",
"DXDXDXDXDXDXDXDXDXDXDXDXA A A DXDXDXDXDXDXDXDXDXDXDXDXDX$ j S DXDXDXDXDXDXDXDXDXDXDXDXDXDXDXDXDXDXDXDXDXDXDXDXDXDXDXDXDXDXDXDXDX",
"DXDXDXDXDXDXDXDXDXDXDXDXA A A DXDXDXDXDXDXDXDXDXDXDXDXDX. f S DXDXDXDXDXDXDXDXDXDXDXDXDXDXDXDXDXDXDXDXDXDXDXDXDXDXDXDXDXDXDXDXDX"
};
