/* XPM */
static char *result[] = {
/* columns rows colors chars-per-pixel */
"64 64 95 2 ",
"   c #1C121C",
".  c #171B1A",
"X  c #1B1B1B",
"o  c #24151D",
"O  c #28171E",
"+  c #251B1D",
"@  c #2C1A1E",
"#  c #351C1F",
"$  c #3D1D1F",
"%  c #2E1E21",
"&  c #351C20",
"*  c #391F21",
"=  c #262625",
"-  c #2A2627",
";  c #2B2B2B",
":  c #312325",
">  c #3B2123",
",  c #3B2927",
"<  c #3A282A",
"1  c #3B2F30",
"2  c #333333",
"3  c #3B3132",
"4  c #3D3D3D",
"5  c #451C22",
"6  c #4A1C24",
"7  c #561C27",
"8  c #5A1C26",
"9  c #5C1C28",
"0  c #621E25",
"q  c #681D26",
"w  c #631C28",
"e  c #6C1D29",
"r  c #701D27",
"t  c #751D29",
"y  c #7D1E2A",
"u  c #432324",
"i  c #4A2524",
"p  c #4F2629",
"a  c #552927",
"s  c #592B27",
"d  c #542B28",
"f  c #5D2C28",
"g  c #4F3330",
"h  c #503330",
"j  c #5B3E38",
"k  c #6D232B",
"l  c #752026",
"z  c #633027",
"x  c #6B3626",
"c  c #7E4424",
"v  c #7E5D4F",
"b  c #851E2B",
"n  c #891E2B",
"m  c #951F2C",
"M  c #85262D",
"N  c #8D202A",
"B  c #9C202D",
"V  c #8D2E35",
"C  c #A2202D",
"Z  c #A8212E",
"A  c #BC242F",
"S  c #B32732",
"D  c #C42430",
"F  c #C92430",
"G  c #8F5022",
"H  c #9C5A20",
"J  c #A56221",
"K  c #876555",
"L  c #DD8817",
"P  c #F79C15",
"I  c #FA9E14",
"U  c #FFA214",
"Y  c #FFA917",
"T  c #FFA618",
"R  c #FFAD19",
"E  c #FFB21B",
"W  c #FFB91E",
"Q  c #EBAC2C",
"!  c #FFB824",
"~  c #FFC524",
"^  c #FFC925",
"/  c #FFC433",
"(  c #FFCB30",
")  c #FFCD3C",
"_  c #FFD73B",
"`  c #FFDE45",
"'  c #FFDD4A",
"]  c #FFE148",
"[  c #FFEC59",
"{  c #C9A684",
"}  c #E1B791",
"|  c #F6CA9F",
" . c #F7CBA0",
".. c #F9CCA1",
"X. c None",
/* pixels */
"X.X.X.X.X.X.X.X.X.X.X.X.X.X.X.X.X.X.X.X.X.X.X.X.X.X.X.X.X.X.X.X.X.X.X.X.X.X.X.X.X.X.X.X.X.X.X.X.X.X.X.X.X.X.U U X.X.X.X.X.X.X.X.",
"X.X.X.X.X.X.X.X.X.X.X.X.X.X.X.X.X.X.X.X.X.X.X.X.X.X.X.X.X.X.X.X.X.X.X.X.X.X.X.X.X.X.X.X.X.X.X.X.X.X.X.X.X.X.U U X.X.X.X.X.X.X.X.",
"X.X.X.X.X.X.X.X.X.X.X.X.X.X.X.X.X.X.X.X.X.X.X.X.X.X.X.X.X.X.X.X.X.X.X.X.X.X.X.X.X.X.X.X.X.X.X.X.X.X.X.X.X.X.X.X.X.X.X.X.X.X.X.X.",
"X.X.X.X.X.X.X.X.X.X.X.X.X.X.X.X.X.X.X.X.X.X.X.X.X.X.X.X.X.X.X.X.X.X.X.X.X.X.X.X.X.X.X.X.X.X.X.X.X.X.X.X.X.X.X.X.X.X.X.X.X.X.X.X.",
"X.X.X.X.X.X.X.X.X.X.X.X.X.X.X.X.X.X.X.X.X.X.X.X.X.X.X.X.X.X.X.X.X.X.X.X.X.X.X.X.X.X.X.X.X.X.X.X.X.X.X.X.X.X.X.X.X.X.X.X.X.X.X.X.",
"X.X.X.X.X.X.X.X.X.X.X.X.X.X.X.X.X.X.X.X.X.X.X.X.n n n C D D D D D D X.X.X.X.X.X.X.X.X.X.X.X.X.X.X.X.X.X.X.X.X.X.X.X.X.X.X.X.X.X.",
"X.X.X.X.X.X.X.X.X.X.X.X.X.X.X.X.X.X.X.X.X.X.X.n n n b B A A D D D D X.X.X.X.X.X.X.X.X.X.X.X.X.X.X.X.X.X.X.X.X.X.X.X.X.X.X.X.X.X.",
"X.X.X.X.X.X.X.X.X.X.X.X.X.X.X.X.X.X.X.X.X.X.n n n n n n n C D D D D D D X.X.X.X.X.X.X.X.X.X.X.X.X.X.X.X.X.X.X.X.X.X.X.X.X.X.X.X.",
"X.X.X.X.X.X.X.X.X.X.X.X.X.X.X.X.X.X.X.X.X.X.n n n n n b b m A A A A D D X.X.X.X.X.X.X.X.X.X.X.X.X.X.X.X.X.X.X.X.X.X.X.X.X.X.X.X.",
"X.X.X.X.X.X.X.X.X.X.X.X.X.X.X.X.X.X.X.X.X.X.n n n n n q # # $ $ $ l D D X.X.X.X.X.X.X.X.X.X.X.X.X.X.X.X.X.X.X.X.X.X.U U U X.X.X.",
"X.X.X.X.X.X.X.X.X.X.X.X.X.X.X.X.X.X.X.X.X.X.n n n n n 0 X X X X . k D D X.X.X.X.X.X.X.X.X.X.X.X.X.X.X.X.X.X.X.X.X.X.U U U U X.X.",
"X.X.X.X.X.X.X.X.X.X.X.X.X.X.X.X.X.X.X.X.X.X.n n n r 5 # X X X X . 0 D D X.X.X.X.X.X.X.X.X.X.X.X.X.X.X.X.X.X.X.X.U U U U X.X.X.X.",
"X.X.X.X.X.X.X.X.X.X.X.X.X.X.X.X.X.X.X.X.X.X.n n n 8 . X X X X X . 8 D D X.X.X.X.X.X.X.X.X.X.X.X.X.X.X.X.X.X.X.X.U U U U X.X.X.X.",
"X.X.X.X.X.X.X.X.X.X.X.X.X.X.X.X.X.X.X.X.X.t n n n 0 X X X X X X . 8 D D X.X.X.X.X.X.X.X.X.X.X.X.X.X.X.X.X.X.X.Y R Y U U X.X.X.X.",
"X.X.X.X.X.X.X.X.X.X.X.X.X.X.X.X.X.X.X.X.7 e n n n 8 X X X X X X . 0 D D X.X.X.X.X.X.X.X.X.X.X.X.X.X.X.X.X.X.U E ^ W U U X.X.X.X.",
"X.X.X.X.X.X.X.X.X.X.X.X.X.X.X.X.X.X.X.X.7 e n n n 8 X X X X X X . k D D X.X.X.X.X.X.X.X.X.X.X.X.X.X.X.X.X.X.U E ^ W U U X.X.X.X.",
"X.X.X.X.X.X.X.X.X.X.X.X.X.X.X.X.X.X.X.X.7 e n n n 0   X X X X X . s D D X.X.X.X.X.X.X.X.X.X.X.X.X.X.X.X.U E ~ ~ ^ W U U X.X.X.X.",
"X.X.X.X.X.X.X.X.X.X.X.X.X.X.X.X.X.X.X.X.7 e n n n 8 X X X X X X . k D D X.X.X.X.X.X.X.X.X.X.X.X.X.X.X.X.U E ^ ^ ^ W U U X.X.X.X.",
"X.X.X.X.X.X.X.X.X.X.X.X.X.X.X.X.X.X.7 7 7 9 q t n y q 6 X X X $ w n D D X.X.X.X.X.X.X.X.X.X.X.X.X.X.U R W ( ` _ ^ W U U X.X.X.X.",
"X.X.X.X.X.X.X.X.X.X.X.X.X.X.X.X.X.X.7 7 7 7 7 e n n n 8 X X . 5 n C D D X.X.X.X.X.X.X.X.X.X.X.X.X.X.U E ~ _ [ ` ^ W U U X.X.X.X.",
"X.X.X.X.X.X.X.X.X.X.X.X.X.X.X.X.X.7 7 7 7 7 7 w t y n e 6 6 6 w n C D D X.X.X.X.X.X.X.X.X.X.X.X.X.X.I ! _ ` [ ` W E U X.X.X.X.X.",
"X.X.X.X.X.X.X.X.X.X.X.X.X.X.X # 9 7 9 9 9 7 7 7 7 e n n n n n n n C D D D D X.X.X.X.X.X.X.X.X.X.X.X.U / [ [ [ ) I U X.X.X.X.X.X.",
"X.X.X.X.X.X.X.X.X.X.X.X.X.X X # 6 6 6 6 6 6 7 7 7 q y y b b n n n C D D D S X.X.X.X.X.X.X.X.X.X.X.X.L Q ' ' ' / U X.X.X.X.X.X.X.",
"X.X.X.X.X.X.X.X.X.X.X.X.X X X X X X X + X & 9 7 7 8 8 8 8 e n n n C D D F V 4 4 X.X.X.X.X.X.X.X.X.X.z J Y U Y T X.X.X.X.X.X.X.X.",
"X.X.X.X.X.X.X.X.X.X.X.X.X X X X X X X X X & 7 7 7 7 7 7 7 e b b n m D D D V 4 4 X.X.X.X.X.X.X.X.X.X.f H P I U U X.X.X.X.X.X.X.X.",
"X.X.X.X.X.X.X.X.X.X.X.X.X X X X X X X X X + + + + * 7 7 7 9 w 9 9 y m Z D M ; 2 4 X.X.X.X.X.X.X.X.X.f x c G X.X.X.X.X.X.X.X.X.X.",
"X.X.X.X.X.X.X.X.X.X.X.X.X X X X X X X X X X X X X & 7 7 7 7 7 7 7 e n C F M = ; 4 4 X.X.X.X.X.X.X.X.f f f f X.X.X.X.X.X.X.X.X.X.",
"X.X.X.X.X.X.X.X.X.X.X X X X X X X.X X X X X X X X + & 5 9 6 & & # 6 e e k p = 2 4 4 4 4 4 X.X.X.* u i i X.X.X.X.X.X.X.X.X.X.X.X.",
"X.X.X.X.X.X.X.X.X.X.X X X X X X X.X.X X X X X X X X . & 9 * X X . & 9 > = = = 2 4 4 4 4 4 4 X.X.* * * * X.X.X.X.X.X.X.X.X.X.X.X.",
"X.X.X.X.X.X.X.X.X.X.X X X X X X X.X.X X X X X X X X   % 5 & X X X % 6 > = = ; ; 4 2 2 4 4 4 X.< * * * * X.X.X.X.X.X.X.X.X.X.X.X.",
"X.X.X.X.X.X.X.X.X.X.X X X X X X X.X.X X X X X X X X X X X X X X X = - - X.X.= = = ; = 2 4 4 4 3 > > * # X.X.X.X.X.X.X.X.X.X.X.X.",
"X.X.X.X.X.X.X.X.X.X.X X X X X X X.X.X X X X X X X X X X X X X X X X ; = X.X.; = = = - ; 4 4 4 1 * u g g X.X.X.X.X.X.X.X.X.X.X.X.",
"X.X.X.X.X.X.X.X.X X X X X X X.X.X.X.X X X X X X X X X X X X X X ; = ; = X.X.X.X.X.X.= - = ; > > * v } } X.X.X.X.X.X.X.X.X.X.X.X.",
"X.X.X.X.X.X.X.X.X X X X X X X.X.X.X.X X X X X X X X X X X X X X = ; - - X.X.X.X.X.X.; = = : * * # K .. .X.X.X.X.X.X.X.X.X.X.X.X.",
"X.X.X.X.X.X.X.X.X X X X X X X.X.X.X.X.X X X X X X X X X X X X = = = X.X.X.X.X.X.X.X.X.X.X.: * * * j X.X.X.X.X.X.X.X.X.X.X.X.X.X.",
"X.X.X.X.X.X.X.X.X X X X X X X.X.X.X.X.X.X X X X X X X X X X . X = ; X.X.X.X.X.X.X.X.X.X.X.X.* * * # X.X.X.X.X.X.X.X.X.X.X.X.X.X.",
"X.X.X.X.X.X.X.X.X X X X X X.X.X.X.X.X.X.X X X X X X X X X X = = = - X.X.X.X.X.X.X.X.X.X.X.X.* * * X.X.X.X.X.X.X.X.X.X.X.X.X.X.X.",
"X.X.X.X.X.X.X.X.X X X X X.X.X.X.X.X.X.X.X X X X X X X X X X - - = - X.X.X.X.X.X.X.X.X.X.X.X.* * X.X.X.X.X.X.X.X.X.X.X.X.X.X.X.X.",
"X.X.X.X.X.X.X.X.X X X X X.X.X.X.X.X.X.X.X X X X X X X X . = = = ; = X.X.X.X.X.X.X.X.X.X.X.* * * X.X.X.X.X.X.X.X.X.X.X.X.X.X.X.X.",
"X.X.X.X.X.X.X.X.X X X X X.X.X.X.X.X.X.X.X X X X X X X X . = = - ; = X.X.X.X.X.X.X.X.X.X.* * * * X.X.X.X.X.X.X.X.X.X.X.X.X.X.X.X.",
"X.X.X.X.X.X.X.X.- = % = X.X.X.X.X.X.X.X.X X X X X X X X X + = ; - ; X.X.X.X.X.X.X.X.X.X.* * > * X.X.X.X.X.X.X.X.X.X.X.X.X.X.X.X.",
"X.X.X.X.X.X.X.X.{ { { { X.X.X.X.X.X.      X o   X X X X . = = , p d f X.X.X.X.X.X.X.X.X.* * X.X.X.X.X.X.X.X.X.X.X.X.X.X.X.X.X.X.",
"X.X.X.X.X.X.X.X.........X.X.X.X.X.X.o         X X X X X . + = , f f f f X.X.X.X.X.X.X.X.* * X.X.X.X.X.X.X.X.X.X.X.X.X.X.X.X.X.X.",
"X.X.X.X.X.X.X.X.| | | | X.X.X.X.X.X.      o @ @ % @ @ @ % % - u f f f f X.X.X.X.X.X.X.X.X.X.X.X.X.X.X.X.X.X.X.X.X.X.X.X.X.X.X.X.",
"X.X.X.X.X.X.X.X.| | | | X.X.X.X.X.X.      O * * * * * * * * * u z f f f X.X.X.X.X.X.X.X.X.X.X.X.X.X.X.X.X.X.X.X.X.X.X.X.X.X.X.X.",
"X.X.X.X.X.X.X.X.| | | X.X.X.X.X.X.      O O * * * * * * * * * u a a f f X.X.X.X.X.X.X.X.X.X.X.X.X.X.X.X.X.X.X.X.X.X.X.X.X.X.X.X.",
"X.X.X.X.X.X.X.X.X.X.X.X.X.X.X.X.      O * * * * * * * * * * * * * u z f f f X.X.X.X.X.X.X.X.X.X.X.X.X.X.X.X.X.X.X.X.X.X.X.X.X.X.",
"X.X.X.X.X.X.X.X.X.X.X.X.X.X.X.X.    o O * * * * * * * * # * * * * u f f f f X.X.X.X.X.X.X.X.X.X.X.X.X.X.X.X.X.X.X.X.X.X.X.X.X.X.",
"X.X.X.X.X.X.X.X.X.X.X.X.X.X.      O # * * * * * X.X.X.X.  o   O * > * i f f f f X.X.X.X.X.X.X.X.X.X.X.X.X.X.X.X.X.X.X.X.X.X.X.X.",
"X.X.X.X.X.X.X.X.X.X.X.X.X.X.      O * * * * * * X.X.X.X.      O * * * i f f f f X.X.X.X.X.X.X.X.X.X.X.X.X.X.X.X.X.X.X.X.X.X.X.X.",
"X.X.X.X.X.X.X.X.X.X.X.X.X.X.      O > * * * X.X.X.X.X.X.X.X.X.o O O O @ u a f f X.X.X.X.X.X.X.X.X.X.X.X.X.X.X.X.X.X.X.X.X.X.X.X.",
"X.X.X.X.X.X.X.X.X.X.X.X.X.X.      O * * * * X.X.X.X.X.X.X.X.X.X.      O $ u f f X.X.X.X.X.X.X.X.X.X.X.X.X.X.X.X.X.X.X.X.X.X.X.X.",
"X.X.X.X.X.X.X.X.X.X.X.X.X.X.  o O @ > * * X.X.X.X.X.X.X.X.X.X.X.      o O u f f X.X.X.X.X.X.X.X.X.X.X.X.X.X.X.X.X.X.X.X.X.X.X.X.",
"X.X.X.X.X.X.X.X.X.X.X.X.X.X.  O * * * * X.X.X.X.X.X.X.X.X.X.X.X.X.X.      * f f f f X.X.X.X.X.X.X.X.X.X.X.X.X.X.X.X.X.X.X.X.X.X.",
"X.X.X.X.X.X.X.X.X.X.X.X.X.X.  O * * * * X.X.X.X.X.X.X.X.X.X.X.X.X.X.      # a s f f X.X.X.X.X.X.X.X.X.X.X.X.X.X.X.X.X.X.X.X.X.X.",
"X.X.X.X.X.X.X.X.X.X.X.X.X.X.  O * * * * X.X.X.X.X.X.X.X.X.X.X.X.X.X.X.X.  O > i f f X.X.X.X.X.X.X.X.X.X.X.X.X.X.X.X.X.X.X.X.X.X.",
"X.X.X.X.X.X.X.X.X.X.X.X.X.X.  O * * * * X.X.X.X.X.X.X.X.X.X.X.X.X.X.X.X.  O * i s f X.X.X.X.X.X.X.X.X.X.X.X.X.X.X.X.X.X.X.X.X.X.",
"X.X.X.X.X.X.X.X.X.X.X.X.X.X.  O * > X.X.X.X.X.X.X.X.X.X.X.X.X.X.X.X.X.X.  O * * u > X.X.X.X.X.X.X.X.X.X.X.X.X.X.X.X.X.X.X.X.X.X.",
"X.X.X.X.X.X.X.X.X.X.X.X.X.X.  O * * X.X.X.X.X.X.X.X.X.X.X.X.X.X.X.X.X.X.  O * * * * X.X.X.X.X.X.X.X.X.X.X.X.X.X.X.X.X.X.X.X.X.X.",
"X.X.X.X.X.X.X.X.X.X.X.X.X.X.O & * * X.X.X.X.X.X.X.X.X.X.X.X.X.X.X.X.X.X.  O * * > * X.X.X.X.X.X.X.X.X.X.X.X.X.X.X.X.X.X.X.X.X.X.",
"X.X.X.X.X.X.X.X.X.X.X.X.X.X.> * * * X.X.X.X.X.X.X.X.X.X.X.X.X.X.X.X.X.X.  O * * * * X.X.X.X.X.X.X.X.X.X.X.X.X.X.X.X.X.X.X.X.X.X.",
"X.X.X.X.X.X.X.X.X.X.X.X.X.X.* * * * X.X.X.X.X.X.X.X.X.X.X.X.X.X.X.X.X.X.  o % & * * X.X.X.X.X.X.X.X.X.X.X.X.X.X.X.X.X.X.X.X.X.X.",
"X.X.X.X.X.X.X.X.X.X.X.X.X.X.* * * * X.X.X.X.X.X.X.X.X.X.X.X.X.X.X.X.X.X.X.X.  O * * X.X.X.X.X.X.X.X.X.X.X.X.X.X.X.X.X.X.X.X.X.X.",
"X.X.X.X.X.X.X.X.X.X.X.X.X.X.* * * * X.X.X.X.X.X.X.X.X.X.X.X.X.X.X.X.X.X.X.X.  O * * X.X.X.X.X.X.X.X.X.X.X.X.X.X.X.X.X.X.X.X.X.X."
};
