/* XPM */
static char *result[] = {
/* columns rows colors chars-per-pixel */
"64 64 246 2 ",
"   c #1B121C",
".  c #1C121C",
"X  c #1D121C",
"o  c #1C131C",
"O  c #1E131C",
"+  c #1F131C",
"@  c #1F131D",
"#  c #1B161C",
"$  c #1F141D",
"%  c #1F161C",
"&  c #191A1A",
"*  c #181B1B",
"=  c #1B1A1B",
"-  c #1A1B1B",
";  c #1B1B1B",
":  c #1C1B1B",
">  c #1D1B1B",
",  c #1E1B1C",
"<  c #1F1B1C",
"1  c gray11",
"2  c #1E1E1E",
"3  c gray12",
"4  c #20141D",
"5  c #21141D",
"6  c #22151D",
"7  c #23151D",
"8  c #24161D",
"9  c #25161E",
"0  c #27161E",
"q  c #26171E",
"w  c #201B1C",
"e  c #211B1C",
"r  c #221B1C",
"t  c #261B1D",
"y  c #271B1D",
"u  c #221F1F",
"i  c #281B1D",
"p  c #29181E",
"a  c #2A181E",
"s  c #291B1E",
"d  c #2C191F",
"f  c #2F1A1F",
"g  c #291C1D",
"h  c #2F1C1D",
"j  c #301B1F",
"k  c #301C1E",
"l  c #341C1F",
"z  c #321C20",
"x  c #331C20",
"c  c #351D20",
"v  c #361D20",
"b  c #351E20",
"n  c #351F20",
"m  c #361E20",
"M  c #361E21",
"N  c #371E21",
"B  c #361F21",
"V  c #381E20",
"C  c #381E21",
"Z  c #381F21",
"A  c #391F21",
"S  c #3A1F21",
"D  c #3D1C20",
"F  c #3D1C22",
"G  c #3E1C22",
"H  c #3E1C23",
"J  c #232323",
"K  c #272223",
"L  c gray14",
"P  c gray15",
"I  c #262727",
"U  c #272727",
"Y  c #282727",
"T  c #292727",
"R  c #2D2627",
"E  c #2F2726",
"W  c #2D2827",
"Q  c gray16",
"!  c #2C2C2C",
"~  c #332123",
"^  c #342526",
"/  c #382022",
"(  c #3B2122",
")  c #3C2022",
"_  c #3D2022",
"`  c #3D2122",
"'  c #3C2223",
"]  c #372728",
"[  c #382728",
"{  c #3C292A",
"}  c #35302B",
"|  c #343434",
" . c #343535",
".. c #353535",
"X. c #343636",
"o. c #3B3031",
"O. c #3B3232",
"+. c gray22",
"@. c gray23",
"#. c #3C3A3B",
"$. c gray24",
"%. c #3D3E3E",
"&. c #3E3E3E",
"*. c #421C23",
"=. c #451C23",
"-. c #461C24",
";. c #4B1C22",
":. c #491C24",
">. c #4A1C24",
",. c #4F1C26",
"<. c #501C26",
"1. c #511C26",
"2. c #541C26",
"3. c #541C27",
"4. c #551C27",
"5. c #561C27",
"6. c #571C27",
"7. c #581C27",
"8. c #591C27",
"9. c #5A1C27",
"0. c #5C1C27",
"q. c #5D1C28",
"w. c #5E1C28",
"e. c #621C28",
"r. c #661D28",
"t. c #6D1D29",
"y. c #701D27",
"u. c #701D29",
"i. c #731D29",
"p. c #771D2A",
"a. c #781D2A",
"s. c #7C1E29",
"d. c #7D1E29",
"f. c #7E1E29",
"g. c #7D1E2A",
"h. c #7E1E2A",
"j. c #7F1E2A",
"k. c #412223",
"l. c #422223",
"z. c #442127",
"x. c #492524",
"c. c #4D2625",
"v. c #4E2725",
"b. c #512826",
"n. c #522826",
"m. c #552926",
"M. c #562927",
"N. c #582A27",
"B. c #592B27",
"V. c #5A2B27",
"C. c #522028",
"Z. c #512B28",
"A. c #572B28",
"S. c #5B2A28",
"D. c #5B2B28",
"F. c #5B2C28",
"G. c #5C2C28",
"H. c #5D2C28",
"J. c #5E2C28",
"K. c #4D312E",
"L. c #4D322F",
"P. c #4B3839",
"I. c #4F3A3B",
"U. c #693527",
"Y. c #713A26",
"T. c #794124",
"R. c #811E2A",
"E. c #831E2B",
"W. c #841E2B",
"Q. c #861E2B",
"!. c #871E2B",
"~. c #881E2B",
"^. c #891E2B",
"/. c #8A1E2B",
"(. c #8B1E2B",
"). c #8D1E2B",
"_. c #8E1F2B",
"`. c #892129",
"'. c #8E2129",
"]. c #90212A",
"[. c #95202C",
"{. c #A4212D",
"}. c #A5212D",
"|. c #A1252E",
" X c #A8212E",
".X c #AA212E",
"XX c #AC222E",
"oX c #AF222E",
"OX c #B0232D",
"+X c #B0222E",
"@X c #B0232E",
"#X c #B2252F",
"$X c #BD242F",
"%X c #B32731",
"&X c #B62731",
"*X c #C22330",
"=X c #C02430",
"-X c #C22430",
";X c #C42430",
":X c #C52430",
">X c #C62430",
",X c #C82431",
"<X c #C92431",
"1X c #B86E1C",
"2X c #CD831F",
"3X c #EC9417",
"4X c #F59A15",
"5X c #FFA113",
"6X c #FFA114",
"7X c #FFA214",
"8X c #FFA314",
"9X c #FFA415",
"0X c #FFA515",
"qX c #FFA616",
"wX c #FFAB18",
"eX c #FFAE19",
"rX c #FFAF1A",
"tX c #FFAA1C",
"yX c #FFAD1C",
"uX c #FFAF1E",
"iX c #FFB01A",
"pX c #FFB41D",
"aX c #FFB81D",
"sX c #FFBD22",
"dX c #FFC021",
"fX c #FFC423",
"gX c #FFC725",
"hX c #FFC826",
"jX c #FFC829",
"kX c #FFCC2A",
"lX c #F8C63B",
"zX c #FFCF3B",
"xX c #FFD134",
"cX c #FFD83C",
"vX c #FFDB49",
"bX c #FFE34C",
"nX c #FFE350",
"mX c #FFE451",
"MX c #FFE651",
"NX c #FFEB55",
"BX c #CCA483",
"VX c #DCB58F",
"CX c #DEB48F",
"ZX c #F6CA9F",
"AX c #F8CBA0",
"SX c None",
/* pixels */
"SXSXSXSXSXSXSXSXSXSXSXSXSXSXSXSXSXSXSXSXSXSXSXSXSXSXSXSXSXSXSXSXSXSXSXSXSXSXSXSXSXSXSXSXSXSXSXSXSXSXSXSXSXSXSXSXSXSXSXSXSXSXSXSX",
"SXSXSXSXSXSXSXSXSXSXSXSXSXSXSXSXSXSXSXSXSXSXSXSXSXSXSXSXSXSXSXSXSXSXSXSXSXSXSXSXSXSXSXSXSXSXSXSXSXSXSXSXSXSXSXSXSXSXSXSXSXSXSXSX",
"SXSXSXSXSXSXSXSXSXSXSXSXSXSXSXSXSXSXSXSXSXSXSXSXSXSXSXSXSXSXSXSXSXSXSXSXSXSXSXSXSXSXSXSXSXSXSXSXSXSXSXSXSXSXSXSXSXSXSXSXSXSXSXSX",
"SXSXSXSXSXSXSXSXSXSXSXSXSXSXSXSXSXSXSXSXSXSXSXSXSXSXSXSXSXSXSXSXSXSXSXSXSXSXSXSXSXSXSXSXSXSXSXSXSXSXSXSXSXSXSXSXSXSXSXSXSXSXSXSX",
"SXSXSXSXSXSXSXSXSXSXSXSXSXSXSXSXSXSXSXSXSXSXSXSXSXSXSXSXSXSXSXSXSXSXSXSXSXSXSXSXSXSXSXSXSXSXSXSXSXSXSXSXSXSXSXSXSXSXSXSXSXSXSXSX",
"SXSXSXSXSXSXSXSXSXSXSXSXSXSXSXSXSXSXSXSXSXSXSXSXSXSXSXSXSXSXSXSXSXSXSXSXSXSXSXSXSXSXSXSXSXSXSXSXSXSXSXSXSXSXSXSXSXSXSXSXSXSXSXSX",
"SXSXSXSXSXSXSXSXSXSXSXSXSXSXSXSXSXSXSXSXSXSXSXSXSXSXSXSXSXSXSXSXSXSXSXSXSXSXSXSXSXSXSXSXSXSXSXSXSXSXSXSXSXSXSXSXSXSXSXSXSXSXSXSX",
"SXSXSXSXSXSXSXSXSXSXSXSXSXSXSXSXSXSXSXSXSXSXSXSXSXSXSXSXSXSXSXSXSXSXSXSXSXSXSXSXSXSXSXSXSXSXSXSXSXSXSXSXSXSXSXSXSXSXSXSXSXSXSXSX",
"SXSXSXSXSXSXSXSXSXSXSXSXSXSXSXSXSXSXSXSXSXSXSXSXSXSXSXSXSXSXSXSXSXSXSXSXSXSXSX7XSXSXSXSXSXSXSXSXSXSXSXSXSXSXSXSXSXSXSXSXSXSXSXSX",
"SXSXSXSXSXSXSXSXSXSXSXSXSXSXSXSXSXSXSXSXSXSXSXSXSXSXSXSXSXSXSXSXSXSXSXSXSXSXSX7XSXSXSXSXSXSXSXSXSXSXSXSXSXSXSXSXSXSXSXSXSXSXSXSX",
"SXSXSXSXSXSXSXSXSXSXSXSXSXSXSXSXSXSXSXSXSXSXSXSXSXSXSXSXSXSXSXSXSXSXSXSXSXSXSXSXSXSXSXSXSXSXSXSXSXSXSXSXSXSXSXSXSXSXSXSXSXSXSXSX",
"SXSXSXSXSXSXSXSXSXSXSXSXSXSXSXSXSXSXSXSXSXSXSXSXSXSXSXSXSXSXSXSXSXSXSXSXSXSXSXSXSXSXSXSXSXSXSXSXSXSXSXSXSXSXSXSXSXSXSXSXSXSXSXSX",
"SXSXSXSXSXSXSXSXSXSXSXSXSXSXSXSXSXSXSX^.^.oX:X;X;XSXSXSXSXSXSXSXSXSXSXSXSXSXSXSXSXSXSXSXSXSXSXSXSXSXSXSXSXSXSXSXSXSXSXSXSXSXSXSX",
"SXSXSXSXSXSXSXSXSXSXSXSXSXSXSXSXSXSXSX^.^..X=X;X;XSXSXSXSXSXSXSXSXSXSXSXSXSXSXSXSXSXSXSXSXSXSXSXSXSXSXSXSXSXSXSXSXSXSXSXSXSXSXSX",
"SXSXSXSXSXSXSXSXSXSXSXSXSXSXSXSXSX^.^.^.^.).{.:X:X;X;XSXSXSXSXSXSXSXSXSXSXSXSXSXSXSXSXSXSXSXSXSXSXSXSXSXSXSXSXSXSXSXSXSXSXSXSXSX",
"SXSXSXSXSXSXSXSXSXSXSXSXSXSXSXSXSX^.^.^.^.j._.OX@X$X:XSXSXSXSXSXSXSXSXSXSXSXSXSXSXSXSXSXSXSXSXSXSXSXSXSXSXSXSXSXSXSXSXSXSXSXSXSX",
"SXSXSXSXSXSXSXSXSXSXSXSXSXSXSXSXSX^.^.^.^.;.g h k ].,XSXSXSXSXSXSXSXSXSXSXSXSXSXSX7X7X7XSXSXSXSXSXSXSXSXSXSXSXSXSXSXSXSXSXSXSXSX",
"SXSXSXSXSXSXSXSXSXSXSXSXSXSXSXSXSX^.^.!.d.D * - - `.<XSXSXSXSXSXSXSXSXSXSXSXSXSXSX7X7X7XSXSXSXSXSXSXSXSXSXSXSXSXSXSXSXSXSXSXSXSX",
"SXSXSXSXSXSXSXSXSXSXSXSXSXSXSXSXSX^./.d.l < ; ; : `.<XSXSXSXSXSXSXSXSXSXSXSXSXSX7X7X7XSXSXSXSXSXSXSXSXSXSXSXSXSXSXSXSXSXSXSXSXSX",
"SXSXSXSXSXSXSXSXSXSXSXSXSXSXSXSXSXQ./.s.y - ; ; : `.<XSXSXSXSXSXSXSXSXSXSXSXSXSXqX9X7XSXSXSXSXSXSXSXSXSXSXSXSXSXSXSXSXSXSXSXSXSX",
"SXSXSXSXSXSXSXSXSXSXSXSXSXSXSXSX6.a.(.s.i - ; ; : `.<XSXSXSXSXSXSXSXSXSXSXSXSXqXdXeX6XSXSXSXSXSXSXSXSXSXSXSXSXSXSXSXSXSXSXSXSXSX",
"SXSXSXSXSXSXSXSXSXSXSXSXSXSXSXSX6.p.(.s.i - ; ; : `.<XSXSXSXSXSXSXSXSXSXSXSXSXwXfXiX6XSXSXSXSXSXSXSXSXSXSXSXSXSXSXSXSXSXSXSXSXSX",
"SXSXSXSXSXSXSXSXSXSXSXSXSXSXSXSX6.p.(.s.y - ; ; ; `.<XSXSXSXSXSXSXSXSXSXSX5XeXfXgXrX6XSXSXSXSXSXSXSXSXSXSXSXSXSXSXSXSXSXSXSXSXSX",
"SXSXSXSXSXSXSXSXSXSXSXSXSXSXSXSX6.i.!.d.l < ; > y '.,XSXSXSXSXSXSXSXSXSXSX0XpXkXhXrX6XSXSXSXSXSXSXSXSXSXSXSXSXSXSXSXSXSXSXSXSXSX",
"SXSXSXSXSXSXSXSXSXSXSXSXSXSXSX6.6.9.t.~.d.D * t y.XX>XSXSXSXSXSXSXSXSXSX7XaXxXbXkXrX6XSXSXSXSXSXSXSXSXSXSXSXSXSXSXSXSXSXSXSXSXSX",
"SXSXSXSXSXSXSXSXSXSXSXSXSXSXSX6.6.5.r.W.^.;.t l f.+X:XSXSXSXSXSXSXSXSXSX7XsXcXMXjXeX6XSXSXSXSXSXSXSXSXSXSXSXSXSXSXSXSXSXSXSXSXSX",
"SXSXSXSXSXSXSXSXSXSXSXSX; *.8.6.6.6.8.e.W.R.s.d.~.oX:X;XSXSXSXSXSXSXSXSX8XzXNXnXuXSXSXSXSXSXSXSXSXSXSXSXSXSXSXSXSXSXSXSXSXSXSXSX",
"SXSXSXSXSXSXSXSXSXSXSXSX; F 1.<.<.2.6.0.h.W.Q./.^.oX:X-XSXSXSXSXSXSXSXSX3XlXmXvXtXSXSXSXSXSXSXSXSXSXSXSXSXSXSXSXSXSXSXSXSXSXSXSX",
"SXSXSXSXSXSXSXSXSXSXSX; ; w r r r =.7.7.0.0.t.^./.+X>X&XI.SXSXSXSXSXSXSXY.2XyXtXSXSXSXSXSXSXSXSXSXSXSXSXSXSXSXSXSXSXSXSXSXSXSXSX",
"SXSXSXSXSXSXSXSXSXSXSX; ; ; ; ; ; F 1.1.5.5.r.E.E. X*X%XP.SXSXSXSXSXSXSXG.1X4X5XSXSXSXSXSXSXSXSXSXSXSXSXSXSXSXSXSXSXSXSXSXSXSXSX",
"SXSXSXSXSXSXSXSXSXSXSX; ; ; ; ; ; w r s 1.6.8.q.w.g.}.#X{ X.&.SXSXSXSXSXH.U.T.SXSXSXSXSXSXSXSXSXSXSXSXSXSXSXSXSXSXSXSXSXSXSXSXSX",
"SXSXSXSXSXSXSXSXSXSXSX; ; ; ; ; ; ; - e >.4.3.,.<.u.[.|.[  .&.SXSXSXSXSXN.D.S.SXSXSXSXSXSXSXSXSXSXSXSXSXSXSXSXSXSXSXSXSXSXSXSXSX",
"SXSXSXSXSXSXSXSXSX; ; ; ; SXSX; ; ; ; : e -.-.r r :.C.] T ..&.$.$.SXSXS _ SXSXSXSXSXSXSXSXSXSXSXSXSXSXSXSXSXSXSXSXSXSXSXSXSXSXSX",
"SXSXSXSXSXSXSXSXSX; ; ; ; SXSX; ; ; ; ; ; G G ; ; H z.I U | @.@.$.SXSXA A SXSXSXSXSXSXSXSXSXSXSXSXSXSXSXSXSXSXSXSXSXSXSXSXSXSXSX",
"SXSXSXSXSXSXSXSXSX; ; ; ; SXSX; ; ; ; ; ; w w ; ; K R SXU Q Q ! @.%.O.A V SXSXSXSXSXSXSXSXSXSXSXSXSXSXSXSXSXSXSXSXSXSXSXSXSXSXSX",
"SXSXSXSXSXSXSXSXSX; ; ; ; SXSX; ; ; ; ; ; ; ; ; 1 J U SXU U U Q +.#.o.' K.SXSXSXSXSXSXSXSXSXSXSXSXSXSXSXSXSXSXSXSXSXSXSXSXSXSXSX",
"SXSXSXSXSXSXSXSX; ; ; ; SXSXSX; ; ; ; ; ; ; ; 1 L U U SXSXSXSXU Q ^ / K.BXSXSXSXSXSXSXSXSXSXSXSXSXSXSXSXSXSXSXSXSXSXSXSXSXSXSXSX",
"SXSXSXSXSXSXSXSX; ; ; ; SXSXSX; ; ; ; ; ; ; ; 1 P U U SXSXSXSXU U ~ V L.CXSXSXSXSXSXSXSXSXSXSXSXSXSXSXSXSXSXSXSXSXSXSXSXSXSXSXSX",
"SXSXSXSXSXSXSXSX; ; ; ; SXSXSXSX; ; ; ; ; ; ; 1 P SXSXSXSXSXSXSXSXZ A ' SXSXSXSXSXSXSXSXSXSXSXSXSXSXSXSXSXSXSXSXSXSXSXSXSXSXSXSX",
"SXSXSXSXSXSXSXSX; ; ; ; SXSXSXSX; ; ; ; ; ; ; 2 P SXSXSXSXSXSXSXSXA A A SXSXSXSXSXSXSXSXSXSXSXSXSXSXSXSXSXSXSXSXSXSXSXSXSXSXSXSX",
"SXSXSXSXSXSXSXSX; ; ; SXSXSXSXSX; ; ; ; ; ; 3 P U SXSXSXSXSXSXSXSXA A SXSXSXSXSXSXSXSXSXSXSXSXSXSXSXSXSXSXSXSXSXSXSXSXSXSXSXSXSX",
"SXSXSXSXSXSXSXSX; ; ; SXSXSXSXSX; ; ; ; ; ; 3 U U SXSXSXSXSXSXSXSXA A SXSXSXSXSXSXSXSXSXSXSXSXSXSXSXSXSXSXSXSXSXSXSXSXSXSXSXSXSX",
"SXSXSXSXSXSXSXSX& & & SXSXSXSXSX; ; ; ; ; ; 3 U U SXSXSXSXSXSXSXA A A SXSXSXSXSXSXSXSXSXSXSXSXSXSXSXSXSXSXSXSXSXSXSXSXSXSXSXSXSX",
"SXSXSXSXSXSXSXSX} } } SXSXSXSXSX= = = ; ; ; 3 Y W SXSXSXSXSXSXSXA A A SXSXSXSXSXSXSXSXSXSXSXSXSXSXSXSXSXSXSXSXSXSXSXSXSXSXSXSXSX",
"SXSXSXSXSXSXSXSXVXVXVXSXSXSXSX. o o # ; ; ; 3 W Z.F.H.SXSXSXSXSXA SXSXSXSXSXSXSXSXSXSXSXSXSXSXSXSXSXSXSXSXSXSXSXSXSXSXSXSXSXSXSX",
"SXSXSXSXSXSXSXSXAXAXAXSXSXSXSX. . O % < < , u E A.J.H.SXSXSXSXSXA SXSXSXSXSXSXSXSXSXSXSXSXSXSXSXSXSXSXSXSXSXSXSXSXSXSXSXSXSXSXSX",
"SXSXSXSXSXSXSXSXZXZXZXSXSXSXSX. . d m n n b B ( B.H.H.SXSXSXSXSXSXSXSXSXSXSXSXSXSXSXSXSXSXSXSXSXSXSXSXSXSXSXSXSXSXSXSXSXSXSXSXSX",
"SXSXSXSXSXSXSXSXZXZXZXSXSXSXSX. @ j S A A A A _ m.G.H.SXSXSXSXSXSXSXSXSXSXSXSXSXSXSXSXSXSXSXSXSXSXSXSXSXSXSXSXSXSXSXSXSXSXSXSXSX",
"SXSXSXSXSXSXSXSXSXSXSXSXSX. . + z Z A A A A A S _ n.J.H.SXSXSXSXSXSXSXSXSXSXSXSXSXSXSXSXSXSXSXSXSXSXSXSXSXSXSXSXSXSXSXSXSXSXSXSX",
"SXSXSXSXSXSXSXSXSXSXSXSXSX. X 7 M A A A A N c m Z c.D.H.SXSXSXSXSXSXSXSXSXSXSXSXSXSXSXSXSXSXSXSXSXSXSXSXSXSXSXSXSXSXSXSXSXSXSXSX",
"SXSXSXSXSXSXSXSXSXSXSXSX. . 9 m A A A SXSX5 @ 6 M ) x.H.H.SXSXSXSXSXSXSXSXSXSXSXSXSXSXSXSXSXSXSXSXSXSXSXSXSXSXSXSXSXSXSXSXSXSXSX",
"SXSXSXSXSXSXSXSXSXSXSXSX.   q A A A A SXSX. . @ x c l.B.H.SXSXSXSXSXSXSXSXSXSXSXSXSXSXSXSXSXSXSXSXSXSXSXSXSXSXSXSXSXSXSXSXSXSXSX",
"SXSXSXSXSXSXSXSXSXSXSXSX.   q A A SXSXSXSXSXSXSX$ @ a k.B.SXSXSXSXSXSXSXSXSXSXSXSXSXSXSXSXSXSXSXSXSXSXSXSXSXSXSXSXSXSXSXSXSXSXSX",
"SXSXSXSXSXSXSXSXSXSXSXSX. O p A A SXSXSXSXSXSXSX.   8 S N.SXSXSXSXSXSXSXSXSXSXSXSXSXSXSXSXSXSXSXSXSXSXSXSXSXSXSXSXSXSXSXSXSXSXSX",
"SXSXSXSXSXSXSXSXSXSXSXSX. d N A SXSXSXSXSXSXSXSXSX. X 0 M.J.H.SXSXSXSXSXSXSXSXSXSXSXSXSXSXSXSXSXSXSXSXSXSXSXSXSXSXSXSXSXSXSXSXSX",
"SXSXSXSXSXSXSXSXSXSXSXSX. f S A SXSXSXSXSXSXSXSXSX.   7 b.G.H.SXSXSXSXSXSXSXSXSXSXSXSXSXSXSXSXSXSXSXSXSXSXSXSXSXSXSXSXSXSXSXSXSX",
"SXSXSXSXSXSXSXSXSXSXSXSX. f S A SXSXSXSXSXSXSXSXSXSXSX4 A n.J.SXSXSXSXSXSXSXSXSXSXSXSXSXSXSXSXSXSXSXSXSXSXSXSXSXSXSXSXSXSXSXSXSX",
"SXSXSXSXSXSXSXSXSXSXSXSX. f S A SXSXSXSXSXSXSXSXSXSXSX$ c v.V.SXSXSXSXSXSXSXSXSXSXSXSXSXSXSXSXSXSXSXSXSXSXSXSXSXSXSXSXSXSXSXSXSX",
"SXSXSXSXSXSXSXSXSXSXSXSX. f S SXSXSXSXSXSXSXSXSXSXSXSX$ v ) ` SXSXSXSXSXSXSXSXSXSXSXSXSXSXSXSXSXSXSXSXSXSXSXSXSXSXSXSXSXSXSXSXSX",
"SXSXSXSXSXSXSXSXSXSXSXSX4 j S SXSXSXSXSXSXSXSXSXSXSXSX$ v A A SXSXSXSXSXSXSXSXSXSXSXSXSXSXSXSXSXSXSXSXSXSXSXSXSXSXSXSXSXSXSXSXSX",
"SXSXSXSXSXSXSXSXSXSXSXSXv C A SXSXSXSXSXSXSXSXSXSXSXSX$ m A A SXSXSXSXSXSXSXSXSXSXSXSXSXSXSXSXSXSXSXSXSXSXSXSXSXSXSXSXSXSXSXSXSX",
"SXSXSXSXSXSXSXSXSXSXSXSXA A A SXSXSXSXSXSXSXSXSXSXSXSX$ x Z A SXSXSXSXSXSXSXSXSXSXSXSXSXSXSXSXSXSXSXSXSXSXSXSXSXSXSXSXSXSXSXSXSX",
"SXSXSXSXSXSXSXSXSXSXSXSXA A A SXSXSXSXSXSXSXSXSXSXSXSXSX$ j S SXSXSXSXSXSXSXSXSXSXSXSXSXSXSXSXSXSXSXSXSXSXSXSXSXSXSXSXSXSXSXSXSX",
"SXSXSXSXSXSXSXSXSXSXSXSXA A A SXSXSXSXSXSXSXSXSXSXSXSXSX. f S SXSXSXSXSXSXSXSXSXSXSXSXSXSXSXSXSXSXSXSXSXSXSXSXSXSXSXSXSXSXSXSXSX"
};
