/* XPM */
static char *_09e1094d6814fec88b7461cd68556aczIDhKnogHbITYiom[] = {
/* columns rows colors chars-per-pixel */
"64 64 89 1 ",
"  c None",
". c #1C121C",
"X c #161B1A",
"o c #1B1B1B",
"O c #25161E",
"+ c #251B1D",
"@ c #2B1A1F",
"# c #311B1F",
"$ c #3D1D1F",
"% c #351D20",
"& c #391F21",
"* c #262626",
"= c #2A2727",
"- c #2A2A2A",
"; c #322224",
": c #3C2122",
"> c #3F2927",
", c #3D2728",
"< c #3B2B2C",
"1 c #343434",
"2 c #3C3333",
"3 c #3D3D3D",
"4 c #431C22",
"5 c #4B1C24",
"6 c #561C26",
"7 c #591C26",
"8 c #5F1C28",
"9 c #671D26",
"0 c #6C1E26",
"q c #641D28",
"w c #6B1D29",
"e c #741D28",
"r c #7D1E2A",
"t c #432324",
"y c #4A2524",
"u c #4A2826",
"i c #462A28",
"p c #542926",
"a c #592A27",
"s c #59262A",
"d c #542B28",
"f c #5D2C28",
"g c #4D312E",
"h c #4F3330",
"j c #503330",
"k c #6C262B",
"l c #673327",
"z c #743D25",
"x c #663438",
"c c #693539",
"v c #7E4424",
"b c #851E2B",
"n c #891E2B",
"m c #921F2C",
"M c #9C202D",
"N c #AF222E",
"B c #B5232F",
"V c #BB242F",
"C c #BF2330",
"Z c #C32430",
"A c #905122",
"S c #C6781B",
"D c #CF821C",
"F c #DE8B19",
"G c #FA9E15",
"H c #FFA214",
"J c #FFA917",
"K c #FFA618",
"L c #FFAB18",
"P c #FFB51C",
"I c #FFBC1F",
"U c #FFBA21",
"Y c #FFC624",
"T c #FFC926",
"R c #FFC72F",
"E c #FFCB28",
"W c #FFCC31",
"Q c #F5C23A",
"! c #FFD83B",
"~ c #FFD442",
"^ c #FFDB40",
"/ c #FFDD4A",
"( c #FFE047",
") c #FFE24B",
"_ c #FFED59",
"` c #CAA684",
"' c #E1B791",
"] c #F6CA9F",
"[ c #F9CCA1",
/* pixels */
"                                                     HH         ",
"                                                     HH         ",
"                                                                ",
"                                                                ",
"                                                                ",
"                  nnnbMZZZZZZZ                                  ",
"                  nnnnmBVCZZZZ                                  ",
"                nnnnnnnnMBZZZZZZ                                ",
"                nnbnnnnbbNVVVVZZ                                ",
"                nnnnnne$#$$$$9ZZ                         HHHHH  ",
"                nnnnnne+oXooXyZZ                         HHHHH  ",
"                nnnn05$oooooo5ZZ                       HHHHH    ",
"                nnnn7XooooooX6ZZ                       HHHH     ",
"                nnnn7oooooooX6ZZ                       LLHH     ",
"              68bnnn7XooooooX5ZZ                     HLYYLH     ",
"              68bnnn7oooooooX6ZZ                    LHLYYLH     ",
"              68rnnn6oooooooo5ZZ                  HHPYYTYLH     ",
"              68bnnn7oooooooo6ZZ                  HHPTYYYLH     ",
"            6688qwrnrw6Oooo4qnZZ                HHPIW)^EYLG     ",
"           6666666rnnneoXoo6nmZZ                HHIT!_)EYLH     ",
"           6676767wernr5555wnMZZZ               HHR!(_)UPLH     ",
"       o+57776776666wnnnnnnnnMZZZZ              HH~___/HH       ",
"       oo45555556766wrbrrnnnnMZZZZ              FFQ///~KH       ",
"     ooooooOooo+587667778rnnnMZZZZc33           llDLHLK         ",
"     oooooooooo+566667668rbbbMCCZZx33           ffSGGHH         ",
"     oooooooooooO*OO&77668qq8emMCZs-133         ffzvA           ",
"     ooooooooooooooo%76667666qnmVZs*133         fffaa           ",
"   ooooooo oooooooooO%&66&%%%5wkkk>*1333333   ::yyp             ",
"  ooooooo  ooooooooooX+66OXoo@65=***1333333   &&&&              ",
"  ooooooo  oooooooooooO44Ooo.*54=-*--1311333 <&&&&              ",
"  ooooooo  ooooooooooooo+ooooo-*  ******=33332&&&&              ",
"  ooooooo  oooooooooooooXoooo**-  **-*-*=13332&:gj              ",
"ooooooo    oooooooooooooooo***-*       *---;:;&g`'              ",
"ooooooo    ooooooooooooooooo****       **=*;&:;h'[              ",
"ooooooo      oooooooooooooo*-*             ;&&&t                ",
"ooooooo       ooooooooooooo***             &&&&&                ",
"oooooo        ooooooooooooo*-*             &&&&                 ",
"ooooo         ooooooooooo**-**             &&&                  ",
"ooooo         ooooooooooo**=-*             &&&                  ",
"ooooo         ooooooooooo*-***           &:&&&                  ",
"*+***         Xoooooooooo*====           &:&&&                  ",
"`````       ......ooooooo**>ddff         :&&                    ",
"[[[[[      ........oooooo*=iffff         &&                     ",
"]]]]]      .....+@@@@@#@@=;ulsff                                ",
"]]]]]      ....o&&&&:&&&&&&yffal                                ",
"]]]]       ...O+%&&&:&&&&&&yppff                                ",
"         ....O&&&&&&&&&&&&&&&tffff                              ",
"         ..O.O&&&&&&&&&&%%%&&taaff                              ",
"       ....@%%&&&&     O...#&&&tafff                            ",
"       ....@&&&&::     ....#&&&&affff                           ",
"       ....@&&&&           OOO@Ottpff                           ",
"       ....@&&&&           .....#:pff                           ",
"       ..OO%&&&             ....@@pff                           ",
"       ..%:&&&                ....yffff                         ",
"       ..&&&&&                ....tpsfl                         ",
"       ..#&&&&                  ..#$yfa                         ",
"       ..&&&&&                  ..#&yaf                         ",
"       ..#&&                    ..#&&tt                         ",
"       ..%&                     ..#&&&&                         ",
"       @@&&                     ..@&&&&                         ",
"       &&&&                     ..#:&&&                         ",
"       &&&&                     ..O#%&&                         ",
"       &&:&                       ..O&&                         ",
"       &&&&                       ..O&:                         "
};
