/* XPM */
static char *result[] = {
/* columns rows colors chars-per-pixel */
"64 64 93 2 ",
"   c #1C121C",
".  c #171B1A",
"X  c #1B1B1B",
"o  c #24161D",
"O  c #28171E",
"+  c #251B1D",
"@  c #2C1A1E",
"#  c #351C1F",
"$  c #3B1D1F",
"%  c #2E1E21",
"&  c #351C20",
"*  c #391F21",
"=  c #262625",
"-  c #2A2627",
";  c #2B2B2B",
":  c #332425",
">  c #3B2123",
",  c #3C2929",
"<  c #3B2F30",
"1  c #333333",
"2  c #3B3132",
"3  c #3D3D3D",
"4  c #451C22",
"5  c #4A1C24",
"6  c #561C27",
"7  c #5A1C26",
"8  c #5C1C28",
"9  c #621E25",
"0  c #681D26",
"q  c #631D28",
"w  c #6C1D29",
"e  c #701D27",
"r  c #731D29",
"t  c #7D1E2A",
"y  c #432324",
"u  c #4A2524",
"i  c #402528",
"p  c #552927",
"a  c #592B27",
"s  c #522329",
"d  c #522B28",
"f  c #5D2C28",
"g  c #4F3330",
"h  c #503330",
"j  c #5B3E38",
"k  c #612129",
"l  c #6A242C",
"z  c #752026",
"x  c #633027",
"c  c #6B3626",
"v  c #7E4424",
"b  c #7E5D4F",
"n  c #851E2B",
"m  c #8A1E2B",
"M  c #971F2C",
"N  c #8D202A",
"B  c #9B202D",
"V  c #8C2E35",
"C  c #A2202D",
"Z  c #BB232F",
"A  c #B32732",
"S  c #C42430",
"D  c #8F5022",
"F  c #9C5A20",
"G  c #A56221",
"H  c #876555",
"J  c #DD8817",
"K  c #F79C15",
"L  c #FA9E14",
"P  c #FFA214",
"I  c #FFA917",
"U  c #FFA618",
"Y  c #FFAD19",
"T  c #FFB31B",
"R  c #FFBA1F",
"E  c #EBAC2C",
"W  c #FFB824",
"Q  c #FFC524",
"!  c #FFC825",
"~  c #FFC433",
"^  c #FFCB32",
"/  c #FFCD3C",
"(  c #FFD73B",
")  c #FFDF46",
"_  c #FFDD4A",
"`  c #FFE148",
"'  c #FFED59",
"]  c #C9A684",
"[  c #E1B791",
"{  c #F6CA9F",
"}  c #F7CBA0",
"|  c #F9CCA1",
" . c None",
/* pixels */
" . . . . . . . . . . . . . . . . . . . . . . . . . . . . . . . . . . . . . . . . . . . . . . . . . . . . . . . . . . . . . . . .",
" . . . . . . . . . . . . . . . . . . . . . . . . . . . . . . . . . . . . . . . . . . . . . . . . . . . . . . . . . . . . . . . .",
" . . . . . . . . . . . . . . . . . . . . . . . . . . . . . . . . . . . . . . . . . . . . . . . . . . . . . . . . . . . . . . . .",
" . . . . . . . . . . . . . . . . . . . . . . . . . . . . . . . . . . . . . . . . . . . . . . . . . . . . . . . . . . . . . . . .",
" . . . . . . . . . . . . . . . . . . . . . . . . . . . . . . . . . . . . . . . . . . . . . . . . . . . . . . . . . . . . . . . .",
" . . . . . . . . . . . . . . . . . . . . . . . . . .m m m m m C S S S S  . . . . . . . . . . . . . . . . . . . . . . . . . . . .",
" . . . . . . . . . . . . . . . . . . . . . . . . .m m m m m m B Z Z S S  . . . . . . . . . . . . . . . . . . . . . . . . . . . .",
" . . . . . . . . . . . . . . . . . . . . . . . .m m m m m m m m m C S S S S  . . . . . . . . . . . . . . . . . . . . . .P P P P ",
" . . . . . . . . . . . . . . . . . . . . . . . .m m m m m n n n m B Z S S S  . . . . . . . . . . . . . . . . . . . . . .P P P P ",
" . . . . . . . . . . . . . . . . . . . . . . . .m m m m m 9 # @ @ # $ z S S  . . . . . . . . . . . . . . . . . . . . . . . . . .",
" . . . . . . . . . . . . . . . . . . . . . . . .m n m m m 9 X X X X . a S S  . . . . . . . . . . . . . . . . . . . . . . . . . .",
" . . . . . . . . . . . . . . . . . . . . . . . .m m m e 5 # X X X X X 9 S S  . . . . . . . . . . . . . . . . . .P  . . . . . . .",
" . . . . . . . . . . . . . . . . . . . . . . . .m m m 7 . X X X X X . 9 S S  . . . . . . . . . . . . . . . . . .P P  . . . . . .",
" . . . . . . . . . . . . . . . . . . . . . . .t m m m 7 . X X X X X . 9 S S  . . . . . . . . . . . . . . . . .I Y Y  . . . . . .",
" . . . . . . . . . . . . . . . . . . . . . .6 0 m m m 7 X X X X X X . 9 S S  . . . . . . . . . . . . . . . .P T ! R P P P P  . .",
" . . . . . . . . . . . . . . . . . . . . . .7 0 m m m 9 X X X X X X . 7 S S  . . . . . . . . . . . . . . . .P T ! R P P P P  . .",
" . . . . . . . . . . . . . . . . . . . . . .6 w m m m 7 X X X X X X X 9 S S  . . . . . . . . . . . . . . . .P T ! Q Q R L P  . .",
" . . . . . . . . . . . . . . . . . . . . . .6 w m m m 8 X X X X X X X k S S  . . . . . . . . . . . . . . . .P T ! ! ! R P P  . .",
" . . . . . . . . . . . . . . . . . . . .6 6 6 8 q r m t 0 4 X X X * q N S S  . . . . . . . . . . . . . .P Y R ^ ` ^ Y I P P  . .",
" . . . . . . . . . . . . . . . . . . . .6 6 6 6 6 w m m M 7 X X . 4 N C S S  . . . . . . . . . . . . . .P T ! ( ' / P P P P  . .",
" . . . . . . . . . . . . . . . . . . .8 6 6 6 6 6 0 r t m e 5 5 5 0 m M S S  . . . . . . . . . . . . . .P W ( ` ' / P P P  . . .",
" . . . . . . . . . . . . . . . .X & 8 8 8 6 8 6 6 6 6 w m m m n m m m C S S S S  . . . . . . . . . . . .P ~ ' ' ' / P P  . . . .",
" . . . . . . . . . . . . . . .X X % 5 5 5 5 5 6 6 6 6 0 n t n n m m m M Z Z S A  . . . . . . . . . . . .J E _ _ _ ~ P  . . . . .",
" . . . . . . . . . . . . . .X X X X X X + X X # 6 6 6 6 8 6 6 w m m m m N C S V 3 3  . . . . . . . . . .x G P U U U  . . . . . .",
" . . . . . . . . . . . . . .X X X X X X X X X # 6 6 6 6 6 6 6 w m m n n n C S V 3 3  . . . . . . . . . .a F K K P P  . . . . . .",
" . . . . . . . . . . . . . .X X X X X X X X X + + + + & 6 6 6 8 q q q r m m M l = 1 3  . . . . . . . . .f c v D  . . . . . . . .",
" . . . . . . . . . . . . . .X X X X X X X X X X . X X # 6 6 6 6 6 6 6 w m m m q = 1 3 3  . . . . . . . .f f f f  . . . . . . . .",
" . . . . . . . . . . . .X X X X X X  .X X X X X X X X + & 4 8 5 # & & 5 w q s i = 1 3 3 3 3 3  . . .* y u u  . . . . . . . . . .",
" . . . . . . . . . . . .X X X X X X  . .X X X X X X X X X & 8 * X X X & 8 4 = = ; 1 3 3 3 3 3 3  . .* * * *  . . . . . . . . . .",
" . . . . . . . . . . . .X X X X X X  . .X X X X X X X X X @ 4 & X X X % 5 , = ; = ; 1 3 1 3 3 3  ., * * * *  . . . . . . . . . .",
" . . . . . . . . . . . .X X X X X X  . .X X X X X X X X X X X X X X X X = ;  . .= ; = - = 1 3 3 3 2 * * * *  . . . . . . . . . .",
" . . . . . . . . . . . .X X X X X X  . .X X X X X X X X X X X X X X X = = =  . .- = = = - ; 3 3 3 < * i h g  . . . . . . . . . .",
" . . . . . . . . . .X X X X X X  . . . .X X X X X X X X X X X X X = = = ; ;  . . . . . .= ; ; : > > * b [ [  . . . . . . . . . .",
" . . . . . . . . . .X X X X X X  . . . .X X X X X X X X X X X X X X = = = =  . . . . . .= = - - & > & H | }  . . . . . . . . . .",
" . . . . . . . . . .X X X X X X  . . . . .X X X X X X X X X X X X X = =  . . . . . . . . . . .: * * * j  . . . . . . . . . . . .",
" . . . . . . . . . .X X X X X X  . . . . . .X X X X X X X X X X X = = ;  . . . . . . . . . . . .* * * #  . . . . . . . . . . . .",
" . . . . . . . . . .X X X X X  . . . . . . .X X X X X X X X X X X = = =  . . . . . . . . . . . .* * *  . . . . . . . . . . . . .",
" . . . . . . . . . .X X X X  . . . . . . . .X X X X X X X X X X ; = ; =  . . . . . . . . . . . .* *  . . . . . . . . . . . . . .",
" . . . . . . . . . .X X X X  . . . . . . . .X X X X X X X X X = = = = ;  . . . . . . . . . . .* * *  . . . . . . . . . . . . . .",
" . . . . . . . . . .X X X X  . . . . . . . .X X X X X X X X X X ; = - =  . . . . . . . . . .* * * *  . . . . . . . . . . . . . .",
" . . . . . . . . . .- = % =  . . . . . . . .X X X X X X X X . + = - - -  . . . . . . . . . .* * * *  . . . . . . . . . . . . . .",
" . . . . . . . . . .] ] ] ]  . . . . . .+     X X X X X X + = , d d d d  . . . . . . . . . .* *  . . . . . . . . . . . . . . . .",
" . . . . . . . . . .| | { {  . . . . . .      X X X X X X X ; , x f f f  . . . . . . . . . .* *  . . . . . . . . . . . . . . . .",
" . . . . . . . . . .{ { { {  . . . . . .  o % @ % @ @ @ % % - y f f f f f  . . . . . . . . . . . . . . . . . . . . . . . . . . .",
" . . . . . . . . . .{ { { {  . . . . . .  O * * * * * * * * * y f f f f f f  . . . . . . . . . . . . . . . . . . . . . . . . . .",
" . . . . . . . . . .{ { {  . . . . . .o o @ * * * * * * * * * y d p f f f f  . . . . . . . . . . . . . . . . . . . . . . . . . .",
" . . . . . . . . . . . . . . . . . .  O * * * * * * * * * * * * * u f f f f  . . . . . . . . . . . . . . . . . . . . . . . . . .",
" . . . . . . . . . . . . . . . . . .  @ * * * * * * * * * * & * * y f f f f  . . . . . . . . . . . . . . . . . . . . . . . . . .",
" . . . . . . . . . . . . . . . .  o & & * * * * * *  . . . .o @ $ > > u f f f f  . . . . . . . . . . . . . . . . . . . . . . . .",
" . . . . . . . . . . . . . . . .  @ * * * * * * * *  . . . .  o * * * y f f f f  . . . . . . . . . . . . . . . . . . . . . . . .",
" . . . . . . . . . . . . . . . .  o * * * * * *  . . . . . . .o o o o # y d f f  . . . . . . . . . . . . . . . . . . . . . . . .",
" . . . . . . . . . . . . . . . .  @ * * * * * *  . . . . . . . .      o * u f f  . . . . . . . . . . . . . . . . . . . . . . . .",
" . . . . . . . . . . . . . . .o + @ * * * * *  . . . . . . . . .      o @ 4 a f  . . . . . . . . . . . . . . . . . . . . . . . .",
" . . . . . . . . . . . . . .  @ * * * * * *  . . . . . . . . . . . .      & f f f f  . . . . . . . . . . . . . . . . . . . . . .",
" . . . . . . . . . . . . . .  o * > * * *  . . . . . . . . . . . . .      # p a f f  . . . . . . . . . . . . . . . . . . . . . .",
" . . . . . . . . . . . . . .  @ * * * *  . . . . . . . . . . . . . . . .  @ > u f f  . . . . . . . . . . . . . . . . . . . . . .",
" . . . . . . . . . . . . . .  @ * * * *  . . . . . . . . . . . . . . . .  @ & y a f  . . . . . . . . . . . . . . . . . . . . . .",
" . . . . . . . . . . . . . .  o > *  . . . . . . . . . . . . . . . . . .  @ * * y >  . . . . . . . . . . . . . . . . . . . . . .",
" . . . . . . . . . . . . . .  o * *  . . . . . . . . . . . . . . . . . .  o * * > *  . . . . . . . . . . . . . . . . . . . . . .",
" . . . . . . . . . . . . . .@ & * *  . . . . . . . . . . . . . . . . . . .o @ & * *  . . . . . . . . . . . . . . . . . . . . . .",
" . . . . . . . . . . . . . .* * * *  . . . . . . . . . . . . . . . . . . . .  @ * *  . . . . . . . . . . . . . . . . . . . . . .",
" . . . . . . . . . . . . . .* * * *  . . . . . . . . . . . . . . . . . . . .  o * *  . . . . . . . . . . . . . . . . . . . . . .",
" . . . . . . . . . . . . . .* * * *  . . . . . . . . . . . . . . . . . . . .  @ * *  . . . . . . . . . . . . . . . . . . . . . .",
" . . . . . . . . . . . . . .* * * *  . . . . . . . . . . . . . . . . . . . .  o * *  . . . . . . . . . . . . . . . . . . . . . ."
};
