/* XPM */
static char *result[] = {
/* columns rows colors chars-per-pixel */
"64 64 80 1 ",
"  c #1D131C",
". c #171B1B",
"X c #1B1B1B",
"o c #24151D",
"O c #221C1C",
"+ c #2C1A1E",
"@ c #301B1F",
"# c #351D20",
"$ c #391F21",
"% c #262626",
"& c #2C2626",
"* c #2E2827",
"= c #2F2728",
"- c #2B2C2C",
"; c #3B2123",
": c #35302B",
"> c #2E3030",
", c #353535",
"< c #3C3637",
"1 c #373B3B",
"2 c #3C3C3C",
"3 c #421C21",
"4 c #4C1C24",
"5 c #551C26",
"6 c #591D26",
"7 c #5D1C28",
"8 c #651E26",
"9 c #631C28",
"0 c #6A1D29",
"q c #731D29",
"w c #7C1E2A",
"e c #422223",
"r c #4C2625",
"t c #452428",
"y c #4E252A",
"u c #482C2B",
"i c #542926",
"p c #592B27",
"a c #562B28",
"s c #5D2C28",
"d c #503430",
"f c #643127",
"g c #6C3726",
"h c #723B25",
"j c #683237",
"k c #713438",
"l c #841E2B",
"z c #8A1E2B",
"x c #921F2C",
"c c #9C202D",
"v c #A0202D",
"b c #B5232F",
"n c #BC232F",
"m c #BE2330",
"M c #C42430",
"N c #8E4F22",
"B c #A26222",
"V c #EC9416",
"C c #FFA214",
"Z c #FFAC1A",
"A c #FFB31D",
"S c #FFB81E",
"D c #F2AF2A",
"F c #FFBC2B",
"G c #FFC323",
"H c #FFC826",
"J c #FFC728",
"K c #FFC828",
"L c #FFD030",
"P c #A6826A",
"I c #B08A70",
"U c #FFE24E",
"Y c #FFE752",
"T c #FFEA55",
"R c #DCB58F",
"E c #E4BA93",
"W c #F6CA9F",
"Q c #F8CBA0",
"! c #FED1A4",
"~ c None",
/* pixels */
"~~~~~~~~~~~~~~~~~~~~~~~~~~~~~~~~~~~~~~~~~~~~~~~~~~~~~~~~~~~~~~~~",
"~~~~~~~~~~~~~~~~~~~~~~~~~~~~~~~~~~~~~~~~~~~~~~~~~~~~~~~~~~~~~~~~",
"~~~~~~~~~~~~~~~~~~~~~~~~~~~~~~~~~~~~~~~~~~~~~~~~~~~~~~~~~~~~~~~~",
"~~~~~~~~~~~~~~~~~~~~~~~~~~~~~~~~~~~~~~~~~~~~~~~~~~~~~~~~~~~~~~~~",
"~~~~~~~~~~~~~~~~~~~~~~~~~~~~~~~~~~~~~~~~~~~~~~~~~~~~~~~~~~~~~~~~",
"~~~~~~~~~~~~~~~~~~~~~~~~~~~~~~~~~~~~~~~~~~~~~~~~~~~~~~~~~~~~~~~~",
"~~~~~~~~~~~~~~~~~~~~~~~~~~~~~~~~~~~~~~~~~~~~~~~~~~~~~~~~~~~~~~~~",
"~~~~~~~~~~~~~~~~~~~~~~~~~~~~~~~~~~~~~~~~~~~~~~~~~~~~~~~~~~~~~~~~",
"~~~~~~~~~~~~~~~~~~~~~~~~~~~~~~~~~~~~~~~~~~~~~~~~~~~~~~~~~~~~~~~~",
"~~~~~~~~~~~~~~~~~~~~~~~~~~~~~~~~~~~~~~~~~~~~~~~~~~~~~~~~~~~~~~~~",
"~~~~~~~~~~~~~~~~~~~~~~~~~~~~~~~~~~~~~~~~~~~~~~~~~~~~~~~~~~~~~~~~",
"~~~~~~~~~~~~~~~~~~~~~~~~~~~~~~~~~~~~~~~~~~~~~~~~~~~~~~~~~~~~~~~~",
"~~~~~~~~~~~~~~~~~~~~zzlxnMM~~~~~~~~~~~~~~~~~~~~~~~~~~~~~~~~~~~~~",
"~~~~~~~~~~~~~~~~~~~~zzzxbMM~~~~~~~~~~~~~~~~~~~~~~~~~~~~~~~~~~~~~",
"~~~~~~~~~~~~~~~~~~~lzzzzcbMM~~~~~~~~~~~~~~~CC~~~~~~~~~~~~~~~~~~~",
"~~~~~~~~~~~~~~~~~~~zzzlwqcnM~~~~~~~~~~~~~~~CC~~~~~~~~~~~~~~~~~~~",
"~~~~~~~~~~~~~~~~~~~zzz8+o+8M~~~~~~~~~~~~~~~~~~~~~~~~~~~~~~~~~~~~",
"~~~~~~~~~~~~~~~~~~~zzl6XX.6M~~~~~~~~~~~~~~~~~~~~~~~~~~~~~~~~~~~~",
"~~~~~~~~~~~~~~~~~~~zl4OXX.6M~~~~~~~~~~~~C~~~~~~~~~~~~~~~~~~~~~~~",
"~~~~~~~~~~~~~~~~~~~zz3.XX.6M~~~~~~~~~~~~C~~~~~~~~~~~~~~~~~~~~~~~",
"~~~~~~~~~~~~~~~~~50zz3XXXXiM~~~~~~~~~~~ZGZCC~~~~~~~~~~~~~~~~~~~~",
"~~~~~~~~~~~~~~~~~50zz3.X.X6M~~~~~~~~~~~CGACC~~~~~~~~~~~~~~~~~~~~",
"~~~~~~~~~~~~~~~~~58zz3.XX.5M~~~~~~~~~~~CGHSC~~~~~~~~~~~~~~~~~~~~",
"~~~~~~~~~~~~~~~~~58lz4OXXX8M~~~~~~~~~~~ZHHSC~~~~~~~~~~~~~~~~~~~~",
"~~~~~~~~~~~~~~~~6569ll6XX6xM~~~~~~~~~CZHUFCC~~~~~~~~~~~~~~~~~~~~",
"~~~~~~~~~~~~~~~~5657wz9+o8vM~~~~~~~~~CZLYFCC~~~~~~~~~~~~~~~~~~~~",
"~~~~~~~~~~~~~X@555667wlwwzvMM~~~~~~~~CFYTFC~~~~~~~~~~~~~~~~~~~~~",
"~~~~~~~~~~~~~X+555555qllzzxMM~~~~~~~~VDUUFC~~~~~~~~~~~~~~~~~~~~~",
"~~~~~~~~~~~~XXXOOO#55779lzzxMk2~~~~~~gBZZ~~~~~~~~~~~~~~~~~~~~~~~",
"~~~~~~~~~~~~XXXXX.+55557wllxbj1~~~~~~pNVC~~~~~~~~~~~~~~~~~~~~~~~",
"~~~~~~~~~~~~XXXXXXOoO375770zxy>2~~~~~sfh~~~~~~~~~~~~~~~~~~~~~~~~",
"~~~~~~~~~~~~XXXXXX.X.$55548lwt>2~~~~~ppp~~~~~~~~~~~~~~~~~~~~~~~~",
"~~~~~~~~~~~XXXX~XXXXX #4+X$6;&>2222~$;e~~~~~~~~~~~~~~~~~~~~~~~~~",
"~~~~~~~~~~~XXXX~XXXXXX@4OX+4%&>1222~$$$~~~~~~~~~~~~~~~~~~~~~~~~~",
"~~~~~~~~~~~XXXX~XXXXXXXOXXX=~%%--,22;$$~~~~~~~~~~~~~~~~~~~~~~~~~",
"~~~~~~~~~~~XXXX~XXXXXXXXXX%%~%-%%,2<;ud~~~~~~~~~~~~~~~~~~~~~~~~~",
"~~~~~~~~~XXXX~~~XXXXXXXXX%%%~~~~%-=;;PE~~~~~~~~~~~~~~~~~~~~~~~~~",
"~~~~~~~~~XXXX~~~XXXXXXXXX%%%~~~~%%&$;I!~~~~~~~~~~~~~~~~~~~~~~~~~",
"~~~~~~~~~XXXX~~~~XXXXXXXX%%~~~~~~~~$$~~~~~~~~~~~~~~~~~~~~~~~~~~~",
"~~~~~~~~~XXXX~~~~XXXXXXXX%%~~~~~~~~$$~~~~~~~~~~~~~~~~~~~~~~~~~~~",
"~~~~~~~~~XXX~~~~~XXXXXXX%%%~~~~~~~~$~~~~~~~~~~~~~~~~~~~~~~~~~~~~",
"~~~~~~~~~XXX~~~~~XXXXXXX%%%~~~~~~~~$~~~~~~~~~~~~~~~~~~~~~~~~~~~~",
"~~~~~~~~~XXX~~~~~XXXXXXX%%-~~~~~~$$$~~~~~~~~~~~~~~~~~~~~~~~~~~~~",
"~~~~~~~~~:::~~~~~XXXXXXO&*&~~~~~~$$$~~~~~~~~~~~~~~~~~~~~~~~~~~~~",
"~~~~~~~~~RRR~~~~  XXXXO-iaa~~~~~~$$~~~~~~~~~~~~~~~~~~~~~~~~~~~~~",
"~~~~~~~~~QQQ~~~~  oXOXO&pss~~~~~~$$~~~~~~~~~~~~~~~~~~~~~~~~~~~~~",
"~~~~~~~~~WWW~~~~ +$#@$;;ssss~~~~~~~~~~~~~~~~~~~~~~~~~~~~~~~~~~~~",
"~~~~~~~~~WWW~~~~o+@;;$$;psss~~~~~~~~~~~~~~~~~~~~~~~~~~~~~~~~~~~~",
"~~~~~~~~~~~~~~~ @$$$$$$$$iss~~~~~~~~~~~~~~~~~~~~~~~~~~~~~~~~~~~~",
"~~~~~~~~~~~~~~~o$$$$$$$$$rss~~~~~~~~~~~~~~~~~~~~~~~~~~~~~~~~~~~~",
"~~~~~~~~~~~~~ o$$$$$~~~o$$rss~~~~~~~~~~~~~~~~~~~~~~~~~~~~~~~~~~~",
"~~~~~~~~~~~~~ o$;$$$~~~ #$eps~~~~~~~~~~~~~~~~~~~~~~~~~~~~~~~~~~~",
"~~~~~~~~~~~~~ o$$$$~~~~~  +$p~~~~~~~~~~~~~~~~~~~~~~~~~~~~~~~~~~~",
"~~~~~~~~~~~~~ +$$$$~~~~~  o$p~~~~~~~~~~~~~~~~~~~~~~~~~~~~~~~~~~~",
"~~~~~~~~~~~~ +$$$~~~~~~~~  opss~~~~~~~~~~~~~~~~~~~~~~~~~~~~~~~~~",
"~~~~~~~~~~~~ +$$$~~~~~~~~  orss~~~~~~~~~~~~~~~~~~~~~~~~~~~~~~~~~",
"~~~~~~~~~~~~ @$$~~~~~~~~~~~o$is~~~~~~~~~~~~~~~~~~~~~~~~~~~~~~~~~",
"~~~~~~~~~~~~ +$$~~~~~~~~~~~ @rs~~~~~~~~~~~~~~~~~~~~~~~~~~~~~~~~~",
"~~~~~~~~~~~~ @$~~~~~~~~~~~~o$;;~~~~~~~~~~~~~~~~~~~~~~~~~~~~~~~~~",
"~~~~~~~~~~~~o@$~~~~~~~~~~~~o@$$~~~~~~~~~~~~~~~~~~~~~~~~~~~~~~~~~",
"~~~~~~~~~~~~#$$~~~~~~~~~~~~~o+$~~~~~~~~~~~~~~~~~~~~~~~~~~~~~~~~~",
"~~~~~~~~~~~~$$$~~~~~~~~~~~~~ @$~~~~~~~~~~~~~~~~~~~~~~~~~~~~~~~~~",
"~~~~~~~~~~~~$$$~~~~~~~~~~~~~ +$~~~~~~~~~~~~~~~~~~~~~~~~~~~~~~~~~",
"~~~~~~~~~~~~$$$~~~~~~~~~~~~~ +;~~~~~~~~~~~~~~~~~~~~~~~~~~~~~~~~~"
};
