/* XPM */
static char *result[] = {
/* columns rows colors chars-per-pixel */
"64 64 91 1 ",
"  c #1C121C",
". c #171B1A",
"X c #1B1B1B",
"o c #24161D",
"O c #28171E",
"+ c #251B1D",
"@ c #2C1A1E",
"# c #351C1F",
"$ c #3B1D1F",
"% c #2E1E21",
"& c #351C20",
"* c #391F21",
"= c #262625",
"- c #2A2627",
"; c #2B2B2B",
": c #332425",
"> c #3B2123",
", c #3C2929",
"< c #3B2F30",
"1 c #333333",
"2 c #3B3132",
"3 c #3D3D3D",
"4 c #451C22",
"5 c #4A1C24",
"6 c #561C27",
"7 c #5A1C26",
"8 c #5C1C28",
"9 c #621E25",
"0 c #681D26",
"q c #631D28",
"w c #6C1D29",
"e c #701D27",
"r c #731D29",
"t c #7D1E2A",
"y c #432324",
"u c #4A2524",
"i c #402528",
"p c #552927",
"a c #5A2A27",
"s c #522329",
"d c #522B28",
"f c #5D2C28",
"g c #4F3330",
"h c #503330",
"j c #5B3E38",
"k c #632F26",
"l c #612129",
"z c #6A242C",
"x c #752026",
"c c #6B3C2C",
"v c #7E5332",
"b c #7E5D4F",
"n c #851E2B",
"m c #8A1E2B",
"M c #971F2C",
"N c #8D202A",
"B c #9B202D",
"V c #8C2E35",
"C c #A2202D",
"Z c #BB232F",
"A c #B32732",
"S c #C42430",
"D c #8F5D2E",
"F c #9C763A",
"G c #A57E3B",
"H c #876555",
"J c #DD8817",
"K c #FFA214",
"L c #FFAD19",
"P c #FFB21B",
"I c #FFB91E",
"U c #FFB824",
"Y c #EBB232",
"T c #FFC021",
"R c #FFC925",
"E c #FFC42F",
"W c #FFC431",
"Q c #FFCB30",
"! c #FDCC3C",
"~ c #FFD73A",
"^ c #FFD93C",
"/ c #FFDC42",
"( c #FFE148",
") c #F7E356",
"_ c #FFED59",
"` c #C9A684",
"' c #E1B791",
"] c #F6CA9F",
"[ c #F7CBA0",
"{ c #F9CCA1",
"} c None",
/* pixels */
"}}}}}}}}}}}}}}}}}}}}}}}}}}}}}}}}}}}}}}}}}}}}}}}}}}}}}}}}}}}}}}}}",
"}}}}}}}}}}}}}}}}}}}}}}}}}}}}}}}}}}}}}}}}}}}}}}}}}}}}}}}}}}}}}}}}",
"}}}}}}}}}}}}}}}}}}}}}}}}}}}}}}}}}}}}}}}}}}}}}}}}}}}}}}}}}}}}}}}}",
"}}}}}}}}}}}}}}}}}}}}}}}}}}}}}}}}}}}}}}}}}}}}}}}}}}}}}}}}}}}}}}}}",
"}}}}}}}}}}}}}}}}}}}}}}}}}}}}}}}}}}}}}}}}}}}}}}}}}}}}}}}}}}}}}}}}",
"}}}}}}}}}}}}}}}}}}}}}}}}}}mmmmmCSSSS}}}}}}}}}}}}}}}}}}}}}}}}}}KK",
"}}}}}}}}}}}}}}}}}}}}}}}}}mmmmmmBZZSS}}}}}}}}}}}}}}}}}}}}}}}}}}KK",
"}}}}}}}}}}}}}}}}}}}}}}}}mmmmmmmmmCSSSS}}}}}}}}}}}}}}}}}}}}}}}}}}",
"}}}}}}}}}}}}}}}}}}}}}}}}mmmmmnnnmBZSSS}}}}}}}}}}}}}}}}}}}}}}}}}}",
"}}}}}}}}}}}}}}}}}}}}}}}}mmmmm9#@@#$xSS}}}}}}}}}}}}}}}}}}}}}}}}}}",
"}}}}}}}}}}}}}}}}}}}}}}}}mnmmm9XXX..aSS}}}}}}}}}}}}}}}}}}}}}}}}}}",
"}}}}}}}}}}}}}}}}}}}}}}}}mmme5#XXXXX9SS}}}}}}}}}}}}}}}}KKK}}}}}}}",
"}}}}}}}}}}}}}}}}}}}}}}}}mmm7.XXXXX.9SS}}}}}}}}}}}}}}}}KKKK}}}}}}",
"}}}}}}}}}}}}}}}}}}}}}}}tmmm7.XXXXX.9SS}}}}}}}}}}}}}}}}KKLL}}}}}}",
"}}}}}}}}}}}}}}}}}}}}}}60mmm7XXXXXX.9SS}}}}}}}}}}}}}}}}KLRIKK}}}}",
"}}}}}}}}}}}}}}}}}}}}}}70mmm9XXXXXXX7SS}}}}}}}}}}}}}}}}KPRIKK}}}}",
"}}}}}}}}}}}}}}}}}}}}}}6wmmm7XXXXXXX9SS}}}}}}}}}}}}}}KKKPRIKK}}}}",
"}}}}}}}}}}}}}}}}}}}}}}6wmmm8XXXXXX.lSS}}}}}}}}}}}}}}KKKPRIKK}}}}",
"}}}}}}}}}}}}}}}}}}}}6668qrmt04XXX*0NSS}}}}}}}}}}}}}}KLIQ(QKK}}}}",
"}}}}}}}}}}}}}}}}}}}}66666wmmM7XX.5mCSS}}}}}}}}}}}}}}KPR~_!KK}}}}",
"}}}}}}}}}}}}}}}}}}}8666660rtme5559mCSS}}}}}}}}}}}}}}KU^^/EKK}}}}",
"}}}}}}}}}}}}}}}}X&888686666wmmmnmmmCSSSS}}}}}}}}}}}}KW_/RUKK}}}}",
"}}}}}}}}}}}}}}}XX%5555566660ntnnmmnMZZSA}}}}}}}}}}}}JY_/TPKK}}}}",
"}}}}}}}}}}}}}}XXXXXX+XX#6666866wmmmmNCSV33}}}}}}}}}}kG_!KKKK}}}}",
"}}}}}}}}}}}}}}XXXXXXXXX#6666666wmmnmmCSV33}}}}}}}}}}aF)!KKKK}}}}",
"}}}}}}}}}}}}}}XXXXXXXXX++++&66688qqrmmMw;13}}}}}}}}}acvD}}}}}}}}",
"}}}}}}}}}}}}}}XXXXXXXXXX.XX#6666666wmmma=133}}}}}}}}ffaa}}}}}}}}",
"}}}}}}}}}}}}XXXXXX}XXXXXXXX+&485#&&5wqs4=133333}}}*yuu}}}}}}}}}}",
"}}}}}}}}}}}}XXXXXX}}XXXXXXXXX&8*XX %84;==1333333}}****}}}}}}}}}}",
"}}}}}}}}}}}}XXXXXX}}XXXXXXXXX@4&XX.%5,===;131333},***>}}}}}}}}}}",
"}}}}}}}}}}}}XXXXXX}}XXXXXXXXXXXXXXX===}}=;--=13332**>#}}}}}}}}}}",
"}}}}}}}}}}}}XXXXXX}}XXXXXXXXXXXXXXX==;}}-==--;333<*ihg}}}}}}}}}}",
"}}}}}}}}}}XXXXXX}}}}XXXXXXXXXXXXXX====}}}}}}=--:,>#b''}}}}}}}}}}",
"}}}}}}}}}}XXXXXX}}}}XXXXXXXXXXXXX==;;=}}}}}}----**#H{[}}}}}}}}}}",
"}}}}}}}}}}XXXXXX}}}}}XXXXXXXXXXXX===}}}}}}}}}}}:***j}}}}}}}}}}}}",
"}}}}}}}}}}XXXXXX}}}}}}XXXXXXXXXXXX==}}}}}}}}}}}}***#}}}}}}}}}}}}",
"}}}}}}}}}}XXXXX}}}}}}}XXXXXXXXXX===;}}}}}}}}}}}}***}}}}}}}}}}}}}",
"}}}}}}}}}}XXXX}}}}}}}}XXXXXXXXX+====}}}}}}}}}}}}**}}}}}}}}}}}}}}",
"}}}}}}}}}}XXXX}}}}}}}}XXXXXXXXX=====}}}}}}}}}}}***}}}}}}}}}}}}}}",
"}}}}}}}}}}XXXX}}}}}}}}XXXXXXXXXX==;=}}}}}}}}}}****}}}}}}}}}}}}}}",
"}}}}}}}}}}==%=}}}}}}}}XXXXXXXX.+;--;}}}}}}}}}}****}}}}}}}}}}}}}}",
"}}}}}}}}}}````}}}}}}X  XXXXXXX=,ddds}}}}}}}}}}*>}}}}}}}}}}}}}}}}",
"}}}}}}}}}}{{]]}}}}}}   XXXXXX==,ffff}}}}}}}}}}>>}}}}}}}}}}}}}}}}",
"}}}}}}}}}}]]]]}}}}}} oO%%@@@%%-yfffff}}}}}}}}}}}}}}}}}}}}}}}}}}}",
"}}}}}}}}}}]]]]}}}}}} O*********uffffff}}}}}}}}}}}}}}}}}}}}}}}}}}",
"}}}}}}}}}}]]]}}}}}}oOO*********ydaffff}}}}}}}}}}}}}}}}}}}}}}}}}}",
"}}}}}}}}}}}}}}}}}} O*************uffff}}}}}}}}}}}}}}}}}}}}}}}}}}",
"}}}}}}}}}}}}}}}}}}o@**********&**yaaff}}}}}}}}}}}}}}}}}}}}}}}}}}",
"}}}}}}}}}}}}}}}} o********}}}} @*>*uffff}}}}}}}}}}}}}}}}}}}}}}}}",
"}}}}}}}}}}}}}}}} O********}}}} O***yffff}}}}}}}}}}}}}}}}}}}}}}}}",
"}}}}}}}}}}}}}}}} O******}}}}}}}oOoo&yuff}}}}}}}}}}}}}}}}}}}}}}}}",
"}}}}}}}}}}}}}}}} O******}}}}}}}}   O*uff}}}}}}}}}}}}}}}}}}}}}}}}",
"}}}}}}}}}}}}}}}o+@*****}}}}}}}}}  ooO>ff}}}}}}}}}}}}}}}}}}}}}}}}",
"}}}}}}}}}}}}}} O******}}}}}}}}}}}}   *kfff}}}}}}}}}}}}}}}}}}}}}}",
"}}}}}}}}}}}}}} O*>***}}}}}}}}}}}}}   #paff}}}}}}}}}}}}}}}}}}}}}}",
"}}}}}}}}}}}}}} O****}}}}}}}}}}}}}}}} @>uff}}}}}}}}}}}}}}}}}}}}}}",
"}}}}}}}}}}}}}} O****}}}}}}}}}}}}}}}} O*uaa}}}}}}}}}}}}}}}}}}}}}}",
"}}}}}}}}}}}}}} O>*}}}}}}}}}}}}}}}}}} o*>y>}}}}}}}}}}}}}}}}}}}}}}",
"}}}}}}}}}}}}}} O**}}}}}}}}}}}}}}}}}} o**>*}}}}}}}}}}}}}}}}}}}}}}",
"}}}}}}}}}}}}}}@&**}}}}}}}}}}}}}}}}}}}o@@**}}}}}}}}}}}}}}}}}}}}}}",
"}}}}}}}}}}}}}}****}}}}}}}}}}}}}}}}}}}} O**}}}}}}}}}}}}}}}}}}}}}}",
"}}}}}}}}}}}}}}****}}}}}}}}}}}}}}}}}}}} O**}}}}}}}}}}}}}}}}}}}}}}",
"}}}}}}}}}}}}}}****}}}}}}}}}}}}}}}}}}}} O**}}}}}}}}}}}}}}}}}}}}}}",
"}}}}}}}}}}}}}}****}}}}}}}}}}}}}}}}}}}} O**}}}}}}}}}}}}}}}}}}}}}}"
};
