/* XPM */
static char *result[] = {
/* columns rows colors chars-per-pixel */
"64 64 81 1 ",
"  c #1D131C",
". c #171B1B",
"X c #1B1B1B",
"o c #24151D",
"O c #221C1C",
"+ c #2C1A1E",
"@ c #301B1F",
"# c #351D20",
"$ c #391F21",
"% c #262626",
"& c #2C2626",
"* c #2E2827",
"= c #2F2728",
"- c #2B2C2C",
"; c #3B2123",
": c #35302B",
"> c #2E3030",
", c #353535",
"< c #3C3637",
"1 c #373B3B",
"2 c #3C3C3C",
"3 c #421C21",
"4 c #4C1C24",
"5 c #551C26",
"6 c #591D26",
"7 c #5D1C28",
"8 c #651E26",
"9 c #631C28",
"0 c #6A1D29",
"q c #731D29",
"w c #7C1E2A",
"e c #422223",
"r c #4C2625",
"t c #452428",
"y c #4E252A",
"u c #482C2B",
"i c #582627",
"p c #542926",
"a c #592B27",
"s c #562B28",
"d c #5D2C28",
"f c #503430",
"g c #6C3524",
"h c #64342A",
"j c #683237",
"k c #713438",
"l c #72442D",
"z c #841E2B",
"x c #8A1E2B",
"c c #921F2C",
"v c #9C202D",
"b c #A0202D",
"n c #B5232F",
"m c #BC232F",
"M c #BE2330",
"N c #C42430",
"B c #8E6637",
"V c #A27937",
"C c #EB9215",
"Z c #FFA214",
"A c #FFAD1A",
"S c #FFB11C",
"D c #FFBF21",
"F c #F2B32D",
"G c #FFBA2A",
"H c #FFC423",
"J c #FFC728",
"K c #FFC829",
"L c #FFCF30",
"P c #FFD030",
"I c #A6826A",
"U c #B08A70",
"Y c #EDCE4B",
"T c #FFE34D",
"R c #FFE651",
"E c #DCB58F",
"W c #E4BA93",
"Q c #F6CA9F",
"! c #F8CBA0",
"~ c #FED1A4",
"^ c None",
/* pixels */
"^^^^^^^^^^^^^^^^^^^^^^^^^^^^^^^^^^^^^^^^^^^^^^^^^^^^^^^^^^^^^^^^",
"^^^^^^^^^^^^^^^^^^^^^^^^^^^^^^^^^^^^^^^^^^^^^^^^^^^^^^^^^^^^^^^^",
"^^^^^^^^^^^^^^^^^^^^^^^^^^^^^^^^^^^^^^^^^^^^^^^^^^^^^^^^^^^^^^^^",
"^^^^^^^^^^^^^^^^^^^^^^^^^^^^^^^^^^^^^^^^^^^^^^^^^^^^^^^^^^^^^^^^",
"^^^^^^^^^^^^^^^^^^^^^^^^^^^^^^^^^^^^^^^^^^^^^^^^^^^^^^^^^^^^^^^^",
"^^^^^^^^^^^^^^^^^^^^^^^^^^^^^^^^^^^^^^^^^^^^^^^^^^^^^^^^^^^^^^^^",
"^^^^^^^^^^^^^^^^^^^^^^^^^^^^^^^^^^^^^^^^^^^^^^^^^^^^^^^^^^^^^^^^",
"^^^^^^^^^^^^^^^^^^^^^^^^^^^^^^^^^^^^^^^^^^^^^^^^^^^^^^^^^^^^^^^^",
"^^^^^^^^^^^^^^^^^^^^^^^^^^^^^^^^^^^^^^^^^^^^^^^^^^^^^^^^^^^^^^^^",
"^^^^^^^^^^^^^^^^^^^^^^^^^^^^^^^^^^^^^^^^^^^^^^^^^^^^^^^^^^^^^^^^",
"^^^^^^^^^^^^^^^^^^^^^^^^^^^^^^^^^^^^^^^^^^^^^^^^^^^^^^^^^^^^^^^^",
"^^^^^^^^^^^^^^^^^^^^^^^^^^^^^^^^^^^^^^^^^^^^^^^^^^^^^^^^^^^^^^^^",
"^^^^^^^^^^^^^^^^^^^^xxzcmNN^^^^^^^^^^^^^^^^^Z^^^^^^^^^^^^^^^^^^^",
"^^^^^^^^^^^^^^^^^^^^xxxcnNN^^^^^^^^^^^^^^^^^Z^^^^^^^^^^^^^^^^^^^",
"^^^^^^^^^^^^^^^^^^^zxxxxvnNN^^^^^^^^^^^^^^^^^^^^^^^^^^^^^^^^^^^^",
"^^^^^^^^^^^^^^^^^^^xxxzwqvmN^^^^^^^^^^^^^^^^^^^^^^^^^^^^^^^^^^^^",
"^^^^^^^^^^^^^^^^^^^xxx8+O+8N^^^^^^^^^^^^^^^^^^^^^^^^^^^^^^^^^^^^",
"^^^^^^^^^^^^^^^^^^^xxz6XX.6N^^^^^^^^^^^^^^^^^^^^^^^^^^^^^^^^^^^^",
"^^^^^^^^^^^^^^^^^^^xz4OXXX6N^^^^^^^^^^^ZZ^^^^^^^^^^^^^^^^^^^^^^^",
"^^^^^^^^^^^^^^^^^^^xx3.XX.5N^^^^^^^^^^^ZZ^^^^^^^^^^^^^^^^^^^^^^^",
"^^^^^^^^^^^^^^^^^50xx3XXXXiN^^^^^^^^^^^ZHAZ^^^^^^^^^^^^^^^^^^^^^",
"^^^^^^^^^^^^^^^^^50xx3.X.X6N^^^^^^^^^^^ZHSZ^^^^^^^^^^^^^^^^^^^^^",
"^^^^^^^^^^^^^^^^^58xx3.XX.5N^^^^^^^^^ZZZHAZ^^^^^^^^^^^^^^^^^^^^^",
"^^^^^^^^^^^^^^^^^58zx4OXXX8N^^^^^^^^^ZZAJSZ^^^^^^^^^^^^^^^^^^^^^",
"^^^^^^^^^^^^^^^^6569zz6XX6cN^^^^^^^^^ZSKTGZ^^^^^^^^^^^^^^^^^^^^^",
"^^^^^^^^^^^^^^^^5657wx9+o8bN^^^^^^^^^ZSPTGZ^^^^^^^^^^^^^^^^^^^^^",
"^^^^^^^^^^^^^X@555667wzwwxbNN^^^^^^^^ZGTLSZ^^^^^^^^^^^^^^^^^^^^^",
"^^^^^^^^^^^^^X+555555qzzxxcNN^^^^^^^^CFRKAZ^^^^^^^^^^^^^^^^^^^^^",
"^^^^^^^^^^^^XXXOOO#55779zxxcNk2^^^^^^gVTAZZ^^^^^^^^^^^^^^^^^^^^^",
"^^^^^^^^^^^^XXXXX.+55557wzzcnj1^^^^^^iBYAZZ^^^^^^^^^^^^^^^^^^^^^",
"^^^^^^^^^^^^XXXXXXOoO375770xcy>2^^^^^dhl^^^^^^^^^^^^^^^^^^^^^^^^",
"^^^^^^^^^^^^XXXXXX.X.$55548zwt>2^^^^^sad^^^^^^^^^^^^^^^^^^^^^^^^",
"^^^^^^^^^^^XXXX^XXXXXO@5+O$6;*>2222^;;;^^^^^^^^^^^^^^^^^^^^^^^^^",
"^^^^^^^^^^^XXXX^XXXXXX+4X.+4-%-2222^;$$^^^^^^^^^^^^^^^^^^^^^^^^^",
"^^^^^^^^^^^XXXX^XXXXXXXOXXX=^%%--,2<;$$^^^^^^^^^^^^^^^^^^^^^^^^^",
"^^^^^^^^^^^XXXX^XXXXXXXXXX%%^%%-%,2<;uf^^^^^^^^^^^^^^^^^^^^^^^^^",
"^^^^^^^^^XXXX^^^XXXXXXXXX%%%^^^^%-=;;IW^^^^^^^^^^^^^^^^^^^^^^^^^",
"^^^^^^^^^XXXX^^^XXXXXXXXX%%%^^^^%%&$;U~^^^^^^^^^^^^^^^^^^^^^^^^^",
"^^^^^^^^^XXXX^^^^XXXXXXXX%%^^^^^^^^$$^^^^^^^^^^^^^^^^^^^^^^^^^^^",
"^^^^^^^^^XXXX^^^^XXXXXXXX%%^^^^^^^^$$^^^^^^^^^^^^^^^^^^^^^^^^^^^",
"^^^^^^^^^XXX^^^^^XXXXXXX%%%^^^^^^^^$^^^^^^^^^^^^^^^^^^^^^^^^^^^^",
"^^^^^^^^^XXX^^^^^XXXXXXX%%%^^^^^^^^$^^^^^^^^^^^^^^^^^^^^^^^^^^^^",
"^^^^^^^^^XXX^^^^^XXXXXXX%%%^^^^^^$$$^^^^^^^^^^^^^^^^^^^^^^^^^^^^",
"^^^^^^^^^:::^^^^^XXXXXXO***^^^^^^$$$^^^^^^^^^^^^^^^^^^^^^^^^^^^^",
"^^^^^^^^^EEE^^^^  XXX.O-sss^^^^^^$$^^^^^^^^^^^^^^^^^^^^^^^^^^^^^",
"^^^^^^^^^!!!^^^^  oXXOO&sdd^^^^^^$$^^^^^^^^^^^^^^^^^^^^^^^^^^^^^",
"^^^^^^^^^QQQ^^^^ +@##$;;dddd^^^^^^^^^^^^^^^^^^^^^^^^^^^^^^^^^^^^",
"^^^^^^^^^QQQ^^^^ +$$;$$;pddd^^^^^^^^^^^^^^^^^^^^^^^^^^^^^^^^^^^^",
"^^^^^^^^^^^^^^^ @$$$$$$$$pdd^^^^^^^^^^^^^^^^^^^^^^^^^^^^^^^^^^^^",
"^^^^^^^^^^^^^^^o$$$$$$$$$rdd^^^^^^^^^^^^^^^^^^^^^^^^^^^^^^^^^^^^",
"^^^^^^^^^^^^^ o$$$$$^^^o$;rad^^^^^^^^^^^^^^^^^^^^^^^^^^^^^^^^^^^",
"^^^^^^^^^^^^^ o$;$$$^^^ @$eid^^^^^^^^^^^^^^^^^^^^^^^^^^^^^^^^^^^",
"^^^^^^^^^^^^^ o$$$$^^^^^  +ei^^^^^^^^^^^^^^^^^^^^^^^^^^^^^^^^^^^",
"^^^^^^^^^^^^^ +$$$$^^^^^  o$i^^^^^^^^^^^^^^^^^^^^^^^^^^^^^^^^^^^",
"^^^^^^^^^^^^ +$$$^^^^^^^^  osdd^^^^^^^^^^^^^^^^^^^^^^^^^^^^^^^^^",
"^^^^^^^^^^^^ +$$$^^^^^^^^  opdd^^^^^^^^^^^^^^^^^^^^^^^^^^^^^^^^^",
"^^^^^^^^^^^^ @$$^^^^^^^^^^^o$pd^^^^^^^^^^^^^^^^^^^^^^^^^^^^^^^^^",
"^^^^^^^^^^^^ +$$^^^^^^^^^^^ @rd^^^^^^^^^^^^^^^^^^^^^^^^^^^^^^^^^",
"^^^^^^^^^^^^ @$^^^^^^^^^^^^o$;;^^^^^^^^^^^^^^^^^^^^^^^^^^^^^^^^^",
"^^^^^^^^^^^^o@$^^^^^^^^^^^^o@$$^^^^^^^^^^^^^^^^^^^^^^^^^^^^^^^^^",
"^^^^^^^^^^^^#$$^^^^^^^^^^^^^o+$^^^^^^^^^^^^^^^^^^^^^^^^^^^^^^^^^",
"^^^^^^^^^^^^$$$^^^^^^^^^^^^^ @$^^^^^^^^^^^^^^^^^^^^^^^^^^^^^^^^^",
"^^^^^^^^^^^^$$$^^^^^^^^^^^^^ +$^^^^^^^^^^^^^^^^^^^^^^^^^^^^^^^^^",
"^^^^^^^^^^^^$$$^^^^^^^^^^^^^ +;^^^^^^^^^^^^^^^^^^^^^^^^^^^^^^^^^"
};
