/* XPM */
static char *result[] = {
/* columns rows colors chars-per-pixel */
"64 64 243 2 ",
"   c #1B111C",
".  c #1B121C",
"X  c #1C121C",
"o  c #1F131C",
"O  c #1F131D",
"+  c #1F141D",
"@  c #171B1A",
"#  c #171B1B",
"$  c #1B181B",
"%  c #191A1A",
"&  c #181B1B",
"*  c #191B1B",
"=  c #1B1A1B",
"-  c #1A1B1B",
";  c #1B1B1B",
":  c #1C1B1B",
">  c #1E181C",
",  c #1E1B1C",
"<  c #1F1B1C",
"1  c gray11",
"2  c #1F1C1C",
"3  c #20141D",
"4  c #22151D",
"5  c #23151D",
"6  c #26161E",
"7  c #26171E",
"8  c #211B1C",
"9  c #221B1C",
"0  c #201D1D",
"q  c #211F1F",
"w  c #281B1D",
"e  c #28181E",
"r  c #291B1E",
"t  c #2C1A1F",
"y  c #2D1A1F",
"u  c #2D1B1F",
"i  c #2F1A1F",
"p  c #2E1B1F",
"a  c #2A1C1D",
"s  c #2E1C1F",
"d  c #301B1F",
"f  c #351B20",
"g  c #361B20",
"h  c #321C20",
"j  c #331C20",
"k  c #351D20",
"l  c #361D20",
"z  c #351E20",
"x  c #351F20",
"c  c #361E20",
"v  c #371E20",
"b  c #361F20",
"n  c #361E21",
"m  c #371E21",
"M  c #381E20",
"N  c #381E21",
"B  c #381F21",
"V  c #391F21",
"C  c #3A1F21",
"Z  c #3D1C22",
"A  c #202020",
"S  c #222222",
"D  c #232323",
"F  c gray14",
"G  c #252626",
"H  c gray15",
"J  c #262727",
"K  c #272727",
"L  c #2B2627",
"P  c #2E2424",
"I  c #2C2626",
"U  c #2D2627",
"Y  c #2D2727",
"T  c #2D2827",
"R  c #2F2728",
"E  c #282828",
"W  c #282929",
"Q  c #2A2A2A",
"!  c #2C2F2F",
"~  c gray18",
"^  c #2F2F2F",
"/  c #392021",
"(  c #3A2021",
")  c #3A2022",
"_  c #3C2022",
"`  c #3D2022",
"'  c #3D2122",
"]  c #3F2122",
"[  c #392224",
"{  c #3A2224",
"}  c #302827",
"|  c #3D2528",
" . c #35302B",
".. c #2D3030",
"X. c gray20",
"o. c gray21",
"O. c #3C3637",
"+. c #373B3B",
"@. c #3A3A3A",
"#. c #3C3939",
"$. c #3C3B3B",
"%. c #393E3E",
"&. c #3C3C3C",
"*. c gray24",
"=. c #3E3E3E",
"-. c #411C21",
";. c #421C21",
":. c #451C23",
">. c #4B1C22",
",. c #491C24",
"<. c #4F1C26",
"1. c #4C1E27",
"2. c #571E22",
"3. c #501C26",
"4. c #511C26",
"5. c #521C26",
"6. c #531C26",
"7. c #541C26",
"8. c #551C27",
"9. c #541D27",
"0. c #561C27",
"q. c #571C27",
"w. c #581E23",
"e. c #581D24",
"r. c #591D24",
"t. c #581C27",
"y. c #591C27",
"u. c #5B1C27",
"i. c #5C1C27",
"p. c #5D1C27",
"a. c #5D1C28",
"s. c #5F1C28",
"d. c #601E24",
"f. c #651F24",
"g. c #661D26",
"h. c #671D26",
"j. c #611D28",
"k. c #621C28",
"l. c #661D28",
"z. c #681D28",
"x. c #691D28",
"c. c #6A1D29",
"v. c #731D29",
"b. c #701E29",
"n. c #7A1D2A",
"m. c #7C1E29",
"M. c #7E1E2A",
"N. c #412223",
"B. c #4D2625",
"V. c #4E2725",
"C. c #482C2B",
"Z. c #502726",
"A. c #512826",
"S. c #522826",
"D. c #532A27",
"F. c #552926",
"G. c #572A27",
"H. c #592B27",
"J. c #5A2B27",
"K. c #582728",
"L. c #582629",
"P. c #572C28",
"I. c #5B2A28",
"U. c #592C28",
"Y. c #5C2C28",
"T. c #5D2C28",
"R. c #5E2C28",
"E. c #503430",
"W. c #61272C",
"Q. c #6C3625",
"!. c #643228",
"~. c #6A3337",
"^. c #703438",
"/. c #724027",
"(. c #821E2A",
"). c #831E2A",
"_. c #841E2A",
"`. c #841E2B",
"'. c #851E2B",
"]. c #861E2A",
"[. c #881E2B",
"{. c #891E2B",
"}. c #8A1E2B",
"|. c #8B1E2B",
" X c #8F1F2C",
".X c #901F2C",
"XX c #95202C",
"oX c #98202C",
"OX c #9D212C",
"+X c #9E202D",
"@X c #A0202D",
"#X c #A6232E",
"$X c #B3222F",
"%X c #B7232F",
"&X c #B8232E",
"*X c #B8232F",
"=X c #B9232F",
"-X c #BD232F",
";X c #C22430",
":X c #C32430",
">X c #C42430",
",X c #C52430",
"<X c #C62430",
"1X c #8E5B27",
"2X c #A26E28",
"3X c #EB9215",
"4X c #FFA012",
"5X c #FFA112",
"6X c #FFA113",
"7X c #FFA114",
"8X c #FFA214",
"9X c #FFA314",
"0X c #FFA315",
"qX c #FCA416",
"wX c #FFA616",
"eX c #FFAB18",
"rX c #FFAB19",
"tX c #FFAE19",
"yX c #FFAF1A",
"uX c #FFB01A",
"iX c #FFB11C",
"pX c #EDB323",
"aX c #FFBF21",
"sX c #F2B12B",
"dX c #FFBA2A",
"fX c #FFBC2C",
"gX c #FFC423",
"hX c #FFC724",
"jX c #FFC926",
"kX c #FFC828",
"lX c #FFCC2A",
"zX c #FFCC2B",
"xX c #A6826A",
"cX c #B08A70",
"vX c #FFE24B",
"bX c #FFE34C",
"nX c #FFE751",
"mX c #DCB58F",
"MX c #E4BA93",
"NX c #F6CA9F",
"BX c #F8CBA0",
"VX c #FED1A4",
"CX c None",
/* pixels */
"CXCXCXCXCXCXCXCXCXCXCXCXCXCXCXCXCXCXCXCXCXCXCXCXCXCXCXCXCXCXCXCXCXCXCXCXCXCXCXCXCXCXCXCXCXCXCXCXCXCXCXCXCXCXCXCXCXCXCXCXCXCXCXCX",
"CXCXCXCXCXCXCXCXCXCXCXCXCXCXCXCXCXCXCXCXCXCXCXCXCXCXCXCXCXCXCXCXCXCXCXCXCXCXCXCXCXCXCXCXCXCXCXCXCXCXCXCXCXCXCXCXCXCXCXCXCXCXCXCX",
"CXCXCXCXCXCXCXCXCXCXCXCXCXCXCXCXCXCXCXCXCXCXCXCXCXCXCXCXCXCXCXCXCXCXCXCXCXCXCXCXCXCXCXCXCXCXCXCXCXCXCXCXCXCXCXCXCXCXCXCXCXCXCXCX",
"CXCXCXCXCXCXCXCXCXCXCXCXCXCXCXCXCXCXCXCXCXCXCXCXCXCXCXCXCXCXCXCXCXCXCXCXCXCXCXCXCXCXCXCXCXCXCXCXCXCXCXCXCXCXCXCXCXCXCXCXCXCXCXCX",
"CXCXCXCXCXCXCXCXCXCXCXCXCXCXCXCXCXCXCXCXCXCXCXCXCXCXCXCXCXCXCXCXCXCXCXCXCXCXCXCXCXCXCXCXCXCXCXCXCXCXCXCXCXCXCXCXCXCXCXCXCXCXCXCX",
"CXCXCXCXCXCXCXCXCXCXCXCXCXCXCXCXCXCXCXCXCXCXCXCXCXCXCXCXCXCXCXCXCXCXCXCXCXCXCXCXCXCXCXCXCXCXCXCXCXCXCXCXCXCXCXCXCXCXCXCXCXCXCXCX",
"CXCXCXCXCXCXCXCXCXCXCXCXCXCXCXCXCXCXCXCXCXCXCXCXCXCXCXCXCXCXCXCXCXCXCXCXCXCXCXCXCXCXCXCXCXCXCXCXCXCXCXCXCXCXCXCXCXCXCXCXCXCXCXCX",
"CXCXCXCXCXCXCXCXCXCXCXCXCXCXCXCXCXCXCXCXCXCXCXCXCXCXCXCXCXCXCXCXCXCXCXCXCXCXCXCXCXCXCXCXCXCXCXCXCXCXCXCXCXCXCXCXCXCXCXCXCXCXCXCX",
"CXCXCXCXCXCXCXCXCXCXCXCXCXCXCXCXCXCXCXCXCXCXCXCXCXCXCXCXCXCXCXCXCXCXCXCXCXCXCXCXCXCXCXCXCXCXCXCXCXCXCXCXCXCXCXCXCXCXCXCXCXCXCXCX",
"CXCXCXCXCXCXCXCXCXCXCXCXCXCXCXCXCXCXCXCXCXCXCXCXCXCXCXCXCXCXCXCXCXCXCXCXCXCXCXCXCXCXCXCXCXCXCXCXCXCXCXCXCXCXCXCXCXCXCXCXCXCXCXCX",
"CXCXCXCXCXCXCXCXCXCXCXCXCXCXCXCXCXCXCXCXCXCXCXCXCXCXCXCXCXCXCXCXCXCXCXCXCXCXCXCXCXCXCXCXCXCXCXCXCXCXCXCXCXCXCXCXCXCXCXCXCXCXCXCX",
"CXCXCXCXCXCXCXCXCXCXCXCXCXCXCXCXCXCXCXCXCXCXCXCXCXCXCXCXCXCXCXCXCXCXCXCXCXCXCXCXCXCXCXCXCXCXCXCXCXCXCXCXCXCXCXCXCXCXCXCXCXCXCXCX",
"CXCXCXCXCXCXCXCXCXCXCXCXCXCXCXCXCXCXCXCXCXCXCXCXCXCXCXCXCXCXCXCXCXCXCXCXCXCXCXCXCXCXCXCXCXCXCXCXCXCXCXCXCXCXCXCXCXCXCXCXCXCXCXCX",
"CXCXCXCXCXCXCXCXCXCXCXCXCXCXCXCXCXCXCXCXCXCXCXCXCXCXCXCXCXCXCXCXCXCXCXCXCXCXCXCXCXCXCXCXCXCXCXCXCXCXCXCXCXCXCXCXCXCXCXCXCXCXCXCX",
"CXCXCXCXCXCXCXCXCXCXCXCXCXCXCXCXCXCXCXCX{.{.{..X-X,X>XCXCXCXCXCXCXCXCXCXCXCXCXCXCXCXCXCXCXCXCXCXCXCXCXCXCXCXCXCXCXCXCXCXCXCXCXCX",
"CXCXCXCXCXCXCXCXCXCXCXCXCXCXCXCXCXCXCXCX{.{.{. X%X;X>XCXCXCXCXCXCXCXCXCXCXCXCXCXCXCXCXCXCXCXCXCXCXCXCXCXCXCXCXCXCXCXCXCXCXCXCXCX",
"CXCXCXCXCXCXCXCXCXCXCXCXCXCXCXCXCXCXCX{.{.{.{.|..X$X<X>XCXCXCXCXCXCXCXCXCXCXCXCXCXCXCXCXCXCXCXCXCXCXCXCXCXCXCXCXCXCXCXCXCXCXCXCX",
"CXCXCXCXCXCXCXCXCXCXCXCXCXCXCXCXCXCXCX{.{.{._.m.m.OX&X>XCXCXCXCXCXCXCXCXCXCXCXCXCXCXCXCXCXCXCXCXCXCXCXCXCXCXCXCXCXCXCXCXCXCXCXCX",
"CXCXCXCXCXCXCXCXCXCXCXCXCXCXCXCXCXCXCX{.{.|.h.w w a f.:XCXCXCXCXCXCXCXCXCX8X8X8XCXCXCXCXCXCXCXCXCXCXCXCXCXCXCXCXCXCXCXCXCXCXCXCX",
"CXCXCXCXCXCXCXCXCXCXCXCXCXCXCXCXCXCXCX{.{.(.r.; - @ 2.:XCXCXCXCXCXCXCXCXCX8X8X8XCXCXCXCXCXCXCXCXCXCXCXCXCXCXCXCXCXCXCXCXCXCXCXCX",
"CXCXCXCXCXCXCXCXCXCXCXCXCXCXCXCXCXCXCX{.{.>.9 ; ; & w.:XCXCXCXCXCXCXCXCXCXCXCX8X8XCXCXCXCXCXCXCXCXCXCXCXCXCXCXCXCXCXCXCXCXCXCXCX",
"CXCXCXCXCXCXCXCXCXCXCXCXCXCXCXCXCXCXCX{.{.-.& ; ; & w.:XCXCXCXCXCXCXCXCXCXCXCXwX9XCXCXCXCXCXCXCXCXCXCXCXCXCXCXCXCXCXCXCXCXCXCXCX",
"CXCXCXCXCXCXCXCXCXCXCXCXCXCXCXCXCX8.c.{.{.;.* ; ; & w.:XCXCXCXCXCXCXCXCXCX7XyXaXwX8X8XCXCXCXCXCXCXCXCXCXCXCXCXCXCXCXCXCXCXCXCXCX",
"CXCXCXCXCXCXCXCXCXCXCXCXCXCXCXCXCX0.z.{.{.;.* ; ; & w.:XCXCXCXCXCXCXCXCXCX7XuXgXeX0X8XCXCXCXCXCXCXCXCXCXCXCXCXCXCXCXCXCXCXCXCXCX",
"CXCXCXCXCXCXCXCXCXCXCXCXCXCXCXCXCX0.x.{.{.-.& ; ; # 2.:XCXCXCXCXCXCXCXCXCX7XyXhXgXtX7XCXCXCXCXCXCXCXCXCXCXCXCXCXCXCXCXCXCXCXCXCX",
"CXCXCXCXCXCXCXCXCXCXCXCXCXCXCXCXCX0.l.`.[.>.9 ; ; 8 d.:XCXCXCXCXCXCXCXCXCX6XiXlXjXyX7XCXCXCXCXCXCXCXCXCXCXCXCXCXCXCXCXCXCXCXCXCX",
"CXCXCXCXCXCXCXCXCXCXCXCXCXCXCXCXq.q.y.k.`.).r.- - e.oX>XCXCXCXCXCXCXCXCXCX4XdXbXlXyX7XCXCXCXCXCXCXCXCXCXCXCXCXCXCXCXCXCXCXCXCXCX",
"CXCXCXCXCXCXCXCXCXCXCXCXCXCXCXCXq.q.q.i.M.}.h.w w g.@X>XCXCXCXCXCXCXCXCXCX4XfXnXzXyX7XCXCXCXCXCXCXCXCXCXCXCXCXCXCXCXCXCXCXCXCXCX",
"CXCXCXCXCXCXCXCXCXCXCXCXCX* d q.q.q.q.t.i.n.].m.m.).+X>X>XCXCXCXCXCXCXCXCX5XfXnXzXyX7XCXCXCXCXCXCXCXCXCXCXCXCXCXCXCXCXCXCXCXCXCX",
"CXCXCXCXCXCXCXCXCXCXCXCXCX- u 3.3.3.5.q.q.v.`.'.{.[.+X>X>XCXCXCXCXCXCXCXCX3XsXvXkXtX7XCXCXCXCXCXCXCXCXCXCXCXCXCXCXCXCXCXCXCXCXCX",
"CXCXCXCXCXCXCXCXCXCXCXCX; ; , 9 9 8 f q.t.u.p.k.`.{.+X,X>X^.%.CXCXCXCXCXCXQ.2XkXrXCXCXCXCXCXCXCXCXCXCXCXCXCXCXCXCXCXCXCXCXCXCXCX",
"CXCXCXCXCXCXCXCXCXCXCXCX; ; ; ; ; - u 3.3.7.0.i.M.(.XX*X;X~.+.CXCXCXCXCXCXK.1XpXqXCXCXCXCXCXCXCXCXCXCXCXCXCXCXCXCXCXCXCXCXCXCXCX",
"CXCXCXCXCXCXCXCXCXCXCXCX; ; ; ; ; ; , 9 9 :.t.t.p.a.s.b.=XW...*.CXCXCXCXCXT.!./.CXCXCXCXCXCXCXCXCXCXCXCXCXCXCXCXCXCXCXCXCXCXCXCX",
"CXCXCXCXCXCXCXCXCXCXCXCX; ; ; ; ; ; ; ; ; Z 6.0.3.<.4.j.#XL.! *.CXCXCXCXCXG.J.I.CXCXCXCXCXCXCXCXCXCXCXCXCXCXCXCXCXCXCXCXCXCXCXCX",
"CXCXCXCXCXCXCXCXCXCXCX; ; ; ; CX; ; ; ; ; < g 4.r 8 f 9.| Y ^ *.*.*.*.CXV _ ] CXCXCXCXCXCXCXCXCXCXCXCXCXCXCXCXCXCXCXCXCXCXCXCXCX",
"CXCXCXCXCXCXCXCXCXCXCX; ; ; ; CX; ; ; ; ; - p ,.8 * s 1.L J ~ @.@.&.*.CXV V V CXCXCXCXCXCXCXCXCXCXCXCXCXCXCXCXCXCXCXCXCXCXCXCXCX",
"CXCXCXCXCXCXCXCXCXCXCX; ; ; ; CX; ; ; ; ; ; , 8 : ; q U CXK E Q Q o.=.#.[ M v CXCXCXCXCXCXCXCXCXCXCXCXCXCXCXCXCXCXCXCXCXCXCXCXCX",
"CXCXCXCXCXCXCXCXCXCXCX; ; ; ; CX; ; ; ; ; ; ; ; ; 1 A K CXK K K K X.$.O.{ C.E.CXCXCXCXCXCXCXCXCXCXCXCXCXCXCXCXCXCXCXCXCXCXCXCXCX",
"CXCXCXCXCXCXCXCXCX; ; ; ; CXCXCX; ; ; ; ; ; ; ; ; S H K CXCXCXCXK W R [ ) xXMXCXCXCXCXCXCXCXCXCXCXCXCXCXCXCXCXCXCXCXCXCXCXCXCXCX",
"CXCXCXCXCXCXCXCXCX; ; ; ; CXCXCX; ; ; ; ; ; ; ; ; D K K CXCXCXCXK K P V ( cXVXCXCXCXCXCXCXCXCXCXCXCXCXCXCXCXCXCXCXCXCXCXCXCXCXCX",
"CXCXCXCXCXCXCXCXCX; ; ; ; CXCXCXCX; ; ; ; ; ; ; ; D K CXCXCXCXCXCXCXCXV V CXCXCXCXCXCXCXCXCXCXCXCXCXCXCXCXCXCXCXCXCXCXCXCXCXCXCX",
"CXCXCXCXCXCXCXCXCX; ; ; ; CXCXCXCX; ; ; ; ; ; ; 1 D K CXCXCXCXCXCXCXCXV V CXCXCXCXCXCXCXCXCXCXCXCXCXCXCXCXCXCXCXCXCXCXCXCXCXCXCX",
"CXCXCXCXCXCXCXCXCX; ; ; CXCXCXCXCX; ; ; ; ; ; 1 F K K CXCXCXCXCXCXCXCXV CXCXCXCXCXCXCXCXCXCXCXCXCXCXCXCXCXCXCXCXCXCXCXCXCXCXCXCX",
"CXCXCXCXCXCXCXCXCX; ; ; CXCXCXCXCX= ; ; ; ; ; 1 H K K CXCXCXCXCXCXCXCXV CXCXCXCXCXCXCXCXCXCXCXCXCXCXCXCXCXCXCXCXCXCXCXCXCXCXCXCX",
"CXCXCXCXCXCXCXCXCX% % % CXCXCXCXX $ ; ; ; ; ; 1 G K J CXCXCXCXCXCXV V V CXCXCXCXCXCXCXCXCXCXCXCXCXCXCXCXCXCXCXCXCXCXCXCXCXCXCXCX",
"CXCXCXCXCXCXCXCXCX . . .CXCXCXCXX > 2 < < < , 0 I T } CXCXCXCXCXCXV V V CXCXCXCXCXCXCXCXCXCXCXCXCXCXCXCXCXCXCXCXCXCXCXCXCXCXCXCX",
"CXCXCXCXCXCXCXCXCXmXmXmXCXCXCXX X t b x x x z / D.P.U.T.CXCXCXCXCXV V CXCXCXCXCXCXCXCXCXCXCXCXCXCXCXCXCXCXCXCXCXCXCXCXCXCXCXCXCX",
"CXCXCXCXCXCXCXCXCXBXBXBXCXCXCXX O d C V V V V ` F.Y.T.T.CXCXCXCXCXV V CXCXCXCXCXCXCXCXCXCXCXCXCXCXCXCXCXCXCXCXCXCXCXCXCXCXCXCXCX",
"CXCXCXCXCXCXCXCXCXNXNXNXCXCXCXo h B V V V V V C ` S.R.T.T.CXCXCXCXCXCXCXCXCXCXCXCXCXCXCXCXCXCXCXCXCXCXCXCXCXCXCXCXCXCXCXCXCXCXCX",
"CXCXCXCXCXCXCXCXCXNXNXNXCXCXCX5 n V V V V m k c B B.H.H.Y.CXCXCXCXCXCXCXCXCXCXCXCXCXCXCXCXCXCXCXCXCXCXCXCXCXCXCXCXCXCXCXCXCXCXCX",
"CXCXCXCXCXCXCXCXCXCXCXCXCX  6 c V V V V V e o 4 n _ ' N.H.T.T.CXCXCXCXCXCXCXCXCXCXCXCXCXCXCXCXCXCXCXCXCXCXCXCXCXCXCXCXCXCXCXCXCX",
"CXCXCXCXCXCXCXCXCXCXCXCXCX. 7 V V V V V V 7 . O j k n ` F.Y.T.CXCXCXCXCXCXCXCXCXCXCXCXCXCXCXCXCXCXCXCXCXCXCXCXCXCXCXCXCXCXCXCXCX",
"CXCXCXCXCXCXCXCXCXCXCXCXCX. 7 V V V V V CXCXCXCX+ O e C ` S.R.CXCXCXCXCXCXCXCXCXCXCXCXCXCXCXCXCXCXCXCXCXCXCXCXCXCXCXCXCXCXCXCXCX",
"CXCXCXCXCXCXCXCXCXCXCXCXCX. 7 V V V V V CXCXCXCXX . 6 c B Z.R.CXCXCXCXCXCXCXCXCXCXCXCXCXCXCXCXCXCXCXCXCXCXCXCXCXCXCXCXCXCXCXCXCX",
"CXCXCXCXCXCXCXCXCXCXCXCXCX. 6 V V V V CXCXCXCXCXCXCXCX4 c A.R.CXCXCXCXCXCXCXCXCXCXCXCXCXCXCXCXCXCXCXCXCXCXCXCXCXCXCXCXCXCXCXCXCX",
"CXCXCXCXCXCXCXCXCXCXCXCXCXo e V V V V CXCXCXCXCXCXCXCXO l V.J.CXCXCXCXCXCXCXCXCXCXCXCXCXCXCXCXCXCXCXCXCXCXCXCXCXCXCXCXCXCXCXCXCX",
"CXCXCXCXCXCXCXCXCXCXCXCXX y m V V CXCXCXCXCXCXCXCXCXCX+ l _ ' CXCXCXCXCXCXCXCXCXCXCXCXCXCXCXCXCXCXCXCXCXCXCXCXCXCXCXCXCXCXCXCXCX",
"CXCXCXCXCXCXCXCXCXCXCXCXX i C V V CXCXCXCXCXCXCXCXCXCX+ l V V CXCXCXCXCXCXCXCXCXCXCXCXCXCXCXCXCXCXCXCXCXCXCXCXCXCXCXCXCXCXCXCXCX",
"CXCXCXCXCXCXCXCXCXCXCXCXX i C V CXCXCXCXCXCXCXCXCXCXCX+ k V V CXCXCXCXCXCXCXCXCXCXCXCXCXCXCXCXCXCXCXCXCXCXCXCXCXCXCXCXCXCXCXCXCX",
"CXCXCXCXCXCXCXCXCXCXCXCXX i C V CXCXCXCXCXCXCXCXCXCXCX3 c V V CXCXCXCXCXCXCXCXCXCXCXCXCXCXCXCXCXCXCXCXCXCXCXCXCXCXCXCXCXCXCXCXCX",
"CXCXCXCXCXCXCXCXCXCXCXCXX i C CXCXCXCXCXCXCXCXCXCXCXCXCXV V V CXCXCXCXCXCXCXCXCXCXCXCXCXCXCXCXCXCXCXCXCXCXCXCXCXCXCXCXCXCXCXCXCX",
"CXCXCXCXCXCXCXCXCXCXCXCX3 d C CXCXCXCXCXCXCXCXCXCXCXCXCXl N V CXCXCXCXCXCXCXCXCXCXCXCXCXCXCXCXCXCXCXCXCXCXCXCXCXCXCXCXCXCXCXCXCX",
"CXCXCXCXCXCXCXCXCXCXCXCXl N V CXCXCXCXCXCXCXCXCXCXCXCXCX3 d C CXCXCXCXCXCXCXCXCXCXCXCXCXCXCXCXCXCXCXCXCXCXCXCXCXCXCXCXCXCXCXCXCX",
"CXCXCXCXCXCXCXCXCXCXCXCXV V V CXCXCXCXCXCXCXCXCXCXCXCXCXX i C CXCXCXCXCXCXCXCXCXCXCXCXCXCXCXCXCXCXCXCXCXCXCXCXCXCXCXCXCXCXCXCXCX"
};
