/* XPM */
static char *result[] = {
/* columns rows colors chars-per-pixel */
"64 64 241 2 ",
"   c #1B111C",
".  c #1B121C",
"X  c #1C121C",
"o  c #1F131C",
"O  c #1F131D",
"+  c #1F141D",
"@  c #171B1A",
"#  c #171B1B",
"$  c #1B181B",
"%  c #191A1A",
"&  c #181B1B",
"*  c #191B1B",
"=  c #1B1A1B",
"-  c #1A1B1B",
";  c #1B1B1B",
":  c #1C1B1B",
">  c #1E181C",
",  c #1E1B1C",
"<  c #1F1B1C",
"1  c gray11",
"2  c #1F1C1C",
"3  c #20141D",
"4  c #22151D",
"5  c #23151D",
"6  c #26161E",
"7  c #26171E",
"8  c #211B1C",
"9  c #221B1C",
"0  c #201D1D",
"q  c #211F1F",
"w  c #281B1D",
"e  c #28181E",
"r  c #291B1E",
"t  c #2C1A1F",
"y  c #2D1A1F",
"u  c #2D1B1F",
"i  c #2F1A1F",
"p  c #2E1B1F",
"a  c #2A1C1D",
"s  c #2E1C1F",
"d  c #301B1F",
"f  c #351B20",
"g  c #361B20",
"h  c #321C20",
"j  c #331C20",
"k  c #351D20",
"l  c #361D20",
"z  c #351E20",
"x  c #351F20",
"c  c #361E20",
"v  c #371E20",
"b  c #361F20",
"n  c #361E21",
"m  c #371E21",
"M  c #381E20",
"N  c #381E21",
"B  c #381F21",
"V  c #391F21",
"C  c #3A1F21",
"Z  c #3D1C22",
"A  c #202020",
"S  c #222222",
"D  c #232323",
"F  c gray14",
"G  c #252626",
"H  c gray15",
"J  c #262727",
"K  c #272727",
"L  c #2B2627",
"P  c #2E2424",
"I  c #2C2626",
"U  c #2D2627",
"Y  c #2D2727",
"T  c #2D2827",
"R  c #2F2728",
"E  c #282828",
"W  c #282929",
"Q  c #2A2A2A",
"!  c #2C2F2F",
"~  c gray18",
"^  c #2F2F2F",
"/  c #392021",
"(  c #3A2021",
")  c #3A2022",
"_  c #3C2022",
"`  c #3D2022",
"'  c #3D2122",
"]  c #3F2122",
"[  c #392224",
"{  c #3A2224",
"}  c #302827",
"|  c #3D2528",
" . c #35302B",
".. c #2D3030",
"X. c gray20",
"o. c gray21",
"O. c #3C3637",
"+. c #373B3B",
"@. c #3A3A3A",
"#. c #3C3939",
"$. c #3C3B3B",
"%. c #393E3E",
"&. c #3C3C3C",
"*. c gray24",
"=. c #3E3E3E",
"-. c #411C21",
";. c #421C21",
":. c #451C23",
">. c #4B1C22",
",. c #491C24",
"<. c #4F1C26",
"1. c #4C1E27",
"2. c #571E22",
"3. c #501C26",
"4. c #511C26",
"5. c #521C26",
"6. c #531C26",
"7. c #541C26",
"8. c #551C27",
"9. c #541D27",
"0. c #561C27",
"q. c #571C27",
"w. c #581E23",
"e. c #581D24",
"r. c #591D24",
"t. c #581C27",
"y. c #591C27",
"u. c #5B1C27",
"i. c #5C1C27",
"p. c #5D1C27",
"a. c #5D1C28",
"s. c #5F1C28",
"d. c #601E24",
"f. c #651F24",
"g. c #661D26",
"h. c #671D26",
"j. c #611D28",
"k. c #621C28",
"l. c #661D28",
"z. c #681D28",
"x. c #691D28",
"c. c #6A1D29",
"v. c #731D29",
"b. c #701E29",
"n. c #7A1D2A",
"m. c #7C1E29",
"M. c #7E1E2A",
"N. c #412223",
"B. c #4D2625",
"V. c #4E2725",
"C. c #482C2B",
"Z. c #502726",
"A. c #582627",
"S. c #512826",
"D. c #522826",
"F. c #532A27",
"G. c #552926",
"H. c #572A27",
"J. c #592B27",
"K. c #5A2A27",
"L. c #5A2B27",
"P. c #582629",
"I. c #572C28",
"U. c #5B2A28",
"Y. c #592C28",
"T. c #5C2C28",
"R. c #5D2C28",
"E. c #5E2C28",
"W. c #503430",
"Q. c #61272C",
"!. c #6C3524",
"~. c #64342A",
"^. c #6A3337",
"/. c #703438",
"(. c #72442D",
"). c #821E2A",
"_. c #831E2A",
"`. c #841E2A",
"'. c #841E2B",
"]. c #851E2B",
"[. c #861E2A",
"{. c #881E2B",
"}. c #891E2B",
"|. c #8A1E2B",
" X c #8B1E2B",
".X c #8F1F2C",
"XX c #901F2C",
"oX c #95202C",
"OX c #98202C",
"+X c #9D212C",
"@X c #9E202D",
"#X c #A0202D",
"$X c #A6232E",
"%X c #B3222F",
"&X c #B7232F",
"*X c #B8232E",
"=X c #B8232F",
"-X c #B9232F",
";X c #BD232F",
":X c #C22430",
">X c #C32430",
",X c #C42430",
"<X c #C52430",
"1X c #C62430",
"2X c #8E6637",
"3X c #A27937",
"4X c #EB9215",
"5X c #FFA012",
"6X c #FFA112",
"7X c #FFA113",
"8X c #FFA114",
"9X c #FFA214",
"0X c #FFA415",
"qX c #FFA616",
"wX c #FFAE19",
"eX c #FFAF1A",
"rX c #FCA91C",
"tX c #FFAF1E",
"yX c #FFB01C",
"uX c #FFB11C",
"iX c #F2B32D",
"pX c #FFBA29",
"aX c #FFBC2C",
"sX c #FFC323",
"dX c #FFC829",
"fX c #FFCC2B",
"gX c #FFD030",
"hX c #A6826A",
"jX c #B08A70",
"kX c #EDCE4B",
"lX c #FFE34F",
"zX c #FFE650",
"xX c #FFE751",
"cX c #FFE752",
"vX c #FFEB56",
"bX c #DCB58F",
"nX c #E4BA93",
"mX c #F6CA9F",
"MX c #F8CBA0",
"NX c #FED1A4",
"BX c None",
/* pixels */
"BXBXBXBXBXBXBXBXBXBXBXBXBXBXBXBXBXBXBXBXBXBXBXBXBXBXBXBXBXBXBXBXBXBXBXBXBXBXBXBXBXBXBXBXBXBXBXBXBXBXBXBXBXBXBXBXBXBXBXBXBXBXBXBX",
"BXBXBXBXBXBXBXBXBXBXBXBXBXBXBXBXBXBXBXBXBXBXBXBXBXBXBXBXBXBXBXBXBXBXBXBXBXBXBXBXBXBXBXBXBXBXBXBXBXBXBXBXBXBXBXBXBXBXBXBXBXBXBXBX",
"BXBXBXBXBXBXBXBXBXBXBXBXBXBXBXBXBXBXBXBXBXBXBXBXBXBXBXBXBXBXBXBXBXBXBXBXBXBXBXBXBXBXBXBXBXBXBXBXBXBXBXBXBXBXBXBXBXBXBXBXBXBXBXBX",
"BXBXBXBXBXBXBXBXBXBXBXBXBXBXBXBXBXBXBXBXBXBXBXBXBXBXBXBXBXBXBXBXBXBXBXBXBXBXBXBXBXBXBXBXBXBXBXBXBXBXBXBXBXBXBXBXBXBXBXBXBXBXBXBX",
"BXBXBXBXBXBXBXBXBXBXBXBXBXBXBXBXBXBXBXBXBXBXBXBXBXBXBXBXBXBXBXBXBXBXBXBXBXBXBXBXBXBXBXBXBXBXBXBXBXBXBXBXBXBXBXBXBXBXBXBXBXBXBXBX",
"BXBXBXBXBXBXBXBXBXBXBXBXBXBXBXBXBXBXBXBXBXBXBXBXBXBXBXBXBXBXBXBXBXBXBXBXBXBXBXBXBXBXBXBXBXBXBXBXBXBXBXBXBXBXBXBXBXBXBXBXBXBXBXBX",
"BXBXBXBXBXBXBXBXBXBXBXBXBXBXBXBXBXBXBXBXBXBXBXBXBXBXBXBXBXBXBXBXBXBXBXBXBXBXBXBXBXBXBXBXBXBXBXBXBXBXBXBXBXBXBXBXBXBXBXBXBXBXBXBX",
"BXBXBXBXBXBXBXBXBXBXBXBXBXBXBXBXBXBXBXBXBXBXBXBXBXBXBXBXBXBXBXBXBXBXBXBXBXBXBXBXBXBXBXBXBXBXBXBXBXBXBXBXBXBXBXBXBXBXBXBXBXBXBXBX",
"BXBXBXBXBXBXBXBXBXBXBXBXBXBXBXBXBXBXBXBXBXBXBXBXBXBXBXBXBXBXBXBXBXBXBXBXBXBXBXBXBXBXBXBXBXBXBXBXBXBXBXBXBXBXBXBXBXBXBXBXBXBXBXBX",
"BXBXBXBXBXBXBXBXBXBXBXBXBXBXBXBXBXBXBXBXBXBXBXBXBXBXBXBXBXBXBXBXBXBXBXBXBXBXBXBXBXBXBXBXBXBXBXBXBXBXBXBXBXBXBXBXBXBXBXBXBXBXBXBX",
"BXBXBXBXBXBXBXBXBXBXBXBXBXBXBXBXBXBXBXBXBXBXBXBXBXBXBXBXBXBXBXBXBXBXBXBXBXBXBXBXBXBXBXBXBXBXBXBXBXBXBXBXBXBXBXBXBXBXBXBXBXBXBXBX",
"BXBXBXBXBXBXBXBXBXBXBXBXBXBXBXBXBXBXBXBXBXBXBXBXBXBXBXBXBXBXBXBXBXBXBXBXBXBXBXBXBXBXBXBXBXBXBXBXBXBXBXBXBXBXBXBXBXBXBXBXBXBXBXBX",
"BXBXBXBXBXBXBXBXBXBXBXBXBXBXBXBXBXBXBXBXBXBXBXBXBXBXBXBXBXBXBXBXBXBXBXBXBXBXBXBXBXBXBXBXBXBXBXBXBXBXBXBXBXBXBXBXBXBXBXBXBXBXBXBX",
"BXBXBXBXBXBXBXBXBXBXBXBXBXBXBXBXBXBXBXBXBXBXBXBXBXBXBXBXBXBXBXBXBXBXBXBXBXBXBXBXBXBXBXBXBXBXBXBXBXBXBXBXBXBXBXBXBXBXBXBXBXBXBXBX",
"BXBXBXBXBXBXBXBXBXBXBXBXBXBXBXBXBXBXBXBX}.}.}.XX;X<X,XBXBXBXBXBXBXBXBXBXBXBXBXBXBXBXBXBXBXBXBXBXBXBXBXBXBXBXBXBXBXBXBXBXBXBXBXBX",
"BXBXBXBXBXBXBXBXBXBXBXBXBXBXBXBXBXBXBXBX}.}.}..X&X:X,XBXBXBXBXBXBXBXBXBXBXBXBXBXBXBXBXBXBXBXBXBXBXBXBXBXBXBXBXBXBXBXBXBXBXBXBXBX",
"BXBXBXBXBXBXBXBXBXBXBXBXBXBXBXBXBXBXBX}.}.}.}. XXX%X1X,XBXBXBXBXBXBXBXBX9XBXBXBXBXBXBXBXBXBXBXBXBXBXBXBXBXBXBXBXBXBXBXBXBXBXBXBX",
"BXBXBXBXBXBXBXBXBXBXBXBXBXBXBXBXBXBXBX}.}.}.`.m.m.+X*X,XBXBXBXBXBXBXBXBX9XBXBXBXBXBXBXBXBXBXBXBXBXBXBXBXBXBXBXBXBXBXBXBXBXBXBXBX",
"BXBXBXBXBXBXBXBXBXBXBXBXBXBXBXBXBXBXBX}.}. Xh.w w a f.>XBXBXBXBXBXBXBXBXBX9X9XBXBXBXBX9XBXBXBXBXBXBXBXBXBXBXBXBXBXBXBXBXBXBXBXBX",
"BXBXBXBXBXBXBXBXBXBXBXBXBXBXBXBXBXBXBX}.}.).r.; - @ 2.>XBXBXBXBXBXBXBXBXBX9X9XBXBXBXBX9XBXBXBXBXBXBXBXBXBXBXBXBXBXBXBXBXBXBXBXBX",
"BXBXBXBXBXBXBXBXBXBXBXBXBXBXBXBXBXBXBX}.}.>.9 ; ; & w.>XBXBXBXBXBXBXBXBXBXBXBXBX9X9X9X9XBXBXBXBXBXBXBXBXBXBXBXBXBXBXBXBXBXBXBXBX",
"BXBXBXBXBXBXBXBXBXBXBXBXBXBXBXBXBXBXBX}.}.-.& ; ; & w.>XBXBXBXBXBXBXBXBXBXBXBXBX9X9X9X9XBXBXBXBXBXBXBXBXBXBXBXBXBXBXBXBXBXBXBXBX",
"BXBXBXBXBXBXBXBXBXBXBXBXBXBXBXBXBX8.c.}.}.;.* ; ; & w.>XBXBXBXBXBXBXBXBXBXBXBX9X9X9X9X9XBXBXBXBXBXBXBXBXBXBXBXBXBXBXBXBXBXBXBXBX",
"BXBXBXBXBXBXBXBXBXBXBXBXBXBXBXBXBX0.z.}.}.;.* ; ; & w.>XBXBXBXBXBXBXBXBXBXBXBXqXqX0X9X9XBXBXBXBXBXBXBXBXBXBXBXBXBXBXBXBXBXBXBXBX",
"BXBXBXBXBXBXBXBXBXBXBXBXBXBXBXBXBX0.x.}.}.-.& ; ; # 2.>XBXBXBXBXBXBXBXBXBX8XeXsXsXwX8XBXBXBXBXBXBXBXBXBXBXBXBXBXBXBXBXBXBXBXBXBX",
"BXBXBXBXBXBXBXBXBXBXBXBXBXBXBXBXBX0.l.'.{.>.9 ; ; 8 d.>XBXBXBXBXBXBXBXBXBX7XuXfXfXuX7XBXBXBXBXBXBXBXBXBXBXBXBXBXBXBXBXBXBXBXBXBX",
"BXBXBXBXBXBXBXBXBXBXBXBXBXBXBXBXq.q.y.k.'._.r.- - e.OX,XBXBXBXBXBXBXBXBXBX5XpXxXxXpX5XBXBXBXBXBXBXBXBXBXBXBXBXBXBXBXBXBXBXBXBXBX",
"BXBXBXBXBXBXBXBXBXBXBXBXBXBXBXBXq.q.q.i.M.|.h.w w g.#X,XBXBXBXBXBXBXBXBXBX5XaXvXcXpX5XBXBXBXBXBXBXBXBXBXBXBXBXBXBXBXBXBXBXBXBXBX",
"BXBXBXBXBXBXBXBXBXBXBXBXBX* d q.q.q.q.t.i.n.[.m.m._.@X,X,XBXBXBXBXBXBXBXBX6XaXxXgXyX7XBXBXBXBXBXBXBXBXBXBXBXBXBXBXBXBXBXBXBXBXBX",
"BXBXBXBXBXBXBXBXBXBXBXBXBX- u 3.3.3.5.q.q.v.'.].}.{.@X,X,XBXBXBXBXBXBXBXBX4XiXzXdXwX8XBXBXBXBXBXBXBXBXBXBXBXBXBXBXBXBXBXBXBXBXBX",
"BXBXBXBXBXBXBXBXBXBXBXBX; ; , 9 9 8 f q.t.u.p.k.'.}.@X<X,X/.%.BXBXBXBXBXBX!.3XlXtXBXBXBXBXBXBXBXBXBXBXBXBXBXBXBXBXBXBXBXBXBXBXBX",
"BXBXBXBXBXBXBXBXBXBXBXBX; ; ; ; ; - u 3.3.7.0.i.M.).oX=X:X^.+.BXBXBXBXBXBXA.2XkXrXBXBXBXBXBXBXBXBXBXBXBXBXBXBXBXBXBXBXBXBXBXBXBX",
"BXBXBXBXBXBXBXBXBXBXBXBX; ; ; ; ; ; , 9 9 :.t.t.p.a.s.b.-XQ...*.BXBXBXBXBXR.~.(.BXBXBXBXBXBXBXBXBXBXBXBXBXBXBXBXBXBXBXBXBXBXBXBX",
"BXBXBXBXBXBXBXBXBXBXBXBX; ; ; ; ; ; ; ; ; Z 6.0.3.<.4.j.$XP.! *.BXBXBXBXBXH.K.U.BXBXBXBXBXBXBXBXBXBXBXBXBXBXBXBXBXBXBXBXBXBXBXBX",
"BXBXBXBXBXBXBXBXBXBXBX; ; ; ; BX; ; ; ; ; < g 4.r 8 f 9.| Y ^ *.*.*.*.BXV _ ] BXBXBXBXBXBXBXBXBXBXBXBXBXBXBXBXBXBXBXBXBXBXBXBXBX",
"BXBXBXBXBXBXBXBXBXBXBX; ; ; ; BX; ; ; ; ; - p ,.8 * s 1.L J ~ @.@.&.*.BXV V V BXBXBXBXBXBXBXBXBXBXBXBXBXBXBXBXBXBXBXBXBXBXBXBXBX",
"BXBXBXBXBXBXBXBXBXBXBX; ; ; ; BX; ; ; ; ; ; , 8 : ; q U BXK E Q Q o.=.#.[ M v BXBXBXBXBXBXBXBXBXBXBXBXBXBXBXBXBXBXBXBXBXBXBXBXBX",
"BXBXBXBXBXBXBXBXBXBXBX; ; ; ; BX; ; ; ; ; ; ; ; ; 1 A K BXK K K K X.$.O.{ C.W.BXBXBXBXBXBXBXBXBXBXBXBXBXBXBXBXBXBXBXBXBXBXBXBXBX",
"BXBXBXBXBXBXBXBXBX; ; ; ; BXBXBX; ; ; ; ; ; ; ; ; S H K BXBXBXBXK W R [ ) hXnXBXBXBXBXBXBXBXBXBXBXBXBXBXBXBXBXBXBXBXBXBXBXBXBXBX",
"BXBXBXBXBXBXBXBXBX; ; ; ; BXBXBX; ; ; ; ; ; ; ; ; D K K BXBXBXBXK K P V ( jXNXBXBXBXBXBXBXBXBXBXBXBXBXBXBXBXBXBXBXBXBXBXBXBXBXBX",
"BXBXBXBXBXBXBXBXBX; ; ; ; BXBXBXBX; ; ; ; ; ; ; ; D K BXBXBXBXBXBXBXBXV V BXBXBXBXBXBXBXBXBXBXBXBXBXBXBXBXBXBXBXBXBXBXBXBXBXBXBX",
"BXBXBXBXBXBXBXBXBX; ; ; ; BXBXBXBX; ; ; ; ; ; ; 1 D K BXBXBXBXBXBXBXBXV V BXBXBXBXBXBXBXBXBXBXBXBXBXBXBXBXBXBXBXBXBXBXBXBXBXBXBX",
"BXBXBXBXBXBXBXBXBX; ; ; BXBXBXBXBX; ; ; ; ; ; 1 F K K BXBXBXBXBXBXBXBXV BXBXBXBXBXBXBXBXBXBXBXBXBXBXBXBXBXBXBXBXBXBXBXBXBXBXBXBX",
"BXBXBXBXBXBXBXBXBX; ; ; BXBXBXBXBX= ; ; ; ; ; 1 H K K BXBXBXBXBXBXBXBXV BXBXBXBXBXBXBXBXBXBXBXBXBXBXBXBXBXBXBXBXBXBXBXBXBXBXBXBX",
"BXBXBXBXBXBXBXBXBX% % % BXBXBXBXX $ ; ; ; ; ; 1 G K J BXBXBXBXBXBXV V V BXBXBXBXBXBXBXBXBXBXBXBXBXBXBXBXBXBXBXBXBXBXBXBXBXBXBXBX",
"BXBXBXBXBXBXBXBXBX . . .BXBXBXBXX > 2 < < < , 0 I T } BXBXBXBXBXBXV V V BXBXBXBXBXBXBXBXBXBXBXBXBXBXBXBXBXBXBXBXBXBXBXBXBXBXBXBX",
"BXBXBXBXBXBXBXBXBXbXbXbXBXBXBXX X t b x x x z / F.I.Y.R.BXBXBXBXBXV V BXBXBXBXBXBXBXBXBXBXBXBXBXBXBXBXBXBXBXBXBXBXBXBXBXBXBXBXBX",
"BXBXBXBXBXBXBXBXBXMXMXMXBXBXBXX O d C V V V V ` G.T.R.R.BXBXBXBXBXV V BXBXBXBXBXBXBXBXBXBXBXBXBXBXBXBXBXBXBXBXBXBXBXBXBXBXBXBXBX",
"BXBXBXBXBXBXBXBXBXmXmXmXBXBXBXo h B V V V V V C ` D.E.R.R.BXBXBXBXBXBXBXBXBXBXBXBXBXBXBXBXBXBXBXBXBXBXBXBXBXBXBXBXBXBXBXBXBXBXBX",
"BXBXBXBXBXBXBXBXBXmXmXmXBXBXBX5 n V V V V m k c B B.J.J.T.BXBXBXBXBXBXBXBXBXBXBXBXBXBXBXBXBXBXBXBXBXBXBXBXBXBXBXBXBXBXBXBXBXBXBX",
"BXBXBXBXBXBXBXBXBXBXBXBXBX  6 c V V V V V e o 4 n _ ' N.J.R.R.BXBXBXBXBXBXBXBXBXBXBXBXBXBXBXBXBXBXBXBXBXBXBXBXBXBXBXBXBXBXBXBXBX",
"BXBXBXBXBXBXBXBXBXBXBXBXBX. 7 V V V V V V 7 . O j k n ` G.T.R.BXBXBXBXBXBXBXBXBXBXBXBXBXBXBXBXBXBXBXBXBXBXBXBXBXBXBXBXBXBXBXBXBX",
"BXBXBXBXBXBXBXBXBXBXBXBXBX. 7 V V V V V BXBXBXBX+ O e C ` D.E.BXBXBXBXBXBXBXBXBXBXBXBXBXBXBXBXBXBXBXBXBXBXBXBXBXBXBXBXBXBXBXBXBX",
"BXBXBXBXBXBXBXBXBXBXBXBXBX. 7 V V V V V BXBXBXBXX . 6 c B Z.E.BXBXBXBXBXBXBXBXBXBXBXBXBXBXBXBXBXBXBXBXBXBXBXBXBXBXBXBXBXBXBXBXBX",
"BXBXBXBXBXBXBXBXBXBXBXBXBX. 6 V V V V BXBXBXBXBXBXBXBX4 c S.E.BXBXBXBXBXBXBXBXBXBXBXBXBXBXBXBXBXBXBXBXBXBXBXBXBXBXBXBXBXBXBXBXBX",
"BXBXBXBXBXBXBXBXBXBXBXBXBXo e V V V V BXBXBXBXBXBXBXBXO l V.L.BXBXBXBXBXBXBXBXBXBXBXBXBXBXBXBXBXBXBXBXBXBXBXBXBXBXBXBXBXBXBXBXBX",
"BXBXBXBXBXBXBXBXBXBXBXBXX y m V V BXBXBXBXBXBXBXBXBXBX+ l _ ' BXBXBXBXBXBXBXBXBXBXBXBXBXBXBXBXBXBXBXBXBXBXBXBXBXBXBXBXBXBXBXBXBX",
"BXBXBXBXBXBXBXBXBXBXBXBXX i C V V BXBXBXBXBXBXBXBXBXBX+ l V V BXBXBXBXBXBXBXBXBXBXBXBXBXBXBXBXBXBXBXBXBXBXBXBXBXBXBXBXBXBXBXBXBX",
"BXBXBXBXBXBXBXBXBXBXBXBXX i C V BXBXBXBXBXBXBXBXBXBXBX+ k V V BXBXBXBXBXBXBXBXBXBXBXBXBXBXBXBXBXBXBXBXBXBXBXBXBXBXBXBXBXBXBXBXBX",
"BXBXBXBXBXBXBXBXBXBXBXBXX i C V BXBXBXBXBXBXBXBXBXBXBX3 c V V BXBXBXBXBXBXBXBXBXBXBXBXBXBXBXBXBXBXBXBXBXBXBXBXBXBXBXBXBXBXBXBXBX",
"BXBXBXBXBXBXBXBXBXBXBXBXX i C BXBXBXBXBXBXBXBXBXBXBXBXBXV V V BXBXBXBXBXBXBXBXBXBXBXBXBXBXBXBXBXBXBXBXBXBXBXBXBXBXBXBXBXBXBXBXBX",
"BXBXBXBXBXBXBXBXBXBXBXBX3 d C BXBXBXBXBXBXBXBXBXBXBXBXBXl N V BXBXBXBXBXBXBXBXBXBXBXBXBXBXBXBXBXBXBXBXBXBXBXBXBXBXBXBXBXBXBXBXBX",
"BXBXBXBXBXBXBXBXBXBXBXBXl N V BXBXBXBXBXBXBXBXBXBXBXBXBX3 d C BXBXBXBXBXBXBXBXBXBXBXBXBXBXBXBXBXBXBXBXBXBXBXBXBXBXBXBXBXBXBXBXBX",
"BXBXBXBXBXBXBXBXBXBXBXBXV V V BXBXBXBXBXBXBXBXBXBXBXBXBXX i C BXBXBXBXBXBXBXBXBXBXBXBXBXBXBXBXBXBXBXBXBXBXBXBXBXBXBXBXBXBXBXBXBX"
};
