/* XPM */
static char *result[] = {
/* columns rows colors chars-per-pixel */
"64 64 235 2 ",
"   c #1B121C",
".  c #1C121C",
"X  c #1D121C",
"o  c #1C131C",
"O  c #1E131C",
"+  c #1F131C",
"@  c #1F131D",
"#  c #1B161C",
"$  c #1F141D",
"%  c #1F161C",
"&  c #191A1A",
"*  c #181B1B",
"=  c #1B1A1B",
"-  c #1A1B1B",
";  c #1B1B1B",
":  c #1C1B1B",
">  c #1D1B1B",
",  c #1E1B1C",
"<  c #1F1B1C",
"1  c gray11",
"2  c #1E1E1E",
"3  c gray12",
"4  c #20141D",
"5  c #21141D",
"6  c #22151D",
"7  c #23151D",
"8  c #24161D",
"9  c #25161E",
"0  c #27161E",
"q  c #26171E",
"w  c #201B1C",
"e  c #211B1C",
"r  c #221B1C",
"t  c #261B1D",
"y  c #271B1D",
"u  c #221F1F",
"i  c #281B1D",
"p  c #291B1D",
"a  c #29181E",
"s  c #2A181E",
"d  c #291B1E",
"f  c #2C191F",
"g  c #2F1A1F",
"h  c #2F1C1D",
"j  c #301B1F",
"k  c #341C1F",
"l  c #321C20",
"z  c #331C20",
"x  c #351D20",
"c  c #361D20",
"v  c #351E20",
"b  c #351F20",
"n  c #361E20",
"m  c #361E21",
"M  c #371E21",
"N  c #361F21",
"B  c #381E20",
"V  c #381E21",
"C  c #381F21",
"Z  c #391F21",
"A  c #3A1F21",
"S  c #3D1C20",
"D  c #3D1C22",
"F  c #3E1C22",
"G  c #3E1C23",
"H  c #232323",
"J  c #272223",
"K  c gray14",
"L  c gray15",
"P  c #262727",
"I  c #272727",
"U  c #282727",
"Y  c #292727",
"T  c #2D2627",
"R  c #2F2726",
"E  c #2D2827",
"W  c gray16",
"Q  c #2C2C2C",
"!  c #332123",
"~  c #342526",
"^  c #382022",
"/  c #3B2122",
"(  c #3C2022",
")  c #3D2022",
"_  c #3D2122",
"`  c #3C2223",
"'  c #372728",
"]  c #382728",
"[  c #3C292A",
"{  c #35302B",
"}  c #343434",
"|  c #343535",
" . c #353535",
".. c #343636",
"X. c #3B3031",
"o. c #3B3232",
"O. c gray22",
"+. c gray23",
"@. c #3C3A3B",
"#. c gray24",
"$. c #3D3E3E",
"%. c #3E3E3E",
"&. c #421C23",
"*. c #451C23",
"=. c #461C24",
"-. c #4B1C22",
";. c #491C24",
":. c #4A1C24",
">. c #4F1C26",
",. c #501C26",
"<. c #511C26",
"1. c #541C26",
"2. c #541C27",
"3. c #551C27",
"4. c #561C27",
"5. c #571C27",
"6. c #581C27",
"7. c #591C27",
"8. c #5A1C27",
"9. c #5C1C27",
"0. c #5D1C28",
"q. c #5E1C28",
"w. c #621C28",
"e. c #661D28",
"r. c #6D1D29",
"t. c #701D27",
"y. c #701D29",
"u. c #731D29",
"i. c #771D2A",
"p. c #7B1E29",
"a. c #781D2A",
"s. c #791D2A",
"d. c #7C1E29",
"f. c #7D1E29",
"g. c #7E1E29",
"h. c #7E1E2A",
"j. c #412223",
"k. c #422223",
"l. c #442127",
"z. c #492524",
"x. c #4D2625",
"c. c #4E2725",
"v. c #512826",
"b. c #522826",
"n. c #552926",
"m. c #562927",
"M. c #582A27",
"N. c #592B27",
"B. c #5B2A27",
"V. c #5A2B27",
"C. c #522028",
"Z. c #512B28",
"A. c #572B28",
"S. c #5B2A28",
"D. c #5B2B28",
"F. c #5B2C28",
"G. c #5C2C28",
"H. c #5D2C28",
"J. c #5E2C28",
"K. c #4D312E",
"L. c #4D322F",
"P. c #4B3839",
"I. c #4F3A3B",
"U. c #693A2C",
"Y. c #713B26",
"T. c #79492C",
"R. c #811E2A",
"E. c #821E2A",
"W. c #831E2B",
"Q. c #841E2B",
"!. c #861E2B",
"~. c #871E2B",
"^. c #881E2B",
"/. c #891E2B",
"(. c #8A1E2B",
"). c #8B1E2B",
"_. c #8C1E2B",
"`. c #8D1E2B",
"'. c #971F2C",
"]. c #892129",
"[. c #8E2129",
"{. c #90212A",
"}. c #95202C",
"|. c #9B202D",
" X c #9E202D",
".X c #9F202D",
"XX c #A1202D",
"oX c #A3202D",
"OX c #A1252E",
"+X c #AA222D",
"@X c #AA212E",
"#X c #AC222E",
"$X c #B0222E",
"%X c #B2252F",
"&X c #BE232F",
"*X c #BD242F",
"=X c #B32731",
"-X c #B52731",
";X c #BF2330",
":X c #C12430",
">X c #C22430",
",X c #C32430",
"<X c #C42430",
"1X c #C52430",
"2X c #C62430",
"3X c #C82431",
"4X c #C92431",
"5X c #EC9417",
"6X c #FFA214",
"7X c #FFA314",
"8X c #FFA515",
"9X c #FFAB1C",
"0X c #FFB81E",
"qX c #FFBA1E",
"wX c #FFBB1F",
"eX c #FFBC22",
"rX c #FFBE22",
"tX c #F5C73E",
"yX c #FFCE3B",
"uX c #FFD234",
"iX c #FFD93C",
"pX c #B89844",
"aX c #CDAE47",
"sX c #F8CC40",
"dX c #FFD843",
"fX c #FFDB49",
"gX c #FFE34F",
"hX c #FFEA55",
"jX c #FFEA56",
"kX c #CCA483",
"lX c #DCB58F",
"zX c #DEB48F",
"xX c #F6CA9F",
"cX c #F8CBA0",
"vX c None",
/* pixels */
"vXvXvXvXvXvXvXvXvXvXvXvXvXvXvXvXvXvXvXvXvXvXvXvXvXvXvXvXvXvXvXvXvXvXvXvXvXvXvXvXvXvXvXvXvXvXvXvXvXvXvXvXvXvXvXvXvXvXvXvXvXvXvXvX",
"vXvXvXvXvXvXvXvXvXvXvXvXvXvXvXvXvXvXvXvXvXvXvXvXvXvXvXvXvXvXvXvXvXvXvXvXvXvXvXvXvXvXvXvXvXvXvXvXvXvXvXvXvXvXvXvXvXvXvXvXvXvXvXvX",
"vXvXvXvXvXvXvXvXvXvXvXvXvXvXvXvXvXvXvXvXvXvXvXvXvXvXvXvXvXvXvXvXvXvXvXvXvXvXvXvXvXvXvXvXvXvXvXvXvXvXvXvXvXvXvXvXvXvXvXvXvXvXvXvX",
"vXvXvXvXvXvXvXvXvXvXvXvXvXvXvXvXvXvXvXvXvXvXvXvXvXvXvXvXvXvXvXvXvXvXvXvXvXvXvXvXvXvXvXvXvXvXvXvXvXvXvXvXvXvXvXvXvXvXvXvXvXvXvXvX",
"vXvXvXvXvXvXvXvXvXvXvXvXvXvXvXvXvXvXvXvXvXvXvXvXvXvXvXvXvXvXvXvXvXvXvXvXvXvXvXvXvXvXvXvXvXvXvXvXvXvXvXvXvXvXvXvXvXvXvXvXvXvXvXvX",
"vXvXvXvXvXvXvXvXvXvXvXvXvXvXvXvXvXvXvXvXvXvXvXvXvXvXvXvXvXvXvXvXvXvXvXvXvXvXvXvXvXvXvXvXvXvXvXvXvXvXvXvXvXvXvXvXvXvXvXvXvXvXvXvX",
"vXvXvXvXvXvXvXvXvXvXvXvXvXvXvXvXvXvXvXvXvXvXvXvXvXvXvXvXvXvXvXvXvXvXvXvXvXvXvXvXvXvXvXvXvXvXvXvXvXvXvXvXvXvXvXvXvXvXvXvXvXvXvXvX",
"vXvXvXvXvXvXvXvXvXvXvXvXvXvXvXvXvXvXvXvXvXvXvXvXvXvXvXvXvXvXvXvXvXvXvXvXvXvXvXvXvXvXvXvXvXvXvXvXvXvXvXvXvXvXvXvXvXvXvXvXvXvXvXvX",
"vXvXvXvXvXvXvXvXvXvXvXvXvXvXvXvXvXvXvXvXvXvXvXvXvXvXvXvXvXvXvXvXvXvXvXvXvXvXvXvXvXvXvXvXvXvXvXvXvXvXvXvXvXvXvXvXvXvXvXvXvXvXvXvX",
"vXvXvXvXvXvXvXvXvXvXvXvXvXvXvXvXvXvXvXvXvXvXvXvXvXvXvXvXvXvXvXvXvXvXvXvXvXvXvXvXvXvXvXvXvXvXvXvXvXvXvXvXvXvXvXvXvXvXvXvXvXvXvXvX",
"vXvXvXvXvXvXvXvXvXvXvXvXvXvXvXvXvXvXvXvXvXvXvXvXvXvXvXvXvXvXvXvXvXvXvXvXvXvXvXvXvXvXvXvXvXvXvXvXvXvXvXvXvXvXvXvXvXvXvXvXvXvXvXvX",
"vXvXvXvXvXvXvXvXvXvXvXvXvXvXvXvXvXvXvXvXvXvXvXvXvXvXvXvXvXvXvXvXvXvXvXvXvXvXvXvXvXvXvXvXvXvXvXvXvXvXvXvXvXvXvXvXvXvXvXvXvXvXvXvX",
"vXvXvXvXvXvXvXvXvXvXvXvXvXvXvXvXvXvXvX/./.^. X<X<XvXvXvXvXvXvXvXvXvXvX6XvXvXvXvXvXvXvXvXvXvXvXvXvXvXvXvXvXvXvXvXvXvXvXvXvXvXvXvX",
"vXvXvXvXvXvXvXvXvXvXvXvXvXvXvXvXvXvXvX/./.^.|.&X,XvXvXvXvXvXvXvXvXvXvX6XvXvXvXvXvXvXvXvXvXvXvXvXvXvXvXvXvXvXvXvXvXvXvXvXvXvXvXvX",
"vXvXvXvXvXvXvXvXvXvXvXvXvXvXvXvXvX/././././._.'.;X1X<XvXvXvXvXvXvXvXvXvXvXvXvXvXvX6X6XvXvXvXvXvXvXvXvXvXvXvXvXvXvXvXvXvXvXvXvXvX",
"vXvXvXvXvXvXvXvXvXvXvXvXvXvXvXvXvX/./././.R.p.E.+X*X1XvXvXvXvXvXvXvXvXvXvXvXvXvXvX6X6XvXvXvXvXvXvXvXvXvXvXvXvXvXvXvXvXvXvXvXvXvX",
"vXvXvXvXvXvXvXvXvXvXvXvXvXvXvXvXvX/./././.-.t p h {.3XvXvXvXvXvXvXvXvXvXvXvXvXvXvX6X6XvXvXvXvXvXvXvXvXvXvXvXvXvXvXvXvXvXvXvXvXvX",
"vXvXvXvXvXvXvXvXvXvXvXvXvXvXvXvXvX/./.~.f.S * - - ].4XvXvXvXvXvXvXvXvXvXvXvXvXvXvX6X6XvXvXvXvXvXvXvXvXvXvXvXvXvXvXvXvXvXvXvXvXvX",
"vXvXvXvXvXvXvXvXvXvXvXvXvXvXvXvXvX/.(.f.k < ; ; : ].4XvXvXvXvXvXvXvXvXvXvX6X6XvXvXvXvXvXvXvXvXvXvXvXvXvXvXvXvXvXvXvXvXvXvXvXvXvX",
"vXvXvXvXvXvXvXvXvXvXvXvXvXvXvXvXvX!.(.d.y - ; ; : ].4XvXvXvXvXvXvXvXvXvXvX6X6XvXvXvXvXvXvXvXvXvXvXvXvXvXvXvXvXvXvXvXvXvXvXvXvXvX",
"vXvXvXvXvXvXvXvXvXvXvXvXvXvXvXvX5.a.).d.i - ; ; : ].4XvXvXvXvXvXvXvXvXvX6X6X6X6XvXvXvXvXvXvXvXvXvXvXvXvXvXvXvXvXvXvXvXvXvXvXvXvX",
"vXvXvXvXvXvXvXvXvXvXvXvXvXvXvXvX5.i.).d.i - ; ; : ].4XvXvXvXvXvXvXvXvXvX6X8X8X6XvXvXvXvXvXvXvXvXvXvXvXvXvXvXvXvXvXvXvXvXvXvXvXvX",
"vXvXvXvXvXvXvXvXvXvXvXvXvXvXvXvX5.i.).d.y - ; ; ; ].4XvXvXvXvXvXvXvXvXvX6X0X0X6XvXvXvXvXvXvXvXvXvXvXvXvXvXvXvXvXvXvXvXvXvXvXvXvX",
"vXvXvXvXvXvXvXvXvXvXvXvXvXvXvXvX5.u.~.f.k < ; > y [.3XvXvXvXvXvXvXvXvXvX6XwXrX9XvXvXvXvXvXvXvXvXvXvXvXvXvXvXvXvXvXvXvXvXvXvXvXvX",
"vXvXvXvXvXvXvXvXvXvXvXvXvXvXvX5.5.8.r.^.f.S * t t.#X2XvXvXvXvXvXvXvXvXvX6XqXuXfX9XvXvXvXvXvXvXvXvXvXvXvXvXvXvXvXvXvXvXvXvXvXvXvX",
"vXvXvXvXvXvXvXvXvXvXvXvXvXvXvX5.5.4.e.Q./.-.t k g.$X1XvXvXvXvXvXvXvXvXvX6XeXiXgX9XvXvXvXvXvXvXvXvXvXvXvXvXvXvXvXvXvXvXvXvXvXvXvX",
"vXvXvXvXvXvXvXvXvXvXvXvX; &.7.5.5.5.7.w.Q.R.d.f.^.$X1X<XvXvXvXvXvXvXvXvX7XyXhXgX9XvXvXvXvXvXvXvXvXvXvXvXvXvXvXvXvXvXvXvXvXvXvXvX",
"vXvXvXvXvXvXvXvXvXvXvXvX; D <.,.,.1.5.9.h.Q.!.(./.@X:X>XvXvXvXvXvXvXvXvX5XsXjXfX9XvXvXvXvXvXvXvXvXvXvXvXvXvXvXvXvXvXvXvXvXvXvXvX",
"vXvXvXvXvXvXvXvXvXvXvX; ; w r r r *.6.6.9.9.r././.`.oX-XI.vXvXvXvXvXvXvXY.aXdX9XvXvXvXvXvXvXvXvXvXvXvXvXvXvXvXvXvXvXvXvXvXvXvXvX",
"vXvXvXvXvXvXvXvXvXvXvX; ; ; ; ; ; D <.<.4.4.e.W.W.!..X=XP.vXvXvXvXvXvXvXG.pXtX6XvXvXvXvXvXvXvXvXvXvXvXvXvXvXvXvXvXvXvXvXvXvXvXvX",
"vXvXvXvXvXvXvXvXvXvXvX; ; ; ; ; ; w r d <.5.7.0.q.s.XX%X[ ..%.vXvXvXvXvXH.U.T.vXvXvXvXvXvXvXvXvXvXvXvXvXvXvXvXvXvXvXvXvXvXvXvXvX",
"vXvXvXvXvXvXvXvXvXvXvX; ; ; ; ; ; ; - e :.3.2.>.,.y.}.OX] | %.vXvXvXvXvXM.B.S.vXvXvXvXvXvXvXvXvXvXvXvXvXvXvXvXvXvXvXvXvXvXvXvXvX",
"vXvXvXvXvXvXvXvXvX; ; ; ; vXvX; ; ; ; : e =.=.r r ;.C.' Y  .%.#.#.vXvXA ) vXvXvXvXvXvXvXvXvXvXvXvXvXvXvXvXvXvXvXvXvXvXvXvXvXvXvX",
"vXvXvXvXvXvXvXvXvX; ; ; ; vXvX; ; ; ; ; ; F F ; ; G l.P I } +.+.#.vXvXZ Z vXvXvXvXvXvXvXvXvXvXvXvXvXvXvXvXvXvXvXvXvXvXvXvXvXvXvX",
"vXvXvXvXvXvXvXvXvX; ; ; ; vXvX; ; ; ; ; ; w w ; ; J T vXI W W Q +.$.o.Z B vXvXvXvXvXvXvXvXvXvXvXvXvXvXvXvXvXvXvXvXvXvXvXvXvXvXvX",
"vXvXvXvXvXvXvXvXvX; ; ; ; vXvX; ; ; ; ; ; ; ; ; 1 H I vXI I I W O.@.X.` K.vXvXvXvXvXvXvXvXvXvXvXvXvXvXvXvXvXvXvXvXvXvXvXvXvXvXvX",
"vXvXvXvXvXvXvXvX; ; ; ; vXvXvX; ; ; ; ; ; ; ; 1 K I I vXvXvXvXI W ~ ^ K.kXvXvXvXvXvXvXvXvXvXvXvXvXvXvXvXvXvXvXvXvXvXvXvXvXvXvXvX",
"vXvXvXvXvXvXvXvX; ; ; ; vXvXvX; ; ; ; ; ; ; ; 1 L I I vXvXvXvXI I ! B L.zXvXvXvXvXvXvXvXvXvXvXvXvXvXvXvXvXvXvXvXvXvXvXvXvXvXvXvX",
"vXvXvXvXvXvXvXvX; ; ; ; vXvXvXvX; ; ; ; ; ; ; 1 L vXvXvXvXvXvXvXvXC Z ` vXvXvXvXvXvXvXvXvXvXvXvXvXvXvXvXvXvXvXvXvXvXvXvXvXvXvXvX",
"vXvXvXvXvXvXvXvX; ; ; ; vXvXvXvX; ; ; ; ; ; ; 2 L vXvXvXvXvXvXvXvXZ Z Z vXvXvXvXvXvXvXvXvXvXvXvXvXvXvXvXvXvXvXvXvXvXvXvXvXvXvXvX",
"vXvXvXvXvXvXvXvX; ; ; vXvXvXvXvX; ; ; ; ; ; 3 L I vXvXvXvXvXvXvXvXZ Z vXvXvXvXvXvXvXvXvXvXvXvXvXvXvXvXvXvXvXvXvXvXvXvXvXvXvXvXvX",
"vXvXvXvXvXvXvXvX; ; ; vXvXvXvXvX; ; ; ; ; ; 3 I I vXvXvXvXvXvXvXvXZ Z vXvXvXvXvXvXvXvXvXvXvXvXvXvXvXvXvXvXvXvXvXvXvXvXvXvXvXvXvX",
"vXvXvXvXvXvXvXvX& & & vXvXvXvXvX; ; ; ; ; ; 3 I I vXvXvXvXvXvXvXZ Z Z vXvXvXvXvXvXvXvXvXvXvXvXvXvXvXvXvXvXvXvXvXvXvXvXvXvXvXvXvX",
"vXvXvXvXvXvXvXvX{ { { vXvXvXvXvX= = = ; ; ; 3 U E vXvXvXvXvXvXvXZ Z Z vXvXvXvXvXvXvXvXvXvXvXvXvXvXvXvXvXvXvXvXvXvXvXvXvXvXvXvXvX",
"vXvXvXvXvXvXvXvXlXlXlXvXvXvXvX. o o # ; ; ; 3 E Z.F.H.vXvXvXvXvXZ vXvXvXvXvXvXvXvXvXvXvXvXvXvXvXvXvXvXvXvXvXvXvXvXvXvXvXvXvXvXvX",
"vXvXvXvXvXvXvXvXcXcXcXvXvXvXvX. . O % < < , u R A.J.H.vXvXvXvXvXZ vXvXvXvXvXvXvXvXvXvXvXvXvXvXvXvXvXvXvXvXvXvXvXvXvXvXvXvXvXvXvX",
"vXvXvXvXvXvXvXvXxXxXxXvXvXvXvX. . f n b b v N / N.H.H.vXvXvXvXvXvXvXvXvXvXvXvXvXvXvXvXvXvXvXvXvXvXvXvXvXvXvXvXvXvXvXvXvXvXvXvXvX",
"vXvXvXvXvXvXvXvXxXxXxXvXvXvXvX. @ j A Z Z Z Z ) n.G.H.vXvXvXvXvXvXvXvXvXvXvXvXvXvXvXvXvXvXvXvXvXvXvXvXvXvXvXvXvXvXvXvXvXvXvXvXvX",
"vXvXvXvXvXvXvXvXvXvXvXvXvX. . + l C Z Z Z Z Z A ) b.J.H.vXvXvXvXvXvXvXvXvXvXvXvXvXvXvXvXvXvXvXvXvXvXvXvXvXvXvXvXvXvXvXvXvXvXvXvX",
"vXvXvXvXvXvXvXvXvXvXvXvXvX. X 7 m Z Z Z Z M x n C x.D.H.vXvXvXvXvXvXvXvXvXvXvXvXvXvXvXvXvXvXvXvXvXvXvXvXvXvXvXvXvXvXvXvXvXvXvXvX",
"vXvXvXvXvXvXvXvXvXvXvXvX. . 9 n Z Z Z vXvX5 @ 6 m ( z.H.H.vXvXvXvXvXvXvXvXvXvXvXvXvXvXvXvXvXvXvXvXvXvXvXvXvXvXvXvXvXvXvXvXvXvXvX",
"vXvXvXvXvXvXvXvXvXvXvXvX.   q Z Z Z Z vXvX. . @ z x k.N.H.vXvXvXvXvXvXvXvXvXvXvXvXvXvXvXvXvXvXvXvXvXvXvXvXvXvXvXvXvXvXvXvXvXvXvX",
"vXvXvXvXvXvXvXvXvXvXvXvX.   q Z Z vXvXvXvXvXvXvX$ @ s j.N.vXvXvXvXvXvXvXvXvXvXvXvXvXvXvXvXvXvXvXvXvXvXvXvXvXvXvXvXvXvXvXvXvXvXvX",
"vXvXvXvXvXvXvXvXvXvXvXvX. O a Z Z vXvXvXvXvXvXvX.   8 A M.vXvXvXvXvXvXvXvXvXvXvXvXvXvXvXvXvXvXvXvXvXvXvXvXvXvXvXvXvXvXvXvXvXvXvX",
"vXvXvXvXvXvXvXvXvXvXvXvX. f M Z vXvXvXvXvXvXvXvXvX. X 0 m.J.H.vXvXvXvXvXvXvXvXvXvXvXvXvXvXvXvXvXvXvXvXvXvXvXvXvXvXvXvXvXvXvXvXvX",
"vXvXvXvXvXvXvXvXvXvXvXvX. g A Z vXvXvXvXvXvXvXvXvX.   7 v.G.H.vXvXvXvXvXvXvXvXvXvXvXvXvXvXvXvXvXvXvXvXvXvXvXvXvXvXvXvXvXvXvXvXvX",
"vXvXvXvXvXvXvXvXvXvXvXvX. g A Z vXvXvXvXvXvXvXvXvXvXvX4 Z b.J.vXvXvXvXvXvXvXvXvXvXvXvXvXvXvXvXvXvXvXvXvXvXvXvXvXvXvXvXvXvXvXvXvX",
"vXvXvXvXvXvXvXvXvXvXvXvX. g A Z vXvXvXvXvXvXvXvXvXvXvX$ x c.V.vXvXvXvXvXvXvXvXvXvXvXvXvXvXvXvXvXvXvXvXvXvXvXvXvXvXvXvXvXvXvXvXvX",
"vXvXvXvXvXvXvXvXvXvXvXvX. g A vXvXvXvXvXvXvXvXvXvXvXvX$ c ( _ vXvXvXvXvXvXvXvXvXvXvXvXvXvXvXvXvXvXvXvXvXvXvXvXvXvXvXvXvXvXvXvXvX",
"vXvXvXvXvXvXvXvXvXvXvXvX4 j A vXvXvXvXvXvXvXvXvXvXvXvX$ c Z Z vXvXvXvXvXvXvXvXvXvXvXvXvXvXvXvXvXvXvXvXvXvXvXvXvXvXvXvXvXvXvXvXvX",
"vXvXvXvXvXvXvXvXvXvXvXvXc V Z vXvXvXvXvXvXvXvXvXvXvXvX$ n Z Z vXvXvXvXvXvXvXvXvXvXvXvXvXvXvXvXvXvXvXvXvXvXvXvXvXvXvXvXvXvXvXvXvX",
"vXvXvXvXvXvXvXvXvXvXvXvXZ Z Z vXvXvXvXvXvXvXvXvXvXvXvX$ z C Z vXvXvXvXvXvXvXvXvXvXvXvXvXvXvXvXvXvXvXvXvXvXvXvXvXvXvXvXvXvXvXvXvX",
"vXvXvXvXvXvXvXvXvXvXvXvXZ Z Z vXvXvXvXvXvXvXvXvXvXvXvXvX$ j A vXvXvXvXvXvXvXvXvXvXvXvXvXvXvXvXvXvXvXvXvXvXvXvXvXvXvXvXvXvXvXvXvX",
"vXvXvXvXvXvXvXvXvXvXvXvXZ Z Z vXvXvXvXvXvXvXvXvXvXvXvXvX. g A vXvXvXvXvXvXvXvXvXvXvXvXvXvXvXvXvXvXvXvXvXvXvXvXvXvXvXvXvXvXvXvXvX"
};
