/* XPM */
static char *result[] = {
/* columns rows colors chars-per-pixel */
"64 64 90 1 ",
"  c #1C121C",
". c #171B1A",
"X c #1B1B1B",
"o c #24151D",
"O c #28171E",
"+ c #251B1D",
"@ c #2C1A1E",
"# c #341C1F",
"$ c #3B1D1F",
"% c #2E1E21",
"& c #351C20",
"* c #391F21",
"= c #262625",
"- c #2A2627",
"; c #2B2B2B",
": c #312325",
"> c #3B2123",
", c #3B2927",
"< c #3A282A",
"1 c #3B2F30",
"2 c #333333",
"3 c #3B3132",
"4 c #3D3D3D",
"5 c #451C22",
"6 c #4A1C24",
"7 c #561C27",
"8 c #5A1C26",
"9 c #5C1C28",
"0 c #621E25",
"q c #681D26",
"w c #631C28",
"e c #6C1D29",
"r c #701D27",
"t c #731D29",
"y c #7D1E2A",
"u c #432324",
"i c #4A2524",
"p c #4F2629",
"a c #552927",
"s c #5A2A27",
"d c #542B28",
"f c #5D2C28",
"g c #4F3330",
"h c #503330",
"j c #5B3E38",
"k c #632F26",
"l c #6D232B",
"z c #752026",
"x c #6B3C2C",
"c c #7E5332",
"v c #7E5D4F",
"b c #851E2B",
"n c #891E2B",
"m c #85262D",
"M c #8D202A",
"N c #9B202D",
"B c #8D2E35",
"V c #A2202D",
"C c #BB232F",
"Z c #B32732",
"A c #C52430",
"S c #C92430",
"D c #8F5D2E",
"F c #9C763A",
"G c #A57E3B",
"H c #876555",
"J c #DD8817",
"K c #FFA214",
"L c #FFB21B",
"P c #FFB91E",
"I c #FFB824",
"U c #EBB232",
"Y c #FFC623",
"T c #FFC926",
"R c #FFC433",
"E c #FFCD31",
"W c #FECC3C",
"Q c #FFD73B",
"! c #FFD543",
"~ c #FFDF46",
"^ c #FFDD4A",
"/ c #F7E356",
"( c #FFE551",
") c #FFED59",
"_ c #C9A684",
"` c #E1B791",
"' c #F6CA9F",
"] c #F7CBA0",
"[ c #F9CCA1",
"{ c None",
/* pixels */
"{{{{{{{{{{{{{{{{{{{{{{{{{{{{{{{{{{{{{{{{{{{{{{{{{{{{{{{{{{{{{{{{",
"{{{{{{{{{{{{{{{{{{{{{{{{{{{{{{{{{{{{{{{{{{{{{{{{{{{{{{{{{{{{{{{{",
"{{{{{{{{{{{{{{{{{{{{{{{{{{{{{{{{{{{{{{{{{{{{{{{{{{{{{{{{{{{{{{{{",
"{{{{{{{{{{{{{{{{{{{{{{{{{{{{{{{{{{{{{{{{{{{{{{{{{{{{{{{{{{{{{{{{",
"{{{{{{{{{{{{{{{{{{{{{{{{{{{{{{{{{{{{{{{{{{{{{{{{{{{{{{{{{{{{{{{{",
"{{{{{{{{{{{{{{{{{{{{{{{{nnnnnVAAAA{{{{{{{{{{{{{{KK{{{{{{{{{{{{{{",
"{{{{{{{{{{{{{{{{{{{{{{{nnnnnnNCCAA{{{{{{{{{{{{{{K{{{{{{{{{{{{{{{",
"{{{{{{{{{{{{{{{{{{{{{{nnnnnnnnnVAAAA{{{{{{{{{{{{{{{{{{{{{{KK{{{{",
"{{{{{{{{{{{{{{{{{{{{{{nnnnnbbbbNCCAA{{{{{{{{{{{{{{{{{{{{{{KK{{{{",
"{{{{{{{{{{{{{{{{{{{{{{nnnnnq@#@#$zAA{{{{{{{{{{{{{{{{{{{{{{KK{{{{",
"{{{{{{{{{{{{{{{{{{{{{{nnnnn0XXXX.8AA{{{{{{{{{{{{{{{{{{{{{{KK{{{{",
"{{{{{{{{{{{{{{{{{{{{{{nnnr6#XXXX.lAA{{{{{{{{{{{{{{{{K{{{{{{{{{{{",
"{{{{{{{{{{{{{{{{{{{{{{nnn0..XXXX.8AA{{{{{{{{{{{{{{{{KK{{{{{{{{{{",
"{{{{{{{{{{{{{{{{{{{{{ynnn8XXXXXX.0AA{{{{{{{{{{{{{{{KKK{{{{{{{{{{",
"{{{{{{{{{{{{{{{{{{{{7ennn0.XXXXX.8AA{{{{{{{{{{{{{{KKKKKK{{{{{{{{",
"{{{{{{{{{{{{{{{{{{{{7ennn8XXXXXX.lAA{{{{{{{{{{{{{{KKKKKK{{{{{{{{",
"{{{{{{{{{{{{{{{{{{{{7ennM0XXXXXXX9AA{{{{{{{{{{{{{{KLYPKK{{{{{{{{",
"{{{{{{{{{{{{{{{{{{{{7ennn8XXXXXXXkAA{{{{{{{{{{{{{{KLTPKK{{{{{{{{",
"{{{{{{{{{{{{{{{{{{7779wtnyq6XXX$wnAA{{{{{{{{{{{{{{KLTE!RK{{{{{{{",
"{{{{{{{{{{{{{{{{{{77777ennn8XX.5nVAA{{{{{{{{{{{{{{KLTQ)WKK{{{{{{",
"{{{{{{{{{{{{{{{{{777777wtynt666wnVAA{{{{{{{{{{{{{{KIQ~)WKK{{{{{{",
"{{{{{{{{{{{{{{X#977779777ennnnnnnVAAAA{{{{{{{{{{{{KR)))QKK{{{{{{",
"{{{{{{{{{{{{{XX#666667777qybbbnnnNCCAZ{{{{{{{{{{{{JU)(^RK{{{{{{{",
"{{{{{{{{{{{{XXXX+X+XX&9777777qnnnnnVSB44{{{{{{{{{{kG)WKK{{{{{{{{",
"{{{{{{{{{{{{XXXXXXXXX%7777777ennnnnNSB44{{{{{{{{{{sF/WKK{{{{{{{{",
"{{{{{{{{{{{{XXXXXXXXX++++&7777w9wenVSm-24{{{{{{{{{fxcD{{{{{{{{{{",
"{{{{{{{{{{{{XXXXXXXXXXXXX&7777777enVAm=244{{{{{{{{fssa{{{{{{{{{{",
"{{{{{{{{{{XXXXXX{XXXXXXXXO&576&&&6eelp=;44444{{{*uip{{{{{{{{{{{{",
"{{{{{{{{{{XXXXXX{{XXXXXXXXX#75XX.&7u;==2444444{{****{{{{{{{{{{{{",
"{{{{{{{{{{XXXXXX{{XXXXXXXXX@5&XXX%6<=-;;224444{<****{{{{{{{{{{{{",
"{{{{{{{{{{XXXXXX{{XXXXXXXXXXXXXXX=-={{===;-;4443>>*#{{{{{{{{{{{{",
"{{{{{{{{{{XXXXXX{{XXXXXXXXXXXXXXXX--{{;==--2444<*uhg{{{{{{{{{{{{",
"{{{{{{{{XXXXXX{{{{XXXXXXXXXXXXXX===={{{{{{=-;;>>#v``{{{{{{{{{{{{",
"{{{{{{{{XXXXXX{{{{XXXXXXXXXXXXXX=;;={{{{{{--=-**#H[[{{{{{{{{{{{{",
"{{{{{{{{XXXXXX{{{{{XXXXXXXXXXXX==={{{{{{{{{{{:***j{{{{{{{{{{{{{{",
"{{{{{{{{XXXXXX{{{{{{XXXXXXXXXXXX=;{{{{{{{{{{{{***#{{{{{{{{{{{{{{",
"{{{{{{{{XXXXX{{{{{{{XXXXXXXX.X+==;{{{{{{{{{{{{>**{{{{{{{{{{{{{{{",
"{{{{{{{{XXXX{{{{{{{{XXXXXXXX.=;==={{{{{{{{{{{{**{{{{{{{{{{{{{{{{",
"{{{{{{{{XXXX{{{{{{{{XXXXXXXX.+=;=;{{{{{{{{{{{***{{{{{{{{{{{{{{{{",
"{{{{{{{{XXXX{{{{{{{{XXXXXXXX.====={{{{{{{{{{****{{{{{{{{{{{{{{{{",
"{{{{{{{{==%={{{{{{{{XXXXXXXXX=--;-{{{{{{{{{{****{{{{{{{{{{{{{{{{",
"{{{{{{{{____{{{{{{     XXXXXXX=,ddf{{{{{{{{{**{{{{{{{{{{{{{{{{{{",
"{{{{{{{{[[[[{{{{{{+     XXXXXX;,kfff{{{{{{{{>*{{{{{{{{{{{{{{{{{{",
"{{{{{{{{''''{{{{{{   +@@@@@@%%-uffff{{{{{{{{{{{{{{{{{{{{{{{{{{{{",
"{{{{{{{{''''{{{{{{   o*********iffff{{{{{{{{{{{{{{{{{{{{{{{{{{{{",
"{{{{{{{{'''{{{{{{  oo%*********updff{{{{{{{{{{{{{{{{{{{{{{{{{{{{",
"{{{{{{{{{{{{{{{{   o*************iffff{{{{{{{{{{{{{{{{{{{{{{{{{{",
"{{{{{{{{{{{{{{{{  o@********#****issff{{{{{{{{{{{{{{{{{{{{{{{{{{",
"{{{{{{{{{{{{{{   o$*****{{{{ o O*>*iffff{{{{{{{{{{{{{{{{{{{{{{{{",
"{{{{{{{{{{{{{{   O>*****{{{{   O***uffff{{{{{{{{{{{{{{{{{{{{{{{{",
"{{{{{{{{{{{{{{   O>***{{{{{{{{{oOoo#upff{{{{{{{{{{{{{{{{{{{{{{{{",
"{{{{{{{{{{{{{{   o****{{{{{{{{{{   +$iff{{{{{{{{{{{{{{{{{{{{{{{{",
"{{{{{{{{{{{{{{ oO@>**{{{{{{{{{{{   oOuff{{{{{{{{{{{{{{{{{{{{{{{{",
"{{{{{{{{{{{{{{ o****{{{{{{{{{{{{{{   *ffff{{{{{{{{{{{{{{{{{{{{{{",
"{{{{{{{{{{{{{{ O****{{{{{{{{{{{{{{   #asff{{{{{{{{{{{{{{{{{{{{{{",
"{{{{{{{{{{{{{{ O****{{{{{{{{{{{{{{{{ O>iff{{{{{{{{{{{{{{{{{{{{{{",
"{{{{{{{{{{{{{{ O****{{{{{{{{{{{{{{{{ O*ifs{{{{{{{{{{{{{{{{{{{{{{",
"{{{{{{{{{{{{{{ O*>{{{{{{{{{{{{{{{{{{ O**>u{{{{{{{{{{{{{{{{{{{{{{",
"{{{{{{{{{{{{{{ o**{{{{{{{{{{{{{{{{{{ O**>*{{{{{{{{{{{{{{{{{{{{{{",
"{{{{{{{{{{{{{{@&**{{{{{{{{{{{{{{{{{{ O****{{{{{{{{{{{{{{{{{{{{{{",
"{{{{{{{{{{{{{{****{{{{{{{{{{{{{{{{{{ O****{{{{{{{{{{{{{{{{{{{{{{",
"{{{{{{{{{{{{{{****{{{{{{{{{{{{{{{{{{ o@***{{{{{{{{{{{{{{{{{{{{{{",
"{{{{{{{{{{{{{{****{{{{{{{{{{{{{{{{{{{{ O**{{{{{{{{{{{{{{{{{{{{{{",
"{{{{{{{{{{{{{{****{{{{{{{{{{{{{{{{{{{{ O**{{{{{{{{{{{{{{{{{{{{{{"
};
