/* XPM */
static char *result[] = {
/* columns rows colors chars-per-pixel */
"64 64 249 2 ",
"   c #1B121C",
".  c #1C121C",
"X  c #1D121C",
"o  c #1C131C",
"O  c #1E131C",
"+  c #1F131C",
"@  c #1F131D",
"#  c #1B161C",
"$  c #1F141D",
"%  c #1F161C",
"&  c #191A1A",
"*  c #181B1B",
"=  c #1B1A1B",
"-  c #1A1B1B",
";  c #1B1B1B",
":  c #1C1B1B",
">  c #1D1B1B",
",  c #1E1B1C",
"<  c #1F1B1C",
"1  c gray11",
"2  c #1E1E1E",
"3  c gray12",
"4  c #20141D",
"5  c #21141D",
"6  c #22151D",
"7  c #23151D",
"8  c #24161D",
"9  c #25161E",
"0  c #27161E",
"q  c #26171E",
"w  c #201B1C",
"e  c #211B1C",
"r  c #221B1C",
"t  c #261B1D",
"y  c #271B1D",
"u  c #221F1F",
"i  c #281B1D",
"p  c #291B1D",
"a  c #29181E",
"s  c #2A181E",
"d  c #291B1E",
"f  c #2C191F",
"g  c #2F1A1F",
"h  c #2F1C1D",
"j  c #301B1F",
"k  c #341C1F",
"l  c #321C20",
"z  c #331C20",
"x  c #351D20",
"c  c #361D20",
"v  c #351E20",
"b  c #351F20",
"n  c #361E20",
"m  c #361E21",
"M  c #371E21",
"N  c #361F21",
"B  c #381E20",
"V  c #381E21",
"C  c #381F21",
"Z  c #391F21",
"A  c #3A1F21",
"S  c #3D1C20",
"D  c #3D1C22",
"F  c #3E1C22",
"G  c #3E1C23",
"H  c #232323",
"J  c #272223",
"K  c gray14",
"L  c gray15",
"P  c #262727",
"I  c #272727",
"U  c #282727",
"Y  c #292727",
"T  c #2D2627",
"R  c #2F2726",
"E  c #2D2827",
"W  c gray16",
"Q  c #2C2C2C",
"!  c #332123",
"~  c #342526",
"^  c #382022",
"/  c #3B2122",
"(  c #3C2022",
")  c #3D2022",
"_  c #3D2122",
"`  c #3C2223",
"'  c #372728",
"]  c #382728",
"[  c #3C292A",
"{  c #35302B",
"}  c #343434",
"|  c #343535",
" . c #353535",
".. c #343636",
"X. c #3B3031",
"o. c #3B3232",
"O. c gray22",
"+. c gray23",
"@. c #3C3A3B",
"#. c gray24",
"$. c #3D3E3E",
"%. c #3E3E3E",
"&. c #421C23",
"*. c #451C23",
"=. c #461C24",
"-. c #4B1C22",
";. c #491C24",
":. c #4A1C24",
">. c #4F1C26",
",. c #501C26",
"<. c #511C26",
"1. c #541C26",
"2. c #541C27",
"3. c #551C27",
"4. c #561C27",
"5. c #571C27",
"6. c #581C27",
"7. c #591C27",
"8. c #5A1C27",
"9. c #5C1C27",
"0. c #5D1C28",
"q. c #5E1C28",
"w. c #621C28",
"e. c #661D28",
"r. c #6D1D29",
"t. c #701D27",
"y. c #701D29",
"u. c #731D29",
"i. c #771D2A",
"p. c #7B1E29",
"a. c #781D2A",
"s. c #791D2A",
"d. c #7C1E29",
"f. c #7D1E29",
"g. c #7E1E29",
"h. c #7E1E2A",
"j. c #412223",
"k. c #422223",
"l. c #442127",
"z. c #492524",
"x. c #4D2625",
"c. c #4E2725",
"v. c #512826",
"b. c #522826",
"n. c #552926",
"m. c #562927",
"M. c #582A27",
"N. c #592B27",
"B. c #5B2A27",
"V. c #5A2B27",
"C. c #522028",
"Z. c #512B28",
"A. c #572B28",
"S. c #5B2A28",
"D. c #5B2B28",
"F. c #5B2C28",
"G. c #5C2C28",
"H. c #5D2C28",
"J. c #5E2C28",
"K. c #4D312E",
"L. c #4D322F",
"P. c #4B3839",
"I. c #4F3A3B",
"U. c #693A2C",
"Y. c #713B26",
"T. c #79492C",
"R. c #811E2A",
"E. c #821E2A",
"W. c #831E2B",
"Q. c #841E2B",
"!. c #861E2B",
"~. c #871E2B",
"^. c #881E2B",
"/. c #891E2B",
"(. c #8A1E2B",
"). c #8B1E2B",
"_. c #8C1E2B",
"`. c #8D1E2B",
"'. c #971F2C",
"]. c #892129",
"[. c #8E2129",
"{. c #90212A",
"}. c #95202C",
"|. c #9B202D",
" X c #9E202D",
".X c #9F202D",
"XX c #A1202D",
"oX c #A3202D",
"OX c #A1252E",
"+X c #AA222D",
"@X c #AA212E",
"#X c #AC222E",
"$X c #B0222E",
"%X c #B2252F",
"&X c #BE232F",
"*X c #BD242F",
"=X c #B32731",
"-X c #B52731",
";X c #BF2330",
":X c #C12430",
">X c #C22430",
",X c #C32430",
"<X c #C42430",
"1X c #C52430",
"2X c #C62430",
"3X c #C82431",
"4X c #C92431",
"5X c #EC9417",
"6X c #FFA114",
"7X c #FFA214",
"8X c #FFA314",
"9X c #FFA415",
"0X c #FFA616",
"qX c #FFA716",
"wX c #FFA717",
"eX c #FFAA1B",
"rX c #FFAE19",
"tX c #FFAB1C",
"yX c #FFB31C",
"uX c #FFB71E",
"iX c #FFBA1E",
"pX c #FFBA1F",
"aX c #FFBC22",
"sX c #FFC021",
"dX c #FFC323",
"fX c #FFC423",
"gX c #FFC624",
"hX c #FFC728",
"jX c #FFCB28",
"kX c #F5C73E",
"lX c #FFCE3B",
"zX c #FFD435",
"xX c #FFD83C",
"cX c #B89844",
"vX c #CDAE47",
"bX c #F8CC40",
"nX c #FFD843",
"mX c #FFDB49",
"MX c #FFDE4A",
"NX c #FFE24F",
"BX c #FFE34F",
"VX c #FFEA55",
"CX c #FFEA56",
"ZX c #CCA483",
"AX c #DCB58F",
"SX c #DEB48F",
"DX c #F6CA9F",
"FX c #F8CBA0",
"GX c None",
/* pixels */
"GXGXGXGXGXGXGXGXGXGXGXGXGXGXGXGXGXGXGXGXGXGXGXGXGXGXGXGXGXGXGXGXGXGXGXGXGXGXGXGXGXGXGXGXGXGXGXGXGXGXGXGXGXGXGXGXGXGXGXGXGXGXGXGX",
"GXGXGXGXGXGXGXGXGXGXGXGXGXGXGXGXGXGXGXGXGXGXGXGXGXGXGXGXGXGXGXGXGXGXGXGXGXGXGXGXGXGXGXGXGXGXGXGXGXGXGXGXGXGXGXGXGXGXGXGXGXGXGXGX",
"GXGXGXGXGXGXGXGXGXGXGXGXGXGXGXGXGXGXGXGXGXGXGXGXGXGXGXGXGXGXGXGXGXGXGXGXGXGXGXGXGXGXGXGXGXGXGXGXGXGXGXGXGXGXGXGXGXGXGXGXGXGXGXGX",
"GXGXGXGXGXGXGXGXGXGXGXGXGXGXGXGXGXGXGXGXGXGXGXGXGXGXGXGXGXGXGXGXGXGXGXGXGXGXGXGXGXGXGXGXGXGXGXGXGXGXGXGXGXGXGXGXGXGXGXGXGXGXGXGX",
"GXGXGXGXGXGXGXGXGXGXGXGXGXGXGXGXGXGXGXGXGXGXGXGXGXGXGXGXGXGXGXGXGXGXGXGXGXGXGXGXGXGXGXGXGXGXGXGXGXGXGXGXGXGXGXGXGXGXGXGXGXGXGXGX",
"GXGXGXGXGXGXGXGXGXGXGXGXGXGXGXGXGXGXGXGXGXGXGXGXGXGXGXGXGXGXGXGXGXGXGXGXGXGXGXGXGXGXGXGXGXGXGXGXGXGXGXGXGXGXGXGXGXGXGXGXGXGXGXGX",
"GXGXGXGXGXGXGXGXGXGXGXGXGXGXGXGXGXGXGXGXGXGXGXGXGXGXGXGXGXGXGXGXGXGXGXGXGXGXGXGXGXGXGXGXGXGXGXGXGXGXGXGXGXGXGXGXGXGXGXGXGXGXGXGX",
"GXGXGXGXGXGXGXGXGXGXGXGXGXGXGXGXGXGXGXGXGXGXGXGXGXGXGXGXGXGXGXGXGXGXGXGXGXGXGXGXGXGXGXGXGXGXGXGXGXGXGXGXGXGXGXGXGXGXGXGXGXGXGXGX",
"GXGXGXGXGXGXGXGXGXGXGXGXGXGXGXGXGXGXGXGXGXGXGXGXGXGXGXGXGXGXGXGXGXGXGXGXGXGXGXGXGXGXGXGXGXGXGXGXGXGXGXGXGXGXGXGXGXGXGXGXGXGXGXGX",
"GXGXGXGXGXGXGXGXGXGXGXGXGXGXGXGXGXGXGXGXGXGXGXGXGXGXGXGXGXGXGXGXGXGXGXGXGXGXGXGXGXGXGXGXGXGXGXGXGXGXGXGXGXGXGXGXGXGXGXGXGXGXGXGX",
"GXGXGXGXGXGXGXGXGXGXGXGXGXGXGXGXGXGXGXGXGXGXGXGXGXGXGXGXGXGXGXGXGXGXGXGXGXGXGXGXGX7X7XGXGXGXGXGXGXGXGXGXGXGXGXGXGXGXGXGXGXGXGXGX",
"GXGXGXGXGXGXGXGXGXGXGXGXGXGXGXGXGXGXGXGXGXGXGXGXGXGXGXGXGXGXGXGXGXGXGXGXGXGXGXGXGX7X7XGXGXGXGXGXGXGXGXGXGXGXGXGXGXGXGXGXGXGXGXGX",
"GXGXGXGXGXGXGXGXGXGXGXGXGXGXGXGXGXGXGX/./.^. X<X<XGXGXGXGXGXGXGXGXGXGXGXGXGXGXGXGXGXGXGXGXGXGXGXGXGXGXGXGXGXGXGXGXGXGXGXGXGXGXGX",
"GXGXGXGXGXGXGXGXGXGXGXGXGXGXGXGXGXGXGX/./.^.|.&X,XGXGXGXGXGXGXGXGXGXGXGXGXGXGXGXGXGXGXGXGXGXGXGXGXGXGXGXGXGXGXGXGXGXGXGXGXGXGXGX",
"GXGXGXGXGXGXGXGXGXGXGXGXGXGXGXGXGX/././././._.'.;X1X<XGXGXGXGXGXGXGXGXGXGXGXGXGXGXGXGXGXGXGXGXGXGXGXGXGXGXGXGXGXGXGXGXGXGXGXGXGX",
"GXGXGXGXGXGXGXGXGXGXGXGXGXGXGXGXGX/./././.R.p.E.+X*X1XGXGXGXGXGXGXGXGXGXGXGXGXGXGXGXGXGXGXGXGXGXGXGXGXGXGXGXGXGXGXGXGXGXGXGXGXGX",
"GXGXGXGXGXGXGXGXGXGXGXGXGXGXGXGXGX/./././.-.t p h {.3XGXGXGXGXGXGXGXGXGXGX7X7XGXGXGXGXGXGXGXGXGXGXGXGXGXGXGXGXGXGXGXGXGXGXGXGXGX",
"GXGXGXGXGXGXGXGXGXGXGXGXGXGXGXGXGX/./.~.f.S * - - ].4XGXGXGXGXGXGXGXGXGXGX7X7XGXGXGXGXGXGXGXGXGXGXGXGXGXGXGXGXGXGXGXGXGXGXGXGXGX",
"GXGXGXGXGXGXGXGXGXGXGXGXGXGXGXGXGX/.(.f.k < ; ; : ].4XGXGXGXGXGXGXGXGXGXGX7X7X7XGXGXGXGXGXGXGXGXGXGXGXGXGXGXGXGXGXGXGXGXGXGXGXGX",
"GXGXGXGXGXGXGXGXGXGXGXGXGXGXGXGXGX!.(.d.y - ; ; : ].4XGXGXGXGXGXGXGXGXGXGX7X9X0XGXGXGXGXGXGXGXGXGXGXGXGXGXGXGXGXGXGXGXGXGXGXGXGX",
"GXGXGXGXGXGXGXGXGXGXGXGXGXGXGXGX5.a.).d.i - ; ; : ].4XGXGXGXGXGXGXGXGXGX7X6XrXsXqXGXGXGXGXGXGXGXGXGXGXGXGXGXGXGXGXGXGXGXGXGXGXGX",
"GXGXGXGXGXGXGXGXGXGXGXGXGXGXGXGX5.i.).d.i - ; ; : ].4XGXGXGXGXGXGXGXGXGX7X9XyXfXqXGXGXGXGXGXGXGXGXGXGXGXGXGXGXGXGXGXGXGXGXGXGXGX",
"GXGXGXGXGXGXGXGXGXGXGXGXGXGXGXGX5.i.).d.y - ; ; ; ].4XGXGXGXGXGXGXGXGXGX7XuXgXdXqXGXGXGXGXGXGXGXGXGXGXGXGXGXGXGXGXGXGXGXGXGXGXGX",
"GXGXGXGXGXGXGXGXGXGXGXGXGXGXGXGX5.u.~.f.k < ; > y [.3XGXGXGXGXGXGXGXGXGX7XpXjXhXwXGXGXGXGXGXGXGXGXGXGXGXGXGXGXGXGXGXGXGXGXGXGXGX",
"GXGXGXGXGXGXGXGXGXGXGXGXGXGXGX5.5.8.r.^.f.S * t t.#X2XGXGXGXGXGXGXGXGXGX7XiXzXMXeXGXGXGXGXGXGXGXGXGXGXGXGXGXGXGXGXGXGXGXGXGXGXGX",
"GXGXGXGXGXGXGXGXGXGXGXGXGXGXGX5.5.4.e.Q./.-.t k g.$X1XGXGXGXGXGXGXGXGXGX7XaXxXNXtXGXGXGXGXGXGXGXGXGXGXGXGXGXGXGXGXGXGXGXGXGXGXGX",
"GXGXGXGXGXGXGXGXGXGXGXGX; &.7.5.5.5.7.w.Q.R.d.f.^.$X1X<XGXGXGXGXGXGXGXGX8XlXVXBXtXGXGXGXGXGXGXGXGXGXGXGXGXGXGXGXGXGXGXGXGXGXGXGX",
"GXGXGXGXGXGXGXGXGXGXGXGX; D <.,.,.1.5.9.h.Q.!.(./.@X:X>XGXGXGXGXGXGXGXGX5XbXCXmXtXGXGXGXGXGXGXGXGXGXGXGXGXGXGXGXGXGXGXGXGXGXGXGX",
"GXGXGXGXGXGXGXGXGXGXGX; ; w r r r *.6.6.9.9.r././.`.oX-XI.GXGXGXGXGXGXGXY.vXnXtXGXGXGXGXGXGXGXGXGXGXGXGXGXGXGXGXGXGXGXGXGXGXGXGX",
"GXGXGXGXGXGXGXGXGXGXGX; ; ; ; ; ; D <.<.4.4.e.W.W.!..X=XP.GXGXGXGXGXGXGXG.cXkX7XGXGXGXGXGXGXGXGXGXGXGXGXGXGXGXGXGXGXGXGXGXGXGXGX",
"GXGXGXGXGXGXGXGXGXGXGX; ; ; ; ; ; w r d <.5.7.0.q.s.XX%X[ ..%.GXGXGXGXGXH.U.T.GXGXGXGXGXGXGXGXGXGXGXGXGXGXGXGXGXGXGXGXGXGXGXGXGX",
"GXGXGXGXGXGXGXGXGXGXGX; ; ; ; ; ; ; - e :.3.2.>.,.y.}.OX] | %.GXGXGXGXGXM.B.S.GXGXGXGXGXGXGXGXGXGXGXGXGXGXGXGXGXGXGXGXGXGXGXGXGX",
"GXGXGXGXGXGXGXGXGX; ; ; ; GXGX; ; ; ; : e =.=.r r ;.C.' Y  .%.#.#.GXGXA ) GXGXGXGXGXGXGXGXGXGXGXGXGXGXGXGXGXGXGXGXGXGXGXGXGXGXGX",
"GXGXGXGXGXGXGXGXGX; ; ; ; GXGX; ; ; ; ; ; F F ; ; G l.P I } +.+.#.GXGXZ Z GXGXGXGXGXGXGXGXGXGXGXGXGXGXGXGXGXGXGXGXGXGXGXGXGXGXGX",
"GXGXGXGXGXGXGXGXGX; ; ; ; GXGX; ; ; ; ; ; w w ; ; J T GXI W W Q +.$.o.Z B GXGXGXGXGXGXGXGXGXGXGXGXGXGXGXGXGXGXGXGXGXGXGXGXGXGXGX",
"GXGXGXGXGXGXGXGXGX; ; ; ; GXGX; ; ; ; ; ; ; ; ; 1 H I GXI I I W O.@.X.` K.GXGXGXGXGXGXGXGXGXGXGXGXGXGXGXGXGXGXGXGXGXGXGXGXGXGXGX",
"GXGXGXGXGXGXGXGX; ; ; ; GXGXGX; ; ; ; ; ; ; ; 1 K I I GXGXGXGXI W ~ ^ K.ZXGXGXGXGXGXGXGXGXGXGXGXGXGXGXGXGXGXGXGXGXGXGXGXGXGXGXGX",
"GXGXGXGXGXGXGXGX; ; ; ; GXGXGX; ; ; ; ; ; ; ; 1 L I I GXGXGXGXI I ! B L.SXGXGXGXGXGXGXGXGXGXGXGXGXGXGXGXGXGXGXGXGXGXGXGXGXGXGXGX",
"GXGXGXGXGXGXGXGX; ; ; ; GXGXGXGX; ; ; ; ; ; ; 1 L GXGXGXGXGXGXGXGXC Z ` GXGXGXGXGXGXGXGXGXGXGXGXGXGXGXGXGXGXGXGXGXGXGXGXGXGXGXGX",
"GXGXGXGXGXGXGXGX; ; ; ; GXGXGXGX; ; ; ; ; ; ; 2 L GXGXGXGXGXGXGXGXZ Z Z GXGXGXGXGXGXGXGXGXGXGXGXGXGXGXGXGXGXGXGXGXGXGXGXGXGXGXGX",
"GXGXGXGXGXGXGXGX; ; ; GXGXGXGXGX; ; ; ; ; ; 3 L I GXGXGXGXGXGXGXGXZ Z GXGXGXGXGXGXGXGXGXGXGXGXGXGXGXGXGXGXGXGXGXGXGXGXGXGXGXGXGX",
"GXGXGXGXGXGXGXGX; ; ; GXGXGXGXGX; ; ; ; ; ; 3 I I GXGXGXGXGXGXGXGXZ Z GXGXGXGXGXGXGXGXGXGXGXGXGXGXGXGXGXGXGXGXGXGXGXGXGXGXGXGXGX",
"GXGXGXGXGXGXGXGX& & & GXGXGXGXGX; ; ; ; ; ; 3 I I GXGXGXGXGXGXGXZ Z Z GXGXGXGXGXGXGXGXGXGXGXGXGXGXGXGXGXGXGXGXGXGXGXGXGXGXGXGXGX",
"GXGXGXGXGXGXGXGX{ { { GXGXGXGXGX= = = ; ; ; 3 U E GXGXGXGXGXGXGXZ Z Z GXGXGXGXGXGXGXGXGXGXGXGXGXGXGXGXGXGXGXGXGXGXGXGXGXGXGXGXGX",
"GXGXGXGXGXGXGXGXAXAXAXGXGXGXGX. o o # ; ; ; 3 E Z.F.H.GXGXGXGXGXZ GXGXGXGXGXGXGXGXGXGXGXGXGXGXGXGXGXGXGXGXGXGXGXGXGXGXGXGXGXGXGX",
"GXGXGXGXGXGXGXGXFXFXFXGXGXGXGX. . O % < < , u R A.J.H.GXGXGXGXGXZ GXGXGXGXGXGXGXGXGXGXGXGXGXGXGXGXGXGXGXGXGXGXGXGXGXGXGXGXGXGXGX",
"GXGXGXGXGXGXGXGXDXDXDXGXGXGXGX. . f n b b v N / N.H.H.GXGXGXGXGXGXGXGXGXGXGXGXGXGXGXGXGXGXGXGXGXGXGXGXGXGXGXGXGXGXGXGXGXGXGXGXGX",
"GXGXGXGXGXGXGXGXDXDXDXGXGXGXGX. @ j A Z Z Z Z ) n.G.H.GXGXGXGXGXGXGXGXGXGXGXGXGXGXGXGXGXGXGXGXGXGXGXGXGXGXGXGXGXGXGXGXGXGXGXGXGX",
"GXGXGXGXGXGXGXGXGXGXGXGXGX. . + l C Z Z Z Z Z A ) b.J.H.GXGXGXGXGXGXGXGXGXGXGXGXGXGXGXGXGXGXGXGXGXGXGXGXGXGXGXGXGXGXGXGXGXGXGXGX",
"GXGXGXGXGXGXGXGXGXGXGXGXGX. X 7 m Z Z Z Z M x n C x.D.H.GXGXGXGXGXGXGXGXGXGXGXGXGXGXGXGXGXGXGXGXGXGXGXGXGXGXGXGXGXGXGXGXGXGXGXGX",
"GXGXGXGXGXGXGXGXGXGXGXGX. . 9 n Z Z Z GXGX5 @ 6 m ( z.H.H.GXGXGXGXGXGXGXGXGXGXGXGXGXGXGXGXGXGXGXGXGXGXGXGXGXGXGXGXGXGXGXGXGXGXGX",
"GXGXGXGXGXGXGXGXGXGXGXGX.   q Z Z Z Z GXGX. . @ z x k.N.H.GXGXGXGXGXGXGXGXGXGXGXGXGXGXGXGXGXGXGXGXGXGXGXGXGXGXGXGXGXGXGXGXGXGXGX",
"GXGXGXGXGXGXGXGXGXGXGXGX.   q Z Z GXGXGXGXGXGXGX$ @ s j.N.GXGXGXGXGXGXGXGXGXGXGXGXGXGXGXGXGXGXGXGXGXGXGXGXGXGXGXGXGXGXGXGXGXGXGX",
"GXGXGXGXGXGXGXGXGXGXGXGX. O a Z Z GXGXGXGXGXGXGX.   8 A M.GXGXGXGXGXGXGXGXGXGXGXGXGXGXGXGXGXGXGXGXGXGXGXGXGXGXGXGXGXGXGXGXGXGXGX",
"GXGXGXGXGXGXGXGXGXGXGXGX. f M Z GXGXGXGXGXGXGXGXGX. X 0 m.J.H.GXGXGXGXGXGXGXGXGXGXGXGXGXGXGXGXGXGXGXGXGXGXGXGXGXGXGXGXGXGXGXGXGX",
"GXGXGXGXGXGXGXGXGXGXGXGX. g A Z GXGXGXGXGXGXGXGXGX.   7 v.G.H.GXGXGXGXGXGXGXGXGXGXGXGXGXGXGXGXGXGXGXGXGXGXGXGXGXGXGXGXGXGXGXGXGX",
"GXGXGXGXGXGXGXGXGXGXGXGX. g A Z GXGXGXGXGXGXGXGXGXGXGX4 Z b.J.GXGXGXGXGXGXGXGXGXGXGXGXGXGXGXGXGXGXGXGXGXGXGXGXGXGXGXGXGXGXGXGXGX",
"GXGXGXGXGXGXGXGXGXGXGXGX. g A Z GXGXGXGXGXGXGXGXGXGXGX$ x c.V.GXGXGXGXGXGXGXGXGXGXGXGXGXGXGXGXGXGXGXGXGXGXGXGXGXGXGXGXGXGXGXGXGX",
"GXGXGXGXGXGXGXGXGXGXGXGX. g A GXGXGXGXGXGXGXGXGXGXGXGX$ c ( _ GXGXGXGXGXGXGXGXGXGXGXGXGXGXGXGXGXGXGXGXGXGXGXGXGXGXGXGXGXGXGXGXGX",
"GXGXGXGXGXGXGXGXGXGXGXGX4 j A GXGXGXGXGXGXGXGXGXGXGXGX$ c Z Z GXGXGXGXGXGXGXGXGXGXGXGXGXGXGXGXGXGXGXGXGXGXGXGXGXGXGXGXGXGXGXGXGX",
"GXGXGXGXGXGXGXGXGXGXGXGXc V Z GXGXGXGXGXGXGXGXGXGXGXGX$ n Z Z GXGXGXGXGXGXGXGXGXGXGXGXGXGXGXGXGXGXGXGXGXGXGXGXGXGXGXGXGXGXGXGXGX",
"GXGXGXGXGXGXGXGXGXGXGXGXZ Z Z GXGXGXGXGXGXGXGXGXGXGXGX$ z C Z GXGXGXGXGXGXGXGXGXGXGXGXGXGXGXGXGXGXGXGXGXGXGXGXGXGXGXGXGXGXGXGXGX",
"GXGXGXGXGXGXGXGXGXGXGXGXZ Z Z GXGXGXGXGXGXGXGXGXGXGXGXGX$ j A GXGXGXGXGXGXGXGXGXGXGXGXGXGXGXGXGXGXGXGXGXGXGXGXGXGXGXGXGXGXGXGXGX",
"GXGXGXGXGXGXGXGXGXGXGXGXZ Z Z GXGXGXGXGXGXGXGXGXGXGXGXGX. g A GXGXGXGXGXGXGXGXGXGXGXGXGXGXGXGXGXGXGXGXGXGXGXGXGXGXGXGXGXGXGXGXGX"
};
