/* XPM */
static char *result[] = {
/* columns rows colors chars-per-pixel */
"64 64 91 1 ",
"  c #1C121C",
". c #171B1A",
"X c #1B1B1B",
"o c #24151D",
"O c #28171E",
"+ c #251B1D",
"@ c #2C1A1E",
"# c #341C1F",
"$ c #3B1D1F",
"% c #2E1E21",
"& c #351C20",
"* c #391F21",
"= c #262625",
"- c #2A2627",
"; c #2B2B2B",
": c #312325",
"> c #3B2123",
", c #3B2927",
"< c #3A282A",
"1 c #3B2F30",
"2 c #333333",
"3 c #3B3132",
"4 c #3D3D3D",
"5 c #451C22",
"6 c #4A1C24",
"7 c #561C27",
"8 c #5A1C26",
"9 c #5C1C28",
"0 c #621E25",
"q c #681D26",
"w c #631C28",
"e c #6C1D29",
"r c #701D27",
"t c #731D29",
"y c #7D1E2A",
"u c #432324",
"i c #4A2524",
"p c #4F2629",
"a c #552927",
"s c #5A2A27",
"d c #542B28",
"f c #5D2C28",
"g c #4F3330",
"h c #503330",
"j c #5B3E38",
"k c #632F26",
"l c #6D232B",
"z c #752026",
"x c #6B3C2C",
"c c #7E5332",
"v c #7E5D4F",
"b c #851E2B",
"n c #891E2B",
"m c #85262D",
"M c #8D202A",
"N c #9B202D",
"B c #8D2E35",
"V c #A2202D",
"C c #BB232F",
"Z c #B32732",
"A c #C52430",
"S c #C92430",
"D c #8F5D2E",
"F c #9C763A",
"G c #A57E3B",
"H c #876555",
"J c #DD8817",
"K c #FFA214",
"L c #FFAD19",
"P c #FFB21B",
"I c #FFB81E",
"U c #FFB824",
"Y c #EBB232",
"T c #FFC523",
"R c #FFC925",
"E c #FFC533",
"W c #FECC3C",
"Q c #FFD233",
"! c #FFD73A",
"~ c #FFDF46",
"^ c #FFDD4A",
"/ c #FFE148",
"( c #F7E356",
") c #FFE551",
"_ c #FFED58",
"` c #C9A684",
"' c #E1B791",
"] c #F6CA9F",
"[ c #F7CBA0",
"{ c #F9CCA1",
"} c None",
/* pixels */
"}}}}}}}}}}}}}}}}}}}}}}}}}}}}}}}}}}}}}}}}}}}}}}}}}}}}}}}}}}}}}}}}",
"}}}}}}}}}}}}}}}}}}}}}}}}}}}}}}}}}}}}}}}}}}}}}}}}}}}}}}}}}}}}}}}}",
"}}}}}}}}}}}}}}}}}}}}}}}}}}}}}}}}}}}}}}}}}}}}}}}}}}}}}}}}}}K}}}}}",
"}}}}}}}}}}}}}}}}}}}}}}}}}}}}}}}}}}}}}}}}}}}}}}}}}}}}}}}}}}KK}}}}",
"}}}}}}}}}}}}}}}}}}}}}}}}}}}}}}}}}}}}}}}}}}}}}}}}}}}}}}}}}}K}}}}}",
"}}}}}}}}}}}}}}}}}}}}}}}}nnnnnVAAAA}}}}}}}}}}}}}}}}}}}}}}}}}}}}}}",
"}}}}}}}}}}}}}}}}}}}}}}}nnnnnnNCCAA}}}}}}}}}}}}}}}}}}}}}}}}}}}}}}",
"}}}}}}}}}}}}}}}}}}}}}}nnnnnnnnnVAAAA}}}}}}}}}}}}}}}}}}}}}}}}}}}}",
"}}}}}}}}}}}}}}}}}}}}}}nnnnnbbbbNCCAA}}}}}}}}}}}}}}}}}}}}}}}}}}}}",
"}}}}}}}}}}}}}}}}}}}}}}nnnnnq@#@#$zAA}}}}}}}}}}}}}}}}K}}}}}}}}}}}",
"}}}}}}}}}}}}}}}}}}}}}}nnnnn0XXXX.8AA}}}}}}}}}}}}}}}}KK}}}}}}}}}}",
"}}}}}}}}}}}}}}}}}}}}}}nnnr6#XXXX.lAA}}}}}}}}}}}}}}}}KKK}}}}}}}}}",
"}}}}}}}}}}}}}}}}}}}}}}nnn0..XXXX.8AA}}}}}}}}}}}}}}}}KKKK}}}}}}}}",
"}}}}}}}}}}}}}}}}}}}}}ynnn8XXXXXX.0AA}}}}}}}}}}}}}}}KKLLL}}}}}}}}",
"}}}}}}}}}}}}}}}}}}}}7ennn0.XXXXX.8AA}}}}}}}}}}}}}}KKKPRIKK}}}}}}",
"}}}}}}}}}}}}}}}}}}}}7ennn8XXXXXX.lAA}}}}}}}}}}}}}}KKKPRIKK}}}}}}",
"}}}}}}}}}}}}}}}}}}}}7ennM0XXXXXX.sAA}}}}}}}}}}}}}}KPTTRIKK}}}}}}",
"}}}}}}}}}}}}}}}}}}}}7ennn8XXXXXX.lAA}}}}}}}}}}}}}}KPRRRIKK}}}}}}",
"}}}}}}}}}}}}}}}}}}7779wtnyq6XXX$wnAA}}}}}}}}}}}}}}KPTQ/EKK}}}}}}",
"}}}}}}}}}}}}}}}}}}77777ennn8XX.5nVAA}}}}}}}}}}}}}}KLT!_WKK}}}}}}",
"}}}}}}}}}}}}}}}}}777777wtynt666wnVAA}}}}}}}}}}}}}}KU!~_WKK}}}}}}",
"}}}}}}}}}}}}}}X#977779777ennnnnnnVAAAA}}}}}}}}}}}}KE___WKK}}}}}}",
"}}}}}}}}}}}}}XX#666667777qybbbnnnNCCAZ}}}}}}}}}}}}JY_)^WK}}}}}}}",
"}}}}}}}}}}}}XXXX+X+XX&9777777qnnnnnVSB44}}}}}}}}}}kG_WKK}}}}}}}}",
"}}}}}}}}}}}}XXXXXXXXX%7777777ennbnnVAB44}}}}}}}}}}sF(WKK}}}}}}}}",
"}}}}}}}}}}}}XXXXXXXXX++++&7777w9wrnVAm;24}}}}}}}}}fxcD}}}}}}}}}}",
"}}}}}}}}}}}}XXXXXXXXXXXXX&7777777enVAm=;44}}}}}}}}ffss}}}}}}}}}}",
"}}}}}}}}}}XXXXXX}XXXXXXXXO&576&&#6eelp-244444}}}*uii}}}}}}}}}}}}",
"}}}}}}}}}}XXXXXX}}XXXXXXXXX#75XXX%75-==2444444}}****}}}}}}}}}}}}",
"}}}}}}}}}}XXXXXX}}XXXXXXXXX@5&XXX%6<-==;422444}<****}}}}}}}}}}}}",
"}}}}}}}}}}XXXXXX}}XXXXXXXXXXXXXXX=-=}};==;=24443>>*#}}}}}}}}}}}}",
"}}}}}}}}}}XXXXXX}}XXXXXXXXXXXXXXXX-;}}====-;4441*uhg}}}}}}}}}}}}",
"}}}}}}}}XXXXXX}}}}XXXXXXXXXXXX.===-=}}}}}}-;=;>>*v''}}}}}}}}}}}}",
"}}}}}}}}XXXXXX}}}}XXXXXXXXXXXX.X=;;=}}}}}}==-:**#H[[}}}}}}}}}}}}",
"}}}}}}}}XXXXXX}}}}}XXXXXXXXXXXX===}}}}}}}}}}}:***j}}}}}}}}}}}}}}",
"}}}}}}}}XXXXXX}}}}}}XX.+XXXXXXXX=;}}}}}}}}}}}}***#}}}}}}}}}}}}}}",
"}}}}}}}}XXXXX}}}}}}}XXXXXXXXXX==-;}}}}}}}}}}}}***}}}}}}}}}}}}}}}",
"}}}}}}}}XXXX}}}}}}}}XXXXXXXXXX=--=}}}}}}}}}}}}**}}}}}}}}}}}}}}}}",
"}}}}}}}}XXXX}}}}}}}}XXXXXXXXX=====}}}}}}}}}}}***}}}}}}}}}}}}}}}}",
"}}}}}}}}XXXX}}}}}}}}XXXXXXXXXX;==;}}}}}}}}}}****}}}}}}}}}}}}}}}}",
"}}}}}}}}==%=}}}}}}}}XXXXXXXXX==;=;}}}}}}}}}}****}}}}}}}}}}}}}}}}",
"}}}}}}}}````}}}}}}     XXXXXXX=,ddf}}}}}}}}}**}}}}}}}}}}}}}}}}}}",
"}}}}}}}}{{{{}}}}}}     XXXXXX==,ffff}}}}}}}}>>}}}}}}}}}}}}}}}}}}",
"}}}}}}}}]]]]}}}}}}   oO#%@@@%%%uffff}}}}}}}}}}}}}}}}}}}}}}}}}}}}",
"}}}}}}}}]]]]}}}}}}   O*********uffff}}}}}}}}}}}}}}}}}}}}}}}}}}}}",
"}}}}}}}}]]]}}}}}}  oo%*********udsff}}}}}}}}}}}}}}}}}}}}}}}}}}}}",
"}}}}}}}}}}}}}}}}   O*************iffff}}}}}}}}}}}}}}}}}}}}}}}}}}",
"}}}}}}}}}}}}}}}}  oO********#****ussff}}}}}}}}}}}}}}}}}}}}}}}}}}",
"}}}}}}}}}}}}}}   o$*****}}}} o O*>>iffff}}}}}}}}}}}}}}}}}}}}}}}}",
"}}}}}}}}}}}}}}   O>*****}}}}   O**$uffff}}}}}}}}}}}}}}}}}}}}}}}}",
"}}}}}}}}}}}}}}   O>***}}}}}}}}}oooo#uiff}}}}}}}}}}}}}}}}}}}}}}}}",
"}}}}}}}}}}}}}}   o****}}}}}}}}}}   O>iff}}}}}}}}}}}}}}}}}}}}}}}}",
"}}}}}}}}}}}}}} oO@>**}}}}}}}}}}}   oOuff}}}}}}}}}}}}}}}}}}}}}}}}",
"}}}}}}}}}}}}}} o****}}}}}}}}}}}}}}   *ffff}}}}}}}}}}}}}}}}}}}}}}",
"}}}}}}}}}}}}}} O****}}}}}}}}}}}}}}   #asff}}}}}}}}}}}}}}}}}}}}}}",
"}}}}}}}}}}}}}} O****}}}}}}}}}}}}}}}} O>iff}}}}}}}}}}}}}}}}}}}}}}",
"}}}}}}}}}}}}}} O****}}}}}}}}}}}}}}}} O*isf}}}}}}}}}}}}}}}}}}}}}}",
"}}}}}}}}}}}}}} O*>}}}}}}}}}}}}}}}}}} O**u>}}}}}}}}}}}}}}}}}}}}}}",
"}}}}}}}}}}}}}} o**}}}}}}}}}}}}}}}}}} O****}}}}}}}}}}}}}}}}}}}}}}",
"}}}}}}}}}}}}}}@&**}}}}}}}}}}}}}}}}}} O**>*}}}}}}}}}}}}}}}}}}}}}}",
"}}}}}}}}}}}}}}****}}}}}}}}}}}}}}}}}} O****}}}}}}}}}}}}}}}}}}}}}}",
"}}}}}}}}}}}}}}****}}}}}}}}}}}}}}}}}} o@***}}}}}}}}}}}}}}}}}}}}}}",
"}}}}}}}}}}}}}}****}}}}}}}}}}}}}}}}}}}} O**}}}}}}}}}}}}}}}}}}}}}}",
"}}}}}}}}}}}}}}****}}}}}}}}}}}}}}}}}}}} O**}}}}}}}}}}}}}}}}}}}}}}"
};
