/* XPM */
static char *result[] = {
/* columns rows colors chars-per-pixel */
"64 64 31 1 ",
"  c #130E10",
". c #140F12",
"X c #151113",
"o c #171315",
"O c #171416",
"+ c #181416",
"@ c #191517",
"# c #1B1517",
"$ c #1A1719",
"% c #1D191B",
"& c #1E181A",
"* c #1F191B",
"= c #201A1C",
"- c #221C1E",
"; c #221D1F",
": c #231F21",
"> c #241E20",
", c #241F21",
"< c #262123",
"1 c #272325",
"2 c #282224",
"3 c #292527",
"4 c #2A2628",
"5 c #2C282A",
"6 c #2E2A2C",
"7 c #2F2B2D",
"8 c #322E30",
"9 c #343032",
"0 c #353133",
"q c #363234",
"w c #373335",
/* pixels */
"445-,<<<<,-655554456--544444444444445-,,,<<<<2$%%%%%$$%%%%%%$<-5",
"445-<O$$O<,----*55*-,-544444444444445-,,<O$$$$%%%%%$22$%%%%%$<-5",
"556-<$%%$<,,,,-*55*--*545555555554445><<2$%%%%%%%%$O22$%%%%%$2>5",
"---,<$%%$<,,,-6544555545.@@@@@@@.5445o$$$%%%%%%%%$22O$%%%%%%%$o5",
"---,<$%%$<,==&3111444445.@%%%@@@.5445.@%%@@@@@%%@o<<$%%%%%%%%%@7",
"556-<$%%$<=w00999w14444457@%@7555444457@@75557@@76-<$%%%%%%%%%%@",
"445>2$%%$2;w00000q35444445@%@5444111114@@54445..55-<$%@@@@@%%%%%",
"445o$%%%%$O;======-*544445@%@5441w99990+@544445545-<$@75557@%%%%",
"445@%%%%%%$<,,,,,,,-544445@%@5441988889+@544444445-<$@54445@%%%%",
"445@%@@@@%$2<<----<>544457@%@544109999w+@544554445-<Oo65556@%%%%",
"445@@7557@%$$o6556oo5445.@%%@5445X+++++%@545**5445-,<<---->$%%%%",
"414@@5445.@%%@5457@@5445.@%%@5445@%%%@@@.656**5445*-----<<2$%++@",
"1w0+@544457@%@55.@%@544457@%@5445@%%@7556*-*654444555556o$$%+w04",
":99+@544445.@.66@%@.654445@%@5445@%%@5445*-*544444444457.@@+ 993",
"989+@544444556*>$@76**5445@%@5445@%%@54445554444444445..7540980&",
"00q+@755544445>2o.55--5445@%@7557@%%@54444444455554445XX41:989q=",
"==;$%@o>*54445oo7545--5445@%%@@@@%%%@544444445.@@.54410999989:3-",
"-->o@$O2>54445@@5413--5445@%%%%%%%%%@755555557@%%@5441q09999w15*",
"55556>2Oo54445@@51wq=-5445@%%%%%%%%%%@@@@@@@@@%%%@5445&&31111445",
"44445-<Oo54445..5190;>6557@%%$$$$$$$$$$$$%%%%%%%@.5456>>54444444",
"44445-,<>54444554199o$@@@@%%$2<<<<<<<<<<2$%%%%%@7545*>Oo54444444",
"41113*--*54444111:99+%%%$$$$O<,,,,,,,,,,<$%%%%+X5445-<o.75555444",
"1w99w355544441w99989+%%$2<<<<,,,,,,,,,,,<$%%%+w01445--67.@o>*544",
"19889144444441988889+%%$<,,,,,,,,,,,,,,,<$%%%+991445--55@%$<-544",
":989w14445555309999w+%+o<,,,,,,,,,,,,,,,<$%%%+w04513--55@%$2>544",
"989:14445*--->o+++++%+wq=,,,,,,,,,,,,,,,<$%%%%++@X0q=-55@%%$o544",
"00q144456-,<<2$%%%%%%+90#=,,,,,,,<<<<<<<2$%%%%$$%+wq&*55.@@%@754",
"==&5445*-,<O$$%%%%%%%+980w=,,,,,<O$$$$$$$%%%%$22$%+X6544557@%@.5",
",,-5445*-,<$%%%%%%$$$oq00w#==,,,<$%@@@@@@@@@@o>>o@%@7544556o$%@5",
",,-544456-<$%%%%%$2<<<===#w0w=,,<$@755555555555557@%@.55*--<2$@5",
",<>655556-<$%%%%%$<,,,,,,=w0w=,,<Oo544444444555545.@%@76-,,,<$@5",
"<O$@@@o>-,<$%%%%%$<,,,,,,,===,,,,<>544444445*--*5457@%@o<,,,<$@5",
"<$%%%%$2<<2O$$%%%$<,,,,,=======--,-544444445-,,-6556o$%$>--->o.6",
"<$%%%%%$$$O2<2$%%$<,,,,=w00000q36--544444445-,,,----<2$@6555556*",
"<$%%%%%%%%$2<2O$%$2<<<<;w09998915--655544445*-,,<<<<<2o.5444445-",
"<$%%%%%%%%%$$O22$%$$$$$O;&31:9915-,---*5444456-<O$$$$o754444445-",
"2$%%%%%%%%%%%$22$%%%%%%$<-541ww15*----*5455556>2$%%%%@544445545>",
"$%%%%%%%%%%%%%$$%%%%%%%$<-544114455555545*->o@$$%%%%%@54445**55o",
"%%%%%%%%%%%%%%%%%%%%%%%$<-544444444444445-,<$%%%%%%%%@54445--55@",
"%%%%%%%@@@@@@@%%%%%%%%%$<-655555544444445><2$%%%@@@@@.54556>>67@",
"%%%%%%@7555557@%%%%%%%%$<,------*54444445o$$%%%@75555545*->O$@@%",
"%%%$$$o6555556o$@@%%%%%$<,-----,-65445557.@@@@%@75444445-,<O$$$@",
"%%$2<<<-------<>67@%%%%$<-65556-,-*55.@@.75557@%@.544445-,,<<<>6",
"$%$2<,,,,-----,-55.@@@%$2>54445-,,-67@%@.54445.@%@754445*-----*5",
"2$%$O<,,-65556--545557@%$o54445-,,<o@%@754444457@%@.544455555554",
"<$%%$<,,-54445--655557@%%@54445-,<2$%@.544444445.@%@655544444444",
"<$%%$<,,-54445-<o@@@@@%%%@54445-<O$%@7544444444457@$>--*54444444",
"<O$%$2<<>65556-<O$%%%%%%%@75556-<$%@.5411555444445Xo<,<>54411111",
",<2$%$$$$@o>--,,<2$%%%%%%%@@o>-,<$@7541wq&-*5444410q=<Oo541w9999",
",<2$%%%%%%$2<<<<<2$%%%%%%%%%$>-->$@411:qw=,-54444190=<$@541w9990",
"<O$%%%%%%%%$$$$$$$%%%%%%%%%%@6556@+099q#=,,-54444190=<$@5441113&",
"<O$%%%%%%%%%%%%%%%%%%%$$%%%%@5445ooq00w=,,,-54111:90;2$@7555556-",
",<2$%%%%%%%%%%%%%%%%%$22$%%%@5445><====,,,,-51w99989o$%%@@@@o>-,",
",,<$%%%%%%%%%%%%%%%%%$<<$%%%@5445-,,,,,,,,,-51988889+%%%%%%%$<,,",
",,<$%@@%%%%%%%%%%%%%%$22$%@@.5445><,,,,,,<<>6409999w+%$$$$$$O>--",
",,<$@77@%%%%%%%%%%%%%%$$%@7554445oO<,,,,<O$$@@++++++%$2<<<<<>655",
",,<Oo55.@%%$$$%%%%$$$$$$$o5445557@$>---->o@@$$$$$$%%%$2<<<<-*655",
",,,<>5457@$2<2$%%$2<<<<<<>545.@@@%@655555556><<<<2$%%%$$$$o66*--",
",---*5456oO2<2$%%$2<,,,,<>657.@@@@.545544445*-,,,<O$%%%%@@.55-,,",
"-655545*-<2O$$%%%%$O<,,<O$@@.75555545**5444456-,,,<2$%%@75545-,,",
"-544445-,,<$%%%%%%%$2<<2o+@@.54445556**5444445*---->O$$o54445-,,",
"-544445-,,<$%%%%%%%%$$$ow04554445*--*654444444555556><<>54445-,,",
"*545556><<2o++++++%%$$$o0w:111145-,-*544444444444445*-,-65556*--",
"545*-->O$$ow99999w+$2<<>3:w999w15--6544444444444444456-,----*655"
};
