/* XPM */
static char *f92d64ea1ebd4d83da2a83ef14f67fe2KRSZmlqDOpWvsWU4[] = {
/* columns rows colors chars-per-pixel */
"64 64 64 1 ",
"  c #010000",
". c #020708",
"X c #030B0C",
"o c #0C0C0C",
"O c #020E10",
"+ c #051215",
"@ c #061518",
"# c #07191C",
"$ c #081B1F",
"% c #141414",
"& c #1D1D1D",
"* c #091F23",
"= c #092125",
"- c #0B252A",
"; c #0B282E",
": c #0D2E34",
"> c #0E333A",
", c #0F383F",
"< c #10373F",
"1 c #11383F",
"2 c #19383E",
"3 c #252525",
"4 c #2C2B2B",
"5 c #2F3030",
"6 c gray21",
"7 c #333B3D",
"8 c #3C3C3C",
"9 c #113B43",
"0 c #13424B",
"q c #144751",
"w c None",
"e c #164F59",
"r c #17505B",
"t c #18535E",
"y c #185560",
"u c #444444",
"i c #494A4A",
"p c #4F5050",
"a c #565757",
"s c #5E5E5E",
"d c #646464",
"f c #767676",
"g c #7B7B7B",
"h c #848585",
"j c #8B8C8C",
"k c #919191",
"l c #9F9F9F",
"z c #9FA0A0",
"x c #A4A5A5",
"c c #ACACAC",
"v c #B1B1B1",
"b c #BABBBB",
"n c #BFC0C0",
"m c #C2C3C3",
"M c #C7C8C8",
"N c #CCCDCD",
"B c #D3D4D4",
"V c #D7D8D8",
"C c #DBDCDC",
"Z c #E3E3E3",
"A c #E7E8E8",
"S c #EDEEEE",
"D c #F3F3F3",
"F c #FCFCFC",
/* pixels */
"wwwwwwwwwwwwwwwwwwwwwwwwwwwwwwwwwwwwwwwwwwwwwwwwwwwwwwwwwwwwwwww",
"wwwwwwwwwwwwwwwwwwwwwwwwwwwwwwwwwwwwwwwwwwwwwwwwwwwwwwwwwwwwwwww",
"wwwwwwwwwwwwwwwwwwwwwwwwwwwwwwwwwwwwwwwwwwwwwwwwwwwwwwwwwwwwwwww",
"wwwwwwwwwwwwwwwwwwwwwwwwwwwwwwwwwwwwwwwwwwwwwwwwwwwwwwwwwwwwwwww",
"wwwwwwwwwwwwwwwwwwwwwwwwwwwwwwwwwwwwwwwwwwwwwwwwwwwwwwwwwwwwwwww",
"wwwwwwwwwwwwwwwwwwwwwwwqqwwwwwwwwwwwwwqwwwwwwwwwwwwwwwwwwwwwwwww",
"wwwwwwwwwwwwwwwwwwwwweerrwreewreeewreeeeewwwwwwwwwwwwwwwwwwwwwww",
"wwwwwwwwwwwwwwwwwwwww<><>>>>>>>>>>>>>>>>>9wwwwwwwwwwwwwwwwwwwwww",
"wwwwwwwwwwwwwwwwwwwwwX                   +ewwwwwwwwwwwwwwwwwwwww",
"wwwwwwwwwwwwwwwwwweer                    Oywewwwwwwwwwwwwwwwwwww",
"wwwwwwwwwwwwwwwww0<29788888888888888888887,<9qwwwwwwwwwwwwwewwww",
"wwwwwwwwwwwwwwwwe>   VFFFFFFFFFFFFFFFFFFFb   9wwwwwwwwwwwwwwwwww",
"wwwwwwwwwwwwwweet1   MFSDDSDSSDSDDDSSDDSFc   9reewwwwwwwwwwwwwww",
"wwwwwwwwwwwwww9999453BFDDDDDDDDDDDDDDDDSFb3449990wwwwwwwwwwwwwww",
"wwwwwwwwwwwwwe@  uFDFDDDDDDDDDDDDDDDDDDDDDFFF3  *rwwwwwwwwwwwwww",
"wwwwwwwwwwwwwe@  uFSDDDDDDDDDDDDDDDDDDDDDDDDF3  =ewwwwwwwwwwwwww",
"wwwwwwwwwwwwwr@  uFDDDDDDDDDDDDDDDDDDDDDDDDDF3  *rwwwwwwwwwwwwww",
"wwwwwwwwwwwwqr@  uFDDDDDDSDDDDDDDDDDDDDDDDDSD3  *rwwwwwwwwwwwwww",
"wwwwwwwwwwwwqr@  uFSDDDDDFFFDDDDDDDFFDDDDDDDF3  *rwwwwwwwwwwwwww",
"wwwwwwwwwwwwwr@  uFDDDDDSCCZDDDDDDDCZZDDDDDDF3  *rqwwwwwwwwwwwww",
"wwwwwwwwwwwwqr@  uFDDDSFk o%ADDDSFN o vFSDDDF3  *rqwwwwwwwwwwwww",
"wwwwwwwwwwwwwr@  uFSDDDFj  .ADDDDFN   vFDDDDF3  *rqwwwwwwwwwwwww",
"wwwwwwwwwwwwwr@  uFDDDSFk o%AFDDDFB o vFSDDDD3  =rwwwwwwwwwwwwww",
"wwwwwwwwwwwwqr@  uFDDDDDSCCCDDDDDDDCCZSDDDDDF3  *rwwwwwwwwwwwwww",
"wwwwwwwwwwwwwr@  uFDDDDDDFDFDDDDDDDFDFDDDDDDD3  =rwwwwwwwwwwwwww",
"wwwwwwwwwwwwqr@  uFSDDDDDDDDDDDDDDDDDDDDDDDDF3  =rwwwwwwwwwwwwww",
"wwwwwwwwwwwwqr@  uFDDDDDDDDDDDDDDDDDDDDDDDDDF3  *rwwwwwwwwwwwwww",
"wwwwwwwwwwwwwr@  uFSDDDDDDDDDDDDDDDDDDDDDDDDD3  *rwwwwwwwwwwwwww",
"wwwwwwwwwwwwwe@  uFDDDDDDDDDDDDDDDDDDDDDDDDDF3  *rwwwwwwwwwwwwww",
"wwwwwwwwwwwwwe@  uFDDDDDDDDDDDDDDDDDDDDDDDDSD3  *rqwwwwwwwwwwwww",
"wwwwwwwwwwwwwe@  uFSDDDDDDDDDDDDDDDDDDDDDDDDF3  =rqwwwwwwwwwwwww",
"wwwwwwewwwwwwe@  uFDDDDDDDDDDDDDDDDDDDDDDDDDF3  =rwwwwwwwwwwwwww",
"wwwwwwwwwwwwqr@  uFDDDDDDDDDDDDDDDDDDDDDDDDSF3  *rwwwwwwwwwwwwww",
"wwwwwwwwwwwwwr@  uFSDDDDDDDDDDDDDDDDDDDDDDDDF3  *rwwwwwwwwwwwwww",
"wwwwwwwwwwwwwr@  uFDDDDDDDDDDDDDDDDDDDDDDDDDD3  *rwwwwwwwwwwwwww",
"wwwwwwwwwwwwqr@  uFSDDDDDDDDDDDDDDDDDDDDDDDDF3  *rqwwwwwwwwwwwww",
"wwwwwwwwwwwwwr@  uFDDDDDDDDDDDDDDDDDDDDDDDDDF3  *rwwwwwwwwwwwwww",
"wwwwwwwwwwwwqr@  uFDDDDDDDDDDDDDDDDDDDDDDDFDF3  *rqwwwwwwwwwwwww",
"wwwwwwwwwwwwqr@  8AVVDDDDFDDDDDDDDDDDDDDDSVVC3  *rwwwwwwwwwwwwww",
"wwwwwwwwwwwwwr@  6BmmSDDDDDDDDDDDDDDDDDDDZmmM&  =rwwwwwwwwwwwwww",
"wwwwwwwwwwwwwe@  8SVVDDDDDDDDDDDDDDDDDDFDSCCZ3  *rwwwwwwwwwwwwww",
"wwwwwwwwwwwwwr@  &ddsNZCZFDDDDDDDDDDDDZCAbaddo  *ewwwwwwwwwwwwww",
"wwwwwwwwwwwwwe@      xNmVDDDDDDDDDDDDDBbBj      =rwwwwwwwwwwwwww",
"wwwwwwwwwwwwwrO    . bZVZFDDDDDDDDDDDFZVZl ..   $rwwwwwwwwwwwwww",
"wwwwwwwwwwwwww:*-#   sfdlAZZDDDDDDSZCSjdfa   *-*>rwwwwwwwwwwwwww",
"wwwwwwwwwwwwwwert9      iVbMDDDDSFSmnB4      0trwwwwwwwwwwwwwwww",
"wwwwwwwwwwwwwwwqe>   .X sSBVDDDDFFSVVAu .    9wwwwwwwwwwwwwwwwww",
"wwwwwwwwwwwwwwwww9#$*   6jfhZAZZCABggh3  .*$*0wwwwwwwwwwwwwwwwww",
"wwwwwwwwwwwewwwwwwrerO      bMmMmNx      #yrrwwwwwwwwwwwwwwwwwww",
"wwwwwwwwwwwwwwwwwwwqwX   . oBCBVBZb ..   +wqwwwwwwwwwwwwwwwwwwww",
"wwwwwwwwwwwwwwwwwwwww*@#O  .hjjjjkf   +#+-rwwwwwwwwwwwwwwwwwwwww",
"wwwwwwwwwwwwwwwwwwwwweey:             9teewwwwwwwwwwwwwwwwwwwwww",
"wwwwwwwwwwwwwwwwwwwwwwqr;         .   >eqwwwwwwwwwwwwwwwwwwwwwww",
"wwwwwwwwwwwwwwwwwwwwwwwe>o+++++X   ++X9ewwwwwwwwwwwwwwwwwwwwwwww",
"wwwwwwwwwwwwwwwwwwwwwwwwweeewwy=  Xrwrwwwwwwwwwwwwwwwwwwwwwwwwww",
"wwwwwwwwwwwwwwwwwwwwwwwwwwwwwwr*  Xwwwwwwwwwwwwwwwwwwwwwwwwwwwww",
"wwwwwwwwwwwwwwwwwwwwwwwwwwwwwwr;XX@ewwwwwwwwwwwwwwwwwwwwwwwwwwww",
"wwwwwwwwwwwwwwwwwwwwwwwwwwwwwwwwewwwwwwwwwwwwwwwwwwwwwwwwwwwwwww",
"wwwwwwwwwwwwwwwwwwwwwwwwwwwwwwwwwwwwwwwwwwwwwwwwwwwwwwwwwwwwwwww",
"wwwwwwwwwwwwwwwwwwwwwwwwwwwwwwwwwwwwwwwwwwwwwwwwwwwwwwwwwwwwwwww",
"wwwwwwwwwwwwwwwwwwwwwwwwwwwwwwwwwwwwwwwwwwwwwwwwwwwwwwwwwwwwwwww",
"wwwwwwwwwwwwwwwwwwwwwwwwwwwwwwwwwwwwwwwwwwwwwwwewwwwwwwwwwwwwwww",
"wwwwwwwwwwwwwwwwwwwwwwwwwwwwwwwwwwwwwwwwwwwwwwwwwwwwwwwwwwwwwwww",
"wwwewwwwwwwwwwwwwwwwwwwwwwwwwwwwwwwwwwwwwwwwwwwwwwwwwwwwwwwwwwww"
};
