/* XPM */
static char *result[] = {
/* columns rows colors chars-per-pixel */
"64 64 160 2 ",
"   c black",
".  c #060000",
"X  c #090000",
"o  c #0A0000",
"O  c #0C0000",
"+  c #0D0000",
"@  c #0E0000",
"#  c #0E0400",
"$  c #0D0800",
"%  c #0E0B00",
"&  c #0F0C00",
"*  c #0F0D00",
"=  c #0F0E04",
"-  c #130000",
";  c #100800",
":  c #100D00",
">  c #110F00",
",  c #100E06",
"<  c #0E100D",
"1  c #161200",
"2  c #12110D",
"3  c #12120D",
"4  c #1C170E",
"5  c #1A0E1E",
"6  c #131310",
"7  c #141412",
"8  c #131515",
"9  c #141514",
"0  c #141617",
"q  c #141717",
"w  c #161817",
"e  c #1E1B16",
"r  c #141718",
"t  c #161818",
"y  c #161819",
"u  c #171A1B",
"i  c #171B1C",
"p  c #1F1D19",
"a  c #191C1E",
"s  c #21201E",
"d  c #1A1324",
"f  c #1D1724",
"g  c #1A1E21",
"h  c #1B2023",
"j  c #212120",
"k  c #222528",
"l  c #24272B",
"z  c #20212E",
"x  c #21222E",
"c  c #26292C",
"v  c #212430",
"b  c #212431",
"n  c #232834",
"m  c #232B35",
"M  c #242936",
"N  c #242A36",
"B  c #292E30",
"V  c #2B2F35",
"C  c #282F36",
"Z  c #262C39",
"A  c #272E3C",
"S  c #2B3036",
"D  c #2B3037",
"F  c #2D3239",
"G  c #2D333A",
"H  c #2E343B",
"J  c #28303E",
"K  c #2E343C",
"L  c #2D353F",
"P  c #30353D",
"I  c #32383E",
"U  c #2E3741",
"Y  c #2F3742",
"T  c #2F3745",
"R  c #2F3843",
"E  c #2F3946",
"W  c #373942",
"Q  c #303A45",
"!  c #343C45",
"~  c #353D46",
"^  c #363E47",
"/  c #323C48",
"(  c #333D4A",
")  c #373E48",
"_  c #363F48",
"`  c #353F4C",
"'  c #363F4F",
"]  c #3B3D49",
"[  c #33434B",
"{  c #37404A",
"}  c #35404D",
"|  c #36414E",
" . c #36414F",
".. c #364150",
"X. c #384453",
"o. c #394453",
"O. c #394554",
"+. c #3B4858",
"@. c #3B4859",
"#. c #3C4959",
"$. c #3C495A",
"%. c #3E495A",
"&. c #3F495B",
"*. c #3C4A5A",
"=. c #395059",
"-. c #39505A",
";. c #3B525D",
":. c #3B535E",
">. c #3F4E60",
",. c #3C5560",
"<. c #3D5662",
"1. c #3D5762",
"2. c #3E5763",
"3. c #3E5863",
"4. c #414C60",
"5. c #405B66",
"6. c #4A5C74",
"7. c #56687E",
"8. c #566B87",
"9. c #586B81",
"0. c #5A6C83",
"q. c #5A6D84",
"w. c #5B6E85",
"e. c #5C6E86",
"r. c #5C6F86",
"t. c #5F728B",
"y. c #5F7695",
"u. c #61758E",
"i. c #637690",
"p. c #607897",
"a. c #607898",
"s. c #607998",
"d. c #617998",
"f. c #617999",
"g. c #627A9A",
"h. c #627B9A",
"j. c #637B9B",
"k. c #637C9C",
"l. c #647D9D",
"z. c #647D9E",
"x. c #657F9F",
"c. c #5C8EA5",
"v. c #5D90A7",
"b. c #5E91A9",
"n. c #5F92AA",
"m. c #6781A2",
"M. c #6782A3",
"N. c #6A85A7",
"B. c #6196AF",
"V. c #659EB8",
"C. c #7998BF",
"Z. c #7A9AC1",
"A. c #7B9BC2",
"S. c #7C9CC4",
"D. c #7D9DC5",
"F. c #7E9FC8",
"G. c #80A1CB",
"H. c #81A2CC",
"J. c #84A6D1",
"K. c #87AAD6",
/* pixels */
"7 7 7 7 7 7 7 7 7 7 7 7 7 7 7 7 7 7 7 7 7 7 o o o . . . . . . . . . . . . . . . . o 7 7 7 7 7 7 7 7 7 7 7 7 7 7 7 7 7 7 7 7 7 7 ",
"7 7 7 7 7 7 7 7 7 7 7 7 7 7 7 7 7 7 . . .   g.p.p.A.Z.Z.Z.Z.Z.Z.Z.Z.Z.Z.Z.Z.Z.A.A.d.  . . . . 7 7 7 7 7 7 7 7 7 7 7 7 7 7 7 7 7 ",
"7 7 7 7 7 7 7 7 7 7 7 7 7 7 7 7 7 . S.S.Z.Z.G.G.G.C.C.C.C.C.C.C.C.C.C.C.C.C.C.C.C.G.Z.Z.Z.Z.S.. 7 7 7 7 7 7 7 7 7 7 7 7 7 7 7 7 ",
"7 7 7 7 7 7 7 7 7 7 7 7 7 7 7 . .   Z.Z.C.C.G.G.G.F.D.D.D.D.D.D.D.D.D.D.D.D.F.F.F.G.C.C.C.C.Z.  . . 7 7 7 7 7 7 7 7 7 7 7 7 7 7 ",
"7 7 7 7 7 7 7 7 7 7 7 7 . .   S.Z.Z.G.G.G.H.y.k.k.U 4 e e e e e e e e e e 4 ( L L f.H.F.G.G.G.Z.Z.S.    7 7 7 7 7 7 7 7 7 7 7 7 ",
"7 7 7 7 7 7 7 7 7 7 7 . S.S.Z.C.C.G.6.6.a.L p j j c D D D D D D D D D D D D c c c p / k a.a.6.G.C.C.S.S.. 7 7 7 7 7 7 7 7 7 7 7 ",
"7 2 2 2 2 2 2 2 2 2 2   Z.Z.C.C.F.H.d.d.m. .c D D D D D G G G G G G G G D D D D D c >.} m.m.d.H.C.C.Z.Z.  o 2 2 2 2 2 2 2 2 7 7 ",
"2 h g g g g g g g g 3 g.G.G.C.F.1 / p p j c D D D D D G < < q q q q < < G D D D D D c c j j p C F.C.G.G.s.k.3 g g g g g h h 2 7 ",
"2 g a a a a a a a %   d.K.K.G.J./ >.c c D D G G G F F H u u g g g g u u H F F F F G D D D D c ( J.F.K.K.8.h.  % % a a a g g 2 7 ",
"2 g a a a a %     z.h.p.a.a.z.U s c G G G H 0 i i * , , 2 2 2 2 2 2 2 2 , , , * * r H F G G G s ( L z.z.p.p.h.z.z.  a a g g 2 7 ",
"2 g a a a % z.h.h.p.p.x.l l } s D G < < u * 2 2 2 7 7 7 7 7 7 7 7 7 7 7 7 7 7 7 7 2 , * u u < G c s Y Y x.p.p.p.p.z.% a g g 2 7 ",
"2 g a a a X h.p.p.p.p.N.} } >.c G P u u h 2 7 7 7 > > > 7 7 7 7 7 7 7 7 > > > > > 7 7 2 h h u P D c  . .N.x.p.p.p.h.X 6 g g 2 7 ",
"2 h g g w | x.p.p.p.x.Q s s c H 0 i : : 2 7 7 > > J A J > > 7 7 7 7 > > J A A J J > 7 7 2 2 : r H F s s  .Y x.p.p.x.` o.t t 2 7 ",
"7 2 2 2 o j.p.p.p.p.l.p D D F o 2 2 7 7 7 7 7 7 7 > > > 7 7 7 7 7 7 7 7 > > > > > 7 7 7 7 7 7 2 , o F F c p l.p.p.p.x.j.o o 7 7 ",
"o o o o   g.p.p.p.l.M.j G G H , 7 7 7 7 7 7 7 7 7 > > > 7 7 7 7 7 7 7 7 > > > > > 7 7 7 7 7 7 7 7 , H H D j M.l.l.p.p.g.    o 7 ",
"g.g.g.g.g.p.p.l.l.- j G < < u 2 7 7 7 7 7 7 7 > > A Z A > > 7 7 7 7 > > A Z Z A A > 7 7 7 7 7 7 7 2 0 0 G D j - - l.p.p.g.g.g.p.",
"p.p.p.p.p.p.p.l.l.j D P u u h 2 7 7 7 7 7 7 7 > > Z N Z > > 7 7 7 7 > > Z N N Z Z > 7 7 7 7 7 7 7 2 i i P G D j j l.p.p.p.p.p.p.",
"x.x.x.x.x.x.x.m.m.j G r : : 2 7 7 7 7 7 7 7 7 > > Z N Z > > 7 7 7 7 > > Z N N Z Z > 7 7 7 7 7 7 7 7 : : i 0 G j j m.x.x.x.x.x.p.",
"R R R R R R R } } c F * 7 7 7 7 7 7 7 7 7 7 7 > > Z N Z > > 7 7 7 7 > > Z N N Z Z > 7 7 7 7 7 7 7 7 7 7 2 * F c c } R R R R R O.",
"O.O.O.O.O.O.O.$.$.V H , > > > > 7 7 7 7 7 7 7 > > n z n > > 7 7 7 7 > > n z z n n > 7 7 7 7 7 7 > > > > 7 , H V V $.O.O.O.O.O.O.",
"$.$.$.$.$.$.$.*.*.9 i : J J A J > 7 7 7 7 7 7 ; ; 3.5.3.; ; 7 7 7 7 ; ; 3.5.5.3.3.; 7 7 7 7 7 > J A J J > 2 i 9 9 *.$.$.$.$.$.O.",
"c c c c c c c S S * 2 7 > > > > 7 7 7 7 7 7 7 > > n z n > > 7 7 7 7 > > n z z n n > 7 7 7 7 7 7 > > > > 7 7 2 * * S c c c c c D ",
"F F F F F F F K K , 7 7 > > > > 7 7 > > > > > $ $ n z n > > 7 > > > > > n z z n n $ > > > > > 7 > > > > 7 7 7 , , K F F F F F D ",
", , , , , , , , , 7 7 > A A Z A > > A A Z Z Z n n 5.1.<.; ; > A Z A @ @ <.1.1.5.5.n Z Z Z Z A $ A Z A A > 7 7 7 7 , , , , , , # ",
"& & & & & 2 2 2 2 7 7 > Z Z N Z > > Z Z N N N z z 1.:.,.; ; > Z N Z @ @ ,.:.:.1.1.z N N N N Z $ Z N Z Z > 7 7 7 7 2 2 2 & & & # ",
"^ ^ ^ ^ { y g h h 2 7 > Z Z N Z > > A A Z Z Z n n 1.:.,.; ; > A Z A @ @ ,.:.:.1.1.n Z Z Z Z A $ Z N Z Z > 7 7 2 2 h g y { { ^ ) ",
"! ! ! ! _ 8 a g g 2 7 > Z Z N Z > 7 > > > > > @ @ ,.:.,.; ; 7 > > > ; ; ,.:.:.,.,.@ > > > > > > Z N Z Z > 7 7 2 2 g a 8 _ _ ! ] ",
"I I I I ~ 8 a g g 2 7 > Z Z N Z > 7 7 7 7 7 7 ; ; ,.:.,.; ; 7 7 7 7 ; ; ,.:.:.,.,.; 7 7 7 7 7 > Z N Z Z > 7 7 2 2 g a 8 ~ ~ I W ",
"@.@.@.@.#.6 a g g 2 7 > Z Z N Z > 7 7 7 7 7 7 ; ; ,.:.,.; ; 7 7 7 7 ; ; ,.:.:.,.,.; 7 7 7 7 7 > Z N Z Z > 7 7 2 2 g a 6 #.#.@.4.",
"E E E E X.6 a g g 2 7 > n n z n > 7 7 7 7 7 7 ; ; ;.[ ;.; ; 7 7 7 7 ; ; ;.[ [ ;.;.; 7 7 7 7 7 > n z n n > 7 7 2 2 g a 6 X.X.E ' ",
"r.r.r.r.0.= a g g 2 7 ; 3.3.5.3.; 7 7 7 7 7 7 + + n.V.n.+ + 7 7 7 7 + + n.V.V.n.n.+ 7 7 7 7 7 ; 3.5.3.3.; 7 7 2 2 g a = 0.0.r.t.",
"7.7.7.7.9.= a g g 2 7 > n n z n > 7 7 7 7 7 7 ; ; ;.[ ;.; ; 7 7 7 7 ; ; ;.[ [ ;.;.; 7 7 7 7 7 > n z n n > 7 7 2 2 g a = 9.9.7.e.",
"7.7.7.7.9.= a g g 2 7 > n n z n > 7 7 7 7 7 7 ; ; ;.[ ;.; ; 7 7 7 7 ; ; ;.[ [ ;.;.; 7 7 7 7 7 > n z n n > 7 7 2 2 g a = 9.9.7.e.",
"7.7.7.7.9.= a g g 2 7 ; <.<.1.<.; 7 7 7 7 7 7 + + b.B.b.+ + 7 7 7 7 + + b.B.B.b.b.+ 7 7 7 7 7 ; <.1.<.<.; 7 7 2 2 g a = 9.9.7.e.",
"7.7.7.7.9.= a g g 2 7 ; ,.,.:.,.; 7 7 7 7 7 7 + + v.c.v.+ + 7 7 7 7 + + v.c.c.v.v.+ 7 7 7 7 7 ; ,.:.,.,.; 7 7 2 2 g a = 9.9.7.e.",
"7.7.7.7.9.= a g g 2 7 @ ,.,.:.,.@ > ; ; ; ; ; o o v.c.v.O O > ; ; ; O O v.c.c.v.v.o ; ; ; ; ; @ ,.:.,.,.@ > 7 2 2 g a = 9.9.7.e.",
"7.7.7.7.9.= a g g 2 > M 1.1.:.1.n n <.<.,.,.,.;.;.B.c.n.v v n <.,.<.x x n.c.c.B.B.;.,.,.,.,.<.b 1.:.1.1.n A > 2 2 g a = 9.9.7.q.",
"7.7.7.7.9.= a g g 2 > n 1.1.:.1.z z 1.1.:.:.:.[ [ B.c.n.f f z 1.:.1.5 5 n.c.c.B.B.[ :.:.:.:.1.d 1.:.1.1.z Z > 2 2 g a = 9.9.7.q.",
"7.7.7.7.9.= a g g 2 > M =.=.[ =.n n <.<.,.,.,.;.;.B.c.n.v v n <.,.<.x x n.c.c.B.B.;.,.,.,.,.<.b =.[ =.=.n A > 2 2 g a = 9.9.7.e.",
"7.7.7.7.9.= a g g 2 7 O b.b.B.b.O > ; ; ; ; ; o o v.c.v.O O > ; ; ; O O v.c.c.v.v.o ; ; ; ; ; O b.B.b.b.O > 7 2 2 g a = 9.9.7.e.",
"r.r.r.r.0.= a g g 2 7 + b.b.B.b.+ 7 7 7 7 7 7 + + v.c.v.+ + 7 7 7 7 + + v.c.c.v.v.+ 7 7 7 7 7 + b.B.b.b.+ 7 7 2 2 g a = 0.0.r.t.",
"m m m m ..6 a g g 2 7 ; -.-.B -.; 7 7 7 7 7 7 + + v.c.v.+ + 7 7 7 7 + + v.c.c.v.v.+ 7 7 7 7 7 ; -.B -.-.; 7 7 2 2 g a 6 ....m T ",
"r.r.r.r.0.= a g g 2 7 + b.b.B.b.+ 7 7 7 7 7 7 + + v.c.v.+ + 7 7 7 7 + + v.c.c.v.v.+ 7 7 7 7 7 + b.B.b.b.+ 7 7 2 2 g a = 0.0.r.t.",
"r.r.r.r.0.= a g g 2 7 + v.v.c.v.+ 7 7 7 7 7 7 + + v.c.v.+ + 7 7 7 7 + + v.c.c.v.v.+ 7 7 7 7 7 + v.c.v.v.+ 7 7 2 2 g a = 0.0.r.t.",
"E E E E X.6 a g g 2 7 + v.v.c.v.+ 7 7 7 7 7 7 + + v.c.v.+ + 7 7 7 7 + + v.c.c.v.v.+ 7 7 7 7 7 + v.c.v.v.+ 7 7 2 2 g a 6 X.X.E ' ",
"E E E E X.6 a g g 2 7 + v.v.c.v.+ 7 7 7 7 7 7 + + v.c.v.+ + 7 7 7 7 + + v.c.c.v.v.+ 7 7 7 7 7 + v.c.v.v.+ 7 7 2 2 g a 6 X.X.E ' ",
"u.u.u.u.w.= a g g 2 7 + v.v.c.v.+ 7 7 7 7 7 7 + + v.c.v.+ + 7 7 7 7 + + v.c.c.v.v.+ 7 7 7 7 7 + v.c.v.v.+ 7 7 2 2 g a = w.w.u.i.",
"E E E E X.6 a g g 2 7 + v.v.c.v.+ 7 7 7 7 7 7 + + v.c.v.+ + 7 7 7 7 + + v.c.c.v.v.+ 7 7 7 7 7 + v.c.v.v.+ 7 7 2 2 g a 6 X.X.E ' ",
"O.O.O.O.+.6 a g g 2 7 o v.v.c.v.O > ; ; ; ; ; o o v.c.v.O O > ; ; ; O O v.c.c.v.v.o ; ; ; ; ; O v.c.v.v.o ; 7 2 2 g a 6 +.+.O.&.",
"O.O.O.O.+.6 a g g 2 ; :.B.B.c.n.v n <.<.,.,.,.;.;.B.c.n.v v n <.,.<.x x n.c.c.B.B.;.,.,.,.,.<.x n.c.B.B.;.2.; 2 2 g a 6 +.+.O.%.",
"O.O.O.O.+.6 a g g 2 ; ;.B.B.c.n.f z 1.1.:.:.:.[ [ B.c.n.f f z 1.:.1.5 5 n.c.c.B.B.[ :.:.:.:.1.5 n.c.B.B.[ ,.; 2 2 g a 6 +.+.O.&.",
"O.O.O.O.+.6 a g g 2 ; :.B.B.c.n.v n <.<.,.,.,.;.;.B.c.n.v v n <.,.<.x x n.c.c.B.B.;.,.,.,.,.<.x n.c.B.B.;.2.; 2 2 g a 6 +.+.O.&.",
"O.O.O.O.+.6 a g g 2 7 o v.v.c.v.O > ; ; ; ; ; o o v.c.v.O O > ; ; ; O O v.c.c.v.v.o ; ; ; ; ; O v.c.v.v.o ; 7 2 2 g a 6 +.+.O.&.",
"O.O.O.O.+.6 a g g 2 7 + v.v.c.v.+ 7 7 7 7 7 7 + + v.c.v.+ + 7 7 7 7 + + v.c.c.v.v.+ 7 7 7 7 7 + v.c.v.v.+ 7 7 2 2 g a 6 +.+.O.&.",
"O.O.O.O.+.6 a g g 2 7 + v.v.c.v.+ 7 7 7 7 7 7 + + v.c.v.+ + 7 7 7 7 + + v.c.c.v.v.+ 7 7 7 7 7 + v.c.v.v.+ 7 7 2 2 g a 6 +.+.O.&.",
"O.O.O.O.+.6 a g g 2 7 + v.v.c.v.+ 7 7 7 7 7 7 + + v.c.v.+ + 7 7 7 7 + + v.c.c.v.v.+ 7 7 7 7 7 + v.c.v.v.+ 7 7 2 2 g a 6 +.+.O.&.",
"O.O.O.O.+.6 a g g 2 7 + v.v.c.v.+ 7 7 7 7 7 7 + + v.c.v.+ + 7 7 7 7 + + v.c.c.v.v.+ 7 7 7 7 7 + v.c.v.v.+ 7 7 2 2 g a 6 +.+.O.&.",
"O.O.O.O.+.6 a g g 2 7 + v.v.c.v.+ 7 7 7 7 7 7 + + v.c.v.+ + 7 7 7 7 + + v.c.c.v.v.+ 7 7 7 7 7 + v.c.v.v.+ 7 7 2 2 g a 6 +.+.O.&.",
"O.O.O.O.+.6 a g g 2 7 + v.v.c.v.+ 7 7 7 7 7 7 + + v.c.v.+ + 7 7 7 7 + + v.c.c.v.v.+ 7 7 7 7 7 + v.c.v.v.+ 7 7 2 2 g a 6 +.+.O.&.",
"O.O.O.O.+.6 a g g 2 7 + v.v.c.v.+ 7 7 7 7 7 7 + + v.c.v.+ + 7 7 7 7 + + v.c.c.v.v.+ 7 7 7 7 7 + v.c.v.v.+ 7 7 2 2 g a 6 +.+.O.&.",
"O.O.O.O.+.6 a g g 2 7 + v.v.c.v.+ 7 7 7 7 7 7 + + v.c.v.+ + 7 7 7 7 + + v.c.c.v.v.+ 7 7 7 7 7 + v.c.v.v.+ 7 7 2 2 g a 6 +.+.O.&.",
"O.O.O.O.+.6 a g g 2 7 o v.v.c.v.O > ; ; ; ; ; o o v.c.v.O O > ; ; ; O O v.c.c.v.v.o ; ; ; ; ; O v.c.v.v.o ; 7 2 2 g a 6 +.+.O.&.",
"O.O.O.O.+.6 a g g 2 ; :.B.B.c.n.v n <.<.,.,.,.;.;.B.c.n.v v n <.,.<.x x n.c.c.B.B.;.,.,.,.,.<.x n.c.B.B.;.2.; 2 2 g a 6 +.+.O.%.",
"O.O.O.O.+.6 a g g 2 ; ;.B.B.c.n.f z 1.1.:.:.:.[ [ B.c.n.f f z 1.:.1.5 5 n.c.c.B.B.[ :.:.:.:.1.5 n.c.B.B.[ ,.; 2 2 g a 6 +.+.O.&."
};
