/* XPM */
static char *result[] = {
/* columns rows colors chars-per-pixel */
"64 64 94 2 ",
"   c #1C121C",
".  c #171B1A",
"X  c #1B1B1B",
"o  c #24151D",
"O  c #28171E",
"+  c #251B1D",
"@  c #2C1A1E",
"#  c #351C1F",
"$  c #3D1D1F",
"%  c #2E1E21",
"&  c #351C20",
"*  c #391F21",
"=  c #262625",
"-  c #2A2627",
";  c #2B2B2B",
":  c #312325",
">  c #3B2123",
",  c #3B2927",
"<  c #3A282A",
"1  c #3B2F30",
"2  c #333333",
"3  c #3B3132",
"4  c #3D3D3D",
"5  c #451C22",
"6  c #4A1C24",
"7  c #561C27",
"8  c #5A1C26",
"9  c #5C1C28",
"0  c #621E25",
"q  c #681D26",
"w  c #631C28",
"e  c #6C1D29",
"r  c #701D27",
"t  c #751D29",
"y  c #7D1E2A",
"u  c #432324",
"i  c #4A2524",
"p  c #4F2629",
"a  c #552927",
"s  c #5A2927",
"d  c #542B28",
"f  c #5D2C28",
"g  c #4F3330",
"h  c #503330",
"j  c #5B3E38",
"k  c #632F26",
"l  c #6D232B",
"z  c #752026",
"x  c #6B3C2C",
"c  c #7E5332",
"v  c #7E5D4F",
"b  c #851E2B",
"n  c #891E2B",
"m  c #951F2C",
"M  c #85262D",
"N  c #8D202A",
"B  c #9C202D",
"V  c #8D2E35",
"C  c #A2202D",
"Z  c #A8212E",
"A  c #BC242F",
"S  c #B32732",
"D  c #C42430",
"F  c #C92430",
"G  c #8F6230",
"H  c #9C763A",
"J  c #A57E3B",
"K  c #876555",
"L  c #DD8817",
"P  c #FFA214",
"I  c #FFA917",
"U  c #FFAC19",
"Y  c #FFB21B",
"T  c #FFB81E",
"R  c #FFB824",
"E  c #EBB232",
"W  c #FFC523",
"Q  c #FFC925",
"!  c #FFC431",
"~  c #FFCD3B",
"^  c #FFD233",
"/  c #FFD73A",
"(  c #FAD742",
")  c #FFDF45",
"_  c #FFE34B",
"`  c #F7E256",
"'  c #FFE853",
"]  c #FFEC58",
"[  c #C9A684",
"{  c #E1B791",
"}  c #F6CA9F",
"|  c #F7CBA0",
" . c #F9CCA1",
".. c None",
/* pixels */
"................................................................................................................................",
"................................................................................................................................",
"................................................................................................................................",
"................................................................................................................................",
"................................................................................................................................",
"................................................n n n C D D D D D D ........................................P P ................",
"..............................................n n n b B A A D D D D ........................................P P ................",
"............................................n n n n n n n C D D D D D D ....................................P P ................",
"............................................n n n n n b b m A A A A D D ....................................P P ................",
"............................................n n n n n q # # $ $ $ z D D ........................................................",
"............................................n n n n n 0 X X X X . l D D ........................................................",
"............................................n n n r 5 # X X X X . 0 D D ....................................P P P P P ..........",
"............................................n n n 8 . X X X X X . 8 D D ....................................P P P P P P ........",
"..........................................t n n n 0 X X X X X X . 8 D D ..................................I U I P P P P ........",
"........................................7 e n n n 8 X X X X X X . 0 D D ................................P Y Q T P P P P ........",
"........................................7 e n n n 8 X X X X X X . l D D ................................I Y Q T P P P P ........",
"........................................7 e n n n 0   X X X X X . s D D ............................P Y W W Q T P P ............",
"........................................7 e n n n 8 X X X X X X . l D D ............................P Y Q Q Q T P P ............",
"....................................7 7 7 9 q t n y q 6 X X X $ w n D D ............................P Y Q ^ _ ! P P ............",
"....................................7 7 7 7 7 e n n n 8 X X . 5 n C D D ............................P Y W / ] ~ P P ............",
"..................................7 7 7 7 7 7 w t y n e 6 6 6 w n C D D ............................P R / ) ] ~ P P ............",
"............................X # 9 7 9 9 9 7 7 7 7 e n n n n n n n C D D D D ........................P ! ] ] ] ~ P P ............",
"..........................X X # 6 6 6 6 6 6 7 7 7 q y y b b n n n C D D D S ........................L E ] ' _ ~ P ..............",
"........................X X X X X X X + X & 9 7 7 8 8 8 8 e n n b C D D F V 4 4 ....................k J ] ) Q Q ................",
"........................X X X X X X X X X & 7 7 7 7 7 7 7 e b b b m D D D V 4 4 ....................s H ` ( Q Q ................",
"........................X X X X X X X X X + + + + * 7 7 7 9 w 9 w y m Z D M ; 2 4 ..................f x c G ....................",
"........................X X X X X X X X X X X X X & 7 7 7 7 7 7 7 e n C F M = ; 4 4 ................f f s s ....................",
"....................X X X X X X ..X X X X X X X X + & 5 9 6 & & # 6 e e l p = 2 4 4 4 4 4 ......* u i i ........................",
"....................X X X X X X ....X X X X X X X X . & 9 * X X . & 7 5 = = = 2 4 4 4 4 4 4 ....* * * * ........................",
"....................X X X X X X ....X X X X X X X X   % 5 & X X X % 6 < = = = 2 4 2 2 4 4 4 ..< * * * * ........................",
"....................X X X X X X ....X X X X X X X X X X X X X X X = = ; ....= = = ; = 2 4 4 4 3 > > * # ........................",
"....................X X X X X X ....X X X X X X X X X X X X X X X X = ; ....= = = = - ; 4 4 4 1 * u h g ........................",
"................X X X X X X ........X X X X X X X X X X X X . = = = ; - ............= = ; : > > * v { { ........................",
"................X X X X X X ........X X X X X X X X X X X X . X - ; = - ............; = = - * * # K  .| ........................",
"................X X X X X X ..........X X X X X X X X X X X . + = = ......................: * * * j ............................",
"................X X X X X X ............X X X X X X X X X X . = = ; ........................* * * # ............................",
"................X X X X . ..............X X X X X X X X X X = = = - ........................* * * ..............................",
"................X X X X ................X X X X X X X X X X = = ; - ........................> * ................................",
"................X X X X ................X X X X X X + . . + ; = = = ......................* * * ................................",
"................X X X X ................X X X X X X X X . = = = ; = ....................* * * * ................................",
"................= = % = ................. X X X X X X X X + = ; - ; ....................* * * * ................................",
"................[ [ [ [ ............          X X X X X . = = , p d f ..................* * ....................................",
"................ . . . .............o         X X X X X . + = , f f f f ................> > ....................................",
"................} } } } ............      o @ % % @ @ @ % % - u f f f f ........................................................",
"................} } } } ............      O * * * * * * * * * u f f f f ........................................................",
"................} } } ............    o o @ * * * * * * * * * u a s f f ........................................................",
"................................      O * * * * * * * * * * * * * u k f f f ....................................................",
"................................  o   @ * * * * * * * * # * * * * u s s f f ....................................................",
"............................      O # * * * * * ........  o   O * * * i f f f f ................................................",
"............................      O * * * * * * ........      O * * * u f f f f ................................................",
"............................      O > * * * ..................o O O O & u i f f ................................................",
"............................      O * * * * ....................      O * i f f ................................................",
"............................  O O @ > * * ......................      o O u f f ................................................",
"............................  O * * * * ............................      & f f f f ............................................",
"............................  O * * * * ............................      # s s f f ............................................",
"............................  O * * * * ................................  + > i f f ............................................",
"............................  O * * * * ................................  O * u s f ............................................",
"............................  O * > ....................................  O * > u > ............................................",
"............................  O * * ....................................  O * * > * ............................................",
"............................O & * * ....................................  O * * * * ............................................",
"............................> * * * ....................................  O * * * * ............................................",
"............................* * * * ....................................  O @ & * * ............................................",
"............................* * * * ........................................  O * * ............................................",
"............................* * * * ........................................  O * * ............................................"
};
