/* XPM */
static char *result[] = {
/* columns rows colors chars-per-pixel */
"64 64 85 1 ",
"  c #1C121C",
". c #161B1A",
"X c #1B1B1B",
"o c #24161E",
"O c #28171E",
"+ c #251B1D",
"@ c #2C1B1E",
"# c #331C1F",
"$ c #221F20",
"% c #351C20",
"& c #391F21",
"* c #262626",
"= c #2B2626",
"- c #2B2B2B",
"; c #342323",
": c #3C2122",
"> c #332C2C",
", c #3A292A",
"< c #2F3130",
"1 c #313131",
"2 c #3B3131",
"3 c #3D3D3D",
"4 c #441C23",
"5 c #4B1C23",
"6 c #561C27",
"7 c #5A1D25",
"8 c #611F24",
"9 c #681D26",
"0 c #621C28",
"q c #6C1D29",
"w c #701D27",
"e c #741D29",
"r c #7D1E29",
"t c #452324",
"y c #4A2524",
"u c #452A28",
"i c #4C2A28",
"p c #552927",
"a c #592A27",
"s c #5D2C28",
"d c #66262B",
"f c #70202A",
"g c #7C4224",
"h c #7A4827",
"j c #6E4F45",
"k c #851E2B",
"l c #891E2B",
"z c #941F2C",
"x c #85252C",
"c c #8C2129",
"v c #95252D",
"b c #872930",
"n c #8C2E35",
"m c #942D35",
"M c #A1202D",
"N c #A8212E",
"B c #BF2530",
"V c #C42430",
"C c #CA2430",
"Z c #9F6C27",
"A c #A37027",
"S c #B97C22",
"D c #B37D29",
"F c #896756",
"G c #967E65",
"H c #F69A14",
"J c #FFA214",
"K c #FFAA17",
"L c #FFB21B",
"P c #FFB81E",
"I c #FFBA22",
"U c #FABC2F",
"Y c #FFC324",
"T c #FFC925",
"R c #FFC030",
"E c #FFD131",
"W c #FFD83B",
"Q c #BB9477",
"! c #BC9578",
"~ c #FFDD42",
"^ c #FFEA56",
"/ c #FFEC59",
"( c #F6CA9F",
") c #FACDA1",
"_ c None",
/* pixels */
"________________________________________________________________",
"________________________________________________________________",
"________________________________________________________________",
"________________________________________________________________",
"________________________________________________________________",
"________________________________________________________________",
"________________________________________________________________",
"__________________________lllllMVVVV____________________________",
"__________________________lllllMVVVV____________________________",
"________________________llllllllzNVVV___________________________",
"________________________llllllllkMVVVV__________________________",
"________________________lllllw55568cVV______________JJJ_________",
"________________________lllll7XXXX.8VV______________JJJJ________",
"________________________kllr95XXXX.8VV______________JJJJ________",
"________________________lll7XXXXXX.dVV________________JJJJ______",
"________________________lll7XXXXXXX7VV________________KJJJ______",
"______________________6qlll7XXXXXXX8VV______________JLYPJJJJ____",
"______________________6qlll8XXXXXXX8VV______________JLYPJJJJ____",
"______________________6qlll7XXXXXX.7VV______________JLTYILJJ____",
"______________________6qlll7XXXXXX.dVV______________JLTTTPJJ____",
"_____________________669erlw5#XXX#5fVV______________JIWETPJJ____",
"____________________66666qlll6X .4lNVV______________JU/~TPJJ____",
"___________________6666660rkz9%@#6lMVV______________JR/~TPJJ____",
"________________X&676666677qlkkkkklMVVVV____________JU/~TPJJ____",
"________________X%666666666qkkkklklMVVVB____________HU^~YPJJ____",
"______________XXX$+o+++&6667000elllMVVVm3___________gDEYKK______",
"______________XXXXXXXXX%6666666qlllMVVVn33__________aZTPJJ______",
"______________XXXXXXXXX+%%%46660qqqecMCx113_________ahAS________",
"______________XXXXXXXXXX XX%666666666xVx*133________saaa________",
"_____________XXXXXXXXXXXXXX@456644456fvd*133_______ypps_________",
"____________XXXXXX__XXXXXXXXX%6&XXX%6t***1333333__&&&&__________",
"____________XXXXXX__XXXXXXXXX%6&XXX%6t***-333333__&&&:__________",
"____________XXXXXX__XXXXXXXXXX$$XXX$==__**--*1u332;::&__________",
"____________XXXXXX__XXXXXXXXXXXXXX.$**__-**-*13333::::__________",
"__________XXXXXX____XXXXXXXXXXXXX$****_____-*-->,,%j!!__________",
"__________XXXXXX____XXXXXXXXXXXXX$***-______*-*=&&%F))__________",
"__________XXXXXX____X$XXXXXXXXXXXX-*-_______***;&&%j(___________",
"__________XXXXXX______XXXXXXXXXXX***____________&&&&____________",
"__________XXXXX_______XXXXXXXXXXX***____________&&&_____________",
"__________XXXX________XXXXXXXXX$**-*____________&&______________",
"__________XXXX________XXXXXXXXX$**-*____________&&______________",
"__________XXXX______ XXXXXXXXXX$****__________&&&&______________",
"__________XXXX______  XXXXXXXXX$***-__________&&&&______________",
"__________GGGG____   +@#@@@@@@@;uuuis_________&&________________",
"__________))))____   o%&&&&&&&&yssssss________:;________________",
"__________((((____ o+%&&&&&&&&&4passss________:_________________",
"__________((((____ O&&&&&&&:&&&&&tssssss________________________",
"__________((((____o+&&&&&&&&%%&&&tsassss________________________",
"________________ O%%&&&&&&&@ o +#::::yssss______________________",
"________________ O&&&&&&&&%%   O:&&&;ysdss______________________",
"________________ O&&&&&&&&_____oOoo@&:tyss______________________",
"________________ O&&&&&&&&______   O:&&tss______________________",
"________________ O&&&&&&&_______   O@#&yss______________________",
"________________ O&&&&&&____________ O&tss______________________",
"_______________Oo+&&&:&_____________ O#tpa______________________",
"______________ O:%&&:%______________ O::::______________________",
"______________ O:%:&&&______________ O&&:&______________________",
"______________ O&&&&________________ O&&%&______________________",
"______________ O&&&&________________ O&&:&______________________",
"______________ O&&___________________@&&&&______________________",
"______________ O&&____________________&&&&______________________",
"______________O@&&____________________#%&&______________________",
"______________%&&&____________________ O&&______________________",
"______________&&&&____________________ O&&______________________"
};
