/* XPM */
static char *result[] = {
/* columns rows colors chars-per-pixel */
"64 64 93 2 ",
"   c #1C121C",
".  c #161B1A",
"X  c #1B1B1B",
"o  c #24161E",
"O  c #28171E",
"+  c #251B1D",
"@  c #2C1B1E",
"#  c #331C1F",
"$  c #221F20",
"%  c #351C20",
"&  c #391F21",
"*  c #262626",
"=  c #2B2626",
"-  c #2B2B2B",
";  c #342323",
":  c #3C2122",
">  c #332C2C",
",  c #3A292A",
"<  c #2F3130",
"1  c #313131",
"2  c #3B3131",
"3  c #3D3D3D",
"4  c #441C23",
"5  c #4B1C23",
"6  c #561C27",
"7  c #5A1D25",
"8  c #611F24",
"9  c #681D26",
"0  c #621C28",
"q  c #6C1D29",
"w  c #701D27",
"e  c #741D29",
"r  c #7D1E29",
"t  c #452324",
"y  c #4A2524",
"u  c #452A28",
"i  c #4C2A28",
"p  c #582727",
"a  c #552927",
"s  c #592A27",
"d  c #5D2C28",
"f  c #66262B",
"g  c #70202A",
"h  c #7C4123",
"j  c #7A4E30",
"k  c #6E4F45",
"l  c #851E2B",
"z  c #891E2B",
"x  c #941F2C",
"c  c #85252C",
"v  c #8C2129",
"b  c #95252D",
"n  c #872930",
"m  c #8C2E35",
"M  c #942D35",
"N  c #A1202D",
"B  c #A8212E",
"V  c #BF2530",
"C  c #C42430",
"Z  c #CA2430",
"A  c #9F7A3C",
"S  c #896756",
"D  c #967E65",
"F  c #A3803D",
"G  c #B98733",
"H  c #B38939",
"J  c #F69A14",
"K  c #FFA214",
"L  c #FFA917",
"P  c #FFAF1A",
"I  c #FFB11B",
"U  c #FFB81E",
"Y  c #FFBB21",
"T  c #FABC30",
"R  c #FFC624",
"E  c #FFC825",
"W  c #FFC12B",
"Q  c #FFCA28",
"!  c #FFC030",
"~  c #FFC935",
"^  c #FFCE3C",
"/  c #FFD43C",
"(  c #FFD83C",
")  c #BB9477",
"_  c #BC9578",
"`  c #FFDD43",
"'  c #FFE54E",
"]  c #FFE853",
"[  c #FFEC58",
"{  c #FFF059",
"}  c #F6CA9F",
"|  c #FACDA1",
" . c None",
/* pixels */
" . . . . . . . . . . . . . . . . . . . . . . . . . . . . . . . . . . . . . . . . . . . . . . . . . . . . . . . . . . . . . . . .",
" . . . . . . . . . . . . . . . . . . . . . . . . . . . . . . . . . . . . . . . . . . . . . . . . . . . . . . . . . . . . . . . .",
" . . . . . . . . . . . . . . . . . . . . . . . . . . . . . . . . . . . . . . . . . . . . . . . . . . . . . . . . . . . . . . . .",
" . . . . . . . . . . . . . . . . . . . . . . . . . . . . . . . . . . . . . . . . . . . . . . . . . . . . . . . . . . . . . . . .",
" . . . . . . . . . . . . . . . . . . . . . . . . . . . . . . . . . . . . . . . . . . . . . . . . . . . . . . . . . . . . . . . .",
" . . . . . . . . . . . . . . . . . . . . . . . . . . . . . . . . . . . . . . . . . . . . . . . . . . . . . . . . . . . . . . . .",
" . . . . . . . . . . . . . . . . . . . . . . . . . . . . . . . . . . . . . . . . . . . . . . . . . . . . . . . . . . . . . . . .",
" . . . . . . . . . . . . . . . . . . . . . . . . . .z z z z z N C C C C  . . . . . . . . . . . . . . . . . . . . . . . . . . . .",
" . . . . . . . . . . . . . . . . . . . . . . . . . .z z z z z N C C C C  . . . . . . . . . . . . . . . . . . . . . . . . . . . .",
" . . . . . . . . . . . . . . . . . . . . . . . .z z z z z z z z x B C C C  . . . . . . . . . . . . .K  . . . . . . . . . . . . .",
" . . . . . . . . . . . . . . . . . . . . . . . .z z z z z z z z l N C C C C  . . . . . . . . . . . .K K  . . . . . . . . . . . .",
" . . . . . . . . . . . . . . . . . . . . . . . .z z z z z w 5 5 5 6 8 v C C  . . . . . . . . . . . . . .K  . . . . . . .K  . . .",
" . . . . . . . . . . . . . . . . . . . . . . . .z z z z z 7 X X X X . 8 C C  . . . . . . . . . . . . . .K K  . . . . . .K K  . .",
" . . . . . . . . . . . . . . . . . . . . . . . .l z z r 9 5 X X X X . 8 C C  . . . . . . . . . . . . . .K  . . . . . .K K K  . .",
" . . . . . . . . . . . . . . . . . . . . . . . .z z z 7 X X X X X X . f C C  . . . . . . . . . . . . . . . . . .K K K K K K  . .",
" . . . . . . . . . . . . . . . . . . . . . . . .z z z 7 X X X X X X X 7 C C  . . . . . . . . . . . . . . . . . .K K K K K K  . .",
" . . . . . . . . . . . . . . . . . . . . . .6 q z z z 7 X X X X X X X 8 C C  . . . . . . . . . . . . . . . .K K K K K K K K  . .",
" . . . . . . . . . . . . . . . . . . . . . .6 q z z z 8 X X X X X X . 8 C C  . . . . . . . . . . . . . . . .K K K K K K K K  . .",
" . . . . . . . . . . . . . . . . . . . . . .6 q z z z 7 X X X X X X . 7 C C  . . . . . . . . . . . . . .K P Y Y Y I K K  . . . .",
" . . . . . . . . . . . . . . . . . . . . . .6 q z z z 7 X X X X X X . f C C  . . . . . . . . . . . . . .K I E E E U K K  . . . .",
" . . . . . . . . . . . . . . . . . . . . .6 6 9 e r z w 5 # X X X @ 5 g C C  . . . . . . . . . . . . . .K Y ( ( ( W K K  . . . .",
" . . . . . . . . . . . . . . . . . . . .6 6 6 6 6 q z z z 6 X   X 4 z B C C  . . . . . . . . . . . . . .K T [ [ [ / K K  . . . .",
" . . . . . . . . . . . . . . . . . . .6 6 6 6 6 6 0 r l x 9 % @ # 6 z B C C  . . . . . . . . . . . . . .K ! [ ] ' ~ K K  . . . .",
" . . . . . . . . . . . . . . . .X & 6 7 6 6 6 6 6 7 7 q z l l l l l z N C C C C  . . . . . . . . . . . .K ! [ ` Q Y K K  . . . .",
" . . . . . . . . . . . . . . . .X % 6 6 6 6 6 6 6 6 6 q l l l l l z z N C C C V  . . . . . . . . . . . .J T [ ` E U K K  . . . .",
" . . . . . . . . . . . . . .X X X $ + o + + + & 6 6 6 7 0 0 0 e z z l N C C C M 3  . . . . . . . . . . .h H ] / L L  . . . . . .",
" . . . . . . . . . . . . . .X X X X X X X X X % 6 6 6 6 6 6 6 q z z z N Z Z C m 3 3  . . . . . . . . . .p A { ^ J K  . . . . . .",
" . . . . . . . . . . . . . .X X X X X X X X X + % % % 4 6 6 6 0 9 q q r l b Z n 1 1 3  . . . . . . . . .d j F G  . . . . . . . .",
" . . . . . . . . . . . . . .X X X X X X X X X X   X X % 6 6 6 6 6 6 6 6 6 l Z c * 1 3 3  . . . . . . . .d s s p  . . . . . . . .",
" . . . . . . . . . . . . .X X X X X X X X X X X X X X @ 4 5 6 6 4 4 4 5 6 q b f * 1 3 3  . . . . . . .y a a d  . . . . . . . . .",
" . . . . . . . . . . . .X X X X X X  . .X X X X X X X X X % 6 & X X X % 6 t = * * 1 3 3 3 3 3 3  . .& & & &  . . . . . . . . . .",
" . . . . . . . . . . . .X X X X X X  . .X X X X X X X X X % 6 & X X . % 6 t * * * - 3 3 3 3 3 3  . .& & : :  . . . . . . . . . .",
" . . . . . . . . . . . .X X X X X X  . .X X X X X X X X X X $ $ X X X $ = =  . .* * - - - 1 3 3 3 2 ; : & &  . . . . . . . . . .",
" . . . . . . . . . . . .X X X X X X  . .X X X X X X X X X X X X X X X $ * *  . .* * * * * 1 u 3 3 3 : : : :  . . . . . . . . . .",
" . . . . . . . . . .X X X X X X  . . . .X X X X X X X X X X X X X X * * * *  . . . . .* * - 1 > , , & k _ _  . . . . . . . . . .",
" . . . . . . . . . .X X X X X X  . . . .X X X X X X X X X X X X X * * * * -  . . . . . .* - * = % & % S | |  . . . . . . . . . .",
" . . . . . . . . . .X X X X X X  . . . .X X X X X X X X X X X X X $ * * *  . . . . . . .* - * ; & & # k |  . . . . . . . . . . .",
" . . . . . . . . . .X X X X X X  . . . . . .X X X X X X X X X X X * * -  . . . . . . . . . . . .& & & &  . . . . . . . . . . . .",
" . . . . . . . . . .X X X X X  . . . . . . .X X X X X X X X X X X $ * *  . . . . . . . . . . . .& & &  . . . . . . . . . . . . .",
" . . . . . . . . . .X X X X  . . . . . . . .X X X + X X X X X $ * * * -  . . . . . . . . . . . .& &  . . . . . . . . . . . . . .",
" . . . . . . . . . .X X X X  . . . . . . . .X X X X X X X X X $ * * * -  . . . . . . . . . . . .& &  . . . . . . . . . . . . . .",
" . . . . . . . . . .X X X X  . . . . . .  X X X X X X X X X X $ - * * *  . . . . . . . . . .& & & &  . . . . . . . . . . . . . .",
" . . . . . . . . . .X X X X  . . . . . .  X X X X X X X X X X $ * - * *  . . . . . . . . . .: & & &  . . . . . . . . . . . . . .",
" . . . . . . . . . .D D D D  . . . .      o @ # @ @ @ @ @ @ @ ; u u u i d  . . . . . . . . .& &  . . . . . . . . . . . . . . . .",
" . . . . . . . . . .| | | |  . . . .      O & & & & & & & & & y d d d d d d  . . . . . . . .& &  . . . . . . . . . . . . . . . .",
" . . . . . . . . . .} } } }  . . . .  o O + & & & & & & & & & 4 a a d d d d  . . . . . . . .:  . . . . . . . . . . . . . . . . .",
" . . . . . . . . . .} } } }  . . . .  o & & & & & & & & & & & & & t d d d d d d  . . . . . . . . . . . . . . . . . . . . . . . .",
" . . . . . . . . . .} } } }  . . . .o @ & & & & & & & & % & & & & t d p d d d d  . . . . . . . . . . . . . . . . . . . . . . . .",
" . . . . . . . . . . . . . . . .  O & & & & & & & & & +   o   O & & : t : y d d d d  . . . . . . . . . . . . . . . . . . . . . .",
" . . . . . . . . . . . . . . . .  O & & & & & & & & % %       $ & & & # & t d f d d  . . . . . . . . . . . . . . . . . . . . . .",
" . . . . . . . . . . . . . . . .  O & & & & & & & &  . . . . .o o o O @ & : t y d d  . . . . . . . . . . . . . . . . . . . . . .",
" . . . . . . . . . . . . . . . .  O & & & & & & & &  . . . . . .      + : & & t d d  . . . . . . . . . . . . . . . . . . . . . .",
" . . . . . . . . . . . . . . . .  O & & & & & & &  . . . . . . .      O @ # & y d d  . . . . . . . . . . . . . . . . . . . . . .",
" . . . . . . . . . . . . . . . .  O & & & & & &  . . . . . . . . . . . .  O & t d d  . . . . . . . . . . . . . . . . . . . . . .",
" . . . . . . . . . . . . . . .O   + & & & & &  . . . . . . . . . . . . .  O & t a a  . . . . . . . . . . . . . . . . . . . . . .",
" . . . . . . . . . . . . . .  O & & : & & &  . . . . . . . . . . . . . .  O & & : :  . . . . . . . . . . . . . . . . . . . . . .",
" . . . . . . . . . . . . . .  O : & & & & &  . . . . . . . . . . . . . .  O & : & &  . . . . . . . . . . . . . . . . . . . . . .",
" . . . . . . . . . . . . . .  O & & & &  . . . . . . . . . . . . . . . .  O & & & &  . . . . . . . . . . . . . . . . . . . . . .",
" . . . . . . . . . . . . . .  O & & & &  . . . . . . . . . . . . . . . .  O & & & &  . . . . . . . . . . . . . . . . . . . . . .",
" . . . . . . . . . . . . . .  O & &  . . . . . . . . . . . . . . . . . . .@ & & & &  . . . . . . . . . . . . . . . . . . . . . .",
" . . . . . . . . . . . . . .  O & &  . . . . . . . . . . . . . . . . . . . .& & & &  . . . . . . . . . . . . . . . . . . . . . .",
" . . . . . . . . . . . . . .O @ & &  . . . . . . . . . . . . . . . . . . . .@ & : &  . . . . . . . . . . . . . . . . . . . . . .",
" . . . . . . . . . . . . . .& & & &  . . . . . . . . . . . . . . . . . . . .  O & &  . . . . . . . . . . . . . . . . . . . . . .",
" . . . . . . . . . . . . . .& & & &  . . . . . . . . . . . . . . . . . . . .  O & &  . . . . . . . . . . . . . . . . . . . . . ."
};
