/* XPM */
static char *_894847a72814f2abe93eb7b8ba6d00f35nKxECSs0WZQQSI[] = {
/* columns rows colors chars-per-pixel */
"64 64 219 2 ",
"   c None",
".  c #393939",
"X  c gray23",
"o  c #3B3B3C",
"O  c #3B3C3C",
"+  c #3C3C3C",
"@  c #3C3D3D",
"#  c gray24",
"$  c #3E3E3E",
"%  c #3F3F3F",
"&  c #44291B",
"*  c #452A1B",
"=  c #4C322E",
"-  c #4E332F",
";  c #4F342F",
":  c #573722",
">  c #5C3D2E",
",  c #5E3E2E",
"<  c #403F3F",
"1  c #793F2A",
"2  c #534336",
"3  c #5F4632",
"4  c #6D462E",
"5  c #704A2B",
"6  c #714B2B",
"7  c #724B2C",
"8  c #734B2C",
"9  c #734C2C",
"0  c #734C2D",
"q  c #744C2D",
"w  c #754C2D",
"e  c #764E2E",
"r  c #774F2F",
"t  c #784F2F",
"y  c #604632",
"u  c #614733",
"i  c #6F4A35",
"p  c gray25",
"a  c #414141",
"s  c #424141",
"d  c #434242",
"f  c #444444",
"g  c #464646",
"h  c #474646",
"j  c #484747",
"k  c #484848",
"l  c #494848",
"z  c #4A4949",
"x  c #4B4B4B",
"c  c #4F4E4E",
"v  c #504E4E",
"b  c #514F4F",
"n  c #52504F",
"m  c #535252",
"M  c #555454",
"N  c #565454",
"B  c #575555",
"V  c #575655",
"C  c #575656",
"Z  c #585656",
"A  c #595756",
"S  c #585757",
"D  c #595757",
"F  c #5B5756",
"G  c #5A5757",
"H  c #5F5754",
"J  c #5B5857",
"K  c #5B5957",
"L  c #5D5855",
"P  c #5F5854",
"I  c #595858",
"U  c #5A5858",
"Y  c #5B5959",
"T  c #5D5B5A",
"R  c #5D5B5B",
"E  c #5E5C5C",
"W  c #5F5D5C",
"Q  c #6F594C",
"!  c #785845",
"~  c #7A5A47",
"^  c #635A53",
"/  c #645B53",
"(  c #635A54",
")  c #615F5E",
"_  c #615F5F",
"`  c #625F5E",
"'  c #626060",
"]  c #646261",
"[  c #656261",
"{  c #656262",
"}  c #656362",
"|  c #676464",
" . c #686666",
".. c #696767",
"X. c #6C6867",
"o. c #6D6A69",
"O. c #74706E",
"+. c #74706F",
"@. c #75706F",
"#. c #75716F",
"$. c #767270",
"%. c #767373",
"&. c #7B7675",
"*. c #7C7776",
"=. c #7D7977",
"-. c #7F7A79",
";. c #8E3615",
":. c #8F3615",
">. c #913817",
",. c #933A19",
"<. c #BA3100",
"1. c #BB3200",
"2. c #BD3100",
"3. c #BD3200",
"4. c #BC3301",
"5. c #BD3402",
"6. c #BE3503",
"7. c #BF3503",
"8. c #C13502",
"9. c #C13705",
"0. c #C13805",
"q. c #C23806",
"w. c #C33A07",
"e. c #C43805",
"r. c #C53C09",
"t. c #C63C0A",
"y. c #C63D0A",
"u. c #C83E0C",
"i. c #9A401F",
"p. c #9B401F",
"a. c #9A411F",
"s. c #835538",
"d. c #845638",
"f. c #865838",
"g. c #875838",
"h. c #8F5F3B",
"j. c #8B5A3C",
"k. c #8C5B3D",
"l. c #8D5B3D",
"z. c #8D5B3E",
"x. c #905F3B",
"c. c #905D3E",
"v. c #905E3F",
"b. c #91603B",
"n. c #91613C",
"m. c #A7703C",
"M. c #AA723B",
"N. c #AA723C",
"B. c #B47537",
"V. c #B27338",
"C. c #CA400D",
"Z. c #CB410E",
"A. c #CC420F",
"S. c #CD420F",
"D. c #CF420E",
"F. c #CF430F",
"G. c #865B41",
"H. c #895C40",
"J. c #936041",
"K. c #A76F46",
"L. c #A87147",
"P. c #A97147",
"I. c #AA7148",
"U. c #B77842",
"Y. c #BA7B43",
"T. c #BA7D51",
"R. c #807B79",
"E. c #807B7A",
"W. c #807D7D",
"Q. c #817E7E",
"!. c #827F7F",
"~. c #BF8053",
"^. c #84807F",
"/. c #87827F",
"(. c #C08153",
"). c #C28254",
"_. c #C68556",
"`. c #C88657",
"'. c #848181",
"]. c #868281",
"[. c #858282",
"{. c #858383",
"}. c #868383",
"|. c #878484",
" X c #888381",
".X c #898383",
"XX c #898584",
"oX c #8B8684",
"OX c #8B8685",
"+X c #8B8785",
"@X c #898686",
"#X c #8A8686",
"$X c #8D8785",
"%X c #8F8A8A",
"&X c #918B87",
"*X c #938D8B",
"=X c #958F8A",
"-X c #9B9694",
";X c #9C9795",
":X c #9D9896",
">X c #9E9998",
",X c #A09B9A",
"<X c #A39D9A",
"1X c #A69E9A",
"2X c #A7A1A0",
"3X c #A9A3A0",
"4X c #A9A3A1",
"5X c #ABA5A4",
"6X c #ACA6A5",
"7X c #ADA7A6",
"8X c #B2ABA9",
"9X c #B5AEAB",
"0X c #B5AEAC",
"qX c #B6AFAD",
"wX c #C0B7B3",
"eX c #C0B8B3",
"rX c #C3BBB6",
"tX c #C7BEB9",
"yX c #C8BFBA",
/* pixels */
"                                                                                                                                ",
"                                                                                                                                ",
"                                                                                                                                ",
"                                                                                                                                ",
"                                                                                                                                ",
"                                                                                                                                ",
"                                                                                                                                ",
"                                                                                                                                ",
"                                                                A.A.A.A.A.A.                                                    ",
"                                                                A.A.A.A.A.A.                                                    ",
"                                                                y.y.y.y.y.y.                                                    ",
"                                                    A.A.A.A.A.C.3.1.1.1.1.1.                                                    ",
"                                                    A.A.A.A.A.C.1.1.1.1.1.1.                                                    ",
"                                                    0.0.0.9.0.9.1.1.1.1.1.1.                                                    ",
"                                                    3.1.1.1.1.1.1.1.1.1.1.1.                                                    ",
"                                                    1.1.1.1.1.1.1.1.1.1.1.1.                                                    ",
"                                      1.1.1.1.1.1.1.1.1.1.1.1.1.1.1.1.1.1.1.1.1.1.1.1.1.1.                                      ",
"                                      1.1.1.1.1.1.1.1.1.1.1.1.1.1.1.1.1.1.1.1.3.1.1.1.3.1.                                      ",
"                                      0.0.0.0.0.9.6.1.1.1.1.1.1.1.1.1.1.1.1.6.0.0.0.0.0.0.                                      ",
"                                      A.A.A.A.A.A.t.1.1.1.1.1.1.1.1.1.1.1.1.r.A.A.A.A.A.A.A.A.A.A.A.A.                          ",
"                                      A.A.A.A.A.A.r.1.1.1.3.1.3.1.1.1.1.1.1.r.A.A.A.A.A.A.A.A.A.A.A.A.                          ",
"                                                  u.t.t.r.r.r.r.1.1.1.1.1.1.6.0.0.0.0.9.w.A.A.A.A.A.A.A.A.A.A.A.A.              ",
"                                                    A.A.A.A.A.C.1.1.1.1.1.1.1.1.1.1.1.1.6.A.A.A.A.A.A.A.A.A.A.A.A.A.            ",
"                                                    A.A.A.A.A.A.6.5.5.6.3.6.1.1.1.1.1.1.8.A.A.A.A.A.A.A.A.A.A.A.A.A.            ",
"                                                    A.A.A.A.A.A.A.u.u.A.u.A.0.3.3.1.1.1.6.A.A.A.A.A.A.                          ",
"                                                    D.D.D.A.D.D.F.A.D.A.D.F.e.3.3.3.3.3.8.A.D.D.D.D.D.                          ",
"                                                  1 p.p.p.p.p.,.p.p.p.p.p.p.,.;.:.:.;.;.:.,.p.p.p.p.p.                          ",
"                          D D D D D D d # # # # # # # # # # d # # # # # # # # # # # # # < # d # # # #                           ",
"                          D D D D D D d # # # # # # # # # # # # # # # # # # # # # # # # # # # # # # #                           ",
"              D D D D B _ %.%.%.%.%.%.j + # # # # # # # # # # # # # # # # # # # # # # # # # # # # # # # @ < # # $               ",
"            D D D D D D ' }.}.}.}.}.}.x X X X X # X # # # # # X # # X # O X # # # # # # # # # # # o # # @ @ @ @ # #             ",
"            R R R R R R | @X@X@X@X@X@XD l x x l x f d d d < d d d d d d d d d d < d d < d d < d d d d d a a a a d d             ",
"            &.&.-.&.&.&.!.2X2X2X2X2X1X,X>X>X,X-X,X^.` ` _ _ _ _ W _ ` ` ` ` ` ` _ _ _ ` ` ` ` ` ` ` ` ` ` ` ` ` ` `             ",
"            Q.E.E.E.E.E. X5X5X5X5X5X5X5X5X5X5X5X7X&X_ ] ` { { { ] ] } } } } } } ] ] ] ] } } } } } } } } } } } } } }             ",
"            $X$X$X$X$X$X*X4X4X4X4X4X3X9X0X0X9X9XqX<X!. X X X.X^.%.O.O.O.#.#.#.#.%.@.@.@.O.O.O.O.#.#.#.#.O.O.%.O.O.O.            ",
"            1X1X1X1X1X1X1X1X1X1X1X1X<XwXtXyXtXtXyXyXtXtXtXyXtXrX=X&X&X&X&X&X&X&X&X&X&X&X*X&X&X&X&X&X&X&X&X&X&X&X&X&X            ",
"            1X1X1X1X1X1X1X1X1X1X1X1X1XwXyXyXyXtXtXyXyXtXtXtXtXrX=X&X&X*X&X&X&X&X&X&X&X&X&X&X&X&X&X&X&X&X&X&X&X&X&X&X            ",
"D D D D D B X.O.@.@.+.O.O.O.O.+.@.@.@.=.E.E.E.E.R. X-X-X;X;X;X;X+X@X{.|.|.+Xo.K F F F F F F F F K K K U K K D K K n # # # # # # ",
"D D D D D D D B D D B D B D D D D D B B B B B B N  .|.^.'.'.'.'.}.}.{.'.}.{.C X . @ o . @ @ @ @ O O O O o O O O O O # # # # # # ",
"D D D D D D D D D S S S D D D D D S S S F S S S S  .Q.Q.W.W.W.W.Q.-.'.-.-.'.C # a < a a a @ @ @ O # # # # # # # # # # # # # # # ",
"            D D D D D D D D D D D D D D D D D D Z Y E E E E E E E W W W W E D N N N N N b @ @ @ # # # # # # # # # #             ",
"            D D D D D D D D D D D D D D D D D D Y Z Z Y Z Z Y Z K B S S D D D D D D S S m o @ @ # O o # # # # # # #             ",
"              D D D D D D D D D D D D D D D D D Y Z F S Y Y Z Z S S S S D D D D S S S F N l l l f x f d # # # # #               ",
"                          D D D D D D D D D D D Z Z Y S Z Z Z Y F S S S D D D D F F S S S S S F D D K                           ",
"                          D D D D D D D D D D D S S F F S F S S S S D D D D D D S S F Y S S S S D D D                           ",
"                                      D D D D D F S S S S S S S S F D D D D D D S F S S S                                       ",
"                                      D D D D D Z S S Z F S B S S S S D D D D D S S F F S                                       ",
"                                      D D D D D Z Z ( ( F ( ( F ( ( ( ( ^ ^ L D F S S S F                                       ",
"                                                    G.G.G.G.G.k.m.N.N.N.N.M.                                                    ",
"                                                    z.z.z.z.z.v.V.B.B.B.B.B.                                                    ",
"                                                  4 d.d.d.d.d.g.U.Y.Y.Y.Y.Y.                                                    ",
"                                      * * * * * * : q 7 5 0 0 t (._._._._._.                                                    ",
"                                      * * * * * * : q 0 9 5 0 q (._._._._._.                                                    ",
"                                                  d.I.I.P.P.P.K.n.h.x.x.b.b.i - ; ; ; ; ;                                       ",
"                                                    `.`.`.`.`.).q 5 5 5 5 5 > - ; ; ; ; ;                                       ",
"                                                    (.T.~.~.~.T.t 7 7 7 9 q > - ; ; ; ; ;                                       ",
"                                                    J.v.J.v.J.J.q 0 5 q 5 8                                                     ",
"                                                    z.z.z.z.z.z.q 0 q 5 q 8                                                     ",
"                                                  Q ~ ~ ~ ~ ~ ! u 3 3 3 u u 2                                                   ",
"                          D D D D D D D D D D D D D D D D D S B < # # # # # # # # # # # # # # # # # #                           ",
"                          D D D D D D D D D D D D D D D F S S S $ # # # # # # # # # # # # # # # # # #                           ",
"              D D D D D D D D D D D D D D D D D D D D D S S F S v c v v c c d # # # # # # # # # # # # # # # # # #               ",
"            D D D D D D D D D D D D D D D D D D D D D D S F S F U S D F D D x X # # # # # # # # # # # # # # # # # #             ",
"            D D D D D D D D D D D D D D D D D D D D D D S F S S S S D D D R f X # # # # # # # # # # # # # # # # # #             "
};
