/* XPM */
static char *_d8b127f1e164ee2c9bc490353013d53wYotAriWacME0GCd[] = {
/* columns rows colors chars-per-pixel */
"64 64 234 2 ",
"   c None",
".  c #393939",
"X  c gray23",
"o  c #3B3B3C",
"O  c #3B3C3C",
"+  c #3C3C3C",
"@  c #3C3D3D",
"#  c gray24",
"$  c #3E3E3E",
"%  c #3F3F3F",
"&  c #44291B",
"*  c #452A1B",
"=  c #4C322E",
"-  c #4E332F",
";  c #4F342F",
":  c #573722",
">  c #5C3D2E",
",  c #5E3E2E",
"<  c #403F3F",
"1  c #534336",
"2  c #5F4632",
"3  c #6D462E",
"4  c #704A2B",
"5  c #714B2B",
"6  c #724B2C",
"7  c #734B2C",
"8  c #734C2C",
"9  c #734C2D",
"0  c #744C2D",
"q  c #754C2D",
"w  c #764E2E",
"e  c #774F2F",
"r  c #784F2F",
"t  c #604632",
"y  c #614733",
"u  c #6F4A35",
"i  c gray25",
"p  c #414141",
"a  c #424141",
"s  c #434242",
"d  c #444444",
"f  c #464646",
"g  c #474646",
"h  c #484747",
"j  c #484848",
"k  c #494848",
"l  c #4A4949",
"z  c #4B4B4B",
"x  c #4F4E4E",
"c  c #504E4E",
"v  c #514F4F",
"b  c #52504F",
"n  c #535252",
"m  c #555454",
"M  c #565454",
"N  c #575555",
"B  c #575655",
"V  c #575656",
"C  c #585656",
"Z  c #595756",
"A  c #585757",
"S  c #595757",
"D  c #5B5756",
"F  c #5A5757",
"G  c #5F5754",
"H  c #5B5857",
"J  c #5B5957",
"K  c #5D5855",
"L  c #5F5854",
"P  c #595858",
"I  c #5A5858",
"U  c #5B5959",
"Y  c #5D5B5A",
"T  c #5D5B5B",
"R  c #5E5C5C",
"E  c #5F5D5C",
"W  c #6F594C",
"Q  c #785845",
"!  c #7A5A47",
"~  c #635A53",
"^  c #645B53",
"/  c #635A54",
"(  c #615F5E",
")  c #615F5F",
"_  c #625F5E",
"`  c #626060",
"'  c #646261",
"]  c #656261",
"[  c #656262",
"{  c #656362",
"}  c #676464",
"|  c #686666",
" . c #696767",
".. c #6C6867",
"X. c #6D6A69",
"o. c #74706E",
"O. c #74706F",
"+. c #75706F",
"@. c #75716F",
"#. c #767270",
"$. c #767373",
"%. c #7B7675",
"&. c #7C7776",
"*. c #7D7977",
"=. c #7F7A79",
"-. c #8E3615",
";. c #8F3615",
":. c #883619",
">. c #903716",
",. c #933A19",
"<. c #953C1B",
"1. c #BA3100",
"2. c #BB3200",
"3. c #BD3100",
"4. c #BD3200",
"5. c #BC3301",
"6. c #BD3301",
"7. c #BE3200",
"8. c #BE3300",
"9. c #BD3402",
"0. c #BE3503",
"q. c #BF3503",
"w. c #BF3603",
"e. c #C13705",
"r. c #C13805",
"t. c #C23806",
"y. c #C23906",
"u. c #C33907",
"i. c #C33A07",
"p. c #C43805",
"a. c #C43A08",
"s. c #C53B09",
"d. c #C53C09",
"f. c #C63C09",
"g. c #C63C0A",
"h. c #C63D0A",
"j. c #C83C08",
"k. c #C93F0C",
"l. c #99401E",
"z. c #9A401F",
"x. c #9A411F",
"c. c #944224",
"v. c #835538",
"b. c #845638",
"n. c #865838",
"m. c #875838",
"M. c #8F5F3B",
"N. c #8B5A3C",
"B. c #8C5B3D",
"V. c #8D5B3D",
"C. c #8D5B3E",
"Z. c #905F3B",
"A. c #905D3E",
"S. c #905E3F",
"D. c #91603B",
"F. c #91613C",
"G. c #A7703C",
"H. c #AA723B",
"J. c #AA723C",
"K. c #B47537",
"L. c #B27338",
"P. c #CA400D",
"I. c #CA410E",
"U. c #CB410E",
"Y. c #CE410D",
"T. c #CC420F",
"R. c #CD420F",
"E. c #CD430F",
"W. c #CF420E",
"Q. c #CF430F",
"!. c #CD4310",
"~. c #865B41",
"^. c #895C40",
"/. c #936041",
"(. c #A76F46",
"). c #A87147",
"_. c #A97147",
"`. c #AA7148",
"'. c #B77842",
"]. c #BA7B43",
"[. c #BA7D51",
"{. c #807B79",
"}. c #807B7A",
"|. c #807D7D",
" X c #817E7E",
".X c #827F7F",
"XX c #BF8053",
"oX c #84807F",
"OX c #87827F",
"+X c #C08153",
"@X c #C28254",
"#X c #C68556",
"$X c #C88657",
"%X c #848181",
"&X c #868281",
"*X c #858282",
"=X c #858383",
"-X c #868383",
";X c #878484",
":X c #888381",
">X c #898383",
",X c #898584",
"<X c #8B8684",
"1X c #8B8685",
"2X c #8B8785",
"3X c #898686",
"4X c #8A8686",
"5X c #8D8785",
"6X c #8F8A8A",
"7X c #918B87",
"8X c #938D8B",
"9X c #958F8A",
"0X c #9B9694",
"qX c #9C9795",
"wX c #9D9896",
"eX c #9E9998",
"rX c #A09B9A",
"tX c #A39D9A",
"yX c #A69E9A",
"uX c #A7A1A0",
"iX c #A9A3A0",
"pX c #A9A3A1",
"aX c #ABA5A4",
"sX c #ACA6A5",
"dX c #ADA7A6",
"fX c #B2ABA9",
"gX c #B5AEAB",
"hX c #B5AEAC",
"jX c #B6AFAD",
"kX c #C0B7B3",
"lX c #C0B8B3",
"zX c #C3BBB6",
"xX c #C7BEB9",
"cX c #C8BFBA",
/* pixels */
"                                                                !.!.P.!.!.!.                                                    ",
"                                                                !.P.!.!.P.!.                                                    ",
"                                                                !.!.P.P.T.T.                                                    ",
"                                                    T.T.P.!.!.P.P.!.!.!.T.T.                                                    ",
"                                                    !.!.P.!.!.!.T.T.T.T.T.T.                                                    ",
"                                      5.5.5.5.5.5.s.P.!.P.!.P.!.                                                                ",
"                                      5.5.5.5.5.1.e.!.!.!.!.P.!.                                                                ",
"                                      5.8.5.6.6.5.e.P.P.P.P.P.P.                                                                ",
"                                      P.P.P.P.P.P.a.5.5.5.5.5.5.                                                                ",
"                                      !.!.P.!.!.!.a.1.5.5.5.5.5.                                                                ",
"                                      !.!.!.P.P.!.a.1.1.5.1.5.1.                                                                ",
"                          T.T.T.!.P.!.P.P.!.!.!.!.f.1.5.1.5.5.5.                                                                ",
"                          T.T.T.P.!.!.!.!.!.!.P.!.f.5.5.5.5.5.5.                                                                ",
"                          T.T.T.!.!.P.a.0.y.w.0.0.a.f.a.f.f.s.f.P.T.T.T.T.T.                                                    ",
"                          T.T.T.!.P.!.6.5.5.1.5.5.a.!.!.T.T.T.T.!.T.T.T.T.T.                                                    ",
"                          T.T.T.!.P.!.6.5.5.5.1.5.0.!.!.T.T.T.T.P.P.P.P.P.P.                                                    ",
"                          T.T.T.T.T.T.                          5.5.5.5.5.5.f.P.T.T.T.T.T.                                      ",
"                          T.T.T.T.T.T.                          5.5.5.5.5.5.d.!.T.T.T.T.T.                                      ",
"                          T.T.T.T.T.T.                          5.1.5.1.5.1.f.!.T.T.T.T.T.                                      ",
"                                      T.T.T.T.T.T.T.            1.5.1.5.5.1.f.P.T.T.T.T.T.                                      ",
"                                      T.T.T.T.T.T.T.            5.5.1.5.1.1.a.!.T.P.!.T.!.                                      ",
"                                                    T.T.T.!.!.k.5.1.5.1.5.1.6.y.y.e.y.y.y.!.T.T.T.T.T.                          ",
"                                                    T.T.T.T.!.!.5.5.1.5.5.5.5.1.5.1.5.5.0.!.T.T.T.T.T.                          ",
"                                                    P.P.P.P.k.k.5.5.5.5.5.5.5.5.1.5.1.5.6.T.T.T.T.T.T.                          ",
"                                      T.T.T.T.T.T.f.6.6.8.5.8.0.k.k.T.k.k.T.y.8.5.1.5.1.5.                                      ",
"                                      T.W.W.W.W.W.j.8.8.8.8.5.8.T.!.W.W.W.W.e.8.8.8.3.8.8.                                      ",
"                                      c.z.z.z.z.z.<.-.-.-.>.>.-.<.z.z.z.<.z.,.-.>.-.-.-.:.                                      ",
"                          S S S S S S s # # # # # # # # # # # # < # # # < # # + # # # # # # # # # # #                           ",
"                          S S S S S S s # # # # # # # # # # # # # # # # # # # # # # # # # # # # # # #                           ",
"              S S S S N ) $.$.$.$.$.$.h + # # # # # # # # # # # # # # # # # # # # # # # # # # # # # # # # # # # #               ",
"            S S S S S S ` -X-X-X>X-X-Xz X X X X # + # o # X # X # # # # # # # # # # # # # # # # # X # # # # # o # #             ",
"            T T T T T T } 3X3X3X3X3X3XS k z z k z d s s s s s s < s s < s s s s < s s < s s < s s s s s < s s s s s             ",
"            *.%.%.*.%.%.OXuXuXuXuXuXuXrXeXeXeXwXrX=XE _ ) ) ) ) ) ) _ _ _ _ ( ( _ ( ( _ ( ( _ ( ( _ ( ( _ _ _ _ ( (             ",
"            {.{.|.{.{.{.:XaXaXaXaXaXaXaXaXaXsXaXdX6X_ _ ' ] ` ] ] ] { { { { { ' { { ' { { ' { { ' { } ' { { ' { } '             ",
"            5X5X5X5X5X5X9XpXaXuXuXiXaXfXhXgXgXgXjXtXOX>XOX:X>XOX$.+.+.+.@.@.+.+.+.+.+.$.+.+.@.@.@.@.@.@.+.+.+.+.@.@.            ",
"            yXyXyXyXyXyXyXtXyXyXyXyXtXlXxXxXxXxXxXxXxXxXxXcXxXzX9X7X7X7X7X7X7X7X7X7X7X7X7X7X7X7X7X7X7X7X7X7X7X7X7X7X            ",
"            tXyXyXtXyXyXtXtXyXyXyXtXyXlXcXxXxXxXxXcXcXcXxXxXxXzX9X7X7X7X7X7X7X7X7X7X7X7X7X7X7X7X7X7X7X7X7X7X7X7X7X7X            ",
"H A H A S m ..+.+.+.+.+.O.+.+.+.+.+.+.*.=.=.}.}.{.:XwXqX0X0XqX0X2X2X;X;X,X2XX.J K S P K P K S J J J J J J J S J J b # # $ # # # ",
"A H A A S S S S m S S S S N N S S B Z B N N N N N  .=XOXoX-XoX-X%X=X=X%X=X;XV . X X X X X # X o O O O O O O O O O O # # # # # # ",
"A A A H S S S S S S S S S S S S S S S J P P A A N } %X=.|.|.|.|..X=..X.X=.oXV $ i i i s # # # # O $ O $ # # # # # # # # # # # # ",
"            H A S S S S S S S S S S S S S S S S S H R R R R R R R R R R R R S N m m m m c # # # # # # # # # # # # #             ",
"            H A S S S S S S S S S S S S S S S S S S S S S S S S V P V J S S S S S S S H m # # # # O O # # # # # # #             ",
"              A S S S S S S S S S S S S S S S S S S S S S S S S A A P J S S S S S S S S m d h h d z d s # # # # #               ",
"                          S S S S S S S S S S S S S S S S S S S A A P N S S S S S S S S S S S S S S J                           ",
"                          S S S S S S S S S S S S S S S S S S S A A S S S S S S S S S S S S S S S S S                           ",
"                                      S S S S S S S S S S S S S A H S S S S S S S S S S S                                       ",
"                                      S S S S S S S S S S S S S A S S S S S S S S S S S S                                       ",
"                                      S S S S S S S G G G G G G / / ~ ~ ~ ~ K S S S S S S                                       ",
"                                                    ~.~.~.~.~.~.G.J.J.J.J.H.                                                    ",
"                                                    V.V.V.V.V./.L.K.K.K.K.K.                                                    ",
"                                                  3 b.v.b.b.b.b.'.].].].].].                                                    ",
"                                      * * * * * & : 9 6 6 6 6 r +X#X#X#X#X#X                                                    ",
"                                      * * * * * & : 9 6 6 6 6 r +X#X#X#X#X#X                                                    ",
"                                                  n.`.`.).).).).F.M.Z.Z.D.D.u - ; ; ; ; ;                                       ",
"                                                    $X$X#X$X$X@X0 4 4 4 4 4 > - ; ; ; ; ;                                       ",
"                                                    XXXXXXXXXX[.r 6 6 6 8 0 > - ; ; ; ; ;                                       ",
"                                                    /././././.A.0 9 4 0 4 7                                                     ",
"                                                    V.V.V.V.V.N.0 9 0 4 0 7                                                     ",
"                                                  W ! ! ! ! ! Q y 2 2 2 y y 1                                                   ",
"                          A H A S S S S S S S S S S S S S S S N < # # # # # # # # # # # # # # # # # #                           ",
"                          A A H S S S S S S S S S S S S S S S N i # # # # # # # # # # # # # # # # # #                           ",
"              H H A A H A H A A S S S S S S S S S S S S S S S S x x c c x x s # # # # # # # # # # # # # # # # # #               ",
"            A H A A A A H A H A S S S S S S S S S S S S S S S S S S S D S S z X # # # # # # # # # # # # # # # # # #             ",
"            A A A H H A A A H A S S S S S S S S S S S S S S S S S S S S S T d X # # # # # # # # # # # # # # # # # #             "
};
