/* XPM */
static char *_64076a6c7fa49d0e7185c2a0dc6bc8bmizgM0UBq2GqPRDq[] = {
/* columns rows colors chars-per-pixel */
"64 64 227 2 ",
"   c None",
".  c #393939",
"X  c gray23",
"o  c #3B3B3C",
"O  c #3B3C3C",
"+  c #3C3C3C",
"@  c #3C3D3D",
"#  c gray24",
"$  c #3E3E3E",
"%  c #3F3F3F",
"&  c #44291B",
"*  c #452A1B",
"=  c #4C322E",
"-  c #4E332F",
";  c #4F342F",
":  c #573722",
">  c #5C3D2E",
",  c #5E3E2E",
"<  c #403F3F",
"1  c #534336",
"2  c #5F4632",
"3  c #6D462E",
"4  c #704A2B",
"5  c #714B2B",
"6  c #724B2C",
"7  c #734B2C",
"8  c #734C2C",
"9  c #734C2D",
"0  c #744C2D",
"q  c #754C2D",
"w  c #764E2E",
"e  c #774F2F",
"r  c #784F2F",
"t  c #604632",
"y  c #614733",
"u  c #6F4A35",
"i  c gray25",
"p  c #414141",
"a  c #424141",
"s  c #434242",
"d  c #444444",
"f  c #464646",
"g  c #474646",
"h  c #484747",
"j  c #484848",
"k  c #494848",
"l  c #4A4949",
"z  c #4B4B4B",
"x  c #4F4E4E",
"c  c #504E4E",
"v  c #514F4F",
"b  c #52504F",
"n  c #535252",
"m  c #555454",
"M  c #565454",
"N  c #575555",
"B  c #575655",
"V  c #575656",
"C  c #585656",
"Z  c #595756",
"A  c #585757",
"S  c #595757",
"D  c #5B5756",
"F  c #5A5757",
"G  c #5F5754",
"H  c #5B5857",
"J  c #5B5957",
"K  c #5D5855",
"L  c #5F5854",
"P  c #595858",
"I  c #5A5858",
"U  c #5B5959",
"Y  c #5D5B5A",
"T  c #5D5B5B",
"R  c #5E5C5C",
"E  c #5F5D5C",
"W  c #6F594C",
"Q  c #785845",
"!  c #7A5A47",
"~  c #635A53",
"^  c #645B53",
"/  c #635A54",
"(  c #615F5E",
")  c #615F5F",
"_  c #625F5E",
"`  c #626060",
"'  c #646261",
"]  c #656261",
"[  c #656262",
"{  c #656362",
"}  c #676464",
"|  c #686666",
" . c #696767",
".. c #6C6867",
"X. c #6D6A69",
"o. c #74706E",
"O. c #74706F",
"+. c #75706F",
"@. c #75716F",
"#. c #767270",
"$. c #767373",
"%. c #7B7675",
"&. c #7C7776",
"*. c #7D7977",
"=. c #7F7A79",
"-. c #8E3615",
";. c #8F3615",
":. c #903716",
">. c #953C1B",
",. c #BA3100",
"<. c #BB3200",
"1. c #BD3100",
"2. c #BD3200",
"3. c #BC3301",
"4. c #BD3301",
"5. c #BF3300",
"6. c #BD3402",
"7. c #BF3503",
"8. c #C13705",
"9. c #C13805",
"0. c #C23806",
"q. c #C53B09",
"w. c #C53C09",
"e. c #C63C09",
"r. c #C63C0A",
"t. c #C63D0A",
"y. c #C73D0A",
"u. c #C83C08",
"i. c #C83E0C",
"p. c #C83F0C",
"a. c #C93F0C",
"s. c #99401E",
"d. c #9A401F",
"f. c #9A411F",
"g. c #924022",
"h. c #944224",
"j. c #835538",
"k. c #845638",
"l. c #865838",
"z. c #875838",
"x. c #8F5F3B",
"c. c #8B5A3C",
"v. c #8C5B3D",
"b. c #8D5B3D",
"n. c #8D5B3E",
"m. c #905F3B",
"M. c #905D3E",
"N. c #905E3F",
"B. c #91603B",
"V. c #91613C",
"C. c #A7703C",
"Z. c #AA723B",
"A. c #AA723C",
"S. c #B47537",
"D. c #B27338",
"F. c #CA400D",
"G. c #CB410E",
"H. c #CE410D",
"J. c #CC420F",
"K. c #CD430F",
"L. c #CF420E",
"P. c #CF430F",
"I. c #D0420E",
"U. c #CD4310",
"Y. c #865B41",
"T. c #895C40",
"R. c #936041",
"E. c #A76F46",
"W. c #A87147",
"Q. c #A97147",
"!. c #AA7148",
"~. c #B77842",
"^. c #BA7B43",
"/. c #BA7D51",
"(. c #807B79",
"). c #807B7A",
"_. c #807D7D",
"`. c #817E7E",
"'. c #827F7F",
"]. c #BF8053",
"[. c #84807F",
"{. c #87827F",
"}. c #C08153",
"|. c #C28254",
" X c #C68556",
".X c #C88657",
"XX c #848181",
"oX c #868281",
"OX c #858282",
"+X c #858383",
"@X c #868383",
"#X c #878484",
"$X c #888381",
"%X c #898383",
"&X c #898584",
"*X c #8B8684",
"=X c #8B8685",
"-X c #8B8785",
";X c #898686",
":X c #8A8686",
">X c #8D8785",
",X c #8F8A8A",
"<X c #918B87",
"1X c #938D8B",
"2X c #958F8A",
"3X c #9B9694",
"4X c #9C9795",
"5X c #9D9896",
"6X c #9E9998",
"7X c #A09B9A",
"8X c #A39D9A",
"9X c #A69E9A",
"0X c #A7A1A0",
"qX c #A9A3A0",
"wX c #A9A3A1",
"eX c #ABA5A4",
"rX c #ACA6A5",
"tX c #ADA7A6",
"yX c #B2ABA9",
"uX c #B5AEAB",
"iX c #B5AEAC",
"pX c #B6AFAD",
"aX c #C0B7B3",
"sX c #C0B8B3",
"dX c #C3BBB6",
"fX c #C7BEB9",
"gX c #C8BFBA",
/* pixels */
"                                                                            J.J.J.J.J.J.J.                                      ",
"                                                                            J.J.J.J.J.J.J.                                      ",
"                                                                            J.J.J.J.J.J.J.                                      ",
"                                                                J.J.J.J.J.J.                                                    ",
"                                                                J.J.J.J.J.J.                                                    ",
"                                                                                                                                ",
"                                                                                                                                ",
"                                                                                                                                ",
"                                                    U.U.G.U.G.U.J.J.J.J.J.J.                                                    ",
"                                                    G.U.U.G.U.U.J.J.J.J.J.J.                                                    ",
"                                                  i.q.t.q.e.t.t.J.J.J.J.J.J.                                                    ",
"                                      J.J.J.J.J.U.e.<.<.<.<.<.3.G.J.J.J.J.J.                                                    ",
"                                      J.G.U.G.U.G.e.<.<.<.<.<.3.G.J.J.J.J.J.                                                    ",
"                          J.J.J.U.G.J.J.U.G.U.G.U.q.<.<.<.<.<.3.G.J.J.J.J.J.                                                    ",
"                          J.J.J.G.U.G.U.G.U.G.U.G.q.,.<.<.<.<.3.G.J.J.J.J.G.                                                    ",
"                          J.J.J.U.G.U.G.U.G.U.G.U.q.,.<.<.<.<.3.i.G.G.i.G.G.                                                    ",
"                                      J.J.J.J.J.G.e.<.<.<.<.<.<.6.3.7.3.3.<.q.U.U.G.U.U.U.                                      ",
"                                      J.J.J.J.J.U.e.<.<.<.<.<.<.3.<.<.<.<.,.q.U.G.U.G.U.G.                                      ",
"                                      J.J.J.J.J.J.e.8.9.7.7.9.7.<.<.<.<.<.<.q.q.q.q.e.e.e.                                      ",
"                                                    U.G.U.U.U.U.3.<.<.<.<.<.<.<.<.<.<.<.7.U.G.U.J.J.J.                          ",
"                                                    U.U.U.U.U.U.3.<.<.<.<.<.<.<.<.<.<.<.7.U.U.U.J.J.U.                          ",
"                                                    8.9.7.8.7.8.<.<.<.<.<.<.<.<.<.<.<.<.6.9.7.9.9.9.9.e.J.J.J.J.J.              ",
"                                                    <.<.<.<.<.<.<.3.<.<.<.<.<.<.<.<.<.<.<.<.<.2.<.<.<.G.J.J.J.J.J.J.            ",
"                                                    <.<.<.<.<.2.3.6.6.3.6.6.6.6.6.7.2.7.2.<.<.2.<.<.<.i.J.J.J.J.J.J.            ",
"                                      J.J.J.J.J.J.e.<.<.,.6.,.6.F.G.F.F.F.F.F.F.a.a.J.a.a.                                      ",
"                                      J.J.I.I.I.I.u.2.2.,.,.6.2.J.J.I.J.I.I.I.J.I.I.I.I.I.                                      ",
"                                      h.d.d.d.d.d.>.-.-.-.-.:.:.d.d.d.d.f.f.d.d.>.d.>.>.h.                                      ",
"                          S S S S S S s # # # # # # # # $ $ $ @ + # # # # # + + < < < < # # # # % % %                           ",
"                          S S S S S S s # # # # # # # # # # @ @ o $ $ $ # # # # < X @ @ @ @ @ @ o # #                           ",
"              S S S S N ) $.$.$.$.$.$.h + # # # # # # # # # @ @ $ $ o o # # # # @ X < X @ < @ < % o # # @ @ % $ #               ",
"            S S S S S S ` @X@X@X%X@X@Xz X X X X # + # + # o O O $ o $ $ $ O # # @ < < @ < X @ @ @ @ # # O @ # O # #             ",
"            T T T T T T } ;X;X;X;X;X;XS k z z k z d s s s 1 i i p p p p p i 1 s a a < a a a p p p p s s @ 1 s s s s             ",
"            %.%.&.&.%.%.'.0XwXwX0X0XwX8X6X5X6X5X7X%X( ) ( ( ) ) ) ) ( ( ( ( ( ( ) ) ) ) ) ( ( ( ( ( ( ( ( ( ( ( ( (             ",
"            '.(.).(.(.(.%XtXeXqXeXeXeXqXeXeXtXeXtX-X( { ( ] ] ] ' ' { { { { { { { { { { { ] { { { { { { { { { { { {             ",
"            >X>X>X>X>X>X1XwXwXqXwXwXqXuXpXuXuXuXpX8X{.{.%X{.@X@X$.o.o.@.@.@.@.@.@.@.@.@.@.@.@.@.@.@.@.@.@.@.@.@.@.@.            ",
"            9X9X9X9X9X9X9X8X9X9X9X8XqXpXfXfXfXfXfXgXfXfXfXgXfXdX1X1X<X<X<X<X<X<X<X<X<X<X<X<X<X<X<X<X<X<X<X<X<X<X<X<X            ",
"            8X8X9X9X9X9X8X8X9X9X9X8X9XsXgXfXfXfXfXgXgXfXfXfXfXdX2X<X<X1X<X<X<X<X<X<X<X<X<X<X<X<X<X<X<X<X<X<X<X<X<X<X            ",
"S S S S S S X.+.+.+.+.+.o.o.@.+.+.+.@.*.=.=.).).*.*X4X3X4X4X4X4X-X;X+X#X&X-XX.H H H H H H H H H H H H H H H H H H b # # # # # # ",
"S S S S S S N N S N S S N S S S S S S M N N N N m X.@X@X+XXX@X[.@X@X+X+X@X+XN . O O X X X O X O O + + O O O O O O O # # # # # # ",
"S S S S S S S S S S S S S S S S S S S S S S S S N | `.=.=.`.=.`.`.=.'.=.=.XXP # # s # s < # # # + + # # # # # # # # # # # # # # ",
"            S S S S S S S S S S S S S S S S S S S H R R R R R R R R R R R R S N m m m m c X # # # # # # # # # # # #             ",
"            S S S S S S S S S S S S S S S S S S S S S S S S S S H A N H S S S S S S S S m X # # # O O # # # # # # #             ",
"              S S S S S S S S S S S S S S S S S S S S S S S S S S S P H S S S S S S S S m h h h d z d s # # # # #               ",
"                          S S S S S S S S S S S S S S S S S S S S P P N S S S S S S S S S S S S S S H                           ",
"                          S S S S S S S S S S S S S S S S S S S S S H N P P S S S S S S S S S S S S S                           ",
"                                      S S S S S S S S S S S S S S S A H S S P P S S S S S                                       ",
"                                      S S S S S S S S S S S S S N A A A N A P N S S S S S                                       ",
"                                      S S S S S S S G G G G G G / / / ~ / ^ K H S S S S S                                       ",
"                                                    Y.Y.Y.Y.Y.Y.C.A.A.A.A.Z.                                                    ",
"                                                    b.b.b.b.b.R.D.S.S.S.S.S.                                                    ",
"                                                  3 k.j.k.k.k.k.~.^.^.^.^.^.                                                    ",
"                                      * * * * * & : 9 6 6 6 6 r }. X X X X X                                                    ",
"                                      * * * * * & : 9 6 6 6 6 r }. X X X X X                                                    ",
"                                                  l.!.!.W.W.W.W.V.x.m.m.B.B.u - ; ; ; ; ;                                       ",
"                                                    .X.X X.X.X|.0 4 4 4 4 4 > - ; ; ; ; ;                                       ",
"                                                    ].].].].]./.r 6 6 6 8 0 > - ; ; ; ; ;                                       ",
"                                                    R.R.R.R.R.N.0 9 4 0 4 7                                                     ",
"                                                    b.b.b.b.b.c.0 9 0 4 0 7                                                     ",
"                                                  W ! ! ! ! ! Q y 2 2 2 y y 1                                                   ",
"                          S S S S S S S S S S S S S S S S S S N < # # # # # # # # # # # # # # # # # #                           ",
"                          S S S S S S S S S S S S S S S S S S N % # # # # # # # # # # # # # # # # # #                           ",
"              S S S S S S S S S S S S S S S S S S S S S S S S S c x c c x x s # # # # # # # # # # # # # # # # # #               ",
"            S S S S S S S S S S S S S S S S S S S S S S S S S S S S S D S S z X # # # # # # # # # # # # # # # # # #             ",
"            S S S S S S S S S S S S S S S S S S S S S S S S S S S S S S S T d X # # # # # # # # # # # # # # # # # #             "
};
