/* XPM */
static char *result[] = {
/* columns rows colors chars-per-pixel */
"64 64 241 2 ",
"   c #1B121C",
".  c #1C121C",
"X  c #1D121C",
"o  c #1C131C",
"O  c #1E131C",
"+  c #1F131C",
"@  c #1F131D",
"#  c #1C151C",
"$  c #1F141D",
"%  c #1C161C",
"&  c #191A1A",
"*  c #181B1B",
"=  c #1B1A1B",
"-  c #1A1B1B",
";  c #1B1B1B",
":  c #1C1B1B",
">  c #1D1B1B",
",  c #1F1B1C",
"<  c gray11",
"1  c #1E1E1E",
"2  c gray12",
"3  c #20141D",
"4  c #21141D",
"5  c #22151D",
"6  c #23151D",
"7  c #25161E",
"8  c #26161E",
"9  c #27161E",
"0  c #26171E",
"q  c #201B1C",
"w  c #211B1C",
"e  c #221B1C",
"r  c #261B1D",
"t  c #271B1D",
"y  c #281B1D",
"u  c #291B1D",
"i  c #28181E",
"p  c #291B1E",
"a  c #2C191F",
"s  c #2C1A1F",
"d  c #2D1A1F",
"f  c #2F1A1F",
"g  c #2F1C1D",
"h  c #301B1F",
"j  c #341C1F",
"k  c #321C20",
"l  c #331C20",
"z  c #351D20",
"x  c #361D20",
"c  c #361E20",
"v  c #361E21",
"b  c #371E21",
"n  c #381E20",
"m  c #381E21",
"M  c #381F21",
"N  c #391F21",
"B  c #3A1F21",
"V  c #3D1C20",
"C  c #3D1C22",
"Z  c #3E1C22",
"A  c #3F1C23",
"S  c #232323",
"D  c #242020",
"F  c #272223",
"G  c gray14",
"H  c gray15",
"J  c #262727",
"K  c #272727",
"L  c #282727",
"P  c #2D2627",
"I  c #2C2727",
"U  c #2D2827",
"Y  c gray16",
"T  c #2C2C2C",
"R  c #332123",
"E  c #312627",
"W  c #342526",
"Q  c #3B2021",
"!  c #382022",
"~  c #3C2022",
"^  c #3D2022",
"/  c #3D2122",
"(  c #3C2223",
")  c #332827",
"_  c #36282A",
"`  c #35302B",
"'  c #343434",
"]  c #353535",
"[  c #353636",
"{  c #3B3031",
"}  c #3B3232",
"|  c gray22",
" . c gray23",
".. c #3C3A3B",
"X. c gray24",
"o. c #3D3E3E",
"O. c #3E3E3E",
"+. c #451B23",
"@. c #421C23",
"#. c #451C23",
"$. c #461C24",
"%. c #4B1C22",
"&. c #4A1C24",
"*. c #4B1F27",
"=. c #501C26",
"-. c #511C26",
";. c #531C26",
":. c #541C26",
">. c #541C27",
",. c #551C27",
"<. c #561C27",
"1. c #571C27",
"2. c #581C27",
"3. c #591C27",
"4. c #5A1C27",
"5. c #5C1C27",
"6. c #5D1C28",
"7. c #621C28",
"8. c #651D28",
"9. c #661D28",
"0. c #6D1D29",
"q. c #701D27",
"w. c #701D29",
"e. c #731D29",
"r. c #771D2A",
"t. c #7B1E29",
"y. c #781D2A",
"u. c #7C1E29",
"i. c #7D1E29",
"p. c #7E1E29",
"a. c #7E1E2A",
"s. c #412223",
"d. c #422323",
"f. c #442323",
"g. c #452323",
"h. c #442127",
"j. c #492524",
"k. c #4D2625",
"l. c #4E2725",
"z. c #512826",
"x. c #522826",
"c. c #552926",
"v. c #562927",
"b. c #5B2927",
"n. c #582A27",
"m. c #592B27",
"M. c #5B2A27",
"N. c #5A2B27",
"B. c #512B28",
"V. c #572C28",
"C. c #5B2B28",
"Z. c #582C28",
"A. c #5C2C28",
"S. c #5D2C28",
"D. c #5E2C28",
"F. c #4D312E",
"G. c #4D322F",
"H. c #4A3839",
"J. c #4F3A3B",
"K. c #72202A",
"L. c #693A2C",
"P. c #713B26",
"I. c #794E30",
"U. c #811E2A",
"Y. c #821E2A",
"T. c #831E2B",
"R. c #841E2B",
"E. c #861E2B",
"W. c #871E2B",
"Q. c #881E2B",
"!. c #891E2B",
"~. c #8A1E2B",
"^. c #8B1E2B",
"/. c #8C1E2B",
"(. c #8D1E2B",
"). c #971F2C",
"_. c #84202B",
"`. c #892129",
"'. c #8E2129",
"]. c #90212A",
"[. c #98202C",
"{. c #9B202D",
"}. c #9E202D",
"|. c #A4202D",
" X c #AA222D",
".X c #AA212E",
"XX c #AC222E",
"oX c #B0222E",
"OX c #BE232F",
"+X c #BD242F",
"@X c #AD2631",
"#X c #B62731",
"$X c #BF2330",
"%X c #C12430",
"&X c #C22430",
"*X c #C32430",
"=X c #C42430",
"-X c #C52430",
";X c #C62430",
":X c #C82431",
">X c #C92431",
",X c #EC9417",
"<X c #FFA114",
"1X c #FFA214",
"2X c #FFA314",
"3X c #FFA415",
"4X c #FFA616",
"5X c #FFA716",
"6X c #FFA717",
"7X c #FFA817",
"8X c #FFAA1B",
"9X c #FFAE19",
"0X c #FFAF1A",
"qX c #FFB01A",
"wX c #FFB71D",
"eX c #FFB41E",
"rX c #FFBD22",
"tX c #FFC021",
"yX c #FFC323",
"uX c #FFC423",
"iX c #FFC728",
"pX c #FFC828",
"aX c #FFCF3C",
"sX c #FFD134",
"dX c #FFD73A",
"fX c #B89743",
"gX c #CDAC46",
"hX c #F8CC41",
"jX c #FFDF45",
"kX c #FFDF4A",
"lX c #F5DF54",
"zX c #FFE249",
"xX c #FFE650",
"cX c #FFEB57",
"vX c #FFEE56",
"bX c #CCA483",
"nX c #DCB58F",
"mX c #DEB48F",
"MX c #F6CA9F",
"NX c #F8CBA0",
"BX c None",
/* pixels */
"BXBXBXBXBXBXBXBXBXBXBXBXBXBXBXBXBXBXBXBXBXBXBXBXBXBXBXBXBXBXBXBXBXBXBXBXBXBXBXBXBXBXBXBXBXBXBXBXBXBXBXBXBXBXBXBXBXBXBXBXBXBXBXBX",
"BXBXBXBXBXBXBXBXBXBXBXBXBXBXBXBXBXBXBXBXBXBXBXBXBXBXBXBXBXBXBXBXBXBXBXBXBXBXBXBXBXBXBXBXBXBXBXBXBXBXBXBXBXBXBXBXBXBXBXBXBXBXBXBX",
"BXBXBXBXBXBXBXBXBXBXBXBXBXBXBXBXBXBXBXBXBXBXBXBXBXBXBXBXBXBXBXBXBXBXBXBXBXBXBXBXBXBXBXBXBXBXBXBXBXBXBXBXBXBXBXBXBXBXBXBXBXBXBXBX",
"BXBXBXBXBXBXBXBXBXBXBXBXBXBXBXBXBXBXBXBXBXBXBXBXBXBXBXBXBXBXBXBXBXBXBXBXBXBXBXBXBXBXBXBXBXBXBXBXBXBXBXBXBXBXBXBXBXBXBXBXBXBXBXBX",
"BXBXBXBXBXBXBXBXBXBXBXBXBXBXBXBXBXBXBXBXBXBXBXBXBXBXBXBXBXBXBXBXBXBXBXBXBXBXBXBXBXBXBXBXBXBXBXBXBXBXBXBXBXBXBXBXBXBXBXBXBXBXBXBX",
"BXBXBXBXBXBXBXBXBXBXBXBXBXBXBXBXBXBXBXBXBXBXBXBXBXBXBXBXBXBXBXBXBXBXBXBXBXBXBXBXBXBXBXBXBXBXBXBXBXBXBXBXBXBXBXBXBXBXBXBXBXBXBXBX",
"BXBXBXBXBXBXBXBXBXBXBXBXBXBXBXBXBXBXBXBXBXBXBXBXBXBXBXBXBXBXBXBXBXBXBXBXBXBXBXBXBXBXBXBXBXBXBXBXBXBXBXBXBXBXBXBXBXBXBXBXBXBXBXBX",
"BXBXBXBXBXBXBXBXBXBXBXBXBXBXBXBXBXBXBXBXBXBXBXBXBXBXBXBXBXBXBXBXBXBXBXBXBXBXBXBXBXBXBXBXBXBXBXBXBXBXBXBXBXBXBXBXBXBXBXBXBXBXBXBX",
"BXBXBXBXBXBXBXBXBXBXBXBXBXBXBXBXBXBXBXBXBXBXBXBXBXBXBXBXBXBXBXBXBXBXBXBXBXBXBXBXBXBXBXBXBXBXBXBXBXBXBXBXBXBXBXBXBXBXBXBXBXBXBXBX",
"BXBXBXBXBXBXBXBXBXBXBXBXBXBXBXBXBXBXBXBXBXBXBXBXBXBXBXBXBXBXBXBXBXBXBXBXBXBXBXBXBXBXBXBXBXBXBXBXBXBXBXBXBXBXBXBXBXBXBXBXBXBXBXBX",
"BXBXBXBXBXBXBXBXBXBXBXBXBXBXBXBXBXBXBX!.!.Q.}.=X=XBXBXBXBXBXBXBXBXBXBXBXBXBXBXBXBXBXBXBXBXBXBXBXBXBXBXBXBXBXBXBXBXBXBXBXBXBXBXBX",
"BXBXBXBXBXBXBXBXBXBXBXBXBXBXBXBXBXBXBX!.!.Q.{.OX*XBXBXBXBXBXBXBXBXBXBXBXBXBXBXBXBXBXBXBXBXBXBXBXBXBXBXBXBXBXBXBXBXBXBXBXBXBXBXBX",
"BXBXBXBXBXBXBXBXBXBXBXBXBXBXBXBXBX!.!.!.!.!./.).$X-X=XBXBXBXBXBXBXBXBXBXBXBXBXBXBXBXBXBXBXBXBXBXBXBXBXBXBXBXBXBXBXBXBXBXBXBXBXBX",
"BXBXBXBXBXBXBXBXBXBXBXBXBXBXBXBXBX!.!.!.!.U.t.Y. X+X-XBXBXBXBXBXBXBXBXBXBXBXBXBXBXBXBXBXBXBXBXBXBXBXBXBXBXBXBXBXBXBXBXBXBXBXBXBX",
"BXBXBXBXBXBXBXBXBXBXBXBXBXBXBXBXBX!.!.!.!.%.r u g ].:XBXBXBXBXBXBXBXBXBXBXBXBX1XBXBXBXBXBXBXBXBXBXBXBXBXBXBXBXBXBXBXBXBXBXBXBXBX",
"BXBXBXBXBXBXBXBXBXBXBXBXBXBXBXBXBX!.!.W.i.V * - - `.>XBXBXBXBXBXBXBXBXBXBXBXBX1XBXBXBXBXBXBXBXBXBXBXBXBXBXBXBXBXBXBXBXBXBXBXBXBX",
"BXBXBXBXBXBXBXBXBXBXBXBXBXBXBXBXBX!.~.i.j , ; ; : `.>XBXBXBXBXBXBXBXBXBXBX1X1X1XBXBXBXBXBXBXBXBXBXBXBXBXBXBXBXBXBXBXBXBXBXBXBXBX",
"BXBXBXBXBXBXBXBXBXBXBXBXBXBXBXBXBXE.~.u.t - ; ; : `.>XBXBXBXBXBXBXBXBXBXBX1X3X4XBXBXBXBXBXBXBXBXBXBXBXBXBXBXBXBXBXBXBXBXBXBXBXBX",
"BXBXBXBXBXBXBXBXBXBXBXBXBXBXBXBX1.y.^.u.y - ; ; : `.>XBXBXBXBXBXBXBXBXBXBX<X9XtX5XBXBXBXBXBXBXBXBXBXBXBXBXBXBXBXBXBXBXBXBXBXBXBX",
"BXBXBXBXBXBXBXBXBXBXBXBXBXBXBXBX1.r.^.u.y - ; ; : `.>XBXBXBXBXBXBXBXBXBXBX<XqXuX5XBXBXBXBXBXBXBXBXBXBXBXBXBXBXBXBXBXBXBXBXBXBXBX",
"BXBXBXBXBXBXBXBXBXBXBXBXBXBXBXBX1.r.^.u.t - ; ; ; `.>XBXBXBXBXBXBXBXBXBX1X<X0XyX5XBXBXBXBXBXBXBXBXBXBXBXBXBXBXBXBXBXBXBXBXBXBXBX",
"BXBXBXBXBXBXBXBXBXBXBXBXBXBXBXBX1.e.W.i.j , ; > t '.:XBXBXBXBXBXBXBXBXBX1X3XeXiX6XBXBXBXBXBXBXBXBXBXBXBXBXBXBXBXBXBXBXBXBXBXBXBX",
"BXBXBXBXBXBXBXBXBXBXBXBXBXBXBX1.1.4.0.Q.i.V * r q.XX;XBXBXBXBXBXBXBXBXBX1XwXsXkX8XBXBXBXBXBXBXBXBXBXBXBXBXBXBXBXBXBXBXBXBXBXBXBX",
"BXBXBXBXBXBXBXBXBXBXBXBXBXBXBX1.1.<.9.R.!.%.r j p.oX-XBXBXBXBXBXBXBXBXBX1XrXdXkX8XBXBXBXBXBXBXBXBXBXBXBXBXBXBXBXBXBXBXBXBXBXBXBX",
"BXBXBXBXBXBXBXBXBXBXBXBX; @.3.1.1.1.3.7.R.U.u.i.Q.oX-X=XBXBXBXBXBXBXBXBX2XaXjXiX6XBXBXBXBXBXBXBXBXBXBXBXBXBXBXBXBXBXBXBXBXBXBXBX",
"BXBXBXBXBXBXBXBXBXBXBXBX; C -.=.=.:.1.5.a.R.E.~.!..X%X&XBXBXBXBXBXBXBXBX,XhXzXpX7XBXBXBXBXBXBXBXBXBXBXBXBXBXBXBXBXBXBXBXBXBXBXBX",
"BXBXBXBXBXBXBXBXBXBXBX; ; q e e e #.2.2.5.5.0.!.!.(.|.#XJ.BXBXBXBXBXBXBXP.gXvXxXBXBXBXBXBXBXBXBXBXBXBXBXBXBXBXBXBXBXBXBXBXBXBXBX",
"BXBXBXBXBXBXBXBXBXBXBX; ; ; ; ; ; C -.-.<.<.9.T.T.Y.[.@XH.BXBXBXBXBXBXBXA.fXlXcXBXBXBXBXBXBXBXBXBXBXBXBXBXBXBXBXBXBXBXBXBXBXBXBX",
"BXBXBXBXBXBXBXBXBXBXBX; ; ; ; ; ; q e p -.1.3.6.6.5.w._._ [ O.BXBXBXBXBXS.L.I.BXBXBXBXBXBXBXBXBXBXBXBXBXBXBXBXBXBXBXBXBXBXBXBXBX",
"BXBXBXBXBXBXBXBXBXBXBX; ; ; ; ; ; ; - w &.,.>.=.=.;.8.K.E ] O.BXBXBXBXBXn.M.b.BXBXBXBXBXBXBXBXBXBXBXBXBXBXBXBXBXBXBXBXBXBXBXBXBX",
"BXBXBXBXBXBXBXBXBX; ; ; ; BXBX; ; ; ; : w $.$.e e +.*.E L ] O.X.X.BXBXB ^ BXBXBXBXBXBXBXBXBXBXBXBXBXBXBXBXBXBXBXBXBXBXBXBXBXBXBX",
"BXBXBXBXBXBXBXBXBX; ; ; ; BXBX; ; ; ; ; ; Z Z ; ; A h.J K '  . .X.BXBXN N BXBXBXBXBXBXBXBXBXBXBXBXBXBXBXBXBXBXBXBXBXBXBXBXBXBXBX",
"BXBXBXBXBXBXBXBXBX; ; ; ; BXBX; ; ; ; ; ; q q ; ; F P BXK Y Y T  .o.} N n BXBXBXBXBXBXBXBXBXBXBXBXBXBXBXBXBXBXBXBXBXBXBXBXBXBXBX",
"BXBXBXBXBXBXBXBXBX; ; ; ; BXBX; ; ; ; ; ; ; ; ; < S K BXK K K Y | ..{ ( F.BXBXBXBXBXBXBXBXBXBXBXBXBXBXBXBXBXBXBXBXBXBXBXBXBXBXBX",
"BXBXBXBXBXBXBXBX; ; ; ; BXBXBX; ; ; ; ; ; ; ; < G K K BXBXBXBXK Y W ! F.bXBXBXBXBXBXBXBXBXBXBXBXBXBXBXBXBXBXBXBXBXBXBXBXBXBXBXBX",
"BXBXBXBXBXBXBXBX; ; ; ; BXBXBX; ; ; ; ; ; ; ; < H K K BXBXBXBXK K R n G.mXBXBXBXBXBXBXBXBXBXBXBXBXBXBXBXBXBXBXBXBXBXBXBXBXBXBXBX",
"BXBXBXBXBXBXBXBX; ; ; ; BXBXBXBX; ; ; ; ; ; ; < H BXBXBXBXBXBXBXBXM N ( BXBXBXBXBXBXBXBXBXBXBXBXBXBXBXBXBXBXBXBXBXBXBXBXBXBXBXBX",
"BXBXBXBXBXBXBXBX; ; ; ; BXBXBXBX; ; ; ; ; ; ; 1 H BXBXBXBXBXBXBXBXN N N BXBXBXBXBXBXBXBXBXBXBXBXBXBXBXBXBXBXBXBXBXBXBXBXBXBXBXBX",
"BXBXBXBXBXBXBXBX; ; ; BXBXBXBXBX; ; ; ; ; ; 2 H K BXBXBXBXBXBXBXBXN N BXBXBXBXBXBXBXBXBXBXBXBXBXBXBXBXBXBXBXBXBXBXBXBXBXBXBXBXBX",
"BXBXBXBXBXBXBXBX; ; ; BXBXBXBXBX; ; ; ; ; ; 2 K K BXBXBXBXBXBXBXBXN N BXBXBXBXBXBXBXBXBXBXBXBXBXBXBXBXBXBXBXBXBXBXBXBXBXBXBXBXBX",
"BXBXBXBXBXBXBXBX& & & BXBXBXBXBX; ; ; ; ; ; 2 K K BXBXBXBXBXBXBXN N N BXBXBXBXBXBXBXBXBXBXBXBXBXBXBXBXBXBXBXBXBXBXBXBXBXBXBXBXBX",
"BXBXBXBXBXBXBXBX` ` ` BXBXBXBXBX= = = ; ; ; 2 L U BXBXBXBXBXBXBXN N N BXBXBXBXBXBXBXBXBXBXBXBXBXBXBXBXBXBXBXBXBXBXBXBXBXBXBXBXBX",
"BXBXBXBXBXBXBXBXnXnXnXBXBXBXBXBXo o % ; ; ; 2 I B.BXBXBXBXBXBXBXN BXBXBXBXBXBXBXBXBXBXBXBXBXBXBXBXBXBXBXBXBXBXBXBXBXBXBXBXBXBXBX",
"BXBXBXBXBXBXBXBXNXNXNXBXBXBXBXBX. . # = = > D ) Z.BXBXBXBXBXBXBXN BXBXBXBXBXBXBXBXBXBXBXBXBXBXBXBXBXBXBXBXBXBXBXBXBXBXBXBXBXBXBX",
"BXBXBXBXBXBXBXBXMXMXMXBXBXBXBXBX. . . o o s d.V.A.S.S.BXBXBXBXBXBXBXBXBXBXBXBXBXBXBXBXBXBXBXBXBXBXBXBXBXBXBXBXBXBXBXBXBXBXBXBXBX",
"BXBXBXBXBXBXBXBXMXMXMXBXBXBXBXBX. O 3 @ 3 h g.m.S.S.S.BXBXBXBXBXBXBXBXBXBXBXBXBXBXBXBXBXBXBXBXBXBXBXBXBXBXBXBXBXBXBXBXBXBXBXBXBX",
"BXBXBXBXBXBXBXBXBXBXBXBXBXBXBX. . a c x x m B s.m.S.S.S.BXBXBXBXBXBXBXBXBXBXBXBXBXBXBXBXBXBXBXBXBXBXBXBXBXBXBXBXBXBXBXBXBXBXBXBX",
"BXBXBXBXBXBXBXBXBXBXBXBXBXBXBX. @ h B N N N N ^ c.A.S.S.BXBXBXBXBXBXBXBXBXBXBXBXBXBXBXBXBXBXBXBXBXBXBXBXBXBXBXBXBXBXBXBXBXBXBXBX",
"BXBXBXBXBXBXBXBXBXBXBXBXBX. . + k M N N N N N B ^ x.D.S.BXBXBXBXBXBXBXBXBXBXBXBXBXBXBXBXBXBXBXBXBXBXBXBXBXBXBXBXBXBXBXBXBXBXBXBX",
"BXBXBXBXBXBXBXBXBXBXBXBXBX. X 6 v N N N N b z c M k.C.S.BXBXBXBXBXBXBXBXBXBXBXBXBXBXBXBXBXBXBXBXBXBXBXBXBXBXBXBXBXBXBXBXBXBXBXBX",
"BXBXBXBXBXBXBXBXBXBXBXBXBX  7 c N N N BXBX4 @ 5 v Q j.S.S.BXBXBXBXBXBXBXBXBXBXBXBXBXBXBXBXBXBXBXBXBXBXBXBXBXBXBXBXBXBXBXBXBXBXBX",
"BXBXBXBXBXBXBXBXBXBXBXBXBX  0 N N N N BXBX. . @ l b f.m.S.BXBXBXBXBXBXBXBXBXBXBXBXBXBXBXBXBXBXBXBXBXBXBXBXBXBXBXBXBXBXBXBXBXBXBX",
"BXBXBXBXBXBXBXBXBXBXBXBXBX  8 N N BXBXBXBXBXBXBX$ h Q s.m.BXBXBXBXBXBXBXBXBXBXBXBXBXBXBXBXBXBXBXBXBXBXBXBXBXBXBXBXBXBXBXBXBXBXBX",
"BXBXBXBXBXBXBXBXBXBXBXBXBX+ i N N BXBXBXBXBXBXBX. d x B n.BXBXBXBXBXBXBXBXBXBXBXBXBXBXBXBXBXBXBXBXBXBXBXBXBXBXBXBXBXBXBXBXBXBXBX",
"BXBXBXBXBXBXBXBXBXBXBXBX. d b N N BXBXBXBXBXBXBXBX@ @ 9 v.BXBXBXBXBXBXBXBXBXBXBXBXBXBXBXBXBXBXBXBXBXBXBXBXBXBXBXBXBXBXBXBXBXBXBX",
"BXBXBXBXBXBXBXBXBXBXBXBX. f B N N BXBXBXBXBXBXBXBX.   6 z.BXBXBXBXBXBXBXBXBXBXBXBXBXBXBXBXBXBXBXBXBXBXBXBXBXBXBXBXBXBXBXBXBXBXBX",
"BXBXBXBXBXBXBXBXBXBXBXBX. f B N BXBXBXBXBXBXBXBXBXBXBX3 N z.D.BXBXBXBXBXBXBXBXBXBXBXBXBXBXBXBXBXBXBXBXBXBXBXBXBXBXBXBXBXBXBXBXBX",
"BXBXBXBXBXBXBXBXBXBXBXBX. f B N BXBXBXBXBXBXBXBXBXBXBX$ z l.N.BXBXBXBXBXBXBXBXBXBXBXBXBXBXBXBXBXBXBXBXBXBXBXBXBXBXBXBXBXBXBXBXBX",
"BXBXBXBXBXBXBXBXBXBXBXBX. f B BXBXBXBXBXBXBXBXBXBXBXBX$ x ~ / BXBXBXBXBXBXBXBXBXBXBXBXBXBXBXBXBXBXBXBXBXBXBXBXBXBXBXBXBXBXBXBXBX",
"BXBXBXBXBXBXBXBXBXBXBXBX3 h B BXBXBXBXBXBXBXBXBXBXBXBX$ x N N BXBXBXBXBXBXBXBXBXBXBXBXBXBXBXBXBXBXBXBXBXBXBXBXBXBXBXBXBXBXBXBXBX",
"BXBXBXBXBXBXBXBXBXBXBXBXx m N BXBXBXBXBXBXBXBXBXBXBXBX$ c N N BXBXBXBXBXBXBXBXBXBXBXBXBXBXBXBXBXBXBXBXBXBXBXBXBXBXBXBXBXBXBXBXBX",
"BXBXBXBXBXBXBXBXBXBXBXBXN N N BXBXBXBXBXBXBXBXBXBXBXBX$ l M N BXBXBXBXBXBXBXBXBXBXBXBXBXBXBXBXBXBXBXBXBXBXBXBXBXBXBXBXBXBXBXBXBX",
"BXBXBXBXBXBXBXBXBXBXBXBXN N N BXBXBXBXBXBXBXBXBXBXBXBXBX$ h B BXBXBXBXBXBXBXBXBXBXBXBXBXBXBXBXBXBXBXBXBXBXBXBXBXBXBXBXBXBXBXBXBX",
"BXBXBXBXBXBXBXBXBXBXBXBXN N N BXBXBXBXBXBXBXBXBXBXBXBXBX. f B BXBXBXBXBXBXBXBXBXBXBXBXBXBXBXBXBXBXBXBXBXBXBXBXBXBXBXBXBXBXBXBXBX"
};
