/* XPM */
static char *result[] = {
/* columns rows colors chars-per-pixel */
"64 64 95 2 ",
"   c #1C121C",
".  c #171B1B",
"X  c #1B1B1B",
"o  c #24161E",
"O  c #28171E",
"+  c #231B1C",
"@  c #2B191F",
"#  c #341C1F",
"$  c #291E20",
"%  c #351C20",
"&  c #391F21",
"*  c #1F2020",
"=  c #262626",
"-  c #2D2526",
";  c #272828",
":  c #2C2C2C",
">  c #352527",
",  c #3D2122",
"<  c #322827",
"1  c #3E2927",
"2  c #3B2528",
"3  c #3B2C2D",
"4  c #313131",
"5  c #3A3334",
"6  c #3D3D3D",
"7  c #431C22",
"8  c #4A1C24",
"9  c #561C27",
"0  c #5A1C26",
"q  c #5D1C28",
"w  c #621E25",
"e  c #681F25",
"r  c #651D28",
"t  c #6C1D29",
"y  c #731D29",
"u  c #7E1E2A",
"i  c #432323",
"p  c #492424",
"a  c #472C2B",
"s  c #582727",
"d  c #542927",
"f  c #5A2A27",
"g  c #5D2229",
"h  c #542B28",
"j  c #5D2C28",
"k  c #483F36",
"l  c #513531",
"z  c #63222A",
"x  c #64332A",
"c  c #6B3D2C",
"v  c #755549",
"b  c #851E2A",
"n  c #891E2B",
"m  c #971F2C",
"M  c #96202C",
"N  c #9A202C",
"B  c #832C33",
"V  c #8D2E36",
"C  c #A2212D",
"Z  c #AA212E",
"A  c #B3222E",
"S  c #BA222F",
"D  c #A42A33",
"F  c #C42430",
"G  c #C82430",
"H  c #B76C1C",
"J  c #926A37",
"K  c #A07B3C",
"L  c #846353",
"P  c #FFA214",
"I  c #FFAB18",
"U  c #FFB21B",
"Y  c #FFB81E",
"T  c #D5A235",
"R  c #FFBD24",
"E  c #FFBB29",
"W  c #FFC523",
"Q  c #FFC925",
"!  c #FFCD2B",
"~  c #FFC130",
"^  c #FFC830",
"/  c #FFCC3A",
"(  c #FFD336",
")  c #FFD73A",
"_  c #FFD83B",
"`  c #DEC44D",
"'  c #FFDC41",
"]  c #EAD251",
"[  c #FFE24A",
"{  c #FFEA56",
"}  c #FFED58",
"|  c #EAC198",
" . c #F6CA9F",
".. c #F8CBA0",
"X. c None",
/* pixels */
"X.X.X.X.X.X.X.X.X.X.X.X.X.X.X.X.X.X.X.X.X.X.X.X.X.X.X.X.X.X.X.X.X.X.X.X.X.X.X.X.X.X.X.X.X.X.X.X.X.X.X.X.X.X.X.X.X.X.X.X.X.X.X.X.",
"X.X.X.X.X.X.X.X.X.X.X.X.X.X.X.X.X.X.X.X.X.X.X.X.X.X.X.X.X.X.X.X.X.X.X.X.X.X.X.X.X.X.X.X.X.X.X.X.X.X.X.X.X.X.X.X.X.X.X.X.X.X.X.X.",
"X.X.X.X.X.X.X.X.X.X.X.X.X.X.X.X.X.X.X.X.X.X.X.X.n n n n n C F G F X.X.X.X.X.X.X.X.X.X.X.X.X.X.X.X.X.X.X.X.X.X.X.X.X.X.X.X.X.X.X.",
"X.X.X.X.X.X.X.X.X.X.X.X.X.X.X.X.X.X.X.X.X.X.X.X.n n n n b C F G F F X.X.X.X.X.X.X.X.X.X.X.X.X.X.X.X.X.X.X.X.X.X.X.X.X.X.X.X.X.X.",
"X.X.X.X.X.X.X.X.X.X.X.X.X.X.X.X.X.X.X.X.X.X.X.n n n n n n m Z A F F X.X.X.X.X.X.X.X.X.X.X.X.X.X.X.X.X.X.X.X.X.X.X.X.X.X.X.X.X.X.",
"X.X.X.X.X.X.X.X.X.X.X.X.X.X.X.X.X.X.X.X.X.X.n n n n n n n n b C F F F F X.X.X.X.X.X.X.X.X.X.X.X.X.X.X.X.X.X.X.X.X.X.X.X.X.X.X.X.",
"X.X.X.X.X.X.X.X.X.X.X.X.X.X.X.X.X.X.X.X.X.X.n n n n n u y y y b C A F F X.X.X.X.X.X.X.X.X.X.X.X.X.X.X.X.X.X.X.X.X.X.X.X.X.X.X.X.",
"X.X.X.X.X.X.X.X.X.X.X.X.X.X.X.X.X.X.X.X.X.X.n n n n n 0 X + + + + z F F X.X.X.X.X.X.X.X.X.X.X.X.X.X.X.X.X.X.P P X.X.X.X.X.X.X.X.",
"X.X.X.X.X.X.X.X.X.X.X.X.X.X.X.X.X.X.X.X.X.X.b n n b b 0 X X X X . w F F X.X.X.X.X.X.X.X.X.X.X.X.X.X.X.X.X.X.P P X.X.X.X.X.X.X.X.",
"X.X.X.X.X.X.X.X.X.X.X.X.X.X.X.X.X.X.X.X.X.X.n n n w # + X X X X . g F F X.X.X.X.X.X.X.X.X.X.X.X.X.X.X.X.P P P P X.X.X.X.X.X.X.X.",
"X.X.X.X.X.X.X.X.X.X.X.X.X.X.X.X.X.X.X.X.X.X.n n n 0 X X X X X X . w F F X.X.X.X.X.X.X.X.X.X.X.X.X.X.X.X.P P P P X.X.X.X.X.X.X.X.",
"X.X.X.X.X.X.X.X.X.X.X.X.X.X.X.X.X.X.X.X.9 y n n n 0 X X X X X X . w F F X.X.X.X.X.X.X.X.X.X.X.X.X.X.X.X.P I Y U P X.X.X.X.X.X.X.",
"X.X.X.X.X.X.X.X.X.X.X.X.X.X.X.X.X.X.X.X.0 t n n n w . X X X X X . w F F X.X.X.X.X.X.X.X.X.X.X.X.X.X.X.X.P U Q Y P P X.X.X.X.X.X.",
"X.X.X.X.X.X.X.X.X.X.X.X.X.X.X.X.X.X.X.X.9 e n n n w . X X X X X . w F F X.X.X.X.X.X.X.X.X.X.X.X.X.X.X.P P U Q Y P P X.X.X.X.X.X.",
"X.X.X.X.X.X.X.X.X.X.X.X.X.X.X.X.X.X.X.X.9 t n n n 0 X X X X X X . w F F X.X.X.X.X.X.X.X.X.X.X.X.X.X.P P P U Q Y P P X.X.X.X.X.X.",
"X.X.X.X.X.X.X.X.X.X.X.X.X.X.X.X.X.X.X.X.9 e b b n w @ + X X X + + e F F X.X.X.X.X.X.X.X.X.X.X.X.X.X.P P P Y ! R P P X.X.X.X.X.X.",
"X.X.X.X.X.X.X.X.X.X.X.X.X.X.X.X.X.X.9 9 9 9 r t n b u 9 X X X 7 u N F F X.X.X.X.X.X.X.X.X.X.X.X.X.X.P U W ( { / P P X.X.X.X.X.X.",
"X.X.X.X.X.X.X.X.X.X.X.X.X.X.X.X.X.X.9 0 9 9 9 t n n n q X X   8 n C F F X.X.X.X.X.X.X.X.X.X.X.X.X.X.P U Q ) { / P P X.X.X.X.X.X.",
"X.X.X.X.X.X.X.X.X.X.X.X.X.X.X % 9 9 9 9 9 9 9 q t y n u e e e y n C F F F X.X.X.X.X.X.X.X.X.X.X.X.X.P E [ ' ( R P P X.X.X.X.X.X.",
"X.X.X.X.X.X.X.X.X.X.X.X.X.X.X % 0 0 0 9 9 9 9 9 9 t n n n n n n b C F F F F X.X.X.X.X.X.X.X.X.X.X.X.P E } ' Q Y P P X.X.X.X.X.X.",
"X.X.X.X.X.X.X.X.X.X.X.X.X.X X @ & & 7 & 7 8 9 9 9 r y y y u n n n M Z A F D X.X.X.X.X.X.X.X.X.X.X.X.H T } [ _ ^ P X.X.X.X.X.X.X.",
"X.X.X.X.X.X.X.X.X.X.X.X.X X X X   X X X X % 9 9 9 9 9 9 9 t n n n n n C G V 6 6 X.X.X.X.X.X.X.X.X.X.s K } } } } X.X.X.X.X.X.X.X.",
"X.X.X.X.X.X.X.X.X.X.X.X.X X X X X X X X   $ 8 8 8 8 9 9 9 r u b u u u M S B 5 6 X.X.X.X.X.X.X.X.X.X.j J ` ] } X.X.X.X.X.X.X.X.X.",
"X.X.X.X.X.X.X.X.X.X.X.X.X X X X X X X X X X X $ + % 9 9 9 9 0 0 0 0 0 y n z ; 4 6 6 X.X.X.X.X.X.X.X.j x x c X.X.X.X.X.X.X.X.X.X.",
"X.X.X.X.X.X.X.X.X.X.X.X.X X X X X X X X X X X X X % 9 9 9 9 9 9 9 9 9 r b g ; 4 6 6 X.X.X.X.X.X.X.X.j j j j X.X.X.X.X.X.X.X.X.X.",
"X.X.X.X.X.X.X.X.X.X.X X X X X X X.X X X X X X X X + + % 9 8 + O $ & q p 2 > ; 4 6 6 6 6 6 X.X.X.& , , i X.X.X.X.X.X.X.X.X.X.X.X.",
"X.X.X.X.X.X.X.X.X.X.X X X X X X X.X.X X X X X + X X X % q & X X . % 9 7 ; ; ; 4 6 6 6 6 6 6 X.X.& & & & X.X.X.X.X.X.X.X.X.X.X.X.",
"X.X.X.X.X.X.X.X.X.X.X X X X X X X.X.X X X X X X X X X + % $ X X X $ & 2 X.; ; ; 4 4 4 5 6 6 6 3 & & & & X.X.X.X.X.X.X.X.X.X.X.X.",
"X.X.X.X.X.X.X.X.X.X.X X X X X X X.X.X X X X X X X X X X X X X X . * ; ; X.X.; ; ; ; ; : k 6 6 5 & # # # X.X.X.X.X.X.X.X.X.X.X.X.",
"X.X.X.X.X.X.X.X.X.X X X X X X X.X.X.X X X X X X X X X X X X X X * $ = ; X.X.; ; ; ; ; : 5 5 5 3 & l v v X.X.X.X.X.X.X.X.X.X.X.X.",
"X.X.X.X.X.X.X.X.X X X X X X X.X.X.X.X X X X X X X X X X X X X X ; ; ; ; X.X.X.X.X.X.; ; ; - , & # L  . .X.X.X.X.X.X.X.X.X.X.X.X.",
"X.X.X.X.X.X.X.X.X X X X X X X.X.X.X.X X X X X X X X X X X X X = ; ; ; ; X.X.X.X.X.X.; ; ; - & & # L  . .X.X.X.X.X.X.X.X.X.X.X.X.",
"X.X.X.X.X.X.X.X.X X X X X X X.X.X.X.X.X.X X X X X X X X X X X * = ; X.X.X.X.X.X.X.X.X.X.X.X.& & & a X.X.X.X.X.X.X.X.X.X.X.X.X.X.",
"X.X.X.X.X.X.X.X.X X X X X X X.X.X.X.X.X.X X X X X X X X X X X + = ; X.X.X.X.X.X.X.X.X.X.X.X.& & & # X.X.X.X.X.X.X.X.X.X.X.X.X.X.",
"X.X.X.X.X.X.X.X.X X X X X.X.X.X.X.X.X.X.X X X X X X X X X * = = ; = X.X.X.X.X.X.X.X.X.X.X.X., , X.X.X.X.X.X.X.X.X.X.X.X.X.X.X.X.",
"X.X.X.X.X.X.X.X.X X X X X.X.X.X.X.X.X.X.X X X X X X X X X + ; = = ; X.X.X.X.X.X.X.X.X.X.X.X., % X.X.X.X.X.X.X.X.X.X.X.X.X.X.X.X.",
"X.X.X.X.X.X.X.X.X X X X X.X.X.X.X.X.X.X.X X X X X X X X X * = ; ; ; X.X.X.X.X.X.X.X.X.X.X.& & & X.X.X.X.X.X.X.X.X.X.X.X.X.X.X.X.",
"X.X.X.X.X.X.X.X.X X X . X.X.X.X.X.X.X.X.X X X X X X X X X * ; = ; ; X.X.X.X.X.X.X.X.X.X.& & & & X.X.X.X.X.X.X.X.X.X.X.X.X.X.X.X.",
"X.X.X.X.X.X.X.X.k k k k X.X.X.X.X.X.X.X.X X X X X * X X X * ; - < < X.X.X.X.X.X.X.X.X.X., % , X.X.X.X.X.X.X.X.X.X.X.X.X.X.X.X.X.",
"X.X.X.X.X.X.X.X.| | | | X.X.X.X.X.X.X.X.      . X X X X X * ; 1 f f X.X.X.X.X.X.X.X.X.X.% , X.X.X.X.X.X.X.X.X.X.X.X.X.X.X.X.X.X.",
"X.X.X.X.X.X.X.X. . ... .X.X.X.X.X.X.X.X.        X X X X X = = 1 j j X.X.X.X.X.X.X.X.X.X., , X.X.X.X.X.X.X.X.X.X.X.X.X.X.X.X.X.X.",
"X.X.X.X.X.X.X.X. . . . .X.X.X.X.X.X.X.X.  o           + # i h h j j j X.X.X.X.X.X.X.X.X.X.X.X.X.X.X.X.X.X.X.X.X.X.X.X.X.X.X.X.X.",
"X.X.X.X.X.X.X.X. . . . .X.X.X.X.X.X.X.X.              O & p j j j j j j X.X.X.X.X.X.X.X.X.X.X.X.X.X.X.X.X.X.X.X.X.X.X.X.X.X.X.X.",
"X.X.X.X.X.X.X.X.X.X.X.X.X.X.X.X.X.X.      o @ @ @ @ @ @ & , p d j j j j j X.X.X.X.X.X.X.X.X.X.X.X.X.X.X.X.X.X.X.X.X.X.X.X.X.X.X.",
"X.X.X.X.X.X.X.X.X.X.X.X.X.X.X.X.X.X.      @ & & & & & & & & % p x f j j j j X.X.X.X.X.X.X.X.X.X.X.X.X.X.X.X.X.X.X.X.X.X.X.X.X.X.",
"X.X.X.X.X.X.X.X.X.X.X.X.X.X.X.X.X.      o @ & & & & & & & & , i d s j j j j X.X.X.X.X.X.X.X.X.X.X.X.X.X.X.X.X.X.X.X.X.X.X.X.X.X.",
"X.X.X.X.X.X.X.X.X.X.X.X.X.X.X.X.      @ & & & & & & , , & & & & % p j j j j X.X.X.X.X.X.X.X.X.X.X.X.X.X.X.X.X.X.X.X.X.X.X.X.X.X.",
"X.X.X.X.X.X.X.X.X.X.X.X.X.X.X.X.      @ & & & & , , # % % % % % , i f f j j X.X.X.X.X.X.X.X.X.X.X.X.X.X.X.X.X.X.X.X.X.X.X.X.X.X.",
"X.X.X.X.X.X.X.X.X.X.X.X.X.X.X.X.  + % & & & & & X.X.X.X.  o   @ & , , p j j j j X.X.X.X.X.X.X.X.X.X.X.X.X.X.X.X.X.X.X.X.X.X.X.X.",
"X.X.X.X.X.X.X.X.X.X.X.X.X.X.X.X.  O & & & & & & X.X.X.X.      @ & & & i j j j j X.X.X.X.X.X.X.X.X.X.X.X.X.X.X.X.X.X.X.X.X.X.X.X.",
"X.X.X.X.X.X.X.X.X.X.X.X.X.X.X.X.  o & & & & X.X.X.X.X.X.X.X.X.o + @ & , i d j j X.X.X.X.X.X.X.X.X.X.X.X.X.X.X.X.X.X.X.X.X.X.X.X.",
"X.X.X.X.X.X.X.X.X.X.X.X.X.X.X.X.  o , & & & X.X.X.X.X.X.X.X.X.X.  @ & & , i j j X.X.X.X.X.X.X.X.X.X.X.X.X.X.X.X.X.X.X.X.X.X.X.X.",
"X.X.X.X.X.X.X.X.X.X.X.X.X.X.X.o + # & & , & X.X.X.X.X.X.X.X.X.X.  o @ @ O i j j X.X.X.X.X.X.X.X.X.X.X.X.X.X.X.X.X.X.X.X.X.X.X.X.",
"X.X.X.X.X.X.X.X.X.X.X.X.X.X.  @ # , & & % & X.X.X.X.X.X.X.X.X.X.X.X.      % j j X.X.X.X.X.X.X.X.X.X.X.X.X.X.X.X.X.X.X.X.X.X.X.X.",
"X.X.X.X.X.X.X.X.X.X.X.X.X.X.  o % , & & , X.X.X.X.X.X.X.X.X.X.X.X.X.      # f h X.X.X.X.X.X.X.X.X.X.X.X.X.X.X.X.X.X.X.X.X.X.X.X.",
"X.X.X.X.X.X.X.X.X.X.X.X.X.X.  @ , % , & X.X.X.X.X.X.X.X.X.X.X.X.X.X.X.X.  O , p j j X.X.X.X.X.X.X.X.X.X.X.X.X.X.X.X.X.X.X.X.X.X.",
"X.X.X.X.X.X.X.X.X.X.X.X.X.X.  @ & , % , X.X.X.X.X.X.X.X.X.X.X.X.X.X.X.X.  @ % p f j X.X.X.X.X.X.X.X.X.X.X.X.X.X.X.X.X.X.X.X.X.X.",
"X.X.X.X.X.X.X.X.X.X.X.X.X.X.  o & & X.X.X.X.X.X.X.X.X.X.X.X.X.X.X.X.X.X.  @ & & , , X.X.X.X.X.X.X.X.X.X.X.X.X.X.X.X.X.X.X.X.X.X.",
"X.X.X.X.X.X.X.X.X.X.X.X.X.X.  o & & X.X.X.X.X.X.X.X.X.X.X.X.X.X.X.X.X.X.  @ & & , , X.X.X.X.X.X.X.X.X.X.X.X.X.X.X.X.X.X.X.X.X.X.",
"X.X.X.X.X.X.X.X.X.X.X.X.X.X.@ % & & X.X.X.X.X.X.X.X.X.X.X.X.X.X.X.X.X.X.  o & & % , X.X.X.X.X.X.X.X.X.X.X.X.X.X.X.X.X.X.X.X.X.X.",
"X.X.X.X.X.X.X.X.X.X.X.X.X.X.& & & , X.X.X.X.X.X.X.X.X.X.X.X.X.X.X.X.X.X.  o & & & & X.X.X.X.X.X.X.X.X.X.X.X.X.X.X.X.X.X.X.X.X.X.",
"X.X.X.X.X.X.X.X.X.X.X.X.X.X.& & & & X.X.X.X.X.X.X.X.X.X.X.X.X.X.X.X.X.X.  o # % & , X.X.X.X.X.X.X.X.X.X.X.X.X.X.X.X.X.X.X.X.X.X.",
"X.X.X.X.X.X.X.X.X.X.X.X.X.X.& & & & X.X.X.X.X.X.X.X.X.X.X.X.X.X.X.X.X.X.X.X.  o , # X.X.X.X.X.X.X.X.X.X.X.X.X.X.X.X.X.X.X.X.X.X.",
"X.X.X.X.X.X.X.X.X.X.X.X.X.X., & & & X.X.X.X.X.X.X.X.X.X.X.X.X.X.X.X.X.X.X.X.  @ , , X.X.X.X.X.X.X.X.X.X.X.X.X.X.X.X.X.X.X.X.X.X."
};
