/* XPM */
static char *result[] = {
/* columns rows colors chars-per-pixel */
"64 64 114 2 ",
"   c #1C121C",
".  c #17191A",
"X  c #1B1B1B",
"o  c #24161D",
"O  c #28171E",
"+  c #241B1D",
"@  c #2B191F",
"#  c #321B1F",
"$  c #2E1D20",
"%  c #351C20",
"&  c #391F21",
"*  c #1F2020",
"=  c #262626",
"-  c #2C2525",
";  c #2D2D2D",
":  c #322223",
">  c #3D2123",
",  c #3A2927",
"<  c #342A2B",
"1  c #313232",
"2  c #3C3132",
"3  c #3D3E3E",
"4  c #431C22",
"5  c #4A1D24",
"6  c #561C27",
"7  c #5B1D26",
"8  c #5C1D28",
"9  c #611F24",
"0  c #6E1D27",
"q  c #621C28",
"w  c #6C1D29",
"e  c #741D29",
"r  c #7B1E29",
"t  c #442224",
"y  c #492524",
"u  c #492428",
"i  c #542926",
"p  c #5A2A27",
"a  c #5D2C28",
"s  c #602D26",
"d  c #622229",
"f  c #732026",
"g  c #71232B",
"h  c #63332A",
"j  c #6B3C2C",
"k  c #73442C",
"l  c #5C4F42",
"z  c #6A4B41",
"x  c #851E2B",
"c  c #891E2B",
"v  c #931F2C",
"b  c #83252C",
"n  c #95222C",
"m  c #9D202D",
"M  c #A2202D",
"N  c #AE222E",
"B  c #B0222E",
"V  c #C42430",
"C  c #C82430",
"Z  c #956E38",
"A  c #A47E3B",
"S  c #896756",
"D  c #D68318",
"F  c #FFA213",
"G  c #FBA31D",
"H  c #FFAF1A",
"J  c #FFB21B",
"K  c #FFB91E",
"L  c #F8A423",
"P  c #F6AF2D",
"I  c #FFBB23",
"U  c #FFBB2A",
"Y  c #E7AF32",
"T  c #FFC723",
"R  c #FFC824",
"E  c #FFC12F",
"W  c #FFC030",
"Q  c #F2C53D",
"!  c #FFCD3B",
"~  c #FFD036",
"^  c #FFD43C",
"/  c #FFD93D",
"(  c #B48E73",
")  c #E8B94D",
"_  c #E1AA54",
"`  c #DFBF61",
"'  c #CDAE7F",
"]  c #D3AC73",
"[  c #D3BC79",
"{  c #EFCB40",
"}  c #E9C24E",
"|  c #FFDE43",
" . c #FFDC49",
".. c #EDC551",
"X. c #E6CE51",
"o. c #EDC956",
"O. c #E1C05F",
"+. c #FFE047",
"@. c #FFE44D",
"#. c #FFE650",
"$. c #FFEC57",
"%. c #FFEC58",
"&. c #E0C060",
"*. c #E0CB6F",
"=. c #E0D57F",
"-. c #BEB2A0",
";. c #B4B4B5",
":. c #B2B4BA",
">. c #C8AF89",
",. c #C3B094",
"<. c #F2C79D",
"1. c #F6CA9F",
"2. c #FACEA2",
"3. c None",
/* pixels */
"3.3.3.3.3.3.3.3.3.3.3.3.3.3.3.3.3.3.3.3.3.3.3.3.3.3.3.3.3.3.3.3.3.3.3.3.3.3.3.3.3.3.3.3.3.3.3.3.F F 3.3.3.3.3.3.3.3.3.3.3.3.3.3.",
"3.3.3.3.3.3.3.3.3.3.3.3.3.3.3.3.3.3.3.3.3.3.3.3.3.3.3.3.3.3.3.3.3.3.3.3.3.3.3.3.3.3.3.3.3.3.3.3.G L 3.3.3.3.3.3.3.3.3.3.3.3.3.3.",
"3.3.3.3.3.3.3.3.3.3.3.3.3.3.3.3.3.3.3.3.3.3.3.3.3.3.3.3.3.3.3.3.3.3.3.3.3.3.3.3.3.3.3.3.3.3.F _ ,.-.;.3.3.3.F 3.3.3.3.3.3.3.3.3.",
"3.3.3.3.3.3.3.3.3.3.3.3.3.3.3.3.3.3.3.3.3.3.3.3.3.3.3.3.3.3.3.3.3.3.3.3.3.3.3.3.3.3.3.3.3.3.F _ ;.;.;.;.3.3.F F 3.3.3.3.3.3.3.3.",
"3.3.3.3.3.3.3.3.3.3.3.3.3.3.3.3.3.3.3.3.3.3.c c c c c M V V V 3.3.3.3.3.3.3.3.3.3.3.3.3.3.3.F P } [ ;.' F J K K F 3.3.3.3.3.3.3.",
"3.3.3.3.3.3.3.3.3.3.3.3.3.3.3.3.3.3.3.3.3.3.c c c c x M V V V V 3.3.3.3.3.3.3.3.3.3.3.3.3.3.F J T O.;.] F J R K F F 3.3.3.3.3.3.",
"3.3.3.3.3.3.3.3.3.3.3.3.3.3.3.3.3.3.3.3.c c c x c c c v M N V V V 3.3.3.3.3.3.3.3.3.3.3.3.3.F J T Q O.} ! ^ | o.] _ F 3.3.3.3.3.",
"3.3.3.3.3.3.3.3.3.3.3.3.3.3.3.3.3.3.3.3.c c c c c c c c c M V V V V 3.3.3.3.3.3.3.3.3.3.3.3.F J T T T / $.$.$.=.:.] F F 3.3.3.3.",
"3.3.3.3.3.3.3.3.3.3.3.3.3.3.3.3.3.3.3.3.c c c c b f 7 7 6 d f n V V 3.3.3.3.3.3.3.3.3.3.3.3.F U / / /  .$.@./ *.:.>.F 3.3.3.3.3.",
"3.3.3.3.3.3.3.3.3.3.3.3.3.3.3.3.3.3.3.3.c c c c v 7 . X . . . 9 V V 3.3.3.3.3.3.3.3.3.3.3.3.F U %.$.$.$.%.+.R &.;.;.3.3.3.3.3.3.",
"3.3.3.3.3.3.3.3.3.3.3.3.3.3.3.3.3.3.3.3.c c c r 9 4 X X . X . 9 V V 3.3.3.3.3.3.3.3.3.3.3.3.F U |  .$.#.+.~ K ) :.3.3.3.3.3.3.3.",
"3.3.3.3.3.3.3.3.3.3.3.3.3.3.3.3.3.3.3.3.c c c 7 X X X X X X . 9 V V 3.3.3.3.3.3.3.3.3.3.3.3.3.3.F U $.| R K F F 3.3.3.3.3.3.3.3.",
"3.3.3.3.3.3.3.3.3.3.3.3.3.3.3.3.3.3.3.r c c c 7 X X X X X X . 9 V V 3.3.3.3.3.3.3.3.3.3.3.3.3.3.D Y $.| R I F 3.3.3.3.3.3.3.3.3.",
"3.3.3.3.3.3.3.3.3.3.3.3.3.3.3.3.3.3.6 w c x v 7 . X X X X X X d V V 3.3.3.3.3.3.3.3.3.3.3.3.3.3.s A %.| R R 3.3.3.3.3.3.3.3.3.3.",
"3.3.3.3.3.3.3.3.3.3.3.3.3.3.3.3.3.3.6 0 x c c 9 X X X X X X . 9 V V 3.3.3.3.3.3.3.3.3.3.3.3.3.3.p Z X.{ R 3.3.3.3.3.3.3.3.3.3.3.",
"3.3.3.3.3.3.3.3.3.3.X X X X X X 3.3.6 0 c c c 9 X X X X X X . 9 V V 3.3.3.3.3.3.3.3.3.3.3.3.3.3.a h j k 3.3.3.3.3.3.3.3.3.3.3.3.",
"3.3.3.3.3.3.3.3.3.3.X X X X X X 3.3.6 w x x c q + X X X X + + 9 V V 3.3.3.3.3.3.3.3.3.3.3.3.3.3.p p p p 3.3.3.3.3.3.3.3.3.3.3.3.",
"3.3.3.3.3.3.3.3.X X X X X X X X X % 6 8 8 e c x r 6 X X X # r v V V 3.3.3.3.3.3.3.3.3.3.3.3.& > 4 t 3.3.3.3.3.3.3.3.3.3.3.3.3.3.",
"3.3.3.3.3.3.3.3.X X X X X X X X X % 6 6 6 0 x c c 8 $ X + 5 c M V V 3.3.3.3.3.3.3.3.3.3.3.3.& & & & 3.3.3.3.3.3.3.3.3.3.3.3.3.3.",
"3.3.3.3.3.3.3.3.X X X X X X X X X % 6 6 6 6 q e x r w 0 0 r c M V V V 3.3.3.3.3.3.3.3.3.3.3.& & & > 3.3.3.3.3.3.3.3.3.3.3.3.3.3.",
"3.3.3.3.3.3.3.3.X X X X X X X X X % 6 6 6 6 6 0 x c c c c c x M V V V V 3.3.3.3.3.3.3.3.3.3.& & & & 3.3.3.3.3.3.3.3.3.3.3.3.3.3.",
"3.3.3.3.3.3.X X X X X X 3.X X X X o % & 6 6 6 8 w w w e c c c v m N V n = 3.3.3.3.3.3 2 & & & z ( ( 3.3.3.3.3.3.3.3.3.3.3.3.3.3.",
"3.3.3.3.3.3.X X X X X X 3.3.X X X X X % 6 6 6 6 6 6 6 w c c c c c m V b = = 3.3.3.3.3 2 & & $ S 2.2.3.3.3.3.3.3.3.3.3.3.3.3.3.3.",
"3.3.3.3.3.3.X X X X 3.3.3.3.3.X X X   $ % % % 5 6 6 6 q w e w e w b N g = = = = = 1 1 < & : & k 3.3.3.3.3.3.3.3.3.3.3.3.3.3.3.3.",
"3.3.3.3.3.3.X X X X 3.3.3.3.3.3.X X X X X X X % 6 6 6 6 6 6 6 6 6 w c d = = = = = = = - > & & & 3.3.3.3.3.3.3.3.3.3.3.3.3.3.3.3.",
"3.3.3.3.3.3.X X X X 3.3.3.3.3.3.X X X X X X X @ & 5 8 5 & & 4 5 6 8 d u = = ; = = = = < & & & 3.3.3.3.3.3.3.3.3.3.3.3.3.3.3.3.3.",
"3.3.3.3.3.3.. X . . 3.3.3.3.3.3.X X X X X X X X   % 8 & X X . % 8 u = = = = = = - = = - & & 3.3.3.3.3.3.3.3.3.3.3.3.3.3.3.3.3.3.",
"3.3.3.3.3.3.l l l l 3.3.3.3.3.3.X X X X X X X X X @ 5 % X X X $ u > = = = = = = = = = : & & 3.3.3.3.3.3.3.3.3.3.3.3.3.3.3.3.3.3.",
"3.3.3.3.3.3.<.<.<.<.3.3.3.3.3.3.X X X X X X X X X X X X X X X + = ; 3.3.3.3.; = = : > & & > 3.3.3.3.3.3.3.3.3.3.3.3.3.3.3.3.3.3.",
"3.3.3.3.3.3.1.1.1.1.3.3.3.3.3.3.X X X X X X X X X X X X X X X = = = 3.3.3.3.= = = - & & & 3.3.3.3.3.3.3.3.3.3.3.3.3.3.3.3.3.3.3.",
"3.3.3.3.3.3.1.1.1.1.3.3.3.3.3.3.3.3.X X X X X X X X X X X X = = = = 3.3.3.3.3.3.3.3.& & 3.3.3.3.3.3.3.3.3.3.3.3.3.3.3.3.3.3.3.3.",
"3.3.3.3.3.3.1.1.1.1.3.3.3.3.3.3.3.3.X X X X X X X X X X X = = = ; = 3.3.3.3.3.3.3.3.& & 3.3.3.3.3.3.3.3.3.3.3.3.3.3.3.3.3.3.3.3.",
"3.3.3.3.3.3.3.3.3.3.3.3.3.3.3.3.3.3.X X X X X X X X X X X X = ; = = 3.3.3.3.3.3.3.3.3.3.3.3.3.3.3.3.3.3.3.3.3.3.3.3.3.3.3.3.3.3.",
"3.3.3.3.3.3.3.3.3.3.3.3.3.3.3.3.3.3.X X X X X X X X X X X = = = = = 3.3.3.3.3.3.3.3.3.3.3.3.3.3.3.3.3.3.3.3.3.3.3.3.3.3.3.3.3.3.",
"3.3.3.3.3.3.3.3.3.3.3.3.3.3.3.3.3.3.X X X X X X X X X + = = = = = = 3.3.3.3.3.3.3.3.3.3.3.3.3.3.3.3.3.3.3.3.3.3.3.3.3.3.3.3.3.3.",
"3.3.3.3.3.3.3.3.3.3.3.3.3.3.3.3.3.3.X X X X X X X X X * = = = = = = 3.3.3.3.3.3.3.3.3.3.3.3.3.3.3.3.3.3.3.3.3.3.3.3.3.3.3.3.3.3.",
"3.3.3.3.3.3.3.3.3.3.3.3.3.3.3.3.3.3.3.X X X X X X X X = = = = = = = = 3.3.3.3.3.3.3.3.3.3.3.3.3.3.3.3.3.3.3.3.3.3.3.3.3.3.3.3.3.",
"3.3.3.3.3.3.3.3.3.3.3.3.3.3.3.3.3.3.3.3.X X X X X X X X = = = = = ; = = 3.3.3.3.3.3.3.3.3.3.3.3.3.3.3.3.3.3.3.3.3.3.3.3.3.3.3.3.",
"3.3.3.3.3.3.3.3.3.3.3.3.3.3.3.3.3.3.3.3.X X X X X X X X * = = = = = = = 3.3.3.3.3.3.3.3.3.3.3.3.3.3.3.3.3.3.3.3.3.3.3.3.3.3.3.3.",
"3.3.3.3.3.3.3.3.3.3.3.3.3.3.3.3.3.3.3.3.X X X X X X X X X = = = = = = ; 3.3.3.3.3.3.3.3.3.3.3.3.3.3.3.3.3.3.3.3.3.3.3.3.3.3.3.3.",
"3.3.3.3.3.3.3.3.3.3.3.3.3.3.3.3.3.3.3.3.X X X X X X X X X * = = ; = = = 3.3.3.3.3.3.3.3.3.3.3.3.3.3.3.3.3.3.3.3.3.3.3.3.3.3.3.3.",
"3.3.3.3.3.3.3.3.3.3.3.3.3.3.3.3.3.3.3.3.X X X X X X X X X * = = = = = = 3.3.3.3.3.3.3.3.3.3.3.3.3.3.3.3.3.3.3.3.3.3.3.3.3.3.3.3.",
"3.3.3.3.3.3.3.3.3.3.3.3.3.3.3.3.3.3.3.3.X X X o + + + + + $ , , , , < , 3.3.3.3.3.3.3.3.3.3.3.3.3.3.3.3.3.3.3.3.3.3.3.3.3.3.3.3.",
"3.3.3.3.3.3.3.3.3.3.3.3.3.3.3.3.3.3.3.3.      @ & & > & : y s a a a a a 3.3.3.3.3.3.3.3.3.3.3.3.3.3.3.3.3.3.3.3.3.3.3.3.3.3.3.3.",
"3.3.3.3.3.3.3.3.3.3.3.3.3.3.3.3.3.3.3.    o o O & & & & & t i i i p a a 3.3.3.3.3.3.3.3.3.3.3.3.3.3.3.3.3.3.3.3.3.3.3.3.3.3.3.3.",
"3.3.3.3.3.3.3.3.3.3.3.3.3.3.3.3.3.3.      o & & & & & & & & & & & u a a a a 3.3.3.3.3.3.3.3.3.3.3.3.3.3.3.3.3.3.3.3.3.3.3.3.3.3.",
"3.3.3.3.3.3.3.3.3.3.3.3.3.3.3.3.3.3.  o   @ & & & & & & & & & & & t p p a a 3.3.3.3.3.3.3.3.3.3.3.3.3.3.3.3.3.3.3.3.3.3.3.3.3.3.",
"3.3.3.3.3.3.3.3.3.3.3.3.3.3.3.3.3.3.  o & & & & & & & & & & & & & & > y a a 3.3.3.3.3.3.3.3.3.3.3.3.3.3.3.3.3.3.3.3.3.3.3.3.3.3.",
"3.3.3.3.3.3.3.3.3.3.3.3.3.3.3.3.3.3.  o > & & & & & : # & & & & # > > t a a 3.3.3.3.3.3.3.3.3.3.3.3.3.3.3.3.3.3.3.3.3.3.3.3.3.3.",
"3.3.3.3.3.3.3.3.3.3.3.3.3.3.3.3.3.3.  @ & & & & & & # > 3.o   $ t # : y a a 3.3.3.3.3.3.3.3.3.3.3.3.3.3.3.3.3.3.3.3.3.3.3.3.3.3.",
"3.3.3.3.3.3.3.3.3.3.3.3.3.3.3.3.3.3.  @ & & & & & & > > 3.3.  O # > > t a a 3.3.3.3.3.3.3.3.3.3.3.3.3.3.3.3.3.3.3.3.3.3.3.3.3.3.",
"3.3.3.3.3.3.3.3.3.3.3.3.3.3.3.3.  o # # & & & & & & 3.3.3.3.3.o o o o @ t y a 3.3.3.3.3.3.3.3.3.3.3.3.3.3.3.3.3.3.3.3.3.3.3.3.3.",
"3.3.3.3.3.3.3.3.3.3.3.3.3.3.3.3.  o > > & & & & & & 3.3.3.3.3.3.      @ & t a a 3.3.3.3.3.3.3.3.3.3.3.3.3.3.3.3.3.3.3.3.3.3.3.3.",
"3.3.3.3.3.3.3.3.3.3.3.3.3.3.3.3.  @ # > & > & & 3.3.3.3.3.3.3.3.3.    o & y a a 3.3.3.3.3.3.3.3.3.3.3.3.3.3.3.3.3.3.3.3.3.3.3.3.",
"3.3.3.3.3.3.3.3.3.3.3.3.3.3.3.3.  o & & & & & & 3.3.3.3.3.3.3.3.3.3.  O & y a a 3.3.3.3.3.3.3.3.3.3.3.3.3.3.3.3.3.3.3.3.3.3.3.3.",
"3.3.3.3.3.3.3.3.3.3.3.3.3.3.3.3.  o & & & & 3.3.3.3.3.3.3.3.3.3.3.3.  O & y a a 3.3.3.3.3.3.3.3.3.3.3.3.3.3.3.3.3.3.3.3.3.3.3.3.",
"3.3.3.3.3.3.3.3.3.3.3.3.3.3.3.3.  o > & & & 3.3.3.3.3.3.3.3.3.3.3.3.  O & y s a 3.3.3.3.3.3.3.3.3.3.3.3.3.3.3.3.3.3.3.3.3.3.3.3.",
"3.3.3.3.3.3.3.3.3.3.3.3.3.3.3.3.  @ # > & & 3.3.3.3.3.3.3.3.3.3.3.3.  o @ & u i 3.3.3.3.3.3.3.3.3.3.3.3.3.3.3.3.3.3.3.3.3.3.3.3.",
"3.3.3.3.3.3.3.3.3.3.3.3.3.3.3.3.  o & & & > 3.3.3.3.3.3.3.3.3.3.3.3.3.3.  @ > y a a 3.3.3.3.3.3.3.3.3.3.3.3.3.3.3.3.3.3.3.3.3.3.",
"3.3.3.3.3.3.3.3.3.3.3.3.3.3.3.@ o @ & & & 3.3.3.3.3.3.3.3.3.3.3.3.3.3.3.  @ # t i i 3.3.3.3.3.3.3.3.3.3.3.3.3.3.3.3.3.3.3.3.3.3.",
"3.3.3.3.3.3.3.3.3.3.3.3.3.3.& & & & & & 3.3.3.3.3.3.3.3.3.3.3.3.3.3.3.3.  O & & & & 3.3.3.3.3.3.3.3.3.3.3.3.3.3.3.3.3.3.3.3.3.3.",
"3.3.3.3.3.3.3.3.3.3.3.3.3.3.& & & & & & 3.3.3.3.3.3.3.3.3.3.3.3.3.3.3.3.  o & & > & 3.3.3.3.3.3.3.3.3.3.3.3.3.3.3.3.3.3.3.3.3.3.",
"3.3.3.3.3.3.3.3.3.3.3.3.3.3.& & & & & & 3.3.3.3.3.3.3.3.3.3.3.3.3.3.3.3.  O & & & & 3.3.3.3.3.3.3.3.3.3.3.3.3.3.3.3.3.3.3.3.3.3.",
"3.3.3.3.3.3.3.3.3.3.3.3.3.3.& & > & & & 3.3.3.3.3.3.3.3.3.3.3.3.3.3.3.3.  O & & & & 3.3.3.3.3.3.3.3.3.3.3.3.3.3.3.3.3.3.3.3.3.3."
};
