/* XPM */
static char *result[] = {
/* columns rows colors chars-per-pixel */
"64 64 99 2 ",
"   c #1D131C",
".  c #1B1B1B",
"X  c #25161E",
"o  c #241B1C",
"O  c #2C1B1E",
"+  c #331C1F",
"@  c #3B1C1F",
"#  c #351D20",
"$  c #391F21",
"%  c #262626",
"&  c #2B2626",
"*  c #2D2827",
"=  c #2A2829",
"-  c #372123",
";  c #3C2122",
":  c #35302B",
">  c #3A3737",
",  c #3D3A3A",
"<  c #411D20",
"1  c #4B1C24",
"2  c #541C27",
"3  c #5B1C27",
"4  c #5E1C28",
"5  c #641D25",
"6  c #661D28",
"7  c #6D1D29",
"8  c #701D27",
"9  c #721D29",
"0  c #7C1E29",
"q  c #432324",
"w  c #4C2625",
"e  c #452A29",
"r  c #532826",
"t  c #592A27",
"y  c #5F2229",
"u  c #572B28",
"i  c #5D2C28",
"p  c #4F3330",
"a  c #6C222A",
"s  c #602F29",
"d  c #6D3F2D",
"f  c #6E402D",
"g  c #755549",
"h  c #78584B",
"j  c #841E2B",
"k  c #8A1E2B",
"l  c #901F2C",
"z  c #88252C",
"x  c #91252D",
"c  c #A4212D",
"v  c #AC212E",
"b  c #B2232E",
"n  c #BC232F",
"m  c #C42430",
"M  c #824F2C",
"N  c #EE9E1E",
"B  c #FFA10F",
"V  c #FFA213",
"C  c #FFAE16",
"Z  c #FEA719",
"A  c #FEAF1B",
"S  c #FFB41E",
"D  c #FFBA1E",
"F  c #F7A927",
"G  c #F5A429",
"H  c #FFB323",
"J  c #FFBE22",
"K  c #FFBA2A",
"L  c #FFC424",
"P  c #FFC824",
"I  c #FEC72B",
"U  c #FFCC2B",
"Y  c #F7C433",
"T  c #F8C633",
"R  c #F9CE36",
"E  c #F6CA3C",
"W  c #FFD637",
"Q  c #FFD93D",
"!  c #E8A946",
"~  c #E6AA4B",
"^  c #E2A852",
"/  c #DBC04C",
"(  c #EEC345",
")  c #FCD846",
"_  c #EFD751",
"`  c #FFE147",
"'  c #FDE04F",
"]  c #FFE550",
"[  c #FFEA55",
"{  c #F7E15C",
"}  c #BDB5A4",
"|  c #BDBAA9",
" . c #B5B4B2",
".. c #DCB58F",
"X. c #C5B895",
"o. c #DFB590",
"O. c #F6CA9F",
"+. c #F8CBA0",
"@. c None",
/* pixels */
"@.@.@.@.@.@.@.@.@.@.@.@.@.@.@.@.@.@.@.@.@.@.@.@.@.@.@.@.@.@.@.@.@.@.@.@.@.@.@.@.@.@.@.@.@.@.@.@.@.@.@.@.@.@.@.@.@.@.@.@.@.@.@.@.",
"@.@.@.@.@.@.@.@.@.@.@.@.@.@.@.@.@.@.@.@.@.@.@.@.@.@.@.@.@.@.@.@.@.@.@.@.@.@.@.@.@.@.@.@.@.@.@.@.@.@.@.@.@.@.@.@.@.@.@.@.@.@.@.@.",
"@.@.@.@.@.@.@.@.@.@.@.@.@.@.@.@.@.@.@.@.@.@.@.@.@.@.@.@.@.@.@.@.@.@.@.V @.@.@.@.@.@.@.@.@.@.@.@.@.@.@.@.@.@.@.@.@.@.@.@.@.@.@.@.",
"@.@.@.@.@.@.@.@.@.@.@.@.@.@.@.@.@.@.@.@.@.@.@.@.@.@.@.@.@.@.@.@.@.@.@.G @.@.@.@.@.@.@.@.@.@.@.@.@.@.@.@.@.@.@.@.@.@.@.@.@.@.@.@.",
"@.@.@.@.@.@.@.@.@.@.@.@.@.@.@.@.@.@.@.@.@.@.@.@.@.@.@.@.@.@.@.@.@.B ~ }  .@.@.V @.@.@.@.@.@.@.@.@.@.@.@.@.@.@.@.@.@.@.@.@.@.@.@.",
"@.@.@.@.@.@.@.@.@.@.@.@.@.@.@.@.@.@.@.@.@.@.@.@.@.@.@.@.@.@.@.@.@.B ! }  .@.@.Z @.@.@.@.@.@.@.@.@.@.@.@.@.@.@.@.@.@.@.@.@.@.@.@.",
"@.@.@.@.@.@.@.@.@.@.@.@.@.@.@.@.@.k k k k b m m @.@.@.@.@.@.@.@.@.V A ( } ^ C L Z @.@.@.@.@.@.@.@.@.@.@.@.@.@.@.@.@.@.@.@.@.@.@.",
"@.@.@.@.@.@.@.@.@.@.@.@.@.@.@.@.@.k j k k v n m @.@.@.@.@.@.@.@.@.V S T X.~ S I F @.@.@.@.@.@.@.@.@.@.@.@.@.@.@.@.@.@.@.@.@.@.@.",
"@.@.@.@.@.@.@.@.@.@.@.@.@.@.@.@.k k k k k k c m m @.@.@.@.@.@.@.@.V A I T ) ' { X.~ V @.@.@.@.@.@.@.@.@.@.@.@.@.@.@.@.@.@.@.@.@.",
"@.@.@.@.@.@.@.@.@.@.@.@.@.@.@.@.k k k j 0 0 x b m @.@.@.@.@.@.@.@.V S U U ` [ { | ^ B @.@.@.@.@.@.@.@.@.@.@.@.@.@.@.@.@.@.@.@.@.",
"@.@.@.@.@.@.@.@.@.@.@.@.@.@.@.@.k k k 0 + o O < b @.@.@.@.@.@.@.@.B K ] [ [ ) E | @.@.@.@.@.@.@.@.@.@.@.@.@.@.@.@.@.@.@.@.@.@.@.",
"@.@.@.@.@.@.@.@.@.@.@.@.@.@.@.@.k k k 8 o . . O b @.@.@.@.@.@.@.@.V K ' [ [ Q Y } @.@.@.@.@.@.@.@.@.@.@.@.@.@.@.@.@.@.@.@.@.@.@.",
"@.@.@.@.@.@.@.@.@.@.@.@.@.@.@.@.k k 5 o . . . O v @.@.@.@.@.@.@.@.@.@.H ] Q J Z @.@.@.@.@.@.@.@.@.@.@.@.@.@.@.@.@.@.@.@.@.@.@.@.",
"@.@.@.@.@.@.@.@.@.@.@.@.@.@.@.@.k k 5 . . . . + b @.@.@.@.@.@.@.@.@.@.N ) W J V @.@.@.@.@.@.@.@.@.@.@.@.@.@.@.@.@.@.@.@.@.@.@.@.",
"@.@.@.@.@.@.@.@.@.@.@.@.@.@.@.4 j k a . . . . O b @.@.@.@.@.@.@.@.@.@.M _ Q L @.@.@.@.@.@.@.@.@.@.@.@.@.@.@.@.@.@.@.@.@.@.@.@.@.",
"@.@.@.@.@.@.@.@.@.@.@.@.@.@.@.4 j k 3 . . . . O b @.@.@.@.@.@.@.@.@.@.d / R P @.@.@.@.@.@.@.@.@.@.@.@.@.@.@.@.@.@.@.@.@.@.@.@.@.",
"@.@.@.@.@.@.@.@.@.. . . . @.@.4 j k 5 . . . . + b @.@.@.@.@.@.@.@.@.@.s f @.@.@.@.@.@.@.@.@.@.@.@.@.@.@.@.@.@.@.@.@.@.@.@.@.@.@.",
"@.@.@.@.@.@.@.@.@.. . . . @.@.3 0 k 6 o . . . @ b @.@.@.@.@.@.@.@.@.@.t i @.@.@.@.@.@.@.@.@.@.@.@.@.@.@.@.@.@.@.@.@.@.@.@.@.@.@.",
"@.@.@.@.@.@.@.@.. . . . . . + 3 4 0 j 8 o . @ j n @.@.@.@.@.@.@.@.$ ; ; @.@.@.@.@.@.@.@.@.@.@.@.@.@.@.@.@.@.@.@.@.@.@.@.@.@.@.@.",
"@.@.@.@.@.@.@.@.. . . . . . O 2 2 9 k 0 + o 1 l n @.@.@.@.@.@.@.@.$ $ - @.@.@.@.@.@.@.@.@.@.@.@.@.@.@.@.@.@.@.@.@.@.@.@.@.@.@.@.",
"@.@.@.@.@.@.@.@.. . . . . . + 2 3 3 7 k j 0 0 l n m m @.@.@.@.@.@.$ $ $ @.@.@.@.@.@.@.@.@.@.@.@.@.@.@.@.@.@.@.@.@.@.@.@.@.@.@.@.",
"@.@.@.@.@.@.@.@.. . . . . . O 2 2 2 5 j j k k l n m n @.@.@.@.@.@.$ q p @.@.@.@.@.@.@.@.@.@.@.@.@.@.@.@.@.@.@.@.@.@.@.@.@.@.@.@.",
"@.@.@.@.@.@.@.. . . . @.. . . o 2 2 2 3 3 0 k k l n z = @.@.@., ; + g o.@.@.@.@.@.@.@.@.@.@.@.@.@.@.@.@.@.@.@.@.@.@.@.@.@.@.@.@.",
"@.@.@.@.@.@.@.. . . . @.. . . o 1 2 2 3 2 9 j j j v z & @.@.@., ; + h +.@.@.@.@.@.@.@.@.@.@.@.@.@.@.@.@.@.@.@.@.@.@.@.@.@.@.@.@.",
"@.@.@.@.@.@.@.. . @.@.@.@.. . . . o + 2 2 3 4 2 3 0 a = % = = = - - e @.@.@.@.@.@.@.@.@.@.@.@.@.@.@.@.@.@.@.@.@.@.@.@.@.@.@.@.@.",
"@.@.@.@.@.@.@.. . @.@.@.@.. . . . . O 2 2 2 2 2 2 9 y = % = % % - - $ @.@.@.@.@.@.@.@.@.@.@.@.@.@.@.@.@.@.@.@.@.@.@.@.@.@.@.@.@.",
"@.@.@.@.@.@.@.. . @.@.@.@.. . . . . . o 2 # . O 2 ; * % % % % & - @.@.@.@.@.@.@.@.@.@.@.@.@.@.@.@.@.@.@.@.@.@.@.@.@.@.@.@.@.@.@.",
"@.@.@.@.@.@.@.: : @.@.@.@.. . . . . . o 1 O . o w - % % % % & & - @.@.@.@.@.@.@.@.@.@.@.@.@.@.@.@.@.@.@.@.@.@.@.@.@.@.@.@.@.@.@.",
"@.@.@.@.@.@.@.....@.@.@.@.. . . . . . . o . . . = @.@.@.= = & $ $ @.@.@.@.@.@.@.@.@.@.@.@.@.@.@.@.@.@.@.@.@.@.@.@.@.@.@.@.@.@.@.",
"@.@.@.@.@.@.@.+.+.@.@.@.@.. . . . . . . . . . . = @.@.@.= % * $ $ @.@.@.@.@.@.@.@.@.@.@.@.@.@.@.@.@.@.@.@.@.@.@.@.@.@.@.@.@.@.@.",
"@.@.@.@.@.@.@.O.O.@.@.@.@.@.@.. . . . . . . . % = @.@.@.@.@.@.$ @.@.@.@.@.@.@.@.@.@.@.@.@.@.@.@.@.@.@.@.@.@.@.@.@.@.@.@.@.@.@.@.",
"@.@.@.@.@.@.@.O.O.@.@.@.@.@.@.. . . . . . . o = % @.@.@.@.@.@.$ @.@.@.@.@.@.@.@.@.@.@.@.@.@.@.@.@.@.@.@.@.@.@.@.@.@.@.@.@.@.@.@.",
"@.@.@.@.@.@.@.@.@.@.@.@.@.@.@.. . . . . . . % % % @.@.@.@.@.@.@.@.@.@.@.@.@.@.@.@.@.@.@.@.@.@.@.@.@.@.@.@.@.@.@.@.@.@.@.@.@.@.@.",
"@.@.@.@.@.@.@.@.@.@.@.@.@.@.@.. . . . . . . . % % @.@.@.@.@.@.@.@.@.@.@.@.@.@.@.@.@.@.@.@.@.@.@.@.@.@.@.@.@.@.@.@.@.@.@.@.@.@.@.",
"@.@.@.@.@.@.@.@.@.@.@.@.@.@.@.. . . . . . % % % = @.@.@.@.@.@.@.@.@.@.@.@.@.@.@.@.@.@.@.@.@.@.@.@.@.@.@.@.@.@.@.@.@.@.@.@.@.@.@.",
"@.@.@.@.@.@.@.@.@.@.@.@.@.@.@.. . . . . . % % % % @.@.@.@.@.@.@.@.@.@.@.@.@.@.@.@.@.@.@.@.@.@.@.@.@.@.@.@.@.@.@.@.@.@.@.@.@.@.@.",
"@.@.@.@.@.@.@.@.@.@.@.@.@.@.@.@.. . . . . . % % % % = @.@.@.@.@.@.@.@.@.@.@.@.@.@.@.@.@.@.@.@.@.@.@.@.@.@.@.@.@.@.@.@.@.@.@.@.@.",
"@.@.@.@.@.@.@.@.@.@.@.@.@.@.@.@.. . . . . % % = = % % @.@.@.@.@.@.@.@.@.@.@.@.@.@.@.@.@.@.@.@.@.@.@.@.@.@.@.@.@.@.@.@.@.@.@.@.@.",
"@.@.@.@.@.@.@.@.@.@.@.@.@.@.@.@.. . . . . . . = = % % @.@.@.@.@.@.@.@.@.@.@.@.@.@.@.@.@.@.@.@.@.@.@.@.@.@.@.@.@.@.@.@.@.@.@.@.@.",
"@.@.@.@.@.@.@.@.@.@.@.@.@.@.@.@.. . . . . . % % % % = @.@.@.@.@.@.@.@.@.@.@.@.@.@.@.@.@.@.@.@.@.@.@.@.@.@.@.@.@.@.@.@.@.@.@.@.@.",
"@.@.@.@.@.@.@.@.@.@.@.@.@.@.@.@.. . . . . . . % % % = @.@.@.@.@.@.@.@.@.@.@.@.@.@.@.@.@.@.@.@.@.@.@.@.@.@.@.@.@.@.@.@.@.@.@.@.@.",
"@.@.@.@.@.@.@.@.@.@.@.@.@.@.@.@.. . . o . o o * * * * @.@.@.@.@.@.@.@.@.@.@.@.@.@.@.@.@.@.@.@.@.@.@.@.@.@.@.@.@.@.@.@.@.@.@.@.@.",
"@.@.@.@.@.@.@.@.@.@.@.@.@.@.@.@.      + $ $ q u u u u @.@.@.@.@.@.@.@.@.@.@.@.@.@.@.@.@.@.@.@.@.@.@.@.@.@.@.@.@.@.@.@.@.@.@.@.@.",
"@.@.@.@.@.@.@.@.@.@.@.@.@.@.@.@.    o + $ ; q u t i i @.@.@.@.@.@.@.@.@.@.@.@.@.@.@.@.@.@.@.@.@.@.@.@.@.@.@.@.@.@.@.@.@.@.@.@.@.",
"@.@.@.@.@.@.@.@.@.@.@.@.@.@.@.    O $ $ $ $ $ $ ; t i i @.@.@.@.@.@.@.@.@.@.@.@.@.@.@.@.@.@.@.@.@.@.@.@.@.@.@.@.@.@.@.@.@.@.@.@.",
"@.@.@.@.@.@.@.@.@.@.@.@.@.@.@.    O $ $ $ $ $ $ @ w t i @.@.@.@.@.@.@.@.@.@.@.@.@.@.@.@.@.@.@.@.@.@.@.@.@.@.@.@.@.@.@.@.@.@.@.@.",
"@.@.@.@.@.@.@.@.@.@.@.@.@.@.@.  + $ $ $ $ - $ $ $ - w i @.@.@.@.@.@.@.@.@.@.@.@.@.@.@.@.@.@.@.@.@.@.@.@.@.@.@.@.@.@.@.@.@.@.@.@.",
"@.@.@.@.@.@.@.@.@.@.@.@.@.@.@.  $ $ $ $ $ $ $ $ $ $ q i @.@.@.@.@.@.@.@.@.@.@.@.@.@.@.@.@.@.@.@.@.@.@.@.@.@.@.@.@.@.@.@.@.@.@.@.",
"@.@.@.@.@.@.@.@.@.@.@.@.@.@.@.  $ $ $ $ $ @.@.X # # q i @.@.@.@.@.@.@.@.@.@.@.@.@.@.@.@.@.@.@.@.@.@.@.@.@.@.@.@.@.@.@.@.@.@.@.@.",
"@.@.@.@.@.@.@.@.@.@.@.@.@.@.@.o + $ $ $ $ @.@.X # # q t @.@.@.@.@.@.@.@.@.@.@.@.@.@.@.@.@.@.@.@.@.@.@.@.@.@.@.@.@.@.@.@.@.@.@.@.",
"@.@.@.@.@.@.@.@.@.@.@.@.@.  X $ - $ $ $ @.@.@.@.  X o q t @.@.@.@.@.@.@.@.@.@.@.@.@.@.@.@.@.@.@.@.@.@.@.@.@.@.@.@.@.@.@.@.@.@.@.",
"@.@.@.@.@.@.@.@.@.@.@.@.@.  X $ $ $ $ $ @.@.@.@.    X < t @.@.@.@.@.@.@.@.@.@.@.@.@.@.@.@.@.@.@.@.@.@.@.@.@.@.@.@.@.@.@.@.@.@.@.",
"@.@.@.@.@.@.@.@.@.@.@.@.@.  X $ $ $ $ @.@.@.@.@.@.  X ; t @.@.@.@.@.@.@.@.@.@.@.@.@.@.@.@.@.@.@.@.@.@.@.@.@.@.@.@.@.@.@.@.@.@.@.",
"@.@.@.@.@.@.@.@.@.@.@.@.@.  X $ $ $ $ @.@.@.@.@.@.  X ; t @.@.@.@.@.@.@.@.@.@.@.@.@.@.@.@.@.@.@.@.@.@.@.@.@.@.@.@.@.@.@.@.@.@.@.",
"@.@.@.@.@.@.@.@.@.@.@.@.@.  X - $ @.@.@.@.@.@.@.@.  X ; t @.@.@.@.@.@.@.@.@.@.@.@.@.@.@.@.@.@.@.@.@.@.@.@.@.@.@.@.@.@.@.@.@.@.@.",
"@.@.@.@.@.@.@.@.@.@.@.@.@.  X $ $ @.@.@.@.@.@.@.@.  X $ t @.@.@.@.@.@.@.@.@.@.@.@.@.@.@.@.@.@.@.@.@.@.@.@.@.@.@.@.@.@.@.@.@.@.@.",
"@.@.@.@.@.@.@.@.@.@.@.@.@.  X # $ @.@.@.@.@.@.@.@.@.@.X - r i @.@.@.@.@.@.@.@.@.@.@.@.@.@.@.@.@.@.@.@.@.@.@.@.@.@.@.@.@.@.@.@.@.",
"@.@.@.@.@.@.@.@.@.@.@.@.@.X X $ $ @.@.@.@.@.@.@.@.@.@.X + w i @.@.@.@.@.@.@.@.@.@.@.@.@.@.@.@.@.@.@.@.@.@.@.@.@.@.@.@.@.@.@.@.@.",
"@.@.@.@.@.@.@.@.@.@.@.@.- # $ $ @.@.@.@.@.@.@.@.@.@.@.  $ ; ; @.@.@.@.@.@.@.@.@.@.@.@.@.@.@.@.@.@.@.@.@.@.@.@.@.@.@.@.@.@.@.@.@.",
"@.@.@.@.@.@.@.@.@.@.@.@.$ $ $ $ @.@.@.@.@.@.@.@.@.@.@.  @ $ $ @.@.@.@.@.@.@.@.@.@.@.@.@.@.@.@.@.@.@.@.@.@.@.@.@.@.@.@.@.@.@.@.@.",
"@.@.@.@.@.@.@.@.@.@.@.@.$ $ $ $ @.@.@.@.@.@.@.@.@.@.@.  # # $ @.@.@.@.@.@.@.@.@.@.@.@.@.@.@.@.@.@.@.@.@.@.@.@.@.@.@.@.@.@.@.@.@.",
"@.@.@.@.@.@.@.@.@.@.@.@.$ $ $ $ @.@.@.@.@.@.@.@.@.@.@.X # $ $ @.@.@.@.@.@.@.@.@.@.@.@.@.@.@.@.@.@.@.@.@.@.@.@.@.@.@.@.@.@.@.@.@.",
"@.@.@.@.@.@.@.@.@.@.@.@.$ $ $ @.@.@.@.@.@.@.@.@.@.@.@.@.  + $ @.@.@.@.@.@.@.@.@.@.@.@.@.@.@.@.@.@.@.@.@.@.@.@.@.@.@.@.@.@.@.@.@.",
"@.@.@.@.@.@.@.@.@.@.@.@.$ $ $ @.@.@.@.@.@.@.@.@.@.@.@.@.  + $ @.@.@.@.@.@.@.@.@.@.@.@.@.@.@.@.@.@.@.@.@.@.@.@.@.@.@.@.@.@.@.@.@."
};
