/* XPM */
static char *result[] = {
/* columns rows colors chars-per-pixel */
"64 64 98 2 ",
"   c #1D131C",
".  c #1B1B1B",
"X  c #23151D",
"o  c #231B1C",
"O  c #2B1B1D",
"+  c #311C1F",
"@  c #351D20",
"#  c #391F21",
"$  c #272727",
"%  c #2A2626",
"&  c gray16",
"*  c #372022",
"=  c #3C2122",
"-  c #3A2927",
";  c #342728",
":  c #3A2728",
">  c #3B2F30",
",  c #343333",
"<  c #3B3435",
"1  c #3C3C3C",
"2  c #431C23",
"3  c #4A1E26",
"4  c #551C27",
"5  c #5A1C27",
"6  c #5E1C28",
"7  c #651D26",
"8  c #641D28",
"9  c #6B1D29",
"0  c #701F26",
"q  c #731D29",
"w  c #7C1E29",
"e  c #442323",
"r  c #4E2725",
"t  c #402628",
"y  c #542926",
"u  c #592A27",
"i  c #5D2C28",
"p  c #473E35",
"a  c #6B212A",
"s  c #7E2027",
"d  c #623229",
"f  c #753D24",
"g  c #6E412E",
"h  c #841E2B",
"j  c #891E2B",
"k  c #901F2C",
"l  c #9E202D",
"z  c #A4212D",
"x  c #AA232E",
"c  c #B1242E",
"v  c #BC232F",
"b  c #BF2330",
"n  c #C42430",
"m  c #87532B",
"M  c #805532",
"N  c #895F33",
"B  c #F19715",
"V  c #FFA314",
"C  c #F3A11D",
"Z  c #FAA41F",
"A  c #FFAA1A",
"S  c #FFB21B",
"D  c #F6A426",
"F  c #FFB121",
"G  c #FFBF2C",
"H  c #F9BC36",
"J  c #FFC523",
"K  c #FFC825",
"L  c #FFCC2C",
"P  c #F7C434",
"I  c #F9C730",
"U  c #FCCF39",
"Y  c #FFD234",
"T  c #E4A84D",
"R  c #E8AE4A",
"E  c #D8AB67",
"W  c #D6AC6B",
"Q  c #DCBA65",
"!  c #D3AD73",
"~  c #D4BD77",
"^  c #D4BC79",
"/  c #FFD947",
"(  c #E7CF50",
")  c #EFD752",
"_  c #F6DD57",
"`  c #FFE24C",
"'  c #FEE551",
"]  c #FFEA55",
"[  c #FFEB58",
"{  c #F6E563",
"}  c #BCB4A4",
"|  c #B8B5AD",
" . c #BDBAA9",
".. c #B3B4B5",
"X. c #B2B4B9",
"o. c #EAC098",
"O. c #F7CBA0",
"+. c None",
/* pixels */
"+.+.+.+.+.+.+.+.+.+.+.+.+.+.+.+.+.+.+.+.+.+.+.+.+.+.+.+.+.+.+.+.+.+.+.+.+.+.+.+.+.+.+.+.+.+.+.+.+.+.+.+.+.+.+.+.+.+.+.+.+.+.+.+.",
"+.+.+.+.+.+.+.+.+.+.+.+.+.+.+.+.+.+.+.+.+.+.+.+.+.+.+.+.+.+.+.+.+.+.+.+.+.+.+.+.+.+.+.+.+.+.+.+.+.+.+.+.+.+.+.+.+.+.+.+.+.+.+.+.",
"+.+.+.+.+.+.+.+.+.+.+.+.+.+.+.+.+.+.+.+.+.+.+.+.+.+.+.+.+.+.+.+.+.+.+.+.+.+.+.+.+.+.+.+.+.+.+.+.+.+.+.+.+.+.V V V V +.+.+.+.+.+.",
"+.+.+.+.+.+.+.+.+.+.+.+.+.+.+.+.+.+.+.+.+.+.+.+.+.+.+.+.+.+.+.+.+.+.+.+.+.+.+.+.+.+.+.+.+.+.+.+.+.+.+.+.+.+.V V V V +.+.+.+.+.+.",
"+.+.+.+.+.+.+.+.+.+.+.+.+.+.+.+.+.+.+.+.+.+.+.+.+.+.j j j k v n n n +.+.+.+.+.+.+.+.+.+.+.+.+.+.+.+.+.+.V V B V V V V V +.+.+.+.",
"+.+.+.+.+.+.+.+.+.+.+.+.+.+.+.+.+.+.+.+.+.+.+.+.+.+.j h j k v n n n +.+.+.+.+.+.+.+.+.+.+.+.+.+.+.+.+.+.V V V V V V V B +.+.+.+.",
"+.+.+.+.+.+.+.+.+.+.+.+.+.+.+.+.+.+.+.+.+.+.+.+.j j j j j j z z n n n n +.+.+.+.+.+.+.+.+.+.+.+.+.+.V D W ! ! E Z V V V V V +.+.",
"+.+.+.+.+.+.+.+.+.+.+.+.+.+.+.+.+.+.+.+.+.+.+.+.j j j j j j j k b n n n +.+.+.+.+.+.+.+.+.+.+.+.+.+.V D } X.X.} D V V V V V +.+.",
"+.+.+.+.+.+.+.+.+.+.+.+.+.+.+.+.+.+.+.+.+.+.+.j j j j h 5 4 4 5 0 s v n +.+.+.+.+.+.+.+.+.+.+.+.+.+.V Z Q ^ | } D V S S V V +.+.",
"+.+.+.+.+.+.+.+.+.+.+.+.+.+.+.+.+.+.+.+.+.+.j j j j j s o . . . . O x n +.+.+.+.+.+.+.+.+.+.+.+.+.+.V A J P } } D V J J V V +.+.",
"+.+.+.+.+.+.+.+.+.+.+.+.+.+.+.+.+.+.+.+.+.+.j j j h 7 5 o . . . . + c n +.+.+.+.+.+.+.+.+.+.+.+.+.+.V V J I ~ ^ H J U U R T +.+.",
"+.+.+.+.+.+.+.+.+.+.+.+.+.+.+.+.+.+.+.+.+.+.j j j w O . . . . . . + c n +.+.+.+.+.+.+.+.+.+.+.+.+.+.V V J J K L ' [ [ {  ...+.+.",
"+.+.+.+.+.+.+.+.+.+.+.+.+.+.+.+.+.+.+.+.+.+.j j j w o . . . . . . O x n +.+.+.+.+.+.+.+.+.+.+.+.+.+.V A L Y Y Y ] [ ` _  ...+.+.",
"+.+.+.+.+.+.+.+.+.+.+.+.+.+.+.+.+.+.+.+.+.+.+.+.j w O . . . . . . . +.+.+.+.+.+.+.+.+.+.+.+.+.+.+.+.V A ` [ ] ] [ ' L P  ...+.+.",
"+.+.+.+.+.+.+.+.+.+.+.+.+.+.+.+.+.+.+.+.+.+.+.+.j w O . . . . . . . +.+.+.+.+.+.+.+.+.+.+.+.+.+.+.+.V A / ` ] [ ' ` K P } ..+.+.",
"+.+.+.+.+.+.+.+.+.+.+.+.+.+.. . . . +.+.+.+.+.+.j j +.+.+.+.+.+.+.+.+.+.+.+.+.+.+.+.+.+.+.+.+.+.+.+.+.+.A F ` ] L K A V +.+.+.+.",
"+.+.+.+.+.+.+.+.+.+.+.+.+.+.. . . . +.+.+.+.+.+.j j +.+.+.+.+.+.+.+.+.+.+.+.+.+.+.+.+.+.+.+.+.+.+.+.+.+.B B ' ' L J A V +.+.+.+.",
"+.+.+.+.+.+.+.+.+.+.+.+.. . . . . . . . +.+.4 6 h j j w O . . . . . . O c n +.+.+.+.+.+.+.+.+.+.+.+.+.+.f M ) [ L J +.+.+.+.+.+.",
"+.+.+.+.+.+.+.+.+.+.+.+.. . . . . . . . +.+.4 6 w j j w O . . . . . . + c n +.+.+.+.+.+.+.+.+.+.+.+.+.+.u f ( ' L K +.+.+.+.+.+.",
"+.+.+.+.+.+.+.+.+.+.+.+.. . . . . . . . . o 4 5 8 9 h j q 8 o . . o 7 w v n +.+.$ $ +.+.+.+.+.+.+.+.+.+.i d M N +.+.+.+.+.+.+.+.",
"+.+.+.+.+.+.+.+.+.+.+.+.. . . . . . . . . o 3 5 4 6 h j j w O . . O w l b n +.+.$ $ +.+.+.+.+.+.+.+.+.+.i i u u +.+.+.+.+.+.+.+.",
"+.+.+.+.+.+.+.+.+.+.+.+.+.+.. . +.+.. . . o 4 4 4 5 8 9 j h 8 8 7 7 h j b n n x ; $ $ $ $ $ +.+.+.+.@ = e e +.+.+.+.+.+.+.+.+.+.",
"+.+.+.+.+.+.+.+.+.+.+.+.+.+.. . +.+.. . . o 3 5 5 4 4 6 h j j j j j h k b n n c : $ $ & $ $ +.+.+.+.= = = = +.+.+.+.+.+.+.+.+.+.",
"+.+.+.+.+.+.+.+.+.+.+.+.+.+.+.+.. . . . . o 4 4 4 5 4 5 9 q h j j j j j z x n c : $ $ $ $ $ 1 1 1 < * = = @ +.+.+.+.+.+.+.+.+.+.",
"+.+.+.+.+.+.+.+.+.+.. . +.+.+.+.. . . . . o 4 6 5 5 4 5 4 4 +.+.j j j j j l b x : $ $ $ $ & 1 1 1 < * # # # +.+.+.+.+.+.+.+.+.+.",
"+.+.+.+.+.+.+.+.+.+.. . +.+.+.+.. . . . . . # # # 2 4 4 4 5 +.+.j j j h q w z l t $ $ $ $ & , , < < * # # # +.+.+.+.+.+.+.+.+.+.",
"+.+.+.+.+.+.+.+.. . . . +.+.+.+.+.+.. . . . . . . o 4 4 5 4 +.+.+.+.j h 6 6 h j +.+.$ $ $ & $ % * = # # +.+.+.+.+.+.+.+.+.+.+.+.",
"+.+.+.+.+.+.+.+.. . . . +.+.+.+.+.+.. . . . . . . X 2 2 4 4 +.+.+.+.j h 5 u a a +.+.$ $ $ $ $ % * = # # +.+.+.+.+.+.+.+.+.+.+.+.",
"+.+.+.+.+.+.+.+.. . . . +.+.+.+.+.+.. . . . . . . . . o 3 4 o . +.+.+.+.5 4 % % +.+.+.+.+.+.$ % * @ = @ +.+.+.+.+.+.+.+.+.+.+.+.",
"+.+.+.+.+.+.+.+.p p p p +.+.+.+.+.+.. . . . . . . . . o 2 2 o . +.+.+.+.3 3 % $ +.+.+.+.+.+.$ $ * = @ = +.+.+.+.+.+.+.+.+.+.+.+.",
"+.+.+.+.+.+.+.+.o.o.o.o.+.+.+.+.+.+.. . . . . . . . . . X . . . +.+.% $ % % +.+.+.+.+.+.+.+.$ % * # +.+.+.+.+.+.+.+.+.+.+.+.+.+.",
"+.+.+.+.+.+.+.+.O.O.O.O.+.+.+.+.+.+.. . . . . . . . . . . . . . +.+.$ $ $ $ +.+.+.+.+.+.+.+.% % * = +.+.+.+.+.+.+.+.+.+.+.+.+.+.",
"+.+.+.+.+.+.+.+.+.+.+.+.+.+.+.+.+.+.. . . . . . . . . . . . $ $ $ & & $ $ $ +.+.+.+.+.+.+.+.* * = # +.+.+.+.+.+.+.+.+.+.+.+.+.+.",
"+.+.+.+.+.+.+.+.+.+.+.+.+.+.+.+.+.+.. . . . . . . . . . . . $ $ $ $ $ $ $ $ +.+.+.+.+.+.+.+.@ = * # +.+.+.+.+.+.+.+.+.+.+.+.+.+.",
"+.+.+.+.+.+.+.+.+.+.+.+.+.+.+.+.+.+.+.+.. . . . . . . . . . $ $ $ $ $ $ +.+.+.+.+.+.+.+.+.+.= @ +.+.+.+.+.+.+.+.+.+.+.+.+.+.+.+.",
"+.+.+.+.+.+.+.+.+.+.+.+.+.+.+.+.+.+.+.+.. . . . . . . . . . $ $ $ $ $ $ +.+.+.+.+.+.+.+.+.+.* = +.+.+.+.+.+.+.+.+.+.+.+.+.+.+.+.",
"+.+.+.+.+.+.+.+.+.+.+.+.+.+.+.+.+.+.+.+.+.+.. . . . . . . . & $ $ & $ $ $ & +.+.+.+.+.+.+.+.+.+.+.+.+.+.+.+.+.+.+.+.+.+.+.+.+.+.",
"+.+.+.+.+.+.+.+.+.+.+.+.+.+.+.+.+.+.+.+.+.+.. . . . . . . . $ % $ $ $ $ $ $ +.+.+.+.+.+.+.+.+.+.+.+.+.+.+.+.+.+.+.+.+.+.+.+.+.+.",
"+.+.+.+.+.+.+.+.+.+.+.+.+.+.+.+.+.+.+.+.+.+.+.+.. . . . . . . $ $ $ $ $ $ $ +.+.+.+.+.+.+.+.+.+.+.+.+.+.+.+.+.+.+.+.+.+.+.+.+.+.",
"+.+.+.+.+.+.+.+.+.+.+.+.+.+.+.+.+.+.+.+.+.+.+.+.. . . . . . . . $ $ $ % $ $ +.+.+.+.+.+.+.+.+.+.+.+.+.+.+.+.+.+.+.+.+.+.+.+.+.+.",
"+.+.+.+.+.+.+.+.+.+.+.+.+.+.+.+.+.+.+.+.+.+.+.+.+.. . . . . . . $ $ $ $ $ $ +.+.+.+.+.+.+.+.+.+.+.+.+.+.+.+.+.+.+.+.+.+.+.+.+.+.",
"+.+.+.+.+.+.+.+.+.+.+.+.+.+.+.+.+.+.+.+.+.+.+.+.+.+.. . . . . . $ $ $ $ $ $ +.+.+.+.+.+.+.+.+.+.+.+.+.+.+.+.+.+.+.+.+.+.+.+.+.+.",
"+.+.+.+.+.+.+.+.+.+.+.+.+.+.+.+.+.+.+.+.+.+.+.+.+.+.. . . . . . $ $ $ % : - +.+.+.+.+.+.+.+.+.+.+.+.+.+.+.+.+.+.+.+.+.+.+.+.+.+.",
"+.+.+.+.+.+.+.+.+.+.+.+.+.+.+.+.+.+.+.+.+.+.+.+.+.+.+.+.+.+.+.+.+.+.+.+.i i i i +.+.+.+.+.+.+.+.+.+.+.+.+.+.+.+.+.+.+.+.+.+.+.+.",
"+.+.+.+.+.+.+.+.+.+.+.+.+.+.+.+.+.+.+.+.+.+.+.+.+.+.+.+.+.+.+.+.+.+.+.+.y y i i +.+.+.+.+.+.+.+.+.+.+.+.+.+.+.+.+.+.+.+.+.+.+.+.",
"+.+.+.+.+.+.+.+.+.+.+.+.+.+.+.+.+.+.+.+.+.+.+.+.        @ # # # # = u u e = u i i i +.+.+.+.+.+.+.+.+.+.+.+.+.+.+.+.+.+.+.+.+.+.",
"+.+.+.+.+.+.+.+.+.+.+.+.+.+.+.+.+.+.+.+.+.+.+.+.    X X @ # = # # = y y * = y y i i +.+.+.+.+.+.+.+.+.+.+.+.+.+.+.+.+.+.+.+.+.+.",
"+.+.+.+.+.+.+.+.+.+.+.+.+.+.+.+.+.+.+.+.+.+.        @ @ = # @ = # # = = # # = e u i +.+.+.+.+.+.+.+.+.+.+.+.+.+.+.+.+.+.+.+.+.+.",
"+.+.+.+.+.+.+.+.+.+.+.+.+.+.+.+.+.+.+.+.+.+.      X @ # # # # @ # # # # # # # = u i +.+.+.+.+.+.+.+.+.+.+.+.+.+.+.+.+.+.+.+.+.+.",
"+.+.+.+.+.+.+.+.+.+.+.+.+.+.+.+.+.+.+.+.    @ @ @ @ @ # # # # = # # # # # # # = u i +.+.+.+.+.+.+.+.+.+.+.+.+.+.+.+.+.+.+.+.+.+.",
"+.+.+.+.+.+.+.+.+.+.+.+.+.+.+.+.+.+.+.+.    @ # = @ = @ # # # # # = # # # # # = u i +.+.+.+.+.+.+.+.+.+.+.+.+.+.+.+.+.+.+.+.+.+.",
"+.+.+.+.+.+.+.+.+.+.+.+.+.+.+.+.+.+.  X + @ # # # = +.+.# # # # +.+.X X X X X X = e u i +.+.+.+.+.+.+.+.+.+.+.+.+.+.+.+.+.+.+.+.",
"+.+.+.+.+.+.+.+.+.+.+.+.+.+.+.+.+.+.    @ # # # # # +.+.= @ # # +.+.            @ = u i +.+.+.+.+.+.+.+.+.+.+.+.+.+.+.+.+.+.+.+.",
"+.+.+.+.+.+.+.+.+.+.+.+.+.+.+.+.+.+.    @ # # # # # +.+.# = +.+.+.+.+.+.+.+.+.+.+.+.+.+.+.+.+.+.+.+.+.+.+.+.+.+.+.+.+.+.+.+.+.+.",
"+.+.+.+.+.+.+.+.+.+.+.+.+.+.+.+.+.+.    @ # @ = # # +.+.# # +.+.+.+.+.+.+.+.+.+.+.+.+.+.+.+.+.+.+.+.+.+.+.+.+.+.+.+.+.+.+.+.+.+.",
"+.+.+.+.+.+.+.+.+.+.+.+.+.+.+.+.+.+.  X @ # = # # +.+.+.+.+.+.+.+.+.+.+.+.+.+.X @ = u +.+.+.+.+.+.+.+.+.+.+.+.+.+.+.+.+.+.+.+.+.",
"+.+.+.+.+.+.+.+.+.+.+.+.+.+.+.+.+.+.    @ = # # +.+.+.+.+.+.+.+.+.+.+.+.+.+.    @ = u i +.+.+.+.+.+.+.+.+.+.+.+.+.+.+.+.+.+.+.+.",
"+.+.+.+.+.+.+.+.+.+.+.+.+.+.+.+.+.+.    @ # # # +.+.+.+.+.+.+.+.+.+.+.+.+.+.    @ = u i +.+.+.+.+.+.+.+.+.+.+.+.+.+.+.+.+.+.+.+.",
"+.+.+.+.+.+.+.+.+.+.+.+.+.+.+.+.+.+.  X @ # # # +.+.+.+.+.+.+.+.+.+.+.+.+.+.    @ e u i +.+.+.+.+.+.+.+.+.+.+.+.+.+.+.+.+.+.+.+.",
"+.+.+.+.+.+.+.+.+.+.+.+.+.+.+.+.+.+.X X @ # # # +.+.+.+.+.+.+.+.+.+.+.+.+.+.  X O @ r y +.+.+.+.+.+.+.+.+.+.+.+.+.+.+.+.+.+.+.+.",
"+.+.+.+.+.+.+.+.+.+.+.+.+.+.+.+.+.+.# # # # +.+.+.+.+.+.+.+.+.+.+.+.+.+.+.+.+.+.    @ = u i +.+.+.+.+.+.+.+.+.+.+.+.+.+.+.+.+.+.",
"+.+.+.+.+.+.+.+.+.+.+.+.+.+.+.+.+.+.# # # # +.+.+.+.+.+.+.+.+.+.+.+.+.+.+.+.+.+.  X @ = y y +.+.+.+.+.+.+.+.+.+.+.+.+.+.+.+.+.+.",
"+.+.+.+.+.+.+.+.+.+.+.+.+.+.+.+.+.+.+.+.+.+.+.+.+.+.+.+.+.+.+.+.+.+.+.+.+.+.+.+.    + # = = +.+.+.+.+.+.+.+.+.+.+.+.+.+.+.+.+.+.",
"+.+.+.+.+.+.+.+.+.+.+.+.+.+.+.+.+.+.+.+.+.+.+.+.+.+.+.+.+.+.+.+.+.+.+.+.+.+.+.+.    # # # # +.+.+.+.+.+.+.+.+.+.+.+.+.+.+.+.+.+."
};
