/* XPM */
static char *result[] = {
/* columns rows colors chars-per-pixel */
"64 64 91 1 ",
"  c #1D131C",
". c #171B1A",
"X c #1B1B1B",
"o c #24161E",
"O c #241B1C",
"+ c #2C1A1E",
"@ c #311B1F",
"# c #3B1C1F",
"$ c #351D20",
"% c #391F21",
"& c #272727",
"* c #292627",
"= c #2D2827",
"- c #2B2B2B",
"; c #362123",
": c #3C2122",
"> c #3A292A",
", c #35302B",
"< c #3C3B3C",
"1 c #441C22",
"2 c #4A1C23",
"3 c #551C26",
"4 c #5A1C26",
"5 c #5E1C28",
"6 c #651E25",
"7 c #641D28",
"8 c #6E1E29",
"9 c #701D27",
"0 c #731D29",
"q c #7D1E2A",
"w c #442323",
"e c #4C2625",
"r c #532926",
"t c #592A27",
"y c #562B28",
"u c #5D2C28",
"i c #602F29",
"p c #6D3F2D",
"a c #6E402D",
"s c #841E2B",
"d c #8A1E2B",
"f c #901F2C",
"g c #8C252D",
"h c #9D212C",
"j c #AB212E",
"k c #B4232F",
"l c #BC232F",
"z c #C42430",
"x c #C82430",
"c c #824F2C",
"v c #EE9E1E",
"b c #FFA213",
"n c #FFAD16",
"m c #FDA51A",
"M c #FEAF1B",
"N c #FFB41E",
"B c #FFBA1E",
"V c #F6A427",
"C c #F7A927",
"Z c #FFB323",
"A c #FFBF22",
"S c #FFBA2A",
"D c #FFC625",
"F c #FFC824",
"G c #FEC72B",
"H c #FFCC2B",
"J c #F7C433",
"K c #F8C633",
"L c #F9CE36",
"P c #F6CA3C",
"I c #FFD637",
"U c #FFD93D",
"Y c #E8A946",
"T c #E4A74D",
"R c #E6AA4C",
"E c #DBC04C",
"W c #EEC345",
"Q c #FCD846",
"! c #EFD751",
"~ c #FFE147",
"^ c #FDE04F",
"/ c #FFE550",
"( c #FFEA55",
") c #F7E15C",
"_ c #BDB5A3",
"` c #BDBAA9",
"' c #B5B4B3",
"] c #DCB58F",
"[ c #C5B895",
"{ c #F8CCA0",
"} c None",
/* pixels */
"}}}}}}}}}}}}}}}}}}}}}}}}}}}}}}}}}}}}}}}}}}}}}}}}}}}}}}}}}}}}}}}}",
"}}}}}}}}}}}}}}}}}}}}}}}}}}}}}}}}}}}}}}}}}}}}}}}}}}}}}}}}}}}}}}}}",
"}}}}}}}}}}}}}}}}}}}}}}}}}}}}}}}}}}}}bbb}}}}}}}}}}}}}}}}}}}}}}}}}",
"}}}}}}}}}}}}}}}}}}}}}}}}}}}}}}}}}}}}bbb}}}}}}}}}}}}}}}}}}}}}}}}}",
"}}}}}}}}}}}}}}}}}ddglzz}}}}}}}}}}}}bbbbb}}}}}}}}}}}}}}}}}}}}}}}}",
"}}}}}}}}}}}}}}}}}dddkzz}}}}}}}}}}}}VVmbb}}}}}}}}}}}}}}}}}}}}}}}}",
"}}}}}}}}}}}}}}}}sddsgkxz}}}}}}}}}bT__Ybbb}}}}}}}}}}}}}}}}}}}}}}}",
"}}}}}}}}}}}}}}}}ddsqqjkz}}}}}}}}}bY_'Tbmb}}}}}}}}}}}}}}}}}}}}}}}",
"}}}}}}}}}}}}}}}ddd6+O+6z}}}}}}}}}bMW`TnAb}}}}}}}}}}}}}}}}}}}}}}}",
"}}}}}}}}}}}}}}}dds4XX.3z}}}}}}}}}bMJ[RBGC}}}}}}}}}}}}}}}}}}}}}}}",
"}}}}}}}}}}}}}}}dd2OXXX3z}}}}}}}}}bMDKQ/)[}}}}}}}}}}}}}}}}}}}}}}}",
"}}}}}}}}}}}}}}}dd%.XX.3z}}}}}}}}}bNHH~()`}}}}}}}}}}}}}}}}}}}}}}}",
"}}}}}}}}}}}}}}}}d1XXXXO}}}}}}}}}}bS//(~P`}}}}}}}}}}}}}}}}}}}}}}}",
"}}}}}}}}}}}}}}}}d1XXXXX}}}}}}}}}}bS/((UJ_}}}}}}}}}}}}}}}}}}}}}}}",
"}}}}}}}}}XXX}}}}d}}}}}}}}}}}}}}}}}}Z/UAm}}}}}}}}}}}}}}}}}}}}}}}}",
"}}}}}}}}}XXX}}}}d}}}}}}}}}}}}}}}}}}vQUBb}}}}}}}}}}}}}}}}}}}}}}}}",
"}}}}}}}}XXXXX}}5sd7XXXX@k}}}}}}}}}}c!ID}}}}}}}}}}}}}}}}}}}}}}}}}",
"}}}}}}}}XXXXX}}4qd6OXXX#k}}}}}}}}}}pEIF}}}}}}}}}}}}}}}}}}}}}}}}}",
"}}}}}}}}XXXXXX$45qs9OX%dl}}&}}}}}}}ip}}}}}}}}}}}}}}}}}}}}}}}}}}}",
"}}}}}}}}XXXXXX+330dq@O2fl}}&}}}}}}}tt}}}}}}}}}}}}}}}}}}}}}}}}}}}",
"}}}}}}}}}XX}XX$4348ssqsdlxg&&&-}}%::}}}}}}}}}}}}}}}}}}}}}}}}}}}}",
"}}}}}}}}}XX}XX+3447sdddflzg&&&-}}:%%}}}}}}}}}}}}}}}}}}}}}}}}}}}}",
"}}}}}}}X}}}XXX@33345}dddfkg&&&-<<>%%}}}}}}}}}}}}}}}}}}}}}}}}}}}}",
"}}}}}}}X}}}XX.+33343}dddsjg-&&,<<>%%}}}}}}}}}}}}}}}}}}}}}}}}}}}}",
"}}}}}XXX}}}}XXXOO143}}}s7qd}&&&-;:$}}}}}}}}}}}}}}}}}}}}}}}}}}}}}",
"}}}}}XXX}}}}XXXXX%33}}}s48s}&*&&;::}}}}}}}}}}}}}}}}}}}}}}}}}}}}}",
"}}}}}XXX}}}}XXXXXX$3O}}}5%=}}}}*$$:}}}}}}}}}}}}}}}}}}}}}}}}}}}}}",
"}}}}},,,}}}}XXXXX +2O}}}3>*}}}}*;%%}}}}}}}}}}}}}}}}}}}}}}}}}}}}}",
"}}}}}]]]}}}}XXXXXXXOX}}--}}}}}}*;}}}}}}}}}}}}}}}}}}}}}}}}}}}}}}}",
"}}}}}{{{}}}}XXXXXXXXX}}-&}}}}}}*;}}}}}}}}}}}}}}}}}}}}}}}}}}}}}}}",
"}}}}}}}}}}}}XXXXXXXX&&&&&}}}}}};%}}}}}}}}}}}}}}}}}}}}}}}}}}}}}}}",
"}}}}}}}}}}}}XXXXXXXX&&&&&}}}}}}%%}}}}}}}}}}}}}}}}}}}}}}}}}}}}}}}",
"}}}}}}}}}}}}}XXXXXXX&&&&}}}}}}}%}}}}}}}}}}}}}}}}}}}}}}}}}}}}}}}}",
"}}}}}}}}}}}}}XXXXXXX&&*&}}}}}}}%}}}}}}}}}}}}}}}}}}}}}}}}}}}}}}}}",
"}}}}}}}}}}}}}}}XXXXX&&&&&}}}}}}}}}}}}}}}}}}}}}}}}}}}}}}}}}}}}}}}",
"}}}}}}}}}}}}}}}XXXXX&&&&&}}}}}}}}}}}}}}}}}}}}}}}}}}}}}}}}}}}}}}}",
"}}}}}}}}}}}}}}}}XXXXX&&&&}}}}}}}}}}}}}}}}}}}}}}}}}}}}}}}}}}}}}}}",
"}}}}}}}}}}}}}}}}XXXX.&&&&}}}}}}}}}}}}}}}}}}}}}}}}}}}}}}}}}}}}}}}",
"}}}}}}}}}}}}}}}}}XXXX&&&&}}}}}}}}}}}}}}}}}}}}}}}}}}}}}}}}}}}}}}}",
"}}}}}}}}}}}}}}}}}XXXX&&&=}}}}}}}}}}}}}}}}}}}}}}}}}}}}}}}}}}}}}}}",
"}}}}}}}}}}}}}}}}}}}}}}}}yuu}}}}}}}}}}}}}}}}}}}}}}}}}}}}}}}}}}}}}",
"}}}}}}}}}}}}}}}}}}}}}}}}ttu}}}}}}}}}}}}}}}}}}}}}}}}}}}}}}}}}}}}}",
"}}}}}}}}}}}}}}}}  o%:%wuwruu}}}}}}}}}}}}}}}}}}}}}}}}}}}}}}}}}}}}",
"}}}}}}}}}}}}}}}}  +%$%wr:euu}}}}}}}}}}}}}}}}}}}}}}}}}}}}}}}}}}}}",
"}}}}}}}}}}}}}}}  +$%:%::%:eu}}}}}}}}}}}}}}}}}}}}}}}}}}}}}}}}}}}}",
"}}}}}}}}}}}}}}}  @:$$:;#%%wu}}}}}}}}}}}}}}}}}}}}}}}}}}}}}}}}}}}}",
"}}}}}}}}}}}}} o#$:%%$$#;%%wu}}}}}}}}}}}}}}}}}}}}}}}}}}}}}}}}}}}}",
"}}}}}}}}}}}}} O%%%%%:;##$$wt}}}}}}}}}}}}}}}}}}}}}}}}}}}}}}}}}}}}",
"}}}}}}}}}}}} +%%%}}%%}} o owt}}}}}}}}}}}}}}}}}}}}}}}}}}}}}}}}}}}",
"}}}}}}}}}}}} +%%%}}%%}}   o:t}}}}}}}}}}}}}}}}}}}}}}}}}}}}}}}}}}}",
"}}}}}}}}}}}} +%%%}}:}}}}}}}}}}}}}}}}}}}}}}}}}}}}}}}}}}}}}}}}}}}}",
"}}}}}}}}}}}} @%%%}}%}}}}}}}}}}}}}}}}}}}}}}}}}}}}}}}}}}}}}}}}}}}}",
"}}}}}}}}}}}} @%%}}}}}}}}} owt}}}}}}}}}}}}}}}}}}}}}}}}}}}}}}}}}}}",
"}}}}}}}}}}}} +%%}}}}}}}}} o:t}}}}}}}}}}}}}}}}}}}}}}}}}}}}}}}}}}}",
"}}}}}}}}}}}} +%%}}}}}}}}} o:t}}}}}}}}}}}}}}}}}}}}}}}}}}}}}}}}}}}",
"}}}}}}}}}}}}o@%%}}}}}}}}} o%r}}}}}}}}}}}}}}}}}}}}}}}}}}}}}}}}}}}",
"}}}}}}}}}}}}$%%}}}}}}}}}}}}o%ru}}}}}}}}}}}}}}}}}}}}}}}}}}}}}}}}}",
"}}}}}}}}}}}}%%%}}}}}}}}}}}}o$eu}}}}}}}}}}}}}}}}}}}}}}}}}}}}}}}}}",
"}}}}}}}}}}}}}}}}}}}}}}}}}}} $::}}}}}}}}}}}}}}}}}}}}}}}}}}}}}}}}}",
"}}}}}}}}}}}}}}}}}}}}}}}}}}} #%%}}}}}}}}}}}}}}}}}}}}}}}}}}}}}}}}}",
"}}}}}}}}}}}}%%%%}}}}}}}}}}} $%%}}}}}}}}}}}}}}}}}}}}}}}}}}}}}}}}}",
"}}}}}}}}}}}}%%%%}}}}}}}}}}}o$%%}}}}}}}}}}}}}}}}}}}}}}}}}}}}}}}}}",
"}}}}}}}}}}}}:%%}}}}}}}}}}}}} @%}}}}}}}}}}}}}}}}}}}}}}}}}}}}}}}}}",
"}}}}}}}}}}}}$%%}}}}}}}}}}}}} @%}}}}}}}}}}}}}}}}}}}}}}}}}}}}}}}}}"
};
