/* XPM */
static char *result[] = {
/* columns rows colors chars-per-pixel */
"64 64 238 2 ",
"   c #1B121C",
".  c #1C121C",
"X  c #1F131C",
"o  c #1F131D",
"O  c #1F141D",
"+  c #181B1B",
"@  c #191B1B",
"#  c #1A1B1B",
"$  c #1B1B1B",
"%  c #1C1B1B",
"&  c #1D1B1B",
"*  c #1E1B1C",
"=  c #1F1B1C",
"-  c gray11",
";  c #1E1E1E",
":  c gray12",
">  c #20141D",
",  c #23151D",
"<  c #26161E",
"1  c #26171E",
"2  c #27171E",
"3  c #211B1C",
"4  c #221B1C",
"5  c #261B1D",
"6  c #271B1D",
"7  c #281B1D",
"8  c #291B1D",
"9  c #28181E",
"0  c #2D1A1F",
"q  c #2F1A1F",
"w  c #2E1B1F",
"e  c #2E1C1D",
"r  c #301B1F",
"t  c #311B1F",
"y  c #321C1E",
"u  c #341C1F",
"i  c #3B1C1F",
"p  c #321B20",
"a  c #351B20",
"s  c #331C20",
"d  c #351D20",
"f  c #361D20",
"g  c #361E20",
"h  c #361E21",
"j  c #371E21",
"k  c #381F21",
"l  c #391F21",
"z  c #3A1F21",
"x  c #3C1C20",
"c  c #3D1C20",
"v  c #252525",
"b  c #242526",
"n  c #252526",
"m  c gray15",
"M  c #272727",
"N  c #282727",
"B  c #3B2021",
"V  c #3D2022",
"C  c #3D2122",
"Z  c #3E2122",
"A  c #4A1C22",
"S  c #4B1C22",
"D  c #491C24",
"F  c #501C26",
"G  c #521C26",
"H  c #561C27",
"J  c #571C27",
"K  c #581C27",
"L  c #591C27",
"P  c #5A1C27",
"I  c #5B1C27",
"U  c #5C1C27",
"Y  c #5D1C27",
"T  c #5E1C28",
"R  c #621D25",
"E  c #671D26",
"W  c #661D28",
"Q  c #6D1D29",
"!  c #701D27",
"~  c #731D29",
"^  c #7B1E29",
"/  c #7A1D2A",
"(  c #7C1E29",
")  c #7D1E29",
"_  c #7E1E29",
"`  c #412223",
"'  c #432223",
"]  c #442323",
"[  c #462423",
"{  c #462424",
"}  c #492524",
"|  c #4D2625",
" . c #522826",
".. c #552926",
"X. c #592A27",
"o. c #592B27",
"O. c #5B2A28",
"+. c #5B2B28",
"@. c #5C2C28",
"#. c #5D2C28",
"$. c #5E2C28",
"%. c #602F29",
"&. c #6D3F2D",
"*. c #6E402D",
"=. c #801E2A",
"-. c #811E2A",
";. c #821E2A",
":. c #831E2B",
">. c #841E2A",
",. c #841E2B",
"<. c #861E2B",
"1. c #871E2B",
"2. c #881E2B",
"3. c #891E2B",
"4. c #8A1E2B",
"5. c #8B1E2B",
"6. c #8C1E2B",
"7. c #8F1F2C",
"8. c #901F2C",
"9. c #971F2C",
"0. c #88252D",
"q. c #8D252D",
"w. c #8E252D",
"e. c #9B202D",
"r. c #9E202D",
"t. c #AA222D",
"y. c #B0232D",
"u. c #B1232E",
"i. c #B2222E",
"p. c #B4222F",
"a. c #B7232F",
"s. c #BB232F",
"d. c #BD232F",
"f. c #BE232F",
"g. c #BF2330",
"h. c #C32430",
"j. c #C42430",
"k. c #C52430",
"l. c #C82430",
"z. c #824F2C",
"x. c #EE9E1E",
"c. c #FFA10F",
"v. c #FFA110",
"b. c #FFA011",
"n. c #FFA210",
"m. c #FFA213",
"M. c #FFA114",
"N. c #FFA214",
"B. c #FFA314",
"V. c #FFA415",
"C. c #FFA615",
"Z. c #FFA616",
"A. c #FFA716",
"S. c #FCA21A",
"D. c #FEA31B",
"F. c #FFA419",
"G. c #FEA719",
"H. c #FFAE19",
"J. c #FDAE1D",
"K. c #FFB019",
"L. c #FFB81B",
"P. c #FFBA1E",
"I. c #FFBD1D",
"U. c #F7A927",
"Y. c #F6A829",
"T. c #FCB222",
"R. c #FFB323",
"E. c #FFBF20",
"W. c #FFBE22",
"Q. c #FFBA29",
"!. c #FFBA2A",
"~. c #FFC021",
"^. c #FFC323",
"/. c #FFC422",
"(. c #FFC423",
"). c #FFC523",
"_. c #FFC722",
"`. c #FFC923",
"'. c #FFC824",
"]. c #FCC72B",
"[. c #FEC72B",
"{. c #FFCB28",
"}. c #FCCA2F",
"|. c #F7C232",
" X c #F6C234",
".X c #F9CE36",
"XX c #F6CA3C",
"oX c #F8CA39",
"OX c #FFD537",
"+X c #FFD637",
"@X c #FFD83B",
"#X c #FFDA3F",
"$X c #E8A745",
"%X c #E8A946",
"&X c #E6A84A",
"*X c #FCAF42",
"=X c #E2A851",
"-X c #E2A951",
";X c #E8BF51",
":X c #DBC04C",
">X c #EEC345",
",X c #FFDD40",
"<X c #E8C252",
"1X c #E4C158",
"2X c #E4C258",
"3X c #EFD751",
"4X c #FFE146",
"5X c #FFE246",
"6X c #FDE04F",
"7X c #FFE350",
"8X c #FEE753",
"9X c #FFEB53",
"0X c #FFE954",
"qX c #FFEA55",
"wX c #F7E15B",
"eX c #F6E15D",
"rX c #FCE95C",
"tX c #E8D66F",
"yX c #E7DA75",
"uX c #E4D779",
"iX c #E4D87A",
"pX c #F7E560",
"aX c #BDB2A1",
"sX c #BDB2A2",
"dX c #BEB6A0",
"fX c #BDB6A2",
"gX c #BDB6A3",
"hX c #BBB6A6",
"jX c #BDB7A4",
"kX c #BCB6A5",
"lX c #BDBAA9",
"zX c #B5B4B3",
"xX c #B3B4B5",
"cX c #B4B4B5",
"vX c #C5B897",
"bX c #C5BD99",
"nX c #F6CA9E",
"mX c None",
/* pixels */
"mXmXmXmXmXmXmXmXmXmXmXmXmXmXmXmXmXmXmXmXmXmXmXmXmXmXmXmXmXmXmXmXmXmXmXmXmXmXmXmXmXmXmXmXmXmXmXmXmXmXmXmXmXmXmXmXmXmXmXmXmXmXmXmX",
"mXmXmXmXmXmXmXmXmXmXmXmXmXmXmXmXmXmXmXmXmXmXmXmXmXmXmXmXmXmXmXmXmXmXmXmXmXmXmXmXmXmXmXmXmXmXmXmXmXmXmXmXmXmXmXmXmXmXmXmXmXmXmXmX",
"mXmXmXmXmXmXmXmXmXmXmXmXmXmXmXmX3.2.r.j.j.mXmXmXmXmXmXmXmXmXmXmXmXmXmXmXmXmXmXmXmXmXmXmXmXmXmXmXmXmXmXmXmXmXmXmXmXmXmXmXmXmXmXmX",
"mXmXmXmXmXmXmXmXmXmXmXmXmXmXmXmX3.2.e.f.h.mXmXmXmXmXmXmXmXmXmXmXmXmXmXmXmXmXmXmXmXmXmXmXmXmXmXmXmXmXmXmXmXmXmXmXmXmXmXmXmXmXmXmX",
"mXmXmXmXmXmXmXmXmXmXmXmXmXmXmX3.3.3.6.9.g.mXmXmXmXmXmXmXmXmXmXmXmXmXmXmXmXN.N.mXmXmXmXmXmXmXmXmXmXmXmXmXmXmXmXmXmXmXmXmXmXmXmXmX",
"mXmXmXmXmXmXmXmXmXmXmXmXmXmXmX3.3.-.^ ;.t.mXmXmXmXmXmXmXmXmXmXmXmXmXmXmXmXN.N.mXmXmXmXmXmXmXmXmXmXmXmXmXmXmXmXmXmXmXmXmXmXmXmXmX",
"mXmXmXmXmXmXmXmXmXmXmXmXmXmXmX3.3.S 5 8 e mXmXmXmXmXmXmXmXmXmXmXmXmXmXmXN.N.N.mXmXmXmXmXmXmXmXmXmXmXmXmXmXmXmXmXmXmXmXmXmXmXmXmX",
"mXmXmXmXmXmXmXmXmXmXmXmXmXmXmX1.) c + # # mXmXmXmXmXmXmXmXmXmXmXmXmXmXmXN.N.N.mXmXmXmXmXmXmXmXmXmXmXmXmXmXmXmXmXmXmXmXmXmXmXmXmX",
"mXmXmXmXmXmXmXmXmXmXmXmXmXmXmX) u = $ $ mXmXmXmXmXmXmXmXmXmXmXmXmXmXmXmXN.N.N.N.N.mXmXmXmXmXmXmXmXmXmXmXmXmXmXmXmXmXmXmXmXmXmXmX",
"mXmXmXmXmXmXmXmXmXmXmXmXmXmXmX( 6 # $ $ mXmXmXmXmXmXmXmXmXmXmXmXmXmXmXmXN.N.V.Z.B.mXmXmXmXmXmXmXmXmXmXmXmXmXmXmXmXmXmXmXmXmXmXmX",
"mXmXmXmXmXmXmXmXmX$ $ mXmXmXmX( 7 # $ $ mXmXmXmXmXmXmXmXmXmXmXmXmXmXmXmXN.M.H.E.C.mXmXmXmXmXmXmXmXmXmXmXmXmXmXmXmXmXmXmXmXmXmXmX",
"mXmXmXmXmXmXmXmXmX$ $ mXmXmXmX( y = $ $ mXmXmXmXmXmXmXmXmXmXmXmXmXmXmXmXN.V.T. XY.mXmXmXmXmXmXmXmXmXmXmXmXmXmXmXmXmXmXmXmXmXmXmX",
"mXmXmXmXmXmXmXmX$ $ $ $ mXmXmXmX( mXmXmXmXmXmXmXmXmXmXmXmXmXmXmXmXmXmXmXN.L.;XfXaXmXmXmXmXmXmXmXmXmXmXmXmXmXmXmXmXmXmXmXmXmXmXmX",
"mXmXmXmXmXmXmXmX$ $ $ $ mXmXmXmX4.mXmXmXmXmXmXmXmXmXmXmXmXmXmXmXmXmXmXmXA.I.2XcXxXmXmXmXmXmXmXmXmXmXmXmXmXmXmXmXmXmXmXmXmXmXmXmX",
"mXmXmXmXmXmXmXmX$ $ $ mXmXmXmXmX3.5.R $ $ $ @ e y.mXmXmXmXmXmXmXmXmXmXZ.~._.1XcXcX-Xc.mXmXmXmXmXmXmXmXmXmXmXmXmXmXmXmXmXmXmXmXmX",
"mXmXmXmXmXmXmXmX$ $ $ mXmXmXmXmX;.3.E 6 & $ * i u.mXmXmXmXmXmXmXmXmXmXA.(.`.<XfXaX$Xn.mXmXmXmXmXmXmXmXmXmXmXmXmXmXmXmXmXmXmXmXmX",
"mXmXmXmXmXmXmXmXmXmXmXmX$ mXmXK U / <.! 5 + x >.s.mXmXM mXmXmXmXmXN.m.C./.'.]. XY.S.m.mXmXmXmXmXmXmXmXmXmXmXmXmXmXmXmXmXmXmXmXmX",
"mXmXmXmXmXmXmXmXmXmXmXmX$ mXmXJ J ~ 1._ u 5 A 8.d.mXmXM mXmXmXmXmXm.S.Y. X}.{./.C.m.N.mXmXmXmXmXmXmXmXmXmXmXmXmXmXmXmXmXmXmXmXmX",
"mXmXmXmXmX$ $ mXmXmXmXmX$ # p J J P Q 2._ ( =.8.d.l.0.N M M M mXmXv.$XsXgXtX,X^.C.mXmXmXmXmXmXmXmXmXmXmXmXmXmXmXmXmXmXmXmXmXmXmX",
"mXmXmXmXmX$ $ mXmXmXmXmX$ # r J J H W :.,.2.3.7.a.k.q.N M M M mXmXF.%XhXzXiX5X[.U.mXmXmXmXmXmXmXmXmXmXmXmXmXmXmXmXmXmXmXmXmXmXmX",
"mXmXmXmX$ $ $ mXmXmXmXmX$ # r J J J L Y Y / 4.4.7.p.q.N M M n mXnX*XJ.>XkXuX9XwXvX&Xn.mXmXmXmXmXmXmXmXmXmXmXmXmXmXmXmXmXmXmXmXmX",
"mXmXmXmX$ $ $ mXmXmXmXmX$ # w F F F G J J ~ ,.,.2.i.w.N M M b mXnX*XK.oXbXyX9XeXlX=Xc.mXmXmXmXmXmXmXmXmXmXmXmXmXmXmXmXmXmXmXmXmX",
"mXmXmXmXmX$ $ mXmXmXmXmX$ $ * 4 4 3 a J J I Y T mXmXmXmXM mXmXmXmXD.Q.8XpXrX4XXXjXmXmXmXmXmXmXmXmXmXmXmXmXmXmXmXmXmXmXmXmXmXmXmX",
"mXmXmXmXmX$ $ mXmXmXmXmX$ $ $ $ # @ r J J J J J mXmXmXmXM mXmXmXmXb.!.7XqX0X#X|.dXmXmXmXmXmXmXmXmXmXmXmXmXmXmXmXmXmXmXmXmXmXmXmX",
"mXmXmXmXmXmXmXmXmXmXmXmXmX$ $ $ mXmXmXmXmXmXmXmXmXmXmXmXmXmXmXmXmXmXmXR.7X@XW.G.mXmXmXmXmXmXmXmXmXmXmXmXmXmXmXmXmXmXmXmXmXmXmXmX",
"mXmXmXmXmXmXmXmXmXmXmXmXmX$ $ $ mXmXmXmXmXmXmXmXmXmXmXmXmXmXmXmXmXmXmXx.6XOXP.N.mXmXmXmXmXmXmXmXmXmXmXmXmXmXmXmXmXmXmXmXmXmXmXmX",
"mXmXmXmXmXmXmXmXmXmXmXmXmX$ $ $ $ $ $ 4 F t # $ mXmXmXmXmXmXmXmXmXmXmXz.3X+X).mXmXmXmXmXmXmXmXmXmXmXmXmXmXmXmXmXmXmXmXmXmXmXmXmX",
"mXmXmXmXmXmXmXmXmXmXmXmXmX$ $ $ $ $ $ 3 D w # $ mXmXmXmXmXmXmXmXmXmXmX&.:X.X'.mXmXmXmXmXmXmXmXmXmXmXmXmXmXmXmXmXmXmXmXmXmXmXmXmX",
"mXmXmXmXmXmXmXmXmXmXmXmXmX$ $ $ $ $ $ % 3 & $ - v mXmXmXmXmXmXmXmXmXmX%.*.mXmXmXmXmXmXmXmXmXmXmXmXmXmXmXmXmXmXmXmXmXmXmXmXmXmXmX",
"mXmXmXmXmXmXmXmXmXmXmXmXmX$ $ $ $ $ - - - - - ; m mXmXmXmXmXmXmXmXmXmXX.O.mXmXmXmXmXmXmXmXmXmXmXmXmXmXmXmXmXmXmXmXmXmXmXmXmXmXmX",
"mXmXmXmXmXmXmXmXmXmXmXmX$ $ $ $ $ $ : m m m m m M mXmXmXmXmXmXmXmXl B Z mXmXmXmXmXmXmXmXmXmXmXmXmXmXmXmXmXmXmXmXmXmXmXmXmXmXmXmX",
"mXmXmXmXmXmXmXmXmXmXmXmX$ $ $ $ $ $ : M M M M M M mXmXmXmXmXmXmXmXl l l mXmXmXmXmXmXmXmXmXmXmXmXmXmXmXmXmXmXmXmXmXmXmXmXmXmXmXmX",
"mXmXmXmXmXmXmXmXmXmXmXmXmX$ $ $ $ $ : M M M M M mXmXmXmXmXmXmXmXmXl l l mXmXmXmXmXmXmXmXmXmXmXmXmXmXmXmXmXmXmXmXmXmXmXmXmXmXmXmX",
"mXmXmXmXmXmXmXmXmXmXmXmXmX$ $ $ $ $ : m M M M M mXmXmXmXmXmXmXmXmXl l l mXmXmXmXmXmXmXmXmXmXmXmXmXmXmXmXmXmXmXmXmXmXmXmXmXmXmXmX",
"mXmXmXmXmXmXmXmXmXmXmXmXmXmXmX$ $ $ $ ; m M M M mXmXmXmXmXmXmXmXl l l mXmXmXmXmXmXmXmXmXmXmXmXmXmXmXmXmXmXmXmXmXmXmXmXmXmXmXmXmX",
"mXmXmXmXmXmXmXmXmXmXmXmXmXmXmX$ $ $ $ - m M M M mXmXmXmXmXmXmXmXl l l mXmXmXmXmXmXmXmXmXmXmXmXmXmXmXmXmXmXmXmXmXmXmXmXmXmXmXmXmX",
"mXmXmXmXmXmXmXmXmXmXmXmXmXmXmXmX$ $ $ - m M M M mXmXmXmXmXmXmXmXl l l mXmXmXmXmXmXmXmXmXmXmXmXmXmXmXmXmXmXmXmXmXmXmXmXmXmXmXmXmX",
"mXmXmXmXmXmXmXmXmXmXmXmXmXmXmXmX$ $ $ - m M M N mXmXmXmXmXmXmXmXl l l mXmXmXmXmXmXmXmXmXmXmXmXmXmXmXmXmXmXmXmXmXmXmXmXmXmXmXmXmX",
"mXmXmXmXmXmXmXmXmXmXmXmXmXmXmXmXmXmXmXmXmXmXmXmX@.#.#.mXmXmXmXmXl mXmXmXmXmXmXmXmXmXmXmXmXmXmXmXmXmXmXmXmXmXmXmXmXmXmXmXmXmXmXmX",
"mXmXmXmXmXmXmXmXmXmXmXmXmXmXmXmXmXmXmXmXmXmXmXmXo.+.#.mXmXmXmXmXl mXmXmXmXmXmXmXmXmXmXmXmXmXmXmXmXmXmXmXmXmXmXmXmXmXmXmXmXmXmXmX",
"mXmXmXmXmXmXmXmXmXmXmXmXmXmXmXmXmXmXmXmXmXk { o.`  .$.#.mXmXmXl l mXmXmXmXmXmXmXmXmXmXmXmXmXmXmXmXmXmXmXmXmXmXmXmXmXmXmXmXmXmXmX",
"mXmXmXmXmXmXmXmXmXmXmXmXmXmXmXmXmXmXmXmXmXk ] ..V | +.#.mXmXmXl l mXmXmXmXmXmXmXmXmXmXmXmXmXmXmXmXmXmXmXmXmXmXmXmXmXmXmXmXmXmXmX",
"mXmXmXmXmXmXmXmXmXmXmXmXmX. . . mX  1 l mXl B V z B } #.mXmXmXl mXmXmXmXmXmXmXmXmXmXmXmXmXmXmXmXmXmXmXmXmXmXmXmXmXmXmXmXmXmXmXmX",
"mXmXmXmXmXmXmXmXmXmXmXmXmXo O O mXX 9 l mXl l l l k [ #.mXmXmXl mXmXmXmXmXmXmXmXmXmXmXmXmXmXmXmXmXmXmXmXmXmXmXmXmXmXmXmXmXmXmXmX",
"mXmXmXmXmXmXmXmXmXmXmXmX. 0 g f mXd j l mXmXmXl l l { #.mXmXmXmXmXmXmXmXmXmXmXmXmXmXmXmXmXmXmXmXmXmXmXmXmXmXmXmXmXmXmXmXmXmXmXmX",
"mXmXmXmXmXmXmXmXmXmXmXmXO r z l mXl l l mXmXmXf f d ' #.mXmXmXmXmXmXmXmXmXmXmXmXmXmXmXmXmXmXmXmXmXmXmXmXmXmXmXmXmXmXmXmXmXmXmXmX",
"mXmXmXmXmXmXmXmXmXmXmXO s k l l mXl l l l mXmXO O o , mXmXmXmXmXmXmXmXmXmXmXmXmXmXmXmXmXmXmXmXmXmXmXmXmXmXmXmXmXmXmXmXmXmXmXmXmX",
"mXmXmXmXmXmXmXmXmXmXmXO g l l l mXl l l l mXmX. . .   mXmXmXmXmXmXmXmXmXmXmXmXmXmXmXmXmXmXmXmXmXmXmXmXmXmXmXmXmXmXmXmXmXmXmXmXmX",
"mXmXmXmXmXmXmXmXmXmXmXO f l l mXmXmXmXl mXmXmXmXmXmXmXmXmXmXmXmXmXmXmXmXmXmXmXmXmXmXmXmXmXmXmXmXmXmXmXmXmXmXmXmXmXmXmXmXmXmXmXmX",
"mXmXmXmXmXmXmXmXmXmXmXO f l l mXmXmXmXl mXmXmXmXmXmXmXmXmXmXmXmXmXmXmXmXmXmXmXmXmXmXmXmXmXmXmXmXmXmXmXmXmXmXmXmXmXmXmXmXmXmXmXmX",
"mXmXmXmXmXmXmXmXmXmXmXO d l l mXmXmXmXmXmXmXmXmXmXmXmXmXmXmXmXmXmXmXmXmXmXmXmXmXmXmXmXmXmXmXmXmXmXmXmXmXmXmXmXmXmXmXmXmXmXmXmXmX",
"mXmXmXmXmXmXmXmXmXmXmX> g l l mXmXmXmXmXmXmXmXmXmXmXmXmXmXmXmXmXmXmXmXmXmXmXmXmXmXmXmXmXmXmXmXmXmXmXmXmXmXmXmXmXmXmXmXmXmXmXmXmX",
"mXmXmXmXmXmXmXmXmXmXmXmXl l l mXmXmXmXmXmXmXmXmX. q z mXmXmXmXmXmXmXmXmXmXmXmXmXmXmXmXmXmXmXmXmXmXmXmXmXmXmXmXmXmXmXmXmXmXmXmXmX",
"mXmXmXmXmXmXmXmXmXmXmXmXl l l mXmXmXmXmXmXmXmXmX. 0 h mXmXmXmXmXmXmXmXmXmXmXmXmXmXmXmXmXmXmXmXmXmXmXmXmXmXmXmXmXmXmXmXmXmXmXmXmX",
"mXmXmXmXmXmXmXmXmXmXmXmXmXmXmXmXmXmXmXmXmXmXmXmXmXX 2 C o.mXmXmXmXmXmXmXmXmXmXmXmXmXmXmXmXmXmXmXmXmXmXmXmXmXmXmXmXmXmXmXmXmXmXmX",
"mXmXmXmXmXmXmXmXmXmXmXmXmXmXmXmXmXmXmXmXmXmXmXmXmX  < V ..mXmXmXmXmXmXmXmXmXmXmXmXmXmXmXmXmXmXmXmXmXmXmXmXmXmXmXmXmXmXmXmXmXmXmX",
"mXmXmXmXmXmXmXmXmXmXmXmXmXmXmXmXmXmXmXmXmXmXmXmXmX  1 l V mXmXmXmXmXmXmXmXmXmXmXmXmXmXmXmXmXmXmXmXmXmXmXmXmXmXmXmXmXmXmXmXmXmXmX",
"mXmXmXmXmXmXmXmXmXmXmXmXmXmXmXmXmXmXmXmXmXmXmXmXmX  1 l l mXmXmXmXmXmXmXmXmXmXmXmXmXmXmXmXmXmXmXmXmXmXmXmXmXmXmXmXmXmXmXmXmXmXmX",
"mXmXmXmXmXmXmXmXmXmXmXl l mXmXmXmXmXmXmXmXmXmXmXmX  1 l mXmXmXmXmXmXmXmXmXmXmXmXmXmXmXmXmXmXmXmXmXmXmXmXmXmXmXmXmXmXmXmXmXmXmXmX",
"mXmXmXmXmXmXmXmXmXmXmXl l mXmXmXmXmXmXmXmXmXmXmXmX  1 l mXmXmXmXmXmXmXmXmXmXmXmXmXmXmXmXmXmXmXmXmXmXmXmXmXmXmXmXmXmXmXmXmXmXmXmX",
"mXmXmXmXmXmXmXmXmXmXmXl mXmXmXmXmXmXmXmXmXmXmXmXmXmXmXmXmXmXmXmXmXmXmXmXmXmXmXmXmXmXmXmXmXmXmXmXmXmXmXmXmXmXmXmXmXmXmXmXmXmXmXmX",
"mXmXmXmXmXmXmXmXmXmXmXl mXmXmXmXmXmXmXmXmXmXmXmXmXmXmXmXmXmXmXmXmXmXmXmXmXmXmXmXmXmXmXmXmXmXmXmXmXmXmXmXmXmXmXmXmXmXmXmXmXmXmXmX",
"mXmXmXmXmXmXmXmXmXmXmXmXmXmXmXmXmXmXmXmXmXmXmXmXmXmXmXmX. mXmXmXmXmXmXmXmXmXmXmXmXmXmXmXmXmXmXmXmXmXmXmXmXmXmXmXmXmXmXmXmXmXmXmX",
"mXmXmXmXmXmXmXmXmXmXmXmXmXmXmXmXmXmXmXmXmXmXmXmXmXmXmXmX. mXmXmXmXmXmXmXmXmXmXmXmXmXmXmXmXmXmXmXmXmXmXmXmXmXmXmXmXmXmXmXmXmXmXmX"
};
