/* XPM */
static char *result[] = {
/* columns rows colors chars-per-pixel */
"64 64 157 2 ",
"   c #1B121C",
".  c #1C121C",
"X  c #1F131D",
"o  c #1F141D",
"O  c #181B1B",
"+  c #1A1B1B",
"@  c #1B1B1B",
"#  c #1C1B1B",
"$  c #1D1B1B",
"%  c #1F1B1C",
"&  c gray11",
"*  c #1D1D1D",
"=  c #1E1E1E",
"-  c gray12",
";  c #20141D",
":  c #23151D",
">  c #26161E",
",  c #26171E",
"<  c #27171E",
"1  c #211B1C",
"2  c #221B1C",
"3  c #261B1D",
"4  c #271B1D",
"5  c #281B1D",
"6  c #2E1A1F",
"7  c #2F1A1F",
"8  c #2E1B1F",
"9  c #2F1B1F",
"0  c #311B1F",
"q  c #341C1F",
"w  c #331C20",
"e  c #361D20",
"r  c #361E20",
"t  c #381F21",
"y  c #391F21",
"u  c #3A1F21",
"i  c #3D1C20",
"p  c #3F1C20",
"a  c #252525",
"s  c gray15",
"d  c #262727",
"f  c #272727",
"g  c #3A2021",
"h  c #3D2022",
"j  c #3D2122",
"k  c #3E2122",
"l  c #4B1C22",
"z  c #491C24",
"x  c #501C26",
"c  c #561C27",
"v  c #571C27",
"b  c #591C27",
"n  c #5A1C27",
"m  c #5B1C27",
"M  c #5D1C27",
"N  c #621D25",
"B  c #671D26",
"V  c #601C28",
"C  c #661D28",
"Z  c #6D1D29",
"A  c #701D27",
"S  c #731D29",
"D  c #7A1D2A",
"F  c #7C1E29",
"G  c #7D1E29",
"H  c #7E1E29",
"J  c #442323",
"K  c #472424",
"L  c #552926",
"P  c #592A27",
"I  c #592B27",
"U  c #5B2A28",
"Y  c #5C2C28",
"T  c #5D2C28",
"R  c #5F2F29",
"E  c #6D3F2D",
"W  c #6E402D",
"Q  c #811E2A",
"!  c #831E2B",
"~  c #841E2B",
"^  c #861E2B",
"/  c #871E2B",
"(  c #881E2B",
")  c #891E2B",
"_  c #8A1E2B",
"`  c #8B1E2B",
"'  c #824F2C",
"]  c #EE9E1E",
"[  c #FFA10F",
"{  c #FFA210",
"}  c #FFA211",
"|  c #FFA113",
" . c #FFA213",
".. c #FFA214",
"X. c #FFA315",
"o. c #FEA216",
"O. c #FCA21A",
"+. c #FCA31B",
"@. c #FEA618",
"#. c #FAA31E",
"$. c #FFAA1A",
"%. c #FFAA1C",
"&. c #FFAF1E",
"*. c #FFBB1D",
"=. c #F7A425",
"-. c #F6A427",
";. c #F6A829",
":. c #F7AC2C",
">. c #FFB323",
",. c #FFBE21",
"<. c #FFC522",
"1. c #FFC824",
"2. c #FFC829",
"3. c #F7C132",
"4. c #F6C234",
"5. c #F9CE36",
"6. c #F7C939",
"7. c #FFD537",
"8. c #FFD637",
"9. c #FFD83B",
"0. c #FFDB3F",
"q. c #DEAA5B",
"w. c #E8A746",
"e. c #E7A846",
"r. c #E2A952",
"t. c #D4AC6E",
"y. c #CEB17F",
"u. c #DBC04C",
"i. c #FFDB49",
"p. c #FADC4E",
"a. c #FEDF4D",
"s. c #EFD751",
"d. c #FDE04F",
"f. c #FFE350",
"g. c #FFE451",
"h. c #FFE651",
"j. c #FFE954",
"k. c #FFEA56",
"l. c #F9E65D",
"z. c #D3C07E",
"x. c #BDB2A1",
"c. c #BCB2A2",
"v. c #BDB2A2",
"b. c #BDB6A3",
"n. c #B8B3AC",
"m. c #B5B5B3",
"M. c #B3B4B5",
"N. c #B3B4B6",
"B. c #B4B4B4",
"V. c #CAB98A",
"C. c #C5B090",
"Z. c #C4B091",
"A. c #C5B492",
"S. c #C5B592",
"D. c #D3CB8D",
"F. c #CDC494",
"G. c None",
/* pixels */
"G.G.G.G.G.G.G.G.G.G.G.G.G.G.G.G.G.G.G.G.G.G.G.G.G.G.G.G.G.G.G.G.G.G.G.G.G.G.G.G.G.G.G.G.G.G.G.G.G.G.G.G.G.G.G.G.G.G.G.G.G.G.G.G.",
"G.G.G.G.G.G.G.G.G.G.G.G.G.G.G.G.G.G.G.G.G.G.G.G.G.G.G.G.G.G.G.G.G.G.G.G.G.G.G.G.G.G.G.G.G.G.G.G.G.G.G.G.G.G.G.G.G.G.G.G.G.G.G.G.",
"G.G.G.G.G.G.G.G.G.G.G.G.G.G.G.) ) _ _ _ G.G.G.G.G.G.G.G.G.G.G.G.G.G.G.G.G.G.G.G.G.G.G.G.G.G.G.G.G.G.G.G.G.G.G.G.G.G.G.G.G.G.G.G.",
"G.G.G.G.G.G.G.G.G.G.G.G.G.G.G.) ) Q F F G.G.G.G.G.G.G.G.G.G.G.G.G.G.G.G.G.G.G.G.G.G.G.G.G.G.G.G.G.G.G.G.G.G.G.G.G.G.G.G.G.G.G.G.",
"G.G.G.G.G.G.G.G.G.G.G.G.G.) ) ) ) l 3 5 G.G.G.G.G.G.G.G.G.G.G.G.G.G.G.G.G.G.G.G.G.G.G.G.G.G.G.G.G.G.G.G.G.G.G.G.G.G.G.G.G.G.G.G.",
"G.G.G.G.G.G.G.G.G.G.G.G.G.) ) / G i O + G.G.G.G.G.G.G.G.G.G.G.G.G.G.G.G.G.G.G.G.G.G.G.G.G.G.G.G.G.G.G.G.G.G.G.G.G.G.G.G.G.G.G.G.",
"G.G.G.G.G.G.G.@ @ G.G.G.G.) _ G q % @ G.G.G.G.G.G.G.G.G.G.G.G.G.G.G.G.G.G.G.G.G.G.G.G.G.G.G.G.G.G.G.G.G.G.G.G.G.G.G.G.G.G.G.G.G.",
"G.G.G.G.G.G.G.@ @ G.G.G.G.) _ F 4 + @ G.G.G.G.G.G.G.G.G.G.G.G.G.G.G.G.G.G.G.G.G.G.G.G.G.G.G.G.G.G.G.G.G.G.G.G.G.G.G.G.G.G.G.G.G.",
"G.G.G.G.G.G.G.@ G.G.G.G.G.G.G.F 5 G.G.G.G.G.G.G.G.G.G.G.G.G.G.G.G.G.G.G.G.....G.G.G.G.G.G.G.G.G.G.G.G.G.G.G.G.G.G.G.G.G.G.G.G.G.",
"G.G.G.G.G.G.G.@ G.G.G.G.G.G.G.F 5 G.G.G.G.G.G.G.G.G.G.G.G.G.G.G.G.G.G.G.G.....G.G.G.G.G.G.G.G.G.G.G.G.G.G.G.G.G.G.G.G.G.G.G.G.G.",
"G.G.G.G.G.G.G.G.@ G.G.G.G.G.G.G.G.G.G.G.G.G.G.G.G.G.G.f G.G.G.G.G.G.G.G.G.....G.G.G.G.G.G.G.G.G.G.G.G.G.G.G.G.G.G.G.G.G.G.G.G.G.",
"G.G.G.G.G.G.G.G.@ G.G.G.G.G.G.G.G.G.G.G.G.G.G.G.G.G.G.f G.G.G.G.G.G.G.G.G.....G.G.G.G.G.G.G.G.G.G.G.G.G.G.G.G.G.G.G.G.G.G.G.G.G.",
"G.G.G.G.G.G.G.G.G.G.G.G.G.G.G.G.) ` N @ @ @ + G.G.f f f G.G.G.G.G.G.G.G.G.......G.G.G.G.G.G.G.G.G.G.G.G.G.G.G.G.G.G.G.G.G.G.G.G.",
"G.G.G.G.G.G.G.G.G.G.G.G.G.G.G.G.! ) B 4 $ @ 2 G.G.f f f G.G.G.G.G.G.G.G.G.......G.G.G.G.G.G.G.G.G.G.G.G.G.G.G.G.G.G.G.G.G.G.G.G.",
"G.G.G.G.G.G.G.G.G.G.G.G.@ G.G.G.M D ^ A 3 O p ) G.d f f G.G.G.G.G.G.G...G.......G.G.G.G.G.G.G.G.G.G.G.G.G.G.G.G.G.G.G.G.G.G.G.G.",
"G.G.G.G.G.G.G.G.G.G.G.G.@ G.G.G.v S / H q 3 l ) G.d f f G.G.G.G.G.G.G...G.......G.G.G.G.G.G.G.G.G.G.G.G.G.G.G.G.G.G.G.G.G.G.G.G.",
"G.G.G.@ G.G.G.G.G.G.G.@ @ G.G.G.v n Z ( H F Q ) G.G.G.G.G.G.G.G.G.G.G...G.......G.....G.G.G.G.G.G.G.G.G.G.G.G.G.G.G.G.G.G.G.G.G.",
"G.G.G.@ G.G.G.G.G.G.G.@ @ G.G.G.v c C ! ~ ( _ ) G.G.G.G.G.G.G.G.G.G.G...G.......G.....G.G.G.G.G.G.G.G.G.G.G.G.G.G.G.G.G.G.G.G.G.",
"G.G.G.G.@ G.G.G.G.G.G.@ @ @ @ G.G.v b M M D _ ) G.G.G.G.G.G.G.G.G.......G.......G.......G.G.G.G.G.G.G.G.G.G.G.G.G.G.G.G.G.G.G.G.",
"G.G.G.G.@ G.G.G.G.G.G.@ @ @ @ G.G.v v v v S ^ ) G.G.G.G.G.G.G.G.G.......G.......G.......G.G.G.G.G.G.G.G.G.G.G.G.G.G.G.G.G.G.G.G.",
"G.G.G.G.G.G.G.G.G.G.G.G.@ G.G.G.G.G.G.v v m V G.G.G.G.G.G.G.G.G.G.......G.......G.......G.G.G.G.G.G.G.G.G.G.G.G.G.G.G.G.G.G.G.G.",
"G.G.G.G.G.G.G.G.G.G.G.G.@ G.G.G.G.G.G.v v v c G.G.G.G.G.G.G.G.G.G.......G.......G.......G.G.G.G.G.G.G.G.G.G.G.G.G.G.G.G.G.G.G.G.",
"G.G.G.G.G.G.G.G.G.G.G.G.G.G.G.G.G.G.G.G.G.G.G.G.G.G.G.G.G.G.G.G.G.......G....... . . .G.G.G.G.G.G.G.G.G.G.G.G.G.G.G.G.G.G.G.G.G.",
"G.G.G.G.G.G.G.G.G.G.G.G.G.G.G.G.G.G.G.G.G.G.G.G.G.G.G.G.G.G.G.G.G.......G.....o.=.-.-.G.G.G.G.G.G.G.G.G.G.G.G.G.G.G.G.G.G.G.G.G.",
"G.G.G.G.G.G.G.G.G.G.G.G.@ @ @ G.G.@ @ 2 x 0 + @ G.G.G.G.G.G.G.G.G.......G.G.G.=.C.c.x.G.G.G.G.G.G.G.G.G.G.G.G.G.G.G.G.G.G.G.G.G.",
"G.G.G.G.G.G.G.G.G.G.G.G.@ @ @ G.G.@ @ 1 z 8 + @ G.G.G.G.G.G.G.G.G.......G.G.G.-.c.N.M.G.G.G.G.G.G.G.G.G.G.G.G.G.G.G.G.G.G.G.G.G.",
"G.G.G.G.G.G.G.G.G.G.G.G.@ @ @ G.@ @ @ # 1 $ @ & a G.G.G.G.G.G.G.G.G.G.G...G.G.-.x.M.B.G.G.G.G.G.G.G.G.G.G.G.G.G.G.G.G.G.G.G.G.G.",
"G.G.G.G.G.G.G.G.G.G.G.G.@ @ @ G.@ @ & & & & & = s G.G.G.G.G.G.G.G.G.G.G...G.G.-.x.M.B.G.G.G.G.G.G.G.G.G.G.G.G.G.G.G.G.G.G.G.G.G.",
"G.G.G.G.G.G.G.G.G.G.G.G.@ G.G.G.@ @ - s s s s s G.G.G.G.G.G.G.G.G.G.G.G. ... .-.c.N.M.G.G.G.G.G.G.G.G.G.G.G.G.G.G.G.G.G.G.G.G.G.",
"G.G.G.G.G.G.G.G.G.G.G.G.@ G.G.G.@ @ - s f f f f G.G.G.G.G.G.G.G.G.G.G.G.-.+. .=.C.c.x.G.G.G.G.G.G.G.G.G.G.G.G.G.G.G.G.G.G.G.G.G.",
"G.G.G.G.G.G.G.G.G.G.G.G.G.G.G.G.G.@ @ = s f f f G.G.G.G.G.G.G.G.G.G.G.-.Z.e.} o.=.-.-.G.G.G.G.G.G.G.G.G.G.G.G.G.G.G.G.G.G.G.G.G.",
"G.G.G.G.G.G.G.G.G.G.G.G.G.G.G.G.G.@ @ & s f f f G.G.G.G.G.G.G.G.G.G.G.-.x.q.#... . . .G.G.G.G.G.G.G.G.G.G.G.G.G.G.G.G.G.G.G.G.G.",
"G.G.G.G.G.G.G.G.G.G.G.G.G.G.G.G.G.G.G.& s f f f G.G.G.G.G.G.G.G.G.G.G.-.v.n.t.....G.G.G.G.G.G.G.G.G.G.G.G.G.G.G.G.G.G.G.G.G.G.G.",
"G.G.G.G.G.G.G.G.G.G.G.G.G.G.G.G.G.G.G.* s f f f G.G.G.G.G.G.G.G.G.G.G.=.A.m.y.%.X.G.G.G.G.G.G.G.G.G.G.G.G.G.G.G.G.G.G.G.G.G.G.G.",
"G.G.G.G.G.G.G.G.G.G.G.G.G.G.G.G.G.G.G.G.f f f G.G.G.G.G.G.G.G.G.G.G.G.@.3.V.F.i.$.| ..G.G.G.G.G.G.G.G.G.G.G.G.G.G.G.G.G.G.G.G.G.",
"G.G.G.G.G.G.G.G.G.G.G.G.G.G.G.G.G.G.G.G.f f f G.G.G.G.G.G.G.G.G.G.G.G.&.2.z.D.a.:.O. .G.G.G.G.G.G.G.G.G.G.G.G.G.G.G.G.G.G.G.G.G.",
"G.G.G.G.G.G.G.G.G.G.G.G.G.G.G.G.G.G.G.G.G.G.G.G.G.G.G.G.G.G.G.G.G.G.G.f.h.l.p.6.S.w.{ G.G.G.G.G.G.G.G.G.G.G.G.G.G.G.G.G.G.G.G.G.",
"G.G.G.G.G.G.G.G.G.G.G.G.G.G.G.G.G.G.G.G.G.G.G.G.G.G.G.G.G.G.G.G.G.G.G.g.k.j.0.4.b.r.[ G.G.G.G.G.G.G.G.G.G.G.G.G.G.G.G.G.G.G.G.G.",
"G.G.G.G.G.G.G.G.G.G.G.G.. G.G.G.. 7 u G.G.G.G.j I T T G.G.G.G.G.G.G.G.>.f.9.,.;.x.G.G.G.G.G.G.G.G.G.G.G.G.G.G.G.G.G.G.G.G.G.G.G.",
"G.G.G.G.G.G.G.G.G.G.G.G.o G.G.G.; 9 u G.G.G.G.h L Y T G.G.G.G.G.G.G.G.] d.7.*.-.x.G.G.G.G.G.G.G.G.G.G.G.G.G.G.G.G.G.G.G.G.G.G.G.",
"G.G.G.G.G.G.G.G.G.G.G.X w G.G.G.e G.G.G.G.y y u h G.G.G.G.G.G.G.G.G.G.' s.8.<.G.G.G.G.G.G.G.G.G.G.G.G.G.G.G.G.G.G.G.G.G.G.G.G.G.",
"G.G.G.G.G.G.G.G.G.G.G.: r G.G.G.y G.G.G.G.y y y y G.G.G.G.G.G.G.G.G.G.E u.5.1.G.G.G.G.G.G.G.G.G.G.G.G.G.G.G.G.G.G.G.G.G.G.G.G.G.",
"G.G.G.G.G.G.G.G.G.  > r y y y G.G.G.G.G.G.y y y G.G.G.G.G.G.G.G.G.t K R W G.G.G.G.G.G.G.G.G.G.G.G.G.G.G.G.G.G.G.G.G.G.G.G.G.G.G.",
"G.G.G.G.G.G.G.G.G.  , y y y y G.G.G.G.G.G.y y y G.G.G.G.G.G.G.G.G.t J P U G.G.G.G.G.G.G.G.G.G.G.G.G.G.G.G.G.G.G.G.G.G.G.G.G.G.G.",
"G.G.G.G.G.G.G.G.G.  , y y G.G.G.G.G.G.G.G.G.G.G.G.G.G.G.G.G.G.G.y y g k G.G.G.G.G.G.G.G.G.G.G.G.G.G.G.G.G.G.G.G.G.G.G.G.G.G.G.G.",
"G.G.G.G.G.G.G.G.G.  < y y G.G.G.G.G.G.G.G.G.G.G.G.G.G.G.G.G.G.G.y y y y G.G.G.G.G.G.G.G.G.G.G.G.G.G.G.G.G.G.G.G.G.G.G.G.G.G.G.G.",
"G.G.G.G.G.G.G.G.G.G.G.y y G.G.G.G.G.G.G.G.G.G.G.G.G.G.G.G.G.G.y y y y G.G.G.G.G.G.G.G.G.G.G.G.G.G.G.G.G.G.G.G.G.G.G.G.G.G.G.G.G.",
"G.G.G.G.G.G.G.G.G.G.G.y y G.G.G.G.G.G.G.G.G.G.G.G.G.G.G.G.G.G.y y y y G.G.G.G.G.G.G.G.G.G.G.G.G.G.G.G.G.G.G.G.G.G.G.G.G.G.G.G.G.",
"G.G.G.G.G.G.G.G.G.G.G.G.G.G.G.G.G.G.G.G.G.G.G.; r G.G.G.G.G.G.y y G.G.G.G.G.G.G.G.G.G.G.G.G.G.G.G.G.G.G.G.G.G.G.G.G.G.G.G.G.G.G.",
"G.G.G.G.G.G.G.G.G.G.G.G.G.G.G.G.G.G.G.G.G.G.G.o w G.G.G.G.G.G.y y G.G.G.G.G.G.G.G.G.G.G.G.G.G.G.G.G.G.G.G.G.G.G.G.G.G.G.G.G.G.G.",
"G.G.G.G.G.G.G.G.G.G.G.G.G.G.G.G.G.G.G.G.G.G.G.G.o 9 u G.G.y y y G.G.G.G.G.G.G.G.G.G.G.G.G.G.G.G.G.G.G.G.G.G.G.G.G.G.G.G.G.G.G.G.",
"G.G.G.G.G.G.G.G.G.G.G.G.G.G.G.G.G.G.G.G.G.G.G.G.. 6 u G.G.y y y G.G.G.G.G.G.G.G.G.G.G.G.G.G.G.G.G.G.G.G.G.G.G.G.G.G.G.G.G.G.G.G.",
"G.G.G.G.G.G.G.G.G.y y G.G.G.G.G.G.G.G.G.G.G.G.G.. G.G.G.G.y y G.G.G.G.G.G.G.G.G.G.G.G.G.G.G.G.G.G.G.G.G.G.G.G.G.G.G.G.G.G.G.G.G.",
"G.G.G.G.G.G.G.G.G.y y G.G.G.G.G.G.G.G.G.G.G.G.G.. G.G.G.G.y y G.G.G.G.G.G.G.G.G.G.G.G.G.G.G.G.G.G.G.G.G.G.G.G.G.G.G.G.G.G.G.G.G.",
"G.G.G.G.G.G.G.G.G.G.G.G.G.G.G.G.G.G.G.G.G.G.G.G.G.G.G.G.G.G.G.G.G.G.G.G.G.G.G.G.G.G.G.G.G.G.G.G.G.G.G.G.G.G.G.G.G.G.G.G.G.G.G.G.",
"G.G.G.G.G.G.G.G.G.G.G.G.G.G.G.G.G.G.G.G.G.G.G.G.G.G.G.G.G.G.G.G.G.G.G.G.G.G.G.G.G.G.G.G.G.G.G.G.G.G.G.G.G.G.G.G.G.G.G.G.G.G.G.G.",
"G.G.G.G.G.G.G.G.G.G.G.G.G.G.G.G.G.G.G.G.G.G.G.G.G.G.G.G.G.G.G.G.G.G.G.G.G.G.G.G.G.G.G.G.G.G.G.G.G.G.G.G.G.G.G.G.G.G.G.G.G.G.G.G.",
"G.G.G.G.G.G.G.G.G.G.G.G.G.G.G.G.G.G.G.G.G.G.G.G.G.G.G.G.G.G.G.G.G.G.G.G.G.G.G.G.G.G.G.G.G.G.G.G.G.G.G.G.G.G.G.G.G.G.G.G.G.G.G.G.",
"G.G.G.G.G.G.G.G.G.G.G.G.G.G.G.G.G.G.G.G.G.G.G.G.G.G.G.G.G.G.G.G.G.G.G.G.G.G.G.G.G.G.G.G.G.G.G.G.G.G.G.G.G.G.G.G.G.G.G.G.G.G.G.G.",
"G.G.G.G.G.G.G.G.G.G.G.G.G.G.G.G.G.G.G.G.G.G.G.G.G.G.G.G.G.G.G.G.G.G.G.G.G.G.G.G.G.G.G.G.G.G.G.G.G.G.G.G.G.G.G.G.G.G.G.G.G.G.G.G.",
"G.G.G.G.G.G.G.G.G.G.G.G.G.G.G.G.G.G.G.G.G.G.G.G.G.G.G.G.G.G.G.G.G.G.G.G.G.G.G.G.G.G.G.G.G.G.G.G.G.G.G.G.G.G.G.G.G.G.G.G.G.G.G.G.",
"G.G.G.G.G.G.G.G.G.G.G.G.G.G.G.G.G.G.G.G.G.G.G.G.G.G.G.G.G.G.G.G.G.G.G.G.G.G.G.G.G.G.G.G.G.G.G.G.G.G.G.G.G.G.G.G.G.G.G.G.G.G.G.G.",
"G.G.G.G.G.G.G.G.G.G.G.G.G.G.G.G.G.G.G.G.G.G.G.G.G.G.G.G.G.G.G.G.G.G.G.G.G.G.G.G.G.G.G.G.G.G.G.G.G.G.G.G.G.G.G.G.G.G.G.G.G.G.G.G.",
"G.G.G.G.G.G.G.G.G.G.G.G.G.G.G.G.G.G.G.G.G.G.G.G.G.G.G.G.G.G.G.G.G.G.G.G.G.G.G.G.G.G.G.G.G.G.G.G.G.G.G.G.G.G.G.G.G.G.G.G.G.G.G.G."
};
