/* XPM */
static char *result[] = {
/* columns rows colors chars-per-pixel */
"64 64 186 2 ",
"   c #1B121C",
".  c #1C121C",
"X  c #1F131C",
"o  c #1F131D",
"O  c #181B1B",
"+  c #1A1B1B",
"@  c #1B1B1B",
"#  c #1C1B1B",
"$  c #1D1B1B",
"%  c gray11",
"&  c gray12",
"*  c #21141D",
"=  c #26171E",
"-  c #211B1C",
";  c #221B1C",
":  c #261B1D",
">  c #271B1D",
",  c #281B1D",
"<  c #28181E",
"1  c #2D1A1F",
"2  c #2F1A1F",
"3  c #2E1B1F",
"4  c #311B1F",
"5  c #361D20",
"6  c #371E21",
"7  c #381F21",
"8  c #391F21",
"9  c #3A1F21",
"0  c #3E1C20",
"q  c #202020",
"w  c #222222",
"e  c gray15",
"r  c #272727",
"t  c #3D2022",
"y  c #4B1C22",
"u  c #491C24",
"i  c #501C26",
"p  c #561C27",
"a  c #571C27",
"s  c #581C27",
"d  c #5C1C27",
"f  c #5D1C27",
"g  c #631D25",
"h  c #651D26",
"j  c #601C28",
"k  c #621C28",
"l  c #701D27",
"z  c #7C1E29",
"x  c #7D1E29",
"c  c #7E1E2A",
"v  c #412223",
"b  c #442323",
"n  c #462424",
"m  c #592B27",
"M  c #5A2B27",
"N  c #5D2C28",
"B  c #5D2D28",
"V  c #5E2D28",
"C  c #811E2A",
"Z  c #841E2B",
"A  c #861E2B",
"S  c #881E2B",
"D  c #891E2B",
"F  c #8A1E2B",
"G  c #8C1E2B",
"H  c #FFA10F",
"J  c #FFA210",
"K  c #FFA211",
"L  c #FFA012",
"P  c #FFA113",
"I  c #FFA212",
"U  c #FFA213",
"Y  c #FFA214",
"T  c #FFA314",
"R  c #FFA215",
"E  c #FEA216",
"W  c #FEA217",
"Q  c #FFA615",
"!  c #FFA517",
"~  c #FFA616",
"^  c #FFA717",
"/  c #F5A11B",
"(  c #FCA31A",
")  c #FCA31B",
"_  c #FEA618",
"`  c #FAA31E",
"'  c #FFAA1B",
"]  c #C69126",
"[  c #C6932A",
"{  c #F7A425",
"}  c #F6A426",
"|  c #F6A427",
" . c #F9A320",
".. c #F8A423",
"X. c #F8A424",
"o. c #F5A429",
"O. c #F6A428",
"+. c #FFB929",
"@. c #FFBB2B",
"#. c #FFBC2C",
"$. c #EEA638",
"%. c #FFC020",
"&. c #FFC822",
"*. c #FFC825",
"=. c #FFCA25",
"-. c #FFC728",
";. c #FBC52C",
":. c #FBC72D",
">. c #FFCD29",
",. c #FFCC2B",
"<. c #FFCD2B",
"1. c #FFCF2B",
"2. c #F7C232",
"3. c #FFC231",
"4. c #FFD031",
"5. c #C5A543",
"6. c #CAA742",
"7. c #DEAA59",
"8. c #DFAA59",
"9. c #DEAA5A",
"0. c #DEAA5B",
"q. c #E8A744",
"w. c #E7A846",
"e. c #E8A845",
"r. c #E8A846",
"t. c #E5A84B",
"y. c #E5A84C",
"u. c #E4A84D",
"i. c #E4A94E",
"p. c #E2BF5D",
"a. c #D5AC6E",
"s. c #D4AC6F",
"d. c #D5AC6F",
"f. c #CFAE7B",
"g. c #CEAE7C",
"h. c #D4AC70",
"j. c #D0AF7A",
"k. c #D4B172",
"l. c #D3B377",
"z. c #D3BC79",
"x. c #FCDC47",
"c. c #FFDE4A",
"v. c #F9D94C",
"b. c #E7C557",
"n. c #E4C159",
"m. c #FFE751",
"M. c #FFE851",
"N. c #FFE852",
"B. c #FFE953",
"V. c #FFEB52",
"C. c #FFEB57",
"Z. c #F9E65E",
"A. c #DEC064",
"S. c #D3C17F",
"D. c #BEB29F",
"F. c #BDB2A0",
"G. c #BDB2A1",
"H. c #BCB2A2",
"J. c #BDB2A2",
"K. c #BCB2A3",
"L. c #BBB2A4",
"P. c #BBB2A5",
"I. c #BCB2A4",
"U. c #B7B3AD",
"Y. c #B7B3AE",
"T. c #B7B6AE",
"R. c #BAB3A8",
"E. c #B9B3AA",
"W. c #B8B3AB",
"Q. c #B8B3AC",
"!. c #B5B4B1",
"~. c #B6B4B1",
"^. c #B5B4B2",
"/. c #B4B4B3",
"(. c #B3B4B5",
"). c #B3B4B6",
"_. c #B4B4B4",
"`. c #B4B4B5",
"'. c #B2B4B8",
"]. c #CBAE82",
"[. c #CBAE83",
"{. c #CBAF83",
"}. c #C5B08F",
"|. c #C5B090",
" X c #C5B491",
".X c None",
/* pixels */
".X.X.X.X.X.X.X.X.X.X.X.X.X.X.X.X.X.X.X.X.X.X.X.X.X.X.X.X.X.X.X.X.X.X.X.X.X.X.X.X.X.X.X.X.X.X.X.X.X.X.X.X.X.X.X.X.X.X.X.X.X.X.X.X",
".X.X.X.X.X.X.X.X.X.X.X.X.X.X.X.X.X.X.X.X.X.X.X.X.X.X.X.X.X.X.X.X.X.X.X.X.X.X.X.X.X.X.X.X.X.X.X.X.X.X.X.X.X.X.X.X.X.X.X.X.X.X.X.X",
".X.X.X.X.X.X.X.X.X.X.X.X.X.X.Xx , .X.X.X.X.X.X.X.X.X.X.X.X.X.X.X.X.X.X.X.X.X.X.X.X.X.X.X.X.X.X.X.X.X.X.X.X.X.X.X.X.X.X.X.X.X.X.X",
".X.X.X.X.X.X.X.X.X.X.X.X.X.X.Xl > .X.X.X.X.X.X.X.X.X.X.X.X.X.X.X.X.X.X.X.X.X.X.X.X.X.X.X.X.X.X.X.X.X.X.X.X.X.X.X.X.X.X.X.X.X.X.X",
".X.X.X.X.X@ @ .X.X.X.X.X.XG h > $ .X.X.X.X.X.X.X.X.X.X.X.X.X.X.X.X.X.X.X.X.X.X.X.X.X.X.X.X.X.X.X.X.X.X.X.X.X.X.X.X.X.X.X.X.X.X.X",
".X.X.X.X.X@ @ .X.X.X.X.X.XG g @ @ .X.X.X.X.X.X.X.X.X.X.X.X.X.X.X.X.X.X.X.X.X.X.X.X.X.X.X.X.X.X.X.X.X.X.X.X.X.X.X.X.X.X.X.X.X.X.X",
".X.X.X.X.X@ @ .X.X.X.X.X.X.X.X.X.X.X.X.X.X.X.X.X.X.X.X.X.X.X.X.X.X.X.X.X.X.X.X.X.X.X.X.X.X.X.X.X.X.X.X.X.X.X.X.X.X.X.X.X.X.X.X.X",
".X.X.X.X.X@ @ .X.X.X.X.X.X.X.X.X.X.X.X.X.X.X.X.X.X.X.X.X.X.X.X.X.X.X.X.X.X.X.X.X.X.X.X.X.X.X.X.X.X.X.X.X.X.X.X.X.X.X.X.X.X.X.X.X",
".X.X.X.X.X.X.X.X.X.X.X.X.X.X.X.X.X.X.X.X.X.X.X.Xr .X.X.X.X.X.X.X.X.X.X.X.X.X.X.X.X.X.X.X.X.X.X.X.X.X.X.X.X.X.X.X.X.X.X.X.X.X.X.X",
".X.X.X.X.X.X.X.X.X.X.X.X.X.X.X.X.X.X.X.X.X.X.X.Xr .X.X.X.X.X.X.X.X.X.X.X.X.X.X.X.X.X.X.X.X.X.X.X.X.X.X.X.X.X.X.X.X.X.X.X.X.X.X.X",
".X@ @ .X.X.X.X.X.X.X.X.X.X.X.X.X.X+ @ @ .X.X.X.Xr .X.X.X.X.X.X.X.X.X.X.X.X.X.X.X.X.X.X.X.X.X.X.X.X.X.X.X.X.X.X.X.X.X.X.X.X.X.X.X",
".X@ @ .X.X.X.X.X.X.X.X.X.X.X.X.X.X; @ @ .X.X.X.Xr .X.X.X.X.X.X.X.X.X.X.X.X.X.X.X.X.X.X.X.X.X.X.X.X.X.X.X.X.X.X.X.X.X.X.X.X.X.X.X",
".X.X.X.X.X.X.X.X.X@ @ .X.X.X.XD D 0 O + .X.X.X.X.X.X.X.X.X.X.X.X.X.X.X.X.X.X.X.X.X.X.X.X.X.X.X.X.X.X.X.X.X.X.X.X.X.X.X.X.X.X.X.X",
".X.X.X.X.X.X.X.X.X@ @ .X.X.X.XZ S y : , .X.X.X.X.X.X.X.X.X.X.X.X.X.X.X.X.X.X.X.X.X.X.X.X.X.X.X.X.X.X.X.X.X.X.X.X.X.X.X.X.X.X.X.X",
".X.X.X.X.X.X.X.X@ @ @ .X.X.X.Xk Z C z z .X.X.X.X.X.X.X.X.X.X.X.X.X.X.X.X.X.X.X.X.X.X.XY .X.X.X.X.X.X.X.X.X.X.X.X.X.X.X.X.X.X.X.X",
".X.X.X.X.X.X.X.X@ @ @ .X.X.X.Xd c Z A F .X.X.X.X.X.X.X.X.X.X.X.X.X.X.X.X.X.X.X.X.X.X.XY .X.X.X.X.X.X.X.X.X.X.X.X.X.X.X.X.X.X.X.X",
".X.X.X.X.X.X.X.X.X.X.X.X.X.X.Xs d f j .X.X.X.X.X.X.X.X.X.X.X.X.X.X.X.X.X.X.X.X.X.XY Y Y .X.X.X.X.X.X.X.X.X.X.X.X.X.X.X.X.X.X.X.X",
".X.X.X.X.X.X.X.X.X.X.X.X.X.X.Xa a a p .X.X.X.X.X.X.X.X.X.X.X.X.X.X.X.X.X.X.X.X.X.XY Y Y .X.X.X.X.X.X.X.X.X.X.X.X.X.X.X.X.X.X.X.X",
".X.X.X.X.X.X.X.X.X.X.X.X.X.X.X.X.X.X.X.X.X.X.X.X.X.X.X.X.X.X.X.X.X.X.X.X.X.X.X.X.X.X.XY .X.X.X.X.X.X.X.X.X.X.X.X.X.X.X.X.X.X.X.X",
".X.X.X.X.X.X.X.X.X.X.X.X.X.X.X.X.X.X.X.X.X.X.X.X.X.X.X.X.X.X.X.X.X.X.X.X.X.X.X.X.X.X.XY .X.X.X.X.X.X.X.X.X.X.X.X.X.X.X.X.X.X.X.X",
".X.X.X.X.X.X.X.X.X@ @ @ .X.X.X.X@ + 4 i ; @ @ .X.X.X.X.X.X.X.X.X.X.X.X.XY Y Y .XY .X.X.X.X.X.X.X.X.X.X.X.X.X.X.X.X.X.X.X.X.X.X.X",
".X.X.X.X.X.X.X.X.X@ @ @ .X.X.X.X@ + 3 u - @ @ .X.X.X.X.X.X.X.X.X.X.X.X.XY Y Y .XY .X.X.X.X.X.X.X.X.X.X.X.X.X.X.X.X.X.X.X.X.X.X.X",
".X.X.X.X.X.X.X.X.X@ @ .X.X.X.X@ @ @ $ - # .X.X.X.X.X.X.X.X.X.X.X.X.X.X.XY Y Y .XY .X.X.X.XY Y Y .X.X.X.X.X.X.X.X.X.X.X.X.X.X.X.X",
".X.X.X.X.X.X.X.X.X@ @ .X.X.X.X@ @ % % % % .X.X.X.X.X.X.X.X.X.X.X.X.X.X.XY Y Y .XY .X.X.X.XY Y Y .X.X.X.X.X.X.X.X.X.X.X.X.X.X.X.X",
".X.X.X.X.X.X.X.X.X.X.X.X.X.X.X@ @ w e e e .X.X.X.X.X.X.X.X.X.X.X.X.X.X.X.XY Y .XY Y Y .X.XY Y Y .X.X.X.X.X.X.X.X.X.X.X.X.X.X.X.X",
".X.X.X.X.X.X.X.X.X.X.X.X.X.X.X@ @ w e r r .X.X.X.X.X.X.X.X.X.X.X.X.X.X.X.XY Y .XY Y Y .X.XY Y Y .X.X.X.X.X.X.X.X.X.X.X.X.X.X.X.X",
".X.X.X.X.X.X.X.X.X.X.X.X.X.X.X.X@ % q r .X.X.X.X.X.X.X.X.X.X.X.X.X.X.X.X.X.X.X.XU Y Y .X.XY Y Y .X.X.X.X.X.X.X.X.X.X.X.X.X.X.X.X",
".X.X.X.X.X.X.X.X.X.X.X.X.X.X.X.X@ @ & r .X.X.X.X.X.X.X.X.X.X.X.X.X.X.X.X.X.X.X.Xo.) Y .X.XY Y Y .X.X.X.X.X.X.X.X.X.X.X.X.X.X.X.X",
".X.X.X.X.X.X.X.X.X.X.X.X.X.X.X.X.X.X.X.X.X.X.X.X.X.X.X.X.X.X.X.X.X.X.X.X.X_._.^.H.r.K Y .X.X.X.X.X.X.X.X.X.X.X.X.X.X.X.X.X.X.X.X",
".X.X.X.X.X.X.X.X.X.X.X.X.X.X.X.X.X.X.X.X.X.X.X.X.X.X.X.X.X.X.X.X.X.X.X.X.X_._._._.u.K Y .X.X.X.X.X.X.X.X.X.X.X.X.X.X.X.X.X.X.X.X",
".X.X.X.X.X.X.X.X.X.X.X.X.X.X.X.X.X.X.X.X.X.X.X.X.X.X.X.X.X.X.X.X.X.X.X.X.X(.`._./.u.K Y .X.X.X.X.X.X.X.X.X.X.X.X.X.X.X.X.X.X.X.X",
".X.X.X.X.X.X.X.X.X.X.X.X.X.X.X.X.X.X.X.X.X.X.X.X.X.X.X.X.X.X.X.X.X.X.X.X.XF.R._./.u.K Y .X.X.X.X.X.X.X.X.X.X.X.X.X.X.X.X.X.X.X.X",
".X.X.X.X.X.X.X.X.X.X.X.X.X.X.X.X.X.X.X.X.X.X.X.X.X.X.X.X.X.X.X.X.X.X.X.X.X..8.`._.y.J Y .X.X.X.XY .X.X.X.X.X.X.X.X.X.X.X.X.X.X.X",
".X.X.X.X.X.X.X.X.X.X.X.X.X.X.X.X.X.X.X.X.X.X.X.X.X.X.X.X.X.X.X.X.X.X.X.X.XH q.K.!.7.` Y .X.X.X.XW .X.X.X.X.X.X.X.X.X.X.X.X.X.X.X",
".X.X.X.X.X.X.X.X.X.X.X.X.X.X.X.X.X.X.X.X8 .X.X.X.X.X.X.X.X.X.X.X.X.X.X.X.XU ( $.L.Q.a.U U f.'.D.{ .X.X.X.X.X.X.X.X.X.X.X.X.X.X.X",
".X.X.X.X.X.X.X.X.X.X.X.X.X.X.X.X.X.X.X.X8 .X.X.X.X.X.X.X.X.X.X.X.X.X.X.X.XY I X.|.^.{.| | ].'.G.| .X.X.X.X.X.X.X.X.X.X.X.X.X.X.X",
".X.X.X.X.X.X.X.X.X  = 8 .X.X.X. .X.X.X8 8 .X.X.X.X.X.X.X.X.X.X.X.X.X.XY .X.X.XE { {.~.G.G.U.).J.| .X.X.X.X.X.X.X.X.X.X.X.X.X.X.X",
".X.X.X.X.X.X.X.X.XX < 8 .X.X.X. .X.X.X8 8 .X.X.X.X.X.X.X.X.X.X.X.X.X.XY .X.X.XY U a.W.(.(.`.Y.|.{ .X.X.X.X.X.X.X.X.X.X.X.X.X.X.X",
".X.X.X.X.X.X.X.X. 1 6 8 .X.X.X.X.X.X.X.X.X.X.X.X.X.X.X.X.X.X.X.X.X.X.XY Y .X.X.XY ` 9.`.(.'.[.{ E .X.X.X.X.X.X.X.X.X.X.X.X.X.X.X",
".X.X.X.X.X.X.X.X. 2 9 8 .X.X.X.X.X.X.X.X.X.X.X.X.X.X.X.X.X.X.X.X.X.X.XY Y .X.X.XY K e.F.G.I.d.U Y .X.X.X.X.X.X.X.X.X.X.X.X.X.X.X",
".X.X.X.X.X.X.X.X. 2 9 .X.X.X.X.X.X.X.X.X.X.X.X.X.X.X.X.X.X.X.X.X.X.X.XY Y .X.XY Y Y ) | | |  .Y Y .X.X.X.X.X.X.X.X.X.X.X.X.X.X.X",
".X.X.X.X.X.X.X.X. 2 9 .X.X.X.X.X.X.X.X.X.X.X.X.X.X.X.X.X.X.X.X.X.X.X.XY Y .X.XY Y Y Y U U U U Y Y .X.X.X.X.X.X.X.X.X.X.X.X.X.X.X",
".X.X.X.X.X.X.X.X.X.X.X.X.X.X.X.X.X.X.X.X.X.X.X.X.X.X.X.X.X.X.X.X.X.X.XY Y .X.XU Y Y Y Y Y Y Y Y .X.X.X.X.X.X.X.X.X.X.X.X.X.X.X.X",
".X.X.X.X.X.X.X.X.X.X.X.X.X.X.X.X.X.X.X.X.X.X.X.X.X.X.X.X.X.X.X.X.X.X.XY Y .X.X{ E Y Y Y Y Y Y Y .X.X.X.X.X.X.X.X.X.X.X.X.X.X.X.X",
".X.X.X.X.X.X.X.X.X.X.X.X.X.X.X.X.X.X.X.X8 8 8 .X.X.X.X.X.X.X.X.X.X.X.XY Y K t.}.X.I U Y Y Y Y Y .X.X.X.X.X.X.X.X.X.X.X.X.X.X.X.X",
".X.X.X.X.X.X.X.X.X.X.X.X.X.X.X.X.X.X.X.X8 6 5 .X.X.X.X.X.X.X.X.X.X.X.XY Y K i.I.$.}  .Y Y Y Y Y .X.X.X.X.X.X.X.X.X.X.X.X.X.X.X.X",
".X.X.X.X.X.X.X.X.X.X.X.X.X.X.X.X.X.X.X.X.X* o .X.X.X.X.X.X.X.X.X.X.X.XY Y K u.!.K.K.s.R Y Y Y Y .X.X.X.X.X.X.X.X.X.X.X.X.X.X.X.X",
".X.X.X.X.X.X.X.X.X.X.X.X.X.X.X.X.X.X.X.X.X. . .X.X.X.X.X.X.X.X.X.X.X.XY Y K u._.(.'.g.R Y Y Y Y .X.X.X.X.X.X.X.X.X.X.X.X.X.X.X.X",
".X.X.X.X.X.X.X.X.X.X.X.X.X.X.X.X.X.X.X.X.X.X.X.X.X.X.X.X.X.X.X.X.X.X.X.XY K u._._.'.g.R Y Y Y Y .X.X.X.X.X.X.X.X.X.X.X.X.X.X.X.X",
".X.X.X.X.X.X.X.X.X.X.X.X.X.X.X.X.X.X.X.X.X.X.X.X.X.X.X.X.X.X.X.X.X.X.X.XY I r.K.^.E.s.R Y Y Y Y .X.X.X.X.X.X.X.X.X.X.X.X.X.X.X.X",
".X.X.X.X.X.X.X.X.X.X.X.X.X.X.X.X.X.X.X.X.X.X.X.X.X.X.X.X.X.X.X.X.X.X.X.XY Y ( $.I.0.` Y Y Y Y .X.X.X.X.X.X.X.X.X.X.X.X.X.X.X.X.X",
".X.X.X.X.X.X.X.X.X.X.X.X.X.X.X.X.X.X.X.X.X.X.X.X.X.X.X.X.X.X.X.X.X.X.X.XY Y I X.}.w.K Y Y Y Y .X.X.X.X.X.X.X.X.X.X.X.X.X.X.X.X.X",
".X.X.X.X.X.X.X.X.X.X.X.X.X.X.X.X.X.X.X.X.X.X.X.X.X.X.X.X.X.X.X.X.X.X.X.XY Y Y E { ( I U Y .X.X.X.X.X.X.X.X.X.X.X.X.X.X.X.X.X.X.X",
".X.X.X.X.X.X.X.X.X.X.X.X.X.X.X.X.X.X.X.X.X.X.X.X.X.X.X.X.X.X.X.X.X.X.X.XY Y Y Y U  .O.{ E .X.X.X.X.X.X.X.X.X.X.X.X.X.X.X.X.X.X.X",
".X.X.X.X.X.X.X.X.X.X.X.X.X.X.X.X.X.X.X.X.X.X.X.X.X.X.X.X.X.X.X.X.X.X.X.X.XY Y P Y h.P.|.{ .X.X.X.X.X.X.X.X.X.X.X.X.X.X.X.X.X.X.X",
".X.X.X.X.X.X.X.X.X.X.X.X.X.X.X.X.X.X.X.X.X.X.X.X.X.X.X.X.X.X.X.X.X.X.X.X.XY ! ' ^ k.T.J.| .X.X.X.X.X.X.X.X.X.X.X.X.X.X.X.X.X.X.X",
".X.X.X.X.X.X.X.X.X.X.X.X.X.X.X.X.X.X.X.X.X.X.X.X.X.X.X.X.X.X.X.X.X.X.X.X.XL +.c.-.;.A.G.| .X.X.X.X.X.X.X.X.X.X.X.X.X.X.X.X.X.X.X",
".X.X.X.X.X.X.X.X.X.X.X.X.X.X.X.X.X.X.X.X.X.X.X.X.X.X.X.X.X.X.X.X.X.X.X.X.XL #.m.<.:.p.|.{ .X.X.X.X.X.X.X.X.X.X.X.X.X.X.X.X.X.X.X",
".X.X.X.X.X.X.X.X.X.X.X.X.X.X.X.X.X.X.X.X.X.X.X.X.X.X.X.X.X.X.X.X.X.X.X.X.XL @.m.,.z.j.{ E .X.X.X.X.X.X.X.X.X.X.X.X.X.X.X.X.X.X.X",
".X.X.X.X.X.X.X.X.X.X.X.X.X.X.X.X.X.X.X.X.X.X.X.X.X.X.X.X.X.X.X.X.X.X.X.X.X/ 3.m.4.S.l.Q T .X.X.X.X.X.X.X.X.X.X.X.X.X.X.X.X.X.X.X",
".X.X.X.X.X.X.X.X.X.X.X.X.X.X.X.X.X.X.X.X.X.X.X.X.X.X.X.X.X.X.X8 8 7 n N V 6.B.C.N.Z.v.%.~ .X.X.X.X.X.X.X.X.X.X.X.X.X.X.X.X.X.X.X",
".X.X.X.X.X.X.X.X.X.X.X.X.X.X.X.X.X.X.X.X.X.X.X.X.X.X.X.X.X.X.X8 8 7 b m B 5.V.m.m.M.x.2._ .X.X.X.X.X.X.X.X.X.X.X.X.X.X.X.X.X.X.X",
".X.X.X.X.X.X.X.X.X.X.X.X.X.X.X.X.X.X.X.X.X.X.X.X.X.X.X.X8 8 8 8 8 8 9 v M [ 1.,.,.>.b. X{ .X.X.X.X.X.X.X.X.X.X.X.X.X.X.X.X.X.X.X",
".X.X.X.X.X.X.X.X.X.X.X.X.X.X.X.X.X.X.X.X.X.X.X.X.X.X.X.X8 8 8 8 8 8 8 t m ] =.*.*.&.n.G.| .X.X.X.X.X.X.X.X.X.X.X.X.X.X.X.X.X.X.X"
};
