/* XPM */
static char *result[] = {
/* columns rows colors chars-per-pixel */
"64 64 226 2 ",
"   c #1B121C",
".  c #1C121C",
"X  c #1F131C",
"o  c #1F131D",
"O  c #1F141D",
"+  c #181B1B",
"@  c #1A1B1B",
"#  c #1B1B1B",
"$  c #1C1B1B",
"%  c #1F1B1C",
"&  c gray11",
"*  c gray12",
"=  c #20141D",
"-  c #22151D",
";  c #221B1C",
":  c #241B1C",
">  c #251B1C",
",  c #261B1D",
"<  c #271B1D",
"1  c #281B1D",
"2  c #291B1D",
"3  c #2E1A1F",
"4  c #301B1F",
"5  c #381C1F",
"6  c #351D20",
"7  c #361D20",
"8  c #361E20",
"9  c #361E21",
"0  c #3A1C21",
"q  c #381F21",
"w  c #391F21",
"e  c #3A1F21",
"r  c #3F1C20",
"t  c #3E1C22",
"y  c #222222",
"u  c #232323",
"i  c gray15",
"p  c #272727",
"a  c #3A2021",
"s  c #3B2021",
"d  c #3C2022",
"f  c #3F2122",
"g  c #4E1C25",
"h  c #551C27",
"j  c #561C27",
"k  c #571C27",
"l  c #581C27",
"z  c #5C1C27",
"x  c #5D1C27",
"c  c #601D25",
"v  c #681D26",
"b  c #6E1D27",
"n  c #631C28",
"m  c #7A1E29",
"M  c #7C1E29",
"N  c #7E1E29",
"B  c #7F1E2A",
"V  c #432323",
"C  c #522826",
"Z  c #552926",
"A  c #5A2827",
"S  c #5A2927",
"D  c #5A2B27",
"F  c #582828",
"G  c #5E2C28",
"H  c #831E2B",
"J  c #851E2A",
"K  c #841E2B",
"L  c #851E2B",
"P  c #861E2B",
"I  c #871E2B",
"U  c #891E2B",
"Y  c #8A1E2B",
"T  c #8B1E2B",
"R  c #9C6827",
"E  c #9C6A29",
"W  c #9C7438",
"Q  c #A17838",
"!  c #FFA210",
"~  c #FFA211",
"^  c #FFA112",
"/  c #FFA113",
"(  c #FFA212",
")  c #FFA213",
"_  c #FFA613",
"`  c #FFA114",
"'  c #FFA214",
"]  c #FFA314",
"[  c #FEA215",
"{  c #FFA215",
"}  c #FDA217",
"|  c #FFA715",
" . c #FDA218",
".. c #FDA318",
"X. c #FDA319",
"o. c #FCA31A",
"O. c #FFA719",
"+. c #FBA31D",
"@. c #FAA31E",
"#. c #FAA31F",
"$. c #FFAC18",
"%. c #FFAB1C",
"&. c #FCAD1E",
"*. c #F7A424",
"=. c #F7A425",
"-. c #F6A426",
";. c #F7A426",
":. c #F6A427",
">. c #F9A421",
",. c #F8A422",
"<. c #F9A422",
"1. c #F8A423",
"2. c #F8A424",
"3. c #F5A42A",
"4. c #F4A52B",
"5. c #F3A52D",
"6. c #EFA535",
"7. c #EEA637",
"8. c #EBA73F",
"9. c #EFAA38",
"0. c #F1A532",
"q. c #F0A634",
"w. c #FFC321",
"e. c #FDC427",
"r. c #FFC822",
"t. c #FFC825",
"y. c #FDC728",
"u. c #FFC92A",
"i. c #FFCC29",
"p. c #FFCC2B",
"a. c #FFCD2B",
"s. c #FFCE2B",
"d. c #FFCE2D",
"f. c #F6C535",
"g. c #F8C632",
"h. c #FFCA39",
"j. c #FFD231",
"k. c #FFD03E",
"l. c #FFD03F",
"z. c #DEAA5A",
"x. c #DCAA5F",
"c. c #E8A745",
"v. c #EBA840",
"b. c #E8A845",
"n. c #E6A849",
"m. c #E1A954",
"M. c #E0A956",
"N. c #DBAB60",
"B. c #DCAB60",
"V. c #D7AB68",
"C. c #D6AC6B",
"Z. c #D7AE6B",
"A. c #D6AC6C",
"S. c #DBB166",
"D. c #DCBD67",
"F. c #DCBF67",
"G. c #CFAD79",
"H. c #D3AC71",
"J. c #D2AD74",
"K. c #D1AD77",
"L. c #D0AD78",
"P. c #D0AD79",
"I. c #D8BE70",
"U. c #EFC342",
"Y. c #EFC848",
"T. c #FFD341",
"R. c #FAD645",
"E. c #FBD844",
"W. c #FFE14D",
"Q. c #FFE350",
"!. c #FFE751",
"~. c #FDE755",
"^. c #FFE851",
"/. c #FFE852",
"(. c #FFE854",
"). c #FFEA54",
"_. c #FFEA55",
"`. c #FFEB57",
"'. c #E1C262",
"]. c #F6E563",
"[. c #BFB19C",
"{. c #BFB19D",
"}. c #BEB29F",
"|. c #BFB69E",
" X c #BDB1A0",
".X c #BDB2A0",
"XX c #BDB2A1",
"oX c #BCB2A2",
"OX c #BCB2A3",
"+X c #BEB7A1",
"@X c #BDB6A2",
"#X c #BBB2A4",
"$X c #BBB2A5",
"%X c #BBB2A6",
"&X c #BAB3A7",
"*X c #BEBBA7",
"=X c #B7B3AD",
"-X c #B7B3AE",
";X c #B8B3AB",
":X c #B8B3AC",
">X c #B8B5AD",
",X c #B5B4B1",
"<X c #B6B4B0",
"1X c #B5B4B2",
"2X c #B4B4B3",
"3X c #B5B4B3",
"4X c #B4B3B5",
"5X c #B3B4B5",
"6X c #B3B4B6",
"7X c #B2B4B7",
"8X c #B3B4B7",
"9X c #B4B4B4",
"0X c #B4B4B5",
"qX c #B2B4B8",
"wX c #CCAE80",
"eX c #CDAE80",
"rX c #CCAE81",
"tX c #C7AF8B",
"yX c #C8AF89",
"uX c #C5B08F",
"iX c #C6B08E",
"pX c #C3B093",
"aX c #C2B195",
"sX c #C1B198",
"dX c #C0B19B",
"fX c None",
/* pixels */
"fXfXfXfXfXfXfXfXfXfXfXfXfXfXfXfXfXfXfXfXfXfXfXfXfXfXfXfXfXfXfXfXfXfXfXfXfXfXfXfXfXfXfXfXfXfXfXfXfXfXfXfXfXfXfXfXfXfXfXfXfXfXfXfX",
"fXfXfXfXfXfXfXfXfXfXfXfXfXfXfXfXfXfXfXfXfXfXfXfXfXfXfXfXfXfXfXfXfXfXfXfXfXfXfXfXfXfXfXfXfXfXfXfXfXfXfXfXfXfXfXfXfXfXfXfXfXfXfXfX",
"fXfXfXfXfXfXfXfXfXfXfXfXfXfXfXT m > @ fXfXfXfXfXfXfXfXfXfXfXfXfXfXfXfXfXfXfXfXfXfXfXfXfXfXfXfXfXfXfXfXfXfXfXfXfXfXfXfXfXfXfXfXfX",
"fXfXfXfXfXfXfXfXfXfXfXfXfXfXfXN b : @ fXfXfXfXfXfXfXfXfXfXfXfXfXfXfXfXfXfXfXfXfXfXfXfXfXfXfXfXfXfXfXfXfXfXfXfXfXfXfXfXfXfXfXfXfX",
"fXfXfX# # fXfXfXfXfXfXfXfXfXP r > $ # fXfXfXfXfXfXfXfXfXfXfXfXfXfXfXfXfXfXfXfXfXfXfXfXfXfXfXfXfXfXfXfXfXfXfXfXfXfXfXfXfXfXfXfXfX",
"fXfXfX# # fXfXfXfXfXfXfXfXfXP 5 + # # fXfXfXfXfXfXfXfXfXfXfXfXfXfXfXfXfXfXfXfXfXfXfXfXfXfXfXfXfXfXfXfXfXfXfXfXfXfXfXfXfXfXfXfXfX",
"fXfXfX# # fXfXfXfXfXfXfXfXfXfXfXfXfXfXfXfXfXfXfXfXfXfXfXfXfXfXfXfXfXfXfXfXfXfXfXfXfXfXfXfXfXfXfXfXfXfXfXfXfXfXfXfXfXfXfXfXfXfXfX",
"fXfXfX# # fXfXfXfXfXfXfXfXfXfXfXfXfXfXfXfXfXfXfXfXfXfXfXfXfXfXfXfXfXfXfXfXfXfXfXfXfXfXfXfXfXfXfXfXfXfXfXfXfXfXfXfXfXfXfXfXfXfXfX",
"fXfXfXfXfXfXfXfXfXfXfXfXfXfXfXfXfXfXfXfXfXfXfXfXfXfXfXp p fXfXfXfXfXfXfXfXfXfXfXfXfXfXfXfXfXfXfXfXfXfXfXfXfXfXfXfXfXfXfXfXfXfXfX",
"fXfXfXfXfXfXfXfXfXfXfXfXfXfXfXfXfXfXfXfXfXfXfXfXfXfXfXp p fXfXfXfXfXfXfXfXfXfXfXfXfXfXfXfXfXfXfXfXfXfXfXfXfXfXfXfXfXfXfXfXfXfXfX",
"fXfXfXfXfXfXfXfXfXfXfXfXfXfXfXfXfXfXfX# # # fXfXfXfXfXp p fXfXfXfXfXfXfXfXfXfXfXfXfXfXfXfXfXfXfXfXfXfXfXfXfXfXfXfXfXfXfXfXfXfXfX",
"fXfXfXfXfXfXfXfXfXfXfXfXfXfXfXfXfXfXfX# # # fXfXfXfXfXp p fXfXfXfXfXfXfXfXfXfXfXfXfXfXfXfXfXfXfXfXfXfXfXfXfXfXfXfXfXfXfXfXfXfXfX",
"fXfXfXfXfXfXfXfX# # fXfXfXfXfXU U T c # @ @ fXfXfXfXfXfXfXfXfXfXfXfXfXfXfXfXfXfXfXfXfXfXfXfXfXfXfXfXfXfXfXfXfXfXfXfXfXfXfXfXfXfX",
"fXfXfXfXfXfXfXfX# # fXfXfXfXfXH K Y v 2 1 1 fXfXfXfXfXfXfXfXfXfXfXfXfXfXfXfXfXfXfXfXfXfXfXfXfXfXfXfXfXfXfXfXfXfXfXfXfXfXfXfXfXfX",
"fXfXfXfXfXfXfX# # # fXfXfXfXfXz n L J M M M fXfXfXfXfXfXfXfXfXfXfXfXfXfXfXfXfXfXfXfXfXfXfXfXfXfXfXfXfXfX' fXfXfXfXfXfXfXfXfXfXfX",
"fXfXfXfXfXfXfX# # # fXfXfXfXfXj x B K K I Y fXfXfXfXfXfXfXfXfXfXfXfXfXfXfXfXfXfXfXfXfXfXfXfXfXfXfXfXfX' ' fXfXfXfXfXfXfXfXfXfXfX",
"fXfXfXfXfXfXfXfXfXfXfXfXfXfXfXk l z x x fXfXfXfXfXfXfXfXfXfXfXfXfXfXfXfXfXfXfXfXfXfXfXfXfXfXfXfXfXfX' ' ' fXfXfXfXfXfXfXfXfXfXfX",
"fXfXfXfXfXfXfXfXfXfXfXfXfXfXfXk k k k k fXfXfXfXfXfXfXfXfXfXfXfXfXfXfXfXfXfXfXfXfXfXfXfXfXfXfXfXfXfX' ' ' fXfXfXfXfXfXfXfXfXfXfX",
"fXfXfXfXfXfXfXfXfXfXfXfXfXfXfXfXfXfXfXfXfXfXfXfXfXfXfXfXfXfXfXfXfXfXfXfXfXfXfXfXfXfXfXfXfXfXfXfXfXfXfX' ' fXfXfXfXfXfXfXfXfXfXfX",
"fXfXfXfXfXfXfXfXfXfXfXfXfXfXfXfXfXfXfXfXfXfXfXfXfXfXfXfXfXfXfXfXfXfXfXfXfXfXfXfXfXfXfXfXfXfXfXfXfXfXfXfX' fXfXfXfXfXfXfXfXfXfXfX",
"fXfXfXfXfXfXfXfX# # # # fXfXfXfXfX# # # t h < @ # # fXfXfXfXfXfXfXfXfXfXfXfXfXfXfXfXfX' ' ' fXfX' ' fXfXfXfXfXfXfXfXfXfXfXfXfXfX",
"fXfXfXfXfXfXfXfX# # # # fXfXfXfXfX# # # 0 g , @ # # fXfXfXfXfXfXfXfXfXfXfXfXfXfXfXfXfX' ' ' fXfX' ' fXfXfXfXfXfXfXfXfXfXfXfXfXfX",
"fXfXfXfXfXfXfXfX# # fXfXfXfXfX# # # # # % ; $ # fXfXfXfXfXfXfXfXfXfXfXfXfXfXfXfXfXfXfX' ' ' fXfX' ' fXfXfXfXfX' ' ' fXfXfXfXfXfX",
"fXfXfXfXfXfXfXfX# # fXfXfXfXfX# # # # & & & & & fXfXfXfXfXfXfXfXfXfXfXfXfXfXfXfXfXfXfX' ' ' fXfX' ' fXfXfXfXfX' ' ' fXfXfXfXfXfX",
"fXfXfXfXfXfXfXfXfXfXfXfXfXfXfX# # # * i i i i i fXfXfXfXfXfXfXfXfXfXfXfXfXfXfXfXfXfXfXfXfX' fXfX' ' ' fXfXfXfX' ' ' fXfXfXfXfXfX",
"fXfXfXfXfXfXfXfXfXfXfXfXfXfXfX# # # * i i p p p fXfXfXfXfXfXfXfXfXfXfXfXfXfXfXfXfXfXfXfXfX' fXfX' ' ' ' fXfXfX' ' ' fXfXfXfXfXfX",
"fXfXfXfXfXfXfXfXfXfXfXfXfXfXfXfXfX# # & u p fXfXfXfXfXfXfXfXfXfXfXfXfXfXfXfXfXfXfXfXfXfXfXfXfXfX( ) ' ' fXfXfX' ' ' fXfXfXfXfXfX",
"fXfXfXfXfXfXfXfXfXfXfXfXfXfXfXfXfX# # # y p fXfXfXfXfXfXfXfXfXfXfXfXfXfXfXfXfXfXfXfXfXfXfXfXfXfX4.,.{ ' fXfXfX' ' ' fXfXfXfXfXfX",
"fXfXfXfXfXfXfXfXfXfXfXfXfXfXfXfXfXfXfXfXfXfXfXfXfXfXfXfXfXfXfXfXfXfXfXfXfXfXfXfXfXfXfXfXfX9X9X1X%XeXo.' ' fXfXfXfXfXfXfXfXfXfXfX",
"fXfXfXfXfXfXfXfXfXfXfXfXfXfXfXfXfXfXfXfXfXfXfXfXfXfXfXfXfXfXfXfXfXfXfXfXfXfXfXfXfXfXfXfXfX9X9X9X7XuXo.' ' fXfXfXfXfXfXfXfXfXfXfX",
"fXfXfXfXfXfXfXfXfXfXfXfXfXfXfXfXfXfXfXfXfXfXfXfXfXfXfXfXfXfXfXfXfXfXfXfXfXfXfXfXfXfXfXfXfX5X9X9X6XiXo.' ' fXfXfXfXfXfXfXfXfXfXfX",
"fXfXfXfXfXfXfXfXfXfXfXfXfXfXfXfXfXfXfXfXfXfXfXfXfXfXfXfXfXfXfXfXfXfXfXfXfXfXfXfXfXfXfXfXfXXX=X9X6XiXo.' ' fXfXfXfXfXfXfXfXfXfXfX",
"fXfXfXfXfXfXfXfXfXfXfXfXfXfXfXfXfXfXfXfXfXfXfXfXfXfXfXfXfXfXfXfXfXfXfXfXfXfXfXfXfXfXfXfXfX:.wXqX8XiXX.) ' fXfXfXfXfXfX' fXfXfXfX",
"fXfXfXfXfXfXfXfXfXfXfXfXfXfXfXfXfXfXfXfXfXfXfXfXfXfXfXfXfXfXfXfXfXfXfXfXfXfXfXfXfXfXfXfXfX) A.$X3XpX5.@.' fXfXfXfXfX1.' fXfXfXfX",
"fXfXfXfXfXfXfXfXfXfXfXfXfXfXfXfXfXfXfXfXfXfXw w fXfXfXfXfXfXfXfXfXfXfXfXfXfXfXfXfXfXfXfXfX' #.0.{.1X#XB.~ ~ =..X5X6Xz.( fXfXfXfX",
"fXfXfXfXfXfXfXfXfXfXfXfXfXfXfXfXfXfXfXfXfXfXw w fXfXfXfXfXfXfXfXfXfXfXfXfXfXfXfXfXfXfXfXfX' ( @.yX&X8XJ.=.;.7.OX5X6Xx.~ fXfXfXfX",
"fXfXfXfXfXfXfXfX  X 6 w fXfXfX. . fXfXfXw w w w fXfXfXfXfXfXfXfXfXfXfXfXfXfXfXfXfX' ' fXfXfX' [ <.n.<X:XXXXXOX1X0X7Xx.~ fXfXfXfX",
"fXfXfXfXfXfXfXfXo - 7 w fXfXfX. . fXfXfXw w w w fXfXfXfXfXfXfXfXfXfXfXfXfXfXfXfXfX' ' fXfXfX' ' ~ q.dX;X5X5X5X9X-XOXM.( fXfXfXfX",
"fXfXfXfXfXfXfX. 3 9 w w fXfXfXfXfXfXfXfXfXfXfXfXfXfXfXfXfXfXfXfXfXfXfXfXfXfXfXfXfX' ' ' ' fXfXfX'  .2.V.8X5X5XqXtX3.+.' fXfXfXfX",
"fXfXfXfXfXfXfX. 4 e w w fXfXfXfXfXfXfXfXfXfXfXfXfXfXfXfXfXfXfXfXfXfXfXfXfXfXfXfXfX' ' ' ' fXfXfX' ' ! m.OXXXXXOXK.[ ) ' fXfXfXfX",
"fXfXfXfXfXfXfX. 4 e fXfXfXfXfXfXfXfXfXfXfXfXfXfXfXfXfXfXfXfXfXfXfXfXfXfXfXfXfXfXfX' ' ' ' fX' ' ' ' ' +.:.:.:.:.>.' ' ' fXfXfXfX",
"fXfXfXfXfXfXfX. 4 e fXfXfXfXfXfXfXfXfXfXfXfXfXfXfXfXfXfXfXfXfXfXfXfXfXfXfXfXfXfXfX' ' ' ' fX' ' ' ' ' ) ) ) ) ) ) ' ' ' fXfXfXfX",
"fXfXfXfXfXfXfXfXfXfXfXfXfXfXfXfXfXfXfXfXfXfXfXfXfXfXfXfXfXfXfXfXfXfXfXfXfXfXfXfXfX' ' ' ' fX) ) ' ' ' ' ' ' ' ' ' ' ' fXfXfXfXfX",
"fXfXfXfXfXfXfXfXfXfXfXfXfXfXfXfXfXfXfXfXfXfXfXfXfXfXfXfXfXfXfXfXfXfXfXfXfXfXfXfXfX' ' ' ' fX;.;.} ' ' ' ' ' ' ' ' ' fXfXfXfXfXfX",
"fXfXfXfXfXfXfXfXfXfXfXfXfXfXfXfXfXfXfXfXfXfXw w w w fXfXfXfXfXfXfXfXfXfXfXfXfXfXfX' ' ' ' ' H.sX4.~ ) ) ' ' ' ' ' ' fXfXfXfXfXfX",
"fXfXfXfXfXfXfXfXfXfXfXfXfXfXfXfXfXfXfXfXfXfXw q 8 7 fXfXfXfXfXfXfXfXfXfXfXfXfXfXfX' ' ' ' ' G.=X8.=.:.@.' ' ' ' ' ' fXfXfXfXfXfX",
"fXfXfXfXfXfXfXfXfXfXfXfXfXfXfXfXfXfXfXfXfXfXfXfX= O fXfXfXfXfXfXfXfXfXfXfXfXfXfXfX' ' ' ' ' L.5X#XXXOXN.( ' ' ' ' ' fXfXfXfXfXfX",
"fXfXfXfXfXfXfXfXfXfXfXfXfXfXfXfXfXfXfXfXfXfXfXfX. . fXfXfXfXfXfXfXfXfXfXfXfXfXfXfX' ' ' ' ' L.8X0X5XqXC.( ' ' ' ' ' fXfXfXfXfXfX",
"fXfXfXfXfXfXfXfXfXfXfXfXfXfXfXfXfXfXfXfXfXfXfXfXfXfXfXfXfXfXfXfXfXfXfXfXfXfXfXfXfXfXfX' ' ' P.qX9X9XqXC.( ' ' ' ' ' fXfXfXfXfXfX",
"fXfXfXfXfXfXfXfXfXfXfXfXfXfXfXfXfXfXfXfXfXfXfXfXfXfXfXfXfXfXfXfXfXfXfXfXfXfXfXfXfXfXfX' ' ' A.$X,X<X#XN.( ' ' ' ' ' fXfXfXfXfXfX",
"fXfXfXfXfXfXfXfXfXfXfXfXfXfXfXfXfXfXfXfXfXfXfXfXfXfXfXfXfXfXfXfXfXfXfXfXfXfXfXfXfXfXfX' ' ' #.0.}.aX5.@.' ' ' ' ' fXfXfXfXfXfXfX",
"fXfXfXfXfXfXfXfXfXfXfXfXfXfXfXfXfXfXfXfXfXfXfXfXfXfXfXfXfXfXfXfXfXfXfXfXfXfXfXfXfXfXfX' ' ' ) @.tXrX..) ' ' ' ' ' fXfXfXfXfXfXfX",
"fXfXfXfXfXfXfXfXfXfXfXfXfXfXfXfXfXfXfXfXfXfXfXfXfXfXfXfXfXfXfXfXfXfXfXfXfXfXfXfXfXfXfX' ' ' ' [ *.,.' ) ) ' ' fXfXfXfXfXfXfXfXfX",
"fXfXfXfXfXfXfXfXfXfXfXfXfXfXfXfXfXfXfXfXfXfXfXfXfXfXfXfXfXfXfXfXfXfXfXfXfXfXfXfXfXfXfX' ' ' ' ' )  .-.:.:.o.' fXfXfXfXfXfXfXfXfX",
"fXfXfXfXfXfXfXfXfXfXfXfXfXfXfXfXfXfXfXfXfXfXfXfXfXfXfXfXfXfXfXfXfXfXfXfXfXfXfXfXfXfXfXfXfX' ' ` ^ 6.[.oX}.8.~ fXfXfXfXfXfXfXfXfX",
"fXfXfXfXfXfXfXfXfXfXfXfXfXfXfXfXfXfXfXfXfXfXfXfXfXfXfXfXfXfXfXfXfXfXfXfXfXfXfXfXfXfXfXfXfX' O.%.| 9.|.>X2Xb.~ fXfXfXfXfXfXfXfXfX",
"fXfXfXfXfXfXfXfXfXfXfXfXfXfXfXfXfXfXfXfXfXfXfXfXfXfXfXfXfXfXfXfXfXfXfXfXfXfXfXfXfXfXfXfXfX' h.W.u.e.g.I.9Xb.~ fXfXfXfXfXfXfXfXfX",
"fXfXfXfXfXfXfXfXfXfXfXfXfXfXfXfXfXfXfXfXfXfXfXfXfXfXfXfXfXfXfXfXfXfXfXfXfXfXfXfXfXfXfXfXfX' l._.d.y.g.D. X8.~ fXfXfXfXfXfXfXfXfX",
"fXfXfXfXfXfXfXfXfXfXfXfXfXfXfXfXfXfXfXfXfXfXfXfXfXfXfXfXfXfXfXfXfXfXfXfXfXfXfXfXfXfXfXfXfX/ k.).s.U.+XZ.=.o.' fXfXfXfXfXfXfXfXfX",
"fXfXfXfXfXfXfXfXfXfXfXfXfXfXfXfXfXfXfXfXfXfXfXfXfXfXfXfXfXfXfXfXfXfXfXfXfXfXfXfXfXfXfXfXfX%.T._.j.Y.*XS._ ] ' fXfXfXfXfXfXfXfXfX",
"fXfXfXfXfXfXfXfXfXfXfXfXfXfXfXfXfXfXfXfXfXfXfXfXfXfXfXfXfXfXfXfXfXfXfXfXw w w w s Z G A Q Q.(.`./.~.].R.w.$.` fXfXfXfXfXfXfXfXfX",
"fXfXfXfXfXfXfXfXfXfXfXfXfXfXfXfXfXfXfXfXfXfXfXfXfXfXfXfXfXfXfXfXfXfXfXfXw w w w a C D S W /.!.!.!.!.^.E.f.&./ fXfXfXfXfXfXfXfXfX",
"fXfXfXfXfXfXfXfXfXfXfXfXfXfXfXfXfXfXfXfXfXfXfXfXfXfXfXfXfXfXfXfXfXw w w w w w w w d V F E a.p.p.p.p.i.'.@Xv.~ fXfXfXfXfXfXfXfXfX",
"fXfXfXfXfXfXfXfXfXfXfXfXfXfXfXfXfXfXfXfXfXfXfXfXfXfXfXfXfXfXfXfXfXw w w w w w w w q f F R t.t.t.t.t.r.F.4Xc.~ fXfXfXfXfXfXfXfXfX"
};
