/* XPM */
static char *result[] = {
/* columns rows colors chars-per-pixel */
"64 64 142 2 ",
"   c #1C121C",
".  c #1F131D",
"X  c #1F141D",
"o  c #1A1B1B",
"O  c #1B1B1B",
"+  c #1D1B1B",
"@  c gray11",
"#  c #221B1C",
"$  c #261B1D",
"%  c #2E1B1F",
"&  c #311B1F",
"*  c #341C1F",
"=  c #331C20",
"-  c #351D20",
";  c #381F21",
":  c #391F21",
">  c #3A1F21",
",  c #222222",
"<  c #232323",
"1  c #252525",
"2  c #252527",
"3  c #252627",
"4  c #262627",
"5  c #262727",
"6  c #272727",
"7  c #282727",
"8  c #2B2A28",
"9  c #3D2022",
"0  c #302D27",
"q  c #302F29",
"w  c #343126",
"e  c #3E3727",
"r  c #3D3B2C",
"t  c #501C26",
"y  c #551C27",
"u  c #571C27",
"i  c #5C1C27",
"p  c #681D28",
"a  c #6C1D29",
"s  c #7A1E29",
"d  c #7D1E29",
"f  c #7E1E29",
"g  c #412223",
"h  c #442323",
"j  c #462424",
"k  c #592B27",
"l  c #5A2B27",
"z  c #5C2C28",
"x  c #5D2C28",
"c  c #493126",
"v  c #4A3527",
"b  c #403A27",
"n  c #585331",
"m  c #675625",
"M  c #686236",
"N  c #7C6730",
"B  c #7D7541",
"V  c #831E2B",
"C  c #861E2B",
"Z  c #871E2B",
"A  c #891E2B",
"S  c #8A1E2B",
"D  c #A48526",
"F  c #B98726",
"G  c #B79326",
"H  c #DD8B16",
"J  c #FFA210",
"K  c #FFA211",
"L  c #FFA012",
"P  c #FFA112",
"I  c #FFA113",
"U  c #FFA212",
"Y  c #FFA213",
"T  c #FFA214",
"R  c #FFA215",
"E  c #FEA216",
"W  c #FFA615",
"Q  c #FFA517",
"!  c #FFA717",
"~  c #FCA31B",
"^  c #FBA31C",
"/  c #FBA31D",
"(  c #FAA31E",
")  c #FAA31F",
"_  c #FFAA1B",
"`  c #CB9526",
"'  c #E5AA2B",
"]  c #F7A425",
"[  c #F6A427",
"{  c #F9A320",
"}  c #F5A429",
"|  c #F3A52F",
" . c #E5B525",
".. c #FFB929",
"X. c #FFBC2C",
"o. c #FFBD2C",
"O. c #F2A530",
"+. c #FFC423",
"@. c #FFC728",
"#. c #FBC52C",
"$. c #FBC72D",
"%. c #FFCC2B",
"&. c #FFCD2B",
"*. c #FCCD30",
"=. c #CEBE4C",
"-. c #DEAA5A",
";. c #E7A847",
":. c #E7A848",
">. c #E2A952",
",. c #E2BF5C",
"<. c #D5AC6E",
"1. c #D4AC6F",
"2. c #C2A473",
"3. c #CEAE7C",
"4. c #D4AC70",
"5. c #C2B27C",
"6. c #D4B172",
"7. c #D1B079",
"8. c #D4BD79",
"9. c #E8D34C",
"0. c #E9D34D",
"q. c #FFDE4A",
"w. c #FFE751",
"e. c #FFE851",
"r. c #DEC064",
"t. c #BDB2A1",
"y. c #BDB2A2",
"u. c #BCB2A3",
"i. c #BBB2A5",
"p. c #B7B6AE",
"a. c #B9B3AA",
"s. c #B5B4B1",
"d. c #B4B4B3",
"f. c #B3B4B5",
"g. c #B2B4B7",
"h. c #B4B4B4",
"j. c #B4B4B5",
"k. c #B2B4B8",
"l. c #CCAE80",
"z. c #C5B090",
"x. c #C4B091",
"c. c None",
/* pixels */
"c.c.c.c.c.c.c.c.c.c.c.c.c.c.c.c.c.c.c.c.c.c.c.c.c.c.c.c.c.c.c.c.c.c.c.c.c.c.c.c.c.c.c.c.c.c.c.c.c.c.c.c.c.c.c.c.c.c.c.c.c.c.c.c.",
"c.c.c.c.c.c.c.c.c.c.c.c.c.c.c.c.c.c.c.c.c.c.c.c.c.c.c.c.c.c.c.c.c.c.c.c.c.c.c.c.c.c.c.c.c.c.c.c.c.c.c.c.c.c.c.c.c.c.c.c.c.c.c.c.",
"c.c.c.O c.c.c.c.c.c.c.c.A c.c.c.c.c.c.c.c.c.c.c.c.c.c.c.c.c.c.c.c.c.c.c.c.c.c.c.c.c.c.c.c.c.c.c.c.c.c.c.c.c.c.c.c.c.c.c.c.c.c.c.",
"c.c.c.O c.c.c.c.c.c.c.c.A c.c.c.c.c.c.c.c.c.c.c.c.c.c.c.c.c.c.c.c.c.c.c.c.c.c.c.c.c.c.c.c.c.c.c.c.c.c.c.c.c.c.c.c.c.c.c.c.c.c.c.",
"c.c.c.c.c.c.c.c.c.c.c.c.c.c.c.c.c.c.c.c.c.6 6 c.c.c.c.c.c.c.c.c.c.c.c.c.c.c.c.c.c.c.c.c.c.c.c.c.c.c.c.c.c.c.c.c.c.c.c.c.c.c.c.c.",
"c.c.c.c.c.c.c.c.c.c.c.c.c.c.c.c.c.c.c.c.c.6 6 c.c.c.c.c.c.c.c.c.c.c.c.c.c.c.c.c.c.c.c.c.c.c.c.c.c.c.c.c.c.c.c.c.c.c.c.c.c.c.c.c.",
"c.c.c.c.c.c.c.c.c.c.c.c.c.c.c.c.c.c.c.c.c.c.c.c.c.c.c.c.c.c.c.c.c.c.c.c.c.c.c.c.c.c.c.c.c.c.c.c.c.c.c.c.c.c.c.c.c.c.c.c.c.c.c.c.",
"c.c.c.c.c.c.c.c.c.c.c.c.c.c.c.c.c.c.c.c.c.c.c.c.c.c.c.c.c.c.c.c.c.c.c.c.c.c.c.c.c.c.c.c.c.c.c.c.c.c.c.c.c.c.c.c.c.c.c.c.c.c.c.c.",
"c.c.c.c.c.c.c.O c.c.c.c.c.c.c.c.O O O c.c.c.c.c.c.c.c.c.c.c.c.c.c.c.c.c.c.c.c.c.c.c.c.c.c.c.c.c.c.c.c.c.c.c.c.c.c.c.c.c.c.c.c.c.",
"c.c.c.c.c.c.c.O c.c.c.c.c.c.c.c.+ O O c.c.c.c.c.c.c.c.c.c.c.c.c.c.c.c.c.c.c.c.c.c.c.c.c.c.c.c.c.c.c.c.c.c.c.c.c.c.c.c.c.c.c.c.c.",
"c.c.c.c.c.c.c.O c.c.c.c.c.A S s $ c.c.c.c.c.c.c.c.c.c.c.c.c.c.c.c.c.c.c.c.c.c.c.c.c.c.c.c.c.c.c.c.c.c.c.c.c.c.c.c.c.c.c.c.c.c.c.",
"c.c.c.c.c.c.c.O c.c.c.c.c.V C d * c.c.c.c.c.c.c.c.c.c.c.c.c.c.c.c.c.c.c.c.c.c.c.c.c.c.c.c.c.c.c.c.c.c.c.c.c.c.c.c.c.c.c.c.c.c.c.",
"c.c.c.c.c.c.c.c.c.c.c.c.c.i a Z f c.c.c.c.c.c.c.c.c.c.c.c.c.c.c.c.c.c.c.c.c.c.c.c.c.c.T c.c.c.c.c.c.c.c.c.c.c.c.c.c.c.c.c.c.c.c.",
"c.c.c.c.c.c.c.c.c.c.c.c.c.y p A S c.c.c.c.c.c.c.c.c.c.c.c.c.c.c.c.c.c.c.c.c.c.c.c.c.c.T c.c.c.c.c.c.c.c.c.c.c.c.c.c.c.c.c.c.c.c.",
"c.c.c.c.c.c.c.c.c.c.c.c.c.c.c.c.c.c.c.c.c.c.c.c.c.c.c.c.c.c.c.c.c.c.c.c.c.c.c.c.c.c.c.c.c.c.c.c.c.c.c.c.c.c.c.c.c.c.c.c.c.c.c.c.",
"c.c.c.c.c.c.c.c.c.c.c.c.c.c.c.c.c.c.c.c.c.c.c.c.c.c.c.c.c.c.c.c.c.c.c.c.c.c.c.c.c.c.c.c.c.c.c.c.c.c.c.c.c.c.c.c.c.c.c.c.c.c.c.c.",
"c.c.c.c.c.c.c.c.c.c.c.c.c.c.c.c.c.c.c.c.c.c.c.c.c.c.c.c.c.c.c.c.c.c.c.c.c.c.c.c.c.T T c.c.c.c.c.c.c.c.c.c.c.c.c.c.c.c.c.c.c.c.c.",
"c.c.c.c.c.c.c.c.c.c.c.c.c.c.c.c.c.c.c.c.c.c.c.c.c.c.c.c.c.c.c.c.c.c.c.c.c.c.c.c.c.T T c.c.c.c.c.c.c.c.c.c.c.c.c.c.c.c.c.c.c.c.c.",
"c.c.c.c.c.c.c.O c.c.c.c.O o & u c.c.c.c.c.c.c.c.c.c.c.c.c.c.c.c.c.c.c.c.c.T T T c.T T c.c.c.c.c.c.c.c.c.c.c.c.c.c.c.c.c.c.c.c.c.",
"c.c.c.c.c.c.c.O c.c.c.c.O o % t c.c.c.c.c.c.c.c.c.c.c.c.c.c.c.c.c.c.c.c.c.T T T c.T T c.c.c.c.c.c.c.c.c.c.c.c.c.c.c.c.c.c.c.c.c.",
"c.c.c.c.c.c.c.c.c.c.c.O O O + # c.c.c.c.c.c.c.c.c.c.c.c.c.c.c.c.c.c.c.c.c.c.c.T c.T T T c.T T T c.c.c.c.c.c.c.c.c.c.c.c.c.c.c.c.",
"c.c.c.c.c.c.c.c.c.c.c.O O @ @ o c.c.c.c.c.c.c.c.c.c.c.c.c.c.c.c.c.c.c.c.c.c.c.T c.T T T c.T T T c.c.c.c.c.c.c.c.c.c.c.c.c.c.c.c.",
"c.c.c.c.c.c.c.c.c.c.c.O O , 1 c.c.c.c.c.c.c.c.c.c.c.c.c.c.c.c.c.c.c.c.c.c.c.c.c.c.T T T T c.c.T c.c.c.c.c.c.c.c.c.c.c.c.c.c.c.c.",
"c.c.c.c.c.c.c.c.c.c.c.O O < 6 c.c.c.c.c.c.c.c.c.c.c.c.c.c.c.c.c.c.c.c.c.c.c.c.c.c.T T T T c.c.T c.c.c.c.c.c.c.c.c.c.c.c.c.c.c.c.",
"c.c.c.c.c.c.c.c.c.c.c.c.c.c.c.c.c.c.c.c.c.c.c.c.c.c.c.c.c.c.c.c.c.c.c.c.c.h.h.h.c.U T T T c.c.c.c.c.c.c.c.c.c.c.c.c.c.c.c.c.c.c.",
"c.c.c.c.c.c.c.c.c.c.c.c.c.c.c.c.c.c.c.c.c.c.c.c.c.c.c.c.c.c.c.c.c.c.c.c.c.h.h.h.c.^ T T T c.c.c.c.c.c.c.c.c.c.c.c.c.c.c.c.c.c.c.",
"c.c.c.c.c.c.c.c.c.c.c.c.c.c.c.c.c.c.c.c.c.c.c.c.c.c.c.c.c.c.c.c.c.c.c.c.c.j.h.h.d.:.U T c.c.c.h.h.c.c.c.c.c.c.c.c.c.c.c.c.c.c.c.",
"c.c.c.c.c.c.c.c.c.c.c.c.c.c.c.c.c.c.c.c.c.c.c.c.c.c.c.c.c.c.c.c.c.c.c.c.c.a.h.h.d.>.K T c.c.c.h.h.c.c.c.c.c.c.c.c.c.c.c.c.c.c.c.",
"c.c.c.c.c.c.c.c.c.c.c.c.c.c.c.c.c.c.c.c.c.c.c.c.c.c.c.c.c.c.c.c.c.c.c.c.R l.g.h.h.c.c.c.c.h.h.h.h.c.c.c.c.c.c.c.c.c.c.c.c.c.c.c.",
"c.c.c.c.c.c.c.c.c.c.c.c.c.c.c.c.c.c.c.c.c.c.c.c.c.c.c.c.c.c.c.c.c.c.c.c.R <.a.h.h.c.c.c.c.h.h.h.h.c.c.c.c.c.c.c.c.c.c.c.c.c.c.c.",
"c.c.c.c.c.c.c.c.c.c.c.c.c.c.c.c.c.c.c.c.c.c.c.c.c.c.c.c.c.c.c.c.c.c.c.c.T { | c.h.c.c.c.c.h.h.h.c./ Y c.c.c.c.c.c.c.c.c.c.c.c.c.",
"c.c.c.c.c.c.c.c.c.c.c.c.c.c.c.c.c.c.c.c.c.c.c.c.c.c.c.c.c.c.c.c.c.c.c.c.T Y J c.h.c.c.c.c.h.h.h.c.U T c.c.c.c.c.c.c.c.c.c.c.c.c.",
"c.c.c.c.c.c.c.c.  c.c.c.c.c.c.c.c.: : c.c.c.c.c.c.c.c.c.c.c.c.c.c.T T c.c.c.c.c.c.) Y c.c.c.c.c.c.T T c.c.c.c.c.c.c.c.c.c.c.c.c.",
"c.c.c.c.c.c.c.c.X c.c.c.c.c.c.c.c.: : c.c.c.c.c.c.c.c.c.c.c.c.c.c.T T c.c.c.c.c.c.Y T c.c.c.c.c.c.T T c.c.c.c.c.c.c.c.c.c.c.c.c.",
"c.c.c.c.c.c.c.X = c.c.c.c.c.c.c.c.c.c.c.c.c.c.c.c.c.c.c.c.c.c.c.c.T T c.c.c.c.c.c.T T T c.c.c.c.T T T c.c.c.c.c.c.c.c.c.c.c.c.c.",
"c.c.c.c.c.c.c.. - c.c.c.c.c.c.c.c.c.c.c.c.c.c.c.c.c.c.c.c.c.c.c.c.T T c.c.c.c.c.c.T T T c.c.c.c.T T T c.c.c.c.c.c.c.c.c.c.c.c.c.",
"c.c.c.c.c.c.c.  c.c.c.c.c.c.c.c.c.c.c.c.c.c.c.c.c.c.c.c.c.c.c.c.c.T T T c.c.c.c.c.Y T T T c.c.c.T T T c.c.c.c.c.c.c.c.c.c.c.c.c.",
"c.c.c.c.c.c.c.  c.c.c.c.c.c.c.c.c.c.c.c.c.c.c.c.c.c.c.c.c.c.c.c.c.T T T c.c.c.c.c.( T T T c.c.c.T T T c.c.c.c.c.c.c.c.c.c.c.c.c.",
"c.c.c.c.c.c.c.c.c.c.c.c.c.c.c.c.c.c.c.c.c.c.c.c.c.c.c.c.c.c.c.c.c.T T T c.c.c.h.d.;.K T T c.c.c.c.c.c.c.c.c.c.c.c.c.c.c.c.c.c.c.",
"c.c.c.c.c.c.c.c.c.c.c.c.c.c.c.c.c.c.c.c.c.c.c.c.c.c.c.c.c.c.c.c.c.T T T c.c.c.h.d.-.( T T c.c.c.c.c.c.c.c.c.c.c.c.c.c.c.c.c.c.c.",
"c.c.c.c.c.c.c.c.c.c.c.c.c.c.c.c.c.: : c.c.c.c.c.c.c.c.c.c.c.c.c.c.T T c.c.c.c.h.h.a.1.R T T T c.c.c.c.c.c.c.c.c.c.c.c.c.c.c.c.c.",
"c.c.c.c.c.c.c.c.c.c.c.c.c.c.c.c.c.: : c.c.c.c.c.c.c.c.c.c.c.c.c.c.T T c.c.c.c.h.h.k.3.R T T T c.c.c.c.c.c.c.c.c.c.c.c.c.c.c.c.c.",
"c.c.c.c.c.c.c.c.c.c.c.c.c.c.c.c.c.c.c.c.c.c.c.c.c.c.c.c.c.c.c.c.c.c.c.c.c.c.c.f.h.k.3.R T T T c.c.c.c.c.c.c.c.c.c.c.c.c.c.c.c.c.",
"c.c.c.c.c.c.c.c.c.c.c.c.c.c.c.c.c.c.c.c.c.c.c.c.c.c.c.c.c.c.c.c.c.c.c.c.c.c.c.u.s.a.1.R T T T c.c.c.c.c.c.c.c.c.c.c.c.c.c.c.c.c.",
"c.c.c.c.c.c.c.c.c.c.c.c.c.c.c.c.c.c.c.c.c.c.c.c.c.c.c.c.c.c.c.c.c.c.c.T c.Y ~ } c.O.{ T T T T c.c.c.c.c.c.c.c.c.c.c.c.c.c.c.c.c.",
"c.c.c.c.c.c.c.c.c.c.c.c.c.c.c.c.c.c.c.c.c.c.c.c.c.c.c.c.c.c.c.c.c.c.c.T c.T T Y c.U Y T T T T c.c.c.c.c.c.c.c.c.c.c.c.c.c.c.c.c.",
"c.c.c.c.c.c.c.c.c.c.c.c.c.c.c.c.c.c.c.c.c.c.c.c.c.c.c.c.c.c.c.c.c.c.c.T T T T T c.c.c.T T T T c.c.c.c.c.c.c.c.c.c.c.c.c.c.c.c.c.",
"c.c.c.c.c.c.c.c.c.c.c.c.c.c.c.c.c.c.c.c.c.c.c.c.c.c.c.c.c.c.c.c.c.c.c.T T T T T c.c.c.T T T T c.c.c.c.c.c.c.c.c.c.c.c.c.c.c.c.c.",
"c.c.c.c.c.c.c.c.c.c.c.c.c.c.c.c.c.c.c.c.c.c.c.c.c.c.c.c.c.c.c.c.c.c.c.T T T T T T c.c.T T T T c.c.c.c.c.c.c.c.c.c.c.c.c.c.c.c.c.",
"c.c.c.c.c.c.c.c.c.c.c.c.c.c.c.c.c.c.c.c.c.c.c.c.c.c.c.c.c.c.c.c.c.c.c.T T T T T T c.c.T T T T c.c.c.c.c.c.c.c.c.c.c.c.c.c.c.c.c.",
"c.c.c.c.c.c.c.c.c.c.c.c.c.c.c.c.c.c.c.c.c.c.c.c.c.c.c.c.c.c.c.c.c.c.c.T T T T T T T T T T c.c.c.c.c.c.c.c.c.c.c.c.c.c.c.c.c.c.c.",
"c.c.c.c.c.c.c.c.c.c.c.c.c.c.c.c.c.c.c.c.c.c.c.c.c.c.c.c.c.c.c.c.c.c.c.T T T T T T T T T T c.c.c.c.c.c.c.c.c.c.c.c.c.c.c.c.c.c.c.",
"c.c.c.c.c.c.c.c.c.c.c.c.c.c.c.c.c.c.c.c.c.c.c.c.c.c.c.c.c.c.c.c.c.c.c.c.T T T T T Y Y Y T c.c.c.c.c.c.c.c.c.c.c.c.c.c.c.c.c.c.c.",
"c.c.c.c.c.c.c.c.c.c.c.c.c.c.c.c.c.c.c.c.c.c.c.c.c.c.c.c.c.c.c.c.c.c.c.c.T T T T T { [ ] E c.c.c.c.c.c.c.c.c.c.c.c.c.c.c.c.c.c.c.",
"c.c.c.c.c.c.c.c.c.c.c.c.c.c.c.c.c.c.c.c.c.c.c.c.c.c.c.c.c.c.c.c.c.c.c.c.c.T T I T 4.i.z.] c.c.c.c.c.c.c.c.c.c.c.c.c.c.c.c.c.c.c.",
"c.c.c.c.c.c.c.c.c.c.c.c.c.c.c.c.c.c.c.c.c.c.c.c.c.c.c.c.c.c.c.c.c.c.c.c.c.T Q _ ! 6.p.y.[ c.c.c.c.c.c.c.c.c.c.c.c.c.c.c.c.c.c.c.",
"c.c.c.c.c.c.c.c.c.c.c.c.c.c.c.c.c.c.c.c.c.c.c.c.c.c.c.c.c.c.c.c.c.c.c.c.c.L ..q.@.#.r.t.[ c.c.c.c.c.c.c.c.c.c.c.c.c.c.c.c.c.c.c.",
"c.c.c.c.c.c.c.c.c.c.c.c.c.c.c.c.c.c.c.c.c.c.c.c.c.c.c.c.c.c.c.c.c.c.c.c.c.L X.w.&.$.,.x.[ c.c.c.c.c.c.c.c.c.c.c.c.c.c.c.c.c.c.c.",
"c.c.c.c.c.c.c.c.c.c.c.c.c.c.c.c.c.c.c.c.c.c.c.c.c.c.c.c.c.c.c.c.c.c.c.c.c.P o.e.%.8.7.[ c.c.c.c.c.c.c.c.c.c.c.c.c.c.c.c.c.c.c.c.",
"c.c.c.c.c.c.c.c.c.c.c.c.c.c.c.c.c.c.c.c.c.c.c.c.c.c.c.c.c.c.c.c.c.c.c.c.c.H ' 9.*.5.2.W c.c.c.c.c.c.c.c.c.c.c.c.c.c.c.c.c.c.c.c.",
"c.c.c.c.c.c.c.c.c.c.c.c.c.c.c.c.c.c.c.c.c.c.c.c.c.c.c.c.c.c.c.: : ; j x x c e n 0.B N +.c.c.c.c.c.c.c.c.c.c.c.c.c.c.c.c.c.c.c.c.",
"c.c.c.c.c.c.c.c.c.c.c.c.c.c.c.c.c.c.c.c.c.c.c.c.c.c.c.c.c.c.c.: : ; h k z v w r =.M m  .c.c.c.c.c.c.c.c.c.c.c.c.c.c.c.c.c.c.c.c.",
"c.c.c.c.c.c.c.c.c.c.c.c.c.c.c.c.c.c.c.c.c.c.c.c.c.c.c.c.: : : : : : > g l F D 8 r q 0 b c.c.c.c.c.c.c.c.c.c.c.c.c.c.c.c.c.c.c.c.",
"c.c.c.c.c.c.c.c.c.c.c.c.c.c.c.c.c.c.c.c.c.c.c.c.c.c.c.c.: : : : : : : 9 k ` G 7 2 4 5 3 c.c.c.c.c.c.c.c.c.c.c.c.c.c.c.c.c.c.c.c."
};
