/* XPM */
static char *result[] = {
/* columns rows colors chars-per-pixel */
"64 64 92 1 ",
"  c #1A1B1B",
". c #1B1B1B",
"X c #1F1B1C",
"o c #221B1C",
"O c #351F20",
"+ c #381F21",
"@ c #391F21",
"# c #3A1F21",
"$ c #222326",
"% c #232427",
"& c #252527",
"* c #252627",
"= c #262627",
"- c #262727",
"; c #272727",
": c #2A2A28",
"> c #3D2022",
", c #392827",
"< c #3A2927",
"1 c #302F29",
"2 c #3F3827",
"3 c #3C3A2C",
"4 c #3D3B2C",
"5 c #373430",
"6 c #412223",
"7 c #442323",
"8 c #462424",
"9 c #582A27",
"0 c #592B27",
"q c #5C2C28",
"w c #5D2C28",
"e c #413625",
"r c #4A3226",
"t c #585331",
"y c #6B6536",
"u c #891E2B",
"i c #807841",
"p c #DD8B16",
"a c #E69316",
"s c #FFA211",
"d c #FFA012",
"f c #FFA112",
"g c #FFA113",
"h c #FFA212",
"j c #FFA213",
"k c #FFA214",
"l c #FEA217",
"z c #FFA717",
"x c #FBA31C",
"c c #FAA31E",
"v c #FFAA1B",
"b c #E5AA2B",
"n c #F7A425",
"m c #F6A427",
"M c #F8A527",
"N c #FFBB2B",
"B c #FFBC2C",
"V c #FFBD2C",
"C c #F2A530",
"Z c #FFC728",
"A c #FBC52C",
"S c #FBC72D",
"D c #FFCC2B",
"F c #FFCD2B",
"G c #FCCD30",
"H c #B99D73",
"J c #CEBE4C",
"K c #E7A848",
"L c #E2A952",
"P c #E2BF5C",
"I c #DEBF63",
"U c #D2AC74",
"Y c #C2B27C",
"T c #D4B171",
"R c #D2B179",
"E c #D4BD79",
"W c #E8D34C",
"Q c #E9D34D",
"! c #FFDE4A",
"~ c #FFE751",
"^ c #FFE851",
"/ c #BDB2A1",
"( c #B7B3AD",
") c #B9B3A9",
"_ c #B8B3AA",
"` c #B8B6AC",
"' c #B5B4B1",
"] c #B4B4B3",
"[ c #B3B4B5",
"{ c #B4B4B4",
"} c #B4B4B5",
"| c None",
/* pixels */
"||||||||||||||||||||||||||||||||||||||||||||||||||||||||||||||||",
"||||||||||||||||||||||||||||||||||||||||||||||||||||||||||||||||",
"||||||||||||||||||||||||||||||||||||||||||||||||||||||||||||||||",
"||||||||||||||||||||||||||||||||||||||||||||||||||||||||||||||||",
"|||||..|||||| .|||||||||||||||||||||||||||||||||||||||||||||||||",
"|||||..||||||o.|||||||||||||||||||||||||||||||||||||||||||||||||",
"|||||||||||uu|||||||||||||||||||||||||||||||||||||||||||||||||||",
"|||||||||||uu|||||||||||||||||||||||||||||||||||||||||||||||||||",
"||||||||||||||||||||||||||||||||||||||||||||||||||||||||||||||||",
"||||||||||||||||||||||||||||||||||||||||||||||||||||||||||||||||",
"||||||||||||||||||||||||||||||||||||||||||||||||||||||||||||||||",
"||||||||||||||||||||||||||||||||||||||||||||||||||||||||||||||||",
"||||||||||||||||||||||||||||||||||||||||||||||||||||||||||||||||",
"||||||||||||||||||||||||||||||||||||||||||||||||||||||||||||||||",
"|||||||||...|||||||||||||||||||||||||||||||k||||||||||||||||||||",
"|||||||||...|||||||||||||||||||||||||||||||k||||||||||||||||||||",
"||||||||...||||||||||||||||||||||||||||j|||k||||||||||||||||||||",
"||||||||...||||||||||||||||||||||||||||m|||k||||||||||||||||||||",
"|||||||||||||||||||||||||||||||||||||}(/|||kkks|{|||||||||||||||",
"|||||||||||||||||||||||||||||||||||||{{[|||kkkx|{|||||||||||||||",
"|||||||||||||||||||||||||||||||||||||{{{|||kkhK]{|||||||||||||||",
"|||||||||||||||||||||||||||||||||||||{{{|||kksL]{|||||||||||||||",
"|||||||||||||||||||||||||||||||||||||}{{||||k||{{|||||||||||||||",
"|||||||||||||||||||||||||||||||||||||){{||||k||{{|||||||||||||||",
"||||||||||||||||||||||||||||||||||||k|||||||||||||||||||||||||||",
"||||||||||||||||||||||||||||||||||||k|||||||||||||||||||||||||||",
"|||||||||||||||||||||||||||||||||||||kk||||||||||kk|||||||||||||",
"|||||||||||||||||||||||||||||||||||||kk||||||||||kk|||||||||||||",
"||||.|||||||||||||||||||||||||||||||||||||||||||kkk|||||||||||||",
"||||X|||||||||||||||||||||||||||||||||||||||||||kkk|||||||||||||",
"||||O||||||||||||||||||||||||||||kk||||||||k||||kkk|||||||||||||",
"||||@||||||||||||||||||||||||||||kk||||||||k||||kkk|||||||||||||",
"|||||||||||||||||||||||||||||||||kkk|||||||k||||||||||||||||||||",
"|||||||||||||||||||||||||||||||||kkk|||||||k||||||||||||||||||||",
"|||||||||||||||||||||||||||||||||kk||||{{||k||||||||||||||||||||",
"|||||||||||||||||||||||||||||||||kk||||{{||k||||||||||||||||||||",
"|||||||||||||||||||||||||||||||||||||||{]Lskk|||||||||||||||||||",
"|||||||||||||||||||||||||||||||||||||||{]Khkk|||||||||||||||||||",
"|||||||||||||||||||||||||||||||||||||||||ckkkkk|||||||||||||||||",
"|||||||||||||||||||||||||||||||||||||||||jkkkkk|||||||||||||||||",
"|||||||||||||||||||||||||||||||||||||||k|kkkkkk|||||||||||||||||",
"|||||||||||||||||||||||||||||||||||||||k|kkkkkk|||||||||||||||||",
"|||||||||||||||||||||||||||||||||||kk||kk||kkkk|||||||||||||||||",
"|||||||||||||||||||||||||||||||||||kk||kk||kkkk|||||||||||||||||",
"|||||||||||||||||||||||||||||||||||kk||||||kk|||||||||||||||||||",
"|||||||||||||||||||||||||||||||||||kk||||||kk|||||||||||||||||||",
"|||||||||||||||||||||||||||||||||||kkkkk||||||||||||||||||||||||",
"|||||||||||||||||||||||||||||||||||kkkkk||||||||||||||||||||||||",
"|||||||||||||||||||||||||||||||||||kkkkk|||kk|||||||||||||||||||",
"|||||||||||||||||||||||||||||||||||kkkkk|||kk|||||||||||||||||||",
"||||||||||||||||||||||||||||||||||||kkkk|||kk|||||||||||||||||||",
"||||||||||||||||||||||||||||||||||||kkkk|||kk|||||||||||||||||||",
"|||||||||||||||||||||||||||||||||||||kkk|jh|k|||||||||||||||||||",
"|||||||||||||||||||||||||||||||||||||kkk|nC|l|||||||||||||||||||",
"|||||||||||||||||||||||||||||||||||||||gkU_'||||||||||||||||||||",
"|||||||||||||||||||||||||||||||||||||||vzT`{||||||||||||||||||||",
"|||||||||||||||||||||||||||||||||||||dN!ZAI}||||||||||||||||||||",
"|||||||||||||||||||||||||||||||||||||dB~FSP/||||||||||||||||||||",
"|||||||||||||||||||||||||||||||||||||fV^DERM||||||||||||||||||||",
"|||||||||||||||||||||||||||||||||||||pbWGYHa||||||||||||||||||||",
"|||||||||||||||||||||||||||||||@@+8wwr2tQi5e||||||||||||||||||||",
"|||||||||||||||||||||||||||||||@@+70q,%3Jy$*||||||||||||||||||||",
"||||||||||||||||||||||||||||@@@@@@#60<-:41;;||||||||||||||||||||",
"||||||||||||||||||||||||||||@@@@@@@>9<-;&=;;||||||||||||||||||||"
};
